<?xml version="1.0" encoding="UTF-8"?>
<svg width="123px" height="386px" viewBox="0 0 123 386" version="1.1" xmlns="http://www.w3.org/2000/svg" xmlns:xlink="http://www.w3.org/1999/xlink">
    <title>Group 3</title>
    <g id="DESIGN---Web" stroke="none" stroke-width="1" fill="none" fill-rule="evenodd" opacity="0.201846168">
        <g id="best-pozicka.sk---Mobile-Design---O-BestPôžičke" transform="translate(-291.000000, -2017.000000)" stroke="#FFFFFF" stroke-width="2">
            <g id="Group-2" transform="translate(-18.000000, 2018.000000)">
                <g id="Group-3" transform="translate(310.000000, 0.000000)">
                    <path d="M139.5,0.0937673251 C139.5,31.1958653 114.378103,56.5 83.5,56.5 L83.5,33.5567973 C101.818806,33.5567973 116.722032,18.5454612 116.722032,0.0937673251 C116.722032,-0.10332351 116.71873,-0.302909165 116.716253,-0.5 L139.495046,-0.5 C139.5,-0.302909165 139.5,-0.10332351 139.5,0.0937673251" id="Fill-81-Copy-3" transform="translate(111.500000, 28.000000) rotate(-270.000000) translate(-111.500000, -28.000000) "></path>
                    <path d="M56.5,0.0937673251 C56.5,31.1958653 31.3781034,56.5 0.5,56.5 L0.5,33.5567973 C18.8188064,33.5567973 33.7220322,18.5454612 33.7220322,0.0937673251 C33.7220322,-0.10332351 33.7187297,-0.302909165 33.7162529,-0.5 L56.4942207,-0.5 C56.5,-0.302909165 56.5,-0.10332351 56.5,0.0937673251" id="Fill-83-Copy-3" transform="translate(28.500000, 28.000000) rotate(-270.000000) translate(-28.500000, -28.000000) "></path>
                    <path d="M83.5,137.906233 C83.5,106.804135 108.621897,81.5 139.5,81.5 L139.5,104.443203 C121.182019,104.443203 106.277968,119.454539 106.277968,137.906233 C106.277968,138.103324 106.28127,138.302909 106.283747,138.5 L83.5057793,138.5 C83.5,138.302909 83.5,138.103324 83.5,137.906233" id="Fill-85-Copy-3" transform="translate(111.500000, 110.000000) rotate(-270.000000) translate(-111.500000, -110.000000) "></path>
                    <path d="M0.5,137.906233 C0.5,106.804135 25.6218966,81.5 56.5,81.5 L56.5,104.443203 C38.1811936,104.443203 23.2779678,119.454539 23.2779678,137.906233 C23.2779678,138.103324 23.2812703,138.302909 23.2837471,138.5 L0.505779324,138.5 C0.5,138.302909 0.5,138.103324 0.5,137.906233" id="Fill-87-Copy-3" transform="translate(28.500000, 110.000000) rotate(-270.000000) translate(-28.500000, -110.000000) "></path>
                    <path d="M139.5,164.093767 C139.5,195.195865 114.378103,220.5 83.5,220.5 L83.5,197.556797 C101.818806,197.556797 116.722032,182.545461 116.722032,164.093767 C116.722032,163.896676 116.71873,163.697091 116.716253,163.5 L139.495046,163.5 C139.5,163.697091 139.5,163.896676 139.5,164.093767" id="Fill-90-Copy-3" transform="translate(111.500000, 192.000000) rotate(-270.000000) translate(-111.500000, -192.000000) "></path>
                    <path d="M56.5,164.093767 C56.5,195.195865 31.3781034,220.5 0.5,220.5 L0.5,197.556797 C18.8188064,197.556797 33.7220322,182.545461 33.7220322,164.093767 C33.7220322,163.896676 33.7187297,163.697091 33.7162529,163.5 L56.4950463,163.5 C56.5,163.697091 56.5,163.896676 56.5,164.093767" id="Fill-92-Copy-3" transform="translate(28.500000, 192.000000) rotate(-270.000000) translate(-28.500000, -192.000000) "></path>
                    <path d="M83.5,301.906233 C83.5,270.804135 108.621897,245.5 139.5,245.5 L139.5,268.443203 C121.182019,268.443203 106.277968,283.454539 106.277968,301.906233 C106.277968,302.103324 106.28127,302.302909 106.283747,302.5 L83.5057793,302.5 C83.5,302.302909 83.5,302.103324 83.5,301.906233" id="Fill-94-Copy-3" transform="translate(111.500000, 274.000000) rotate(-270.000000) translate(-111.500000, -274.000000) "></path>
                    <path d="M0.5,301.906233 C0.5,270.804135 25.6218966,245.5 56.5,245.5 L56.5,268.443203 C38.1811936,268.443203 23.2779678,283.454539 23.2779678,301.906233 C23.2779678,302.103324 23.2812703,302.302909 23.2837471,302.5 L0.505779324,302.5 C0.5,302.302909 0.5,302.103324 0.5,301.906233" id="Fill-96-Copy-3" transform="translate(28.500000, 274.000000) rotate(-270.000000) translate(-28.500000, -274.000000) "></path>
                    <path d="M139.5,328.093767 C139.5,359.195865 114.378103,384.5 83.5,384.5 L83.5,361.556797 C101.817981,361.556797 116.722032,346.545461 116.722032,328.093767 C116.722032,327.896676 116.71873,327.697091 116.716253,327.5 L139.494221,327.5 C139.5,327.697091 139.5,327.896676 139.5,328.093767" id="Fill-115-Copy-3" transform="translate(111.500000, 356.000000) rotate(-270.000000) translate(-111.500000, -356.000000) "></path>
                    <path d="M56.5,328.093767 C56.5,359.195865 31.3781034,384.5 0.5,384.5 L0.5,361.556797 C18.8179808,361.556797 33.7220322,346.545461 33.7220322,328.093767 C33.7220322,327.896676 33.7187297,327.697091 33.7162529,327.5 L56.4942207,327.5 C56.5,327.697091 56.5,327.896676 56.5,328.093767" id="Fill-117-Copy-3" transform="translate(28.500000, 356.000000) rotate(-270.000000) translate(-28.500000, -356.000000) "></path>
                </g>
            </g>
        </g>
    </g>
</svg>