<?xml version="1.0" encoding="UTF-8"?>
<svg width="368px" height="610px" viewBox="0 0 368 610" version="1.1" xmlns="http://www.w3.org/2000/svg" xmlns:xlink="http://www.w3.org/1999/xlink">
    <title>Group</title>
    <g id="DESIGN---Web" stroke="none" stroke-width="1" fill="none" fill-rule="evenodd" opacity="0.203636533">
        <g id="best-pozicka.sk---Mobile-Design---O-BestPôžičke" transform="translate(-23.000000, -537.000000)" stroke="#FFFFFF" stroke-width="2">
            <g id="Group" transform="translate(24.000000, 538.000000)">
                <path d="M0,133.427067 C0,103.41627 24.224686,79 54,79 L54,101.138178 C36.3354367,101.138178 21.964469,115.622801 21.964469,133.427067 C21.964469,133.617242 21.9676535,133.809825 21.9700419,134 L0.00557291974,134 C0,133.809825 0,133.617242 0,133.427067" id="Fill-79-Copy-3"></path>
                <path d="M0,370.427067 C0,340.41627 24.224686,316 54,316 L54,338.138178 C36.3354367,338.138178 21.964469,352.622801 21.964469,370.427067 C21.964469,370.617242 21.9676535,370.809825 21.9700419,371 L0.00557291974,371 C0,370.809825 0,370.617242 0,370.427067" id="Fill-79-Copy-4"></path>
                <path d="M0,607.427067 C0,577.41627 24.224686,553 54,553 L54,575.138178 C36.3354367,575.138178 21.964469,589.622801 21.964469,607.427067 C21.964469,607.617242 21.9676535,607.809825 21.9700419,608 L0.00557291974,608 C0,607.809825 0,607.617242 0,607.427067" id="Fill-79-Copy-7"></path>
                <path d="M0,54.4270666 C0,24.4162703 24.224686,0 54,0 L54,22.1381781 C36.3354367,22.1381781 21.964469,36.6228006 21.964469,54.4270666 C21.964469,54.617242 21.9676535,54.8098246 21.9700419,55 L0.00557291974,55 C0,54.8098246 0,54.617242 0,54.4270666" id="Fill-79-Copy-5"></path>
                <path d="M0,291.427067 C0,261.41627 24.224686,237 54,237 L54,259.138178 C36.3354367,259.138178 21.964469,273.622801 21.964469,291.427067 C21.964469,291.617242 21.9676535,291.809825 21.9700419,292 L0.00557291974,292 C0,291.809825 0,291.617242 0,291.427067" id="Fill-79-Copy-6"></path>
                <path d="M0,528.427067 C0,498.41627 24.224686,474 54,474 L54,496.138178 C36.3354367,496.138178 21.964469,510.622801 21.964469,528.427067 C21.964469,528.617242 21.9676535,528.809825 21.9700419,529 L0.00557291974,529 C0,528.809825 0,528.617242 0,528.427067" id="Fill-79-Copy-8"></path>
                <path d="M0,212.427067 C0,182.41627 24.224686,158 54,158 L54,180.138178 C36.3362328,180.138178 21.964469,194.622801 21.964469,212.427067 C21.964469,212.617242 21.9676535,212.809825 21.9700419,213 L0.00557291974,213 C0,212.809825 0,212.617242 0,212.427067" id="Fill-94-Copy-3"></path>
                <path d="M0,449.427067 C0,419.41627 24.224686,395 54,395 L54,417.138178 C36.3362328,417.138178 21.964469,431.622801 21.964469,449.427067 C21.964469,449.617242 21.9676535,449.809825 21.9700419,450 L0.00557291974,450 C0,449.809825 0,449.617242 0,449.427067" id="Fill-94-Copy-4"></path>
                <path d="M132,79.5729334 C132,109.58373 107.775314,134 78,134 L78,111.861822 C95.6637672,111.861822 110.035531,97.3771994 110.035531,79.5729334 C110.035531,79.382758 110.032347,79.1901754 110.029958,79 L131.994427,79 C132,79.1901754 132,79.382758 132,79.5729334" id="Fill-101-Copy-3"></path>
                <path d="M132,316.572933 C132,346.58373 107.775314,371 78,371 L78,348.861822 C95.6637672,348.861822 110.035531,334.377199 110.035531,316.572933 C110.035531,316.382758 110.032347,316.190175 110.029958,316 L131.994427,316 C132,316.190175 132,316.382758 132,316.572933" id="Fill-101-Copy-4"></path>
                <path d="M132,553.572933 C132,583.58373 107.775314,608 78,608 L78,585.861822 C95.6637672,585.861822 110.035531,571.377199 110.035531,553.572933 C110.035531,553.382758 110.032347,553.190175 110.029958,553 L131.994427,553 C132,553.190175 132,553.382758 132,553.572933" id="Fill-101-Copy-5"></path>
                <path d="M132,0.572933384 C132,30.5837297 107.775314,55 78,55 L78,32.8618219 C95.6637672,32.8618219 110.035531,18.3771994 110.035531,0.572933384 C110.035531,0.382758017 110.032347,0.190175367 110.029958,0 L131.994427,0 C132,0.190175367 132,0.382758017 132,0.572933384" id="Fill-101-Copy-6"></path>
                <path d="M132,237.572933 C132,267.58373 107.775314,292 78,292 L78,269.861822 C95.6637672,269.861822 110.035531,255.377199 110.035531,237.572933 C110.035531,237.382758 110.032347,237.190175 110.029958,237 L131.994427,237 C132,237.190175 132,237.382758 132,237.572933" id="Fill-101-Copy-7"></path>
                <path d="M132,474.572933 C132,504.58373 107.775314,529 78,529 L78,506.861822 C95.6637672,506.861822 110.035531,492.377199 110.035531,474.572933 C110.035531,474.382758 110.032347,474.190175 110.029958,474 L131.994427,474 C132,474.190175 132,474.382758 132,474.572933" id="Fill-101-Copy-8"></path>
                <path d="M156,133.427067 C156,103.41627 180.224686,79 210,79 L210,101.138178 C192.336233,101.138178 177.964469,115.622801 177.964469,133.427067 C177.964469,133.617242 177.967653,133.809825 177.970042,134 L156.005573,134 C156,133.809825 156,133.617242 156,133.427067" id="Fill-105-Copy-3"></path>
                <path d="M156,370.427067 C156,340.41627 180.224686,316 210,316 L210,338.138178 C192.336233,338.138178 177.964469,352.622801 177.964469,370.427067 C177.964469,370.617242 177.967653,370.809825 177.970042,371 L156.005573,371 C156,370.809825 156,370.617242 156,370.427067" id="Fill-105-Copy-4"></path>
                <path d="M156,607.427067 C156,577.41627 180.224686,553 210,553 L210,575.138178 C192.336233,575.138178 177.964469,589.622801 177.964469,607.427067 C177.964469,607.617242 177.967653,607.809825 177.970042,608 L156.005573,608 C156,607.809825 156,607.617242 156,607.427067" id="Fill-105-Copy-5"></path>
                <path d="M156,54.4270666 C156,24.4162703 180.224686,0 210,0 L210,22.1381781 C192.336233,22.1381781 177.964469,36.6228006 177.964469,54.4270666 C177.964469,54.617242 177.967653,54.8098246 177.970042,55 L156.005573,55 C156,54.8098246 156,54.617242 156,54.4270666" id="Fill-105-Copy-6"></path>
                <path d="M156,291.427067 C156,261.41627 180.224686,237 210,237 L210,259.138178 C192.336233,259.138178 177.964469,273.622801 177.964469,291.427067 C177.964469,291.617242 177.967653,291.809825 177.970042,292 L156.005573,292 C156,291.809825 156,291.617242 156,291.427067" id="Fill-105-Copy-7"></path>
                <path d="M156,528.427067 C156,498.41627 180.224686,474 210,474 L210,496.138178 C192.336233,496.138178 177.964469,510.622801 177.964469,528.427067 C177.964469,528.617242 177.967653,528.809825 177.970042,529 L156.005573,529 C156,528.809825 156,528.617242 156,528.427067" id="Fill-105-Copy-8"></path>
                <path d="M288,79.5729334 C288,109.58373 263.775314,134 234,134 L234,111.861822 C251.664563,111.861822 266.035531,97.3771994 266.035531,79.5729334 C266.035531,79.382758 266.032347,79.1901754 266.029958,79 L287.995223,79 C288,79.1901754 288,79.382758 288,79.5729334" id="Fill-109-Copy-3"></path>
                <path d="M288,316.572933 C288,346.58373 263.775314,371 234,371 L234,348.861822 C251.664563,348.861822 266.035531,334.377199 266.035531,316.572933 C266.035531,316.382758 266.032347,316.190175 266.029958,316 L287.995223,316 C288,316.190175 288,316.382758 288,316.572933" id="Fill-109-Copy-4"></path>
                <path d="M288,553.572933 C288,583.58373 263.775314,608 234,608 L234,585.861822 C251.664563,585.861822 266.035531,571.377199 266.035531,553.572933 C266.035531,553.382758 266.032347,553.190175 266.029958,553 L287.995223,553 C288,553.190175 288,553.382758 288,553.572933" id="Fill-109-Copy-5"></path>
                <path d="M288,0.572933384 C288,30.5837297 263.775314,55 234,55 L234,32.8618219 C251.664563,32.8618219 266.035531,18.3771994 266.035531,0.572933384 C266.035531,0.382758017 266.032347,0.190175367 266.029958,0 L287.995223,0 C288,0.190175367 288,0.382758017 288,0.572933384" id="Fill-109-Copy-6"></path>
                <path d="M288,237.572933 C288,267.58373 263.775314,292 234,292 L234,269.861822 C251.664563,269.861822 266.035531,255.377199 266.035531,237.572933 C266.035531,237.382758 266.032347,237.190175 266.029958,237 L287.995223,237 C288,237.190175 288,237.382758 288,237.572933" id="Fill-109-Copy-7"></path>
                <path d="M288,474.572933 C288,504.58373 263.775314,529 234,529 L234,506.861822 C251.664563,506.861822 266.035531,492.377199 266.035531,474.572933 C266.035531,474.382758 266.032347,474.190175 266.029958,474 L287.995223,474 C288,474.190175 288,474.382758 288,474.572933" id="Fill-109-Copy-8"></path>
                <path d="M312,133.427067 C312,103.41627 336.224686,79 366,79 L366,101.138178 C348.335437,101.138178 333.964469,115.622801 333.964469,133.427067 C333.964469,133.617242 333.967653,133.809825 333.970042,134 L312.004777,134 C312,133.809825 312,133.617242 312,133.427067" id="Fill-113-Copy-3"></path>
                <path d="M312,370.427067 C312,340.41627 336.224686,316 366,316 L366,338.138178 C348.335437,338.138178 333.964469,352.622801 333.964469,370.427067 C333.964469,370.617242 333.967653,370.809825 333.970042,371 L312.004777,371 C312,370.809825 312,370.617242 312,370.427067" id="Fill-113-Copy-4"></path>
                <path d="M312,607.427067 C312,577.41627 336.224686,553 366,553 L366,575.138178 C348.335437,575.138178 333.964469,589.622801 333.964469,607.427067 C333.964469,607.617242 333.967653,607.809825 333.970042,608 L312.004777,608 C312,607.809825 312,607.617242 312,607.427067" id="Fill-113-Copy-5"></path>
                <path d="M312,54.4270666 C312,24.4162703 336.224686,0 366,0 L366,22.1381781 C348.335437,22.1381781 333.964469,36.6228006 333.964469,54.4270666 C333.964469,54.617242 333.967653,54.8098246 333.970042,55 L312.004777,55 C312,54.8098246 312,54.617242 312,54.4270666" id="Fill-113-Copy-6"></path>
                <path d="M312,291.427067 C312,261.41627 336.224686,237 366,237 L366,259.138178 C348.335437,259.138178 333.964469,273.622801 333.964469,291.427067 C333.964469,291.617242 333.967653,291.809825 333.970042,292 L312.004777,292 C312,291.809825 312,291.617242 312,291.427067" id="Fill-113-Copy-7"></path>
                <path d="M312,528.427067 C312,498.41627 336.224686,474 366,474 L366,496.138178 C348.335437,496.138178 333.964469,510.622801 333.964469,528.427067 C333.964469,528.617242 333.967653,528.809825 333.970042,529 L312.004777,529 C312,528.809825 312,528.617242 312,528.427067" id="Fill-113-Copy-8"></path>
                <path d="M132,158.572933 C132,188.58373 107.775314,213 78,213 L78,190.861822 C95.6637672,190.861822 110.035531,176.377199 110.035531,158.572933 C110.035531,158.382758 110.032347,158.190175 110.029958,158 L131.994427,158 C132,158.190175 132,158.382758 132,158.572933" id="Fill-115-Copy-3"></path>
                <path d="M132,395.572933 C132,425.58373 107.775314,450 78,450 L78,427.861822 C95.6637672,427.861822 110.035531,413.377199 110.035531,395.572933 C110.035531,395.382758 110.032347,395.190175 110.029958,395 L131.994427,395 C132,395.190175 132,395.382758 132,395.572933" id="Fill-115-Copy-4"></path>
                <path d="M156,212.427067 C156,182.41627 180.224686,158 210,158 L210,180.138178 C192.336233,180.138178 177.964469,194.622801 177.964469,212.427067 C177.964469,212.617242 177.967653,212.809825 177.970042,213 L156.005573,213 C156,212.809825 156,212.617242 156,212.427067" id="Fill-119-Copy-3"></path>
                <path d="M156,449.427067 C156,419.41627 180.224686,395 210,395 L210,417.138178 C192.336233,417.138178 177.964469,431.622801 177.964469,449.427067 C177.964469,449.617242 177.967653,449.809825 177.970042,450 L156.005573,450 C156,449.809825 156,449.617242 156,449.427067" id="Fill-119-Copy-4"></path>
                <path d="M288,158.572933 C288,188.58373 263.775314,213 234,213 L234,190.861822 C251.664563,190.861822 266.035531,176.377199 266.035531,158.572933 C266.035531,158.382758 266.032347,158.190175 266.029958,158 L287.995223,158 C288,158.190175 288,158.382758 288,158.572933" id="Fill-124-Copy-3"></path>
                <path d="M288,395.572933 C288,425.58373 263.775314,450 234,450 L234,427.861822 C251.664563,427.861822 266.035531,413.377199 266.035531,395.572933 C266.035531,395.382758 266.032347,395.190175 266.029958,395 L287.995223,395 C288,395.190175 288,395.382758 288,395.572933" id="Fill-124-Copy-4"></path>
                <path d="M312,212.427067 C312,182.41627 336.224686,158 366,158 L366,180.138178 C348.335437,180.138178 333.964469,194.622801 333.964469,212.427067 C333.964469,212.617242 333.967653,212.809825 333.970042,213 L312.004777,213 C312,212.809825 312,212.617242 312,212.427067" id="Fill-130-Copy-5"></path>
                <path d="M312,449.427067 C312,419.41627 336.224686,395 366,395 L366,417.138178 C348.335437,417.138178 333.964469,431.622801 333.964469,449.427067 C333.964469,449.617242 333.967653,449.809825 333.970042,450 L312.004777,450 C312,449.809825 312,449.617242 312,449.427067" id="Fill-130-Copy-6"></path>
            </g>
        </g>
    </g>
</svg>