<?xml version="1.0" standalone="no"?>
<!DOCTYPE svg PUBLIC "-//W3C//DTD SVG 20010904//EN"
 "http://www.w3.org/TR/2001/REC-SVG-20010904/DTD/svg10.dtd">
<svg version="1.0" xmlns="http://www.w3.org/2000/svg"
 width="379.000000pt" height="379.000000pt" viewBox="0 0 379.000000 379.000000"
 preserveAspectRatio="xMidYMid meet">
<metadata>
Created by potrace 1.14, written by Peter Selinger 2001-2017
</metadata>
<g transform="translate(0.000000,379.000000) scale(0.100000,-0.100000)"
fill="#000000" stroke="none">
<path d="M259 3486 c-2 -2 -40 -6 -84 -9 -44 -4 -82 -6 -84 -7 -4 0 4 -91 33
-370 8 -74 18 -164 21 -200 3 -36 8 -81 10 -100 3 -19 7 -59 10 -87 11 -109
15 -150 20 -208 6 -58 11 -102 20 -175 2 -19 7 -69 11 -110 3 -41 8 -78 11
-82 2 -4 30 -5 61 -1 31 3 107 6 167 6 183 1 320 -16 490 -59 200 -51 433
-157 605 -273 317 -214 565 -514 712 -861 61 -143 114 -333 133 -471 3 -24 7
-53 9 -64 4 -25 26 -26 185 -8 64 6 146 15 182 18 36 3 75 7 85 9 10 2 55 7
99 10 44 4 91 9 105 11 14 2 57 6 95 10 39 3 81 8 95 10 14 2 59 6 101 10 42
3 85 7 95 9 11 2 48 6 84 10 36 3 92 9 125 12 33 4 66 7 73 7 10 0 16 16 14
38 -8 64 -14 109 -18 129 -2 14 -7 39 -9 55 -3 17 -8 41 -10 55 -3 14 -8 39
-11 55 -52 296 -212 711 -386 1005 -51 85 -138 221 -148 230 -3 3 -17 21 -30
40 -148 215 -444 514 -700 707 -424 318 -977 548 -1491 617 -63 9 -132 18
-154 22 -43 6 -520 15 -526 10z"/>
</g>
</svg>
