<?xml version="1.0" encoding="UTF-8"?>
<svg width="266px" height="466px" viewBox="0 0 266 466" version="1.1" xmlns="http://www.w3.org/2000/svg" xmlns:xlink="http://www.w3.org/1999/xlink">
    <title>Group 26</title>
    <g id="COMPONENTS" stroke="none" stroke-width="1" fill="none" fill-rule="evenodd">
        <g id="SECTIONS/-Desktop/-O-nas-Small" transform="translate(-1680.000000, -202.000000)" stroke="#FCC800" stroke-width="2">
            <g id="Group-26" transform="translate(1681.000000, 203.000000)">
                <path d="M0.000500000002,67.828 C0.000500000002,30.428 30.4285,-2.27373675e-13 67.8285,-2.27373675e-13 L67.8285,27.589 C45.6415,27.589 27.5895,45.64 27.5895,67.828 C27.5895,68.065 27.5935,68.305 27.5965,68.542 L0.0075,68.542 C0.000500000002,68.305 0.000500000002,68.065 0.000500000002,67.828" id="Fill-13"></path>
                <path d="M0.000500000002,166.3699 C0.000500000002,128.9699 30.4285,98.5419 67.8285,98.5419 L67.8285,126.1309 C45.6405,126.1309 27.5895,144.1819 27.5895,166.3699 C27.5895,166.6069 27.5935,166.8469 27.5965,167.0839 L0.0075,167.0839 C0.000500000002,166.8469 0.000500000002,166.6069 0.000500000002,166.3699" id="Fill-15"></path>
                <path d="M0.000500000002,264.9117 C0.000500000002,227.5117 30.4285,197.0837 67.8285,197.0837 L67.8285,224.6727 C45.6415,224.6727 27.5895,242.7237 27.5895,264.9117 C27.5895,265.1487 27.5935,265.3887 27.5965,265.6257 L0.0075,265.6257 C0.000500000002,265.3887 0.000500000002,265.1487 0.000500000002,264.9117" id="Fill-29"></path>
                <path d="M0.000500000002,363.4536 C0.000500000002,326.0536 30.4285,295.6256 67.8285,295.6256 L67.8285,323.2146 C45.6405,323.2146 27.5895,341.2656 27.5895,363.4536 C27.5895,363.6906 27.5935,363.9306 27.5965,364.1676 L0.0075,364.1676 C0.000500000002,363.9306 0.000500000002,363.6906 0.000500000002,363.4536" id="Fill-31"></path>
                <path d="M165.6568,1.3406 C165.6568,38.7406 135.2288,69.1686 97.8288,69.1686 L97.8288,41.5796 C120.0158,41.5796 138.0678,23.5286 138.0678,1.3406 C138.0678,1.1036 138.0638,0.8636 138.0608,0.6266 L165.6498,0.6266 C165.6568,0.8636 165.6568,1.1036 165.6568,1.3406" id="Fill-33"></path>
                <path d="M165.6568,99.2555 C165.6568,136.6555 135.2288,167.0835 97.8288,167.0835 L97.8288,139.4945 C120.0158,139.4945 138.0678,121.4435 138.0678,99.2555 C138.0678,99.0185 138.0638,98.7785 138.0608,98.5415 L165.6498,98.5415 C165.6568,98.7785 165.6568,99.0185 165.6568,99.2555" id="Fill-35"></path>
                <path d="M195.6568,67.828 C195.6568,30.428 226.0848,-2.27373675e-13 263.4848,-2.27373675e-13 L263.4848,27.589 C241.2978,27.589 223.2458,45.64 223.2458,67.828 C223.2458,68.065 223.2498,68.305 223.2528,68.542 L195.6638,68.542 C195.6568,68.305 195.6568,68.065 195.6568,67.828" id="Fill-37"></path>
                <path d="M195.6568,166.3699 C195.6568,128.9699 226.0848,98.5419 263.4848,98.5419 L263.4848,126.1309 C241.2978,126.1309 223.2458,144.1819 223.2458,166.3699 C223.2458,166.6069 223.2498,166.8469 223.2528,167.0839 L195.6638,167.0839 C195.6568,166.8469 195.6568,166.6069 195.6568,166.3699" id="Fill-39"></path>
                <path d="M165.6568,198.4243 C165.6568,235.8243 135.2288,266.2523 97.8288,266.2523 L97.8288,238.6633 C120.0158,238.6633 138.0678,220.6123 138.0678,198.4243 C138.0678,198.1873 138.0638,197.9473 138.0608,197.7103 L165.6498,197.7103 C165.6568,197.9473 165.6568,198.1873 165.6568,198.4243" id="Fill-49"></path>
                <path d="M165.6568,296.3393 C165.6568,333.7393 135.2288,364.1673 97.8288,364.1673 L97.8288,336.5783 C120.0158,336.5783 138.0678,318.5273 138.0678,296.3393 C138.0678,296.1023 138.0638,295.8623 138.0608,295.6253 L165.6498,295.6253 C165.6568,295.8623 165.6568,296.1023 165.6568,296.3393" id="Fill-51"></path>
                <path d="M195.6568,264.9117 C195.6568,227.5117 226.0848,197.0837 263.4848,197.0837 L263.4848,224.6727 C241.2978,224.6727 223.2458,242.7237 223.2458,264.9117 C223.2458,265.1487 223.2498,265.3887 223.2528,265.6257 L195.6638,265.6257 C195.6568,265.3887 195.6568,265.1487 195.6568,264.9117" id="Fill-53"></path>
                <path d="M195.6568,363.4536 C195.6568,326.0536 226.0848,295.6256 263.4848,295.6256 L263.4848,323.2146 C241.2978,323.2146 223.2458,341.2656 223.2458,363.4536 C223.2458,363.6906 223.2498,363.9306 223.2528,364.1676 L195.6638,364.1676 C195.6568,363.9306 195.6568,363.6906 195.6568,363.4536" id="Fill-55"></path>
                <path d="M0,461.9959 C0,424.5959 30.428,394.1679 67.828,394.1679 L67.828,421.7569 C45.641,421.7569 27.589,439.8079 27.589,461.9959 C27.589,462.2329 27.593,462.4729 27.596,462.7099 L0.007,462.7099 C0,462.4729 0,462.2329 0,461.9959" id="Fill-77"></path>
                <path d="M165.6568,395.508 C165.6568,432.908 135.2288,463.336 97.8288,463.336 L97.8288,435.747 C120.0158,435.747 138.0678,417.696 138.0678,395.508 C138.0678,395.271 138.0638,395.031 138.0608,394.794 L165.6498,394.794 C165.6568,395.031 165.6568,395.271 165.6568,395.508" id="Fill-99"></path>
                <path d="M195.6568,461.9954 C195.6568,424.5954 226.0848,394.1674 263.4848,394.1674 L263.4848,421.7564 C241.2978,421.7564 223.2458,439.8074 223.2458,461.9954 C223.2458,462.2324 223.2498,462.4724 223.2528,462.7094 L195.6638,462.7094 C195.6568,462.4724 195.6568,462.2324 195.6568,461.9954" id="Fill-103"></path>
            </g>
        </g>
    </g>
</svg>