<?xml version="1.0" encoding="UTF-8"?>
<svg width="1929px" height="268px" viewBox="0 0 1929 268" version="1.1" xmlns="http://www.w3.org/2000/svg" xmlns:xlink="http://www.w3.org/1999/xlink">
    <title>Group 13 Copy</title>
    <g id="COMPONENTS" stroke="none" stroke-width="1" fill="none" fill-rule="evenodd" opacity="0.203264509">
        <g id="SECTIONS/-Desktop/-Benefity" transform="translate(4.000000, -222.000000)" stroke="#223146" stroke-width="2">
            <g id="Group-13-Copy" transform="translate(-3.000000, 223.000000)">
                <path d="M67.828,0.714 C67.828,38.114 37.4,68.542 0,68.542 L0,40.953 C22.188,40.953 40.239,22.902 40.239,0.714 C40.239,0.477 40.235,0.237 40.232,2.27373675e-13 L67.821,2.27373675e-13 C67.828,0.237 67.828,0.477 67.828,0.714" id="Fill-67-Copy-3"></path>
                <path d="M850.828,0.714 C850.828,38.114 820.4,68.542 783,68.542 L783,40.953 C805.188,40.953 823.239,22.902 823.239,0.714 C823.239,0.477 823.235,0.237 823.232,2.27373675e-13 L850.821,2.27373675e-13 C850.828,0.237 850.828,0.477 850.828,0.714" id="Fill-67-Copy-4"></path>
                <path d="M97.828,67.8283 C97.828,30.4283 128.256,0.0003 165.656,0.0003 L165.656,27.5893 C143.468,27.5893 125.417,45.6403 125.417,67.8283 C125.417,68.0653 125.421,68.3053 125.424,68.5423 L97.835,68.5423 C97.828,68.3053 97.828,68.0653 97.828,67.8283" id="Fill-71-Copy-3"></path>
                <path d="M880.828,67.8283 C880.828,30.4283 911.256,0.0003 948.656,0.0003 L948.656,27.5893 C926.468,27.5893 908.417,45.6403 908.417,67.8283 C908.417,68.0653 908.421,68.3053 908.424,68.5423 L880.835,68.5423 C880.828,68.3053 880.828,68.0653 880.828,67.8283" id="Fill-71-Copy-4"></path>
                <path d="M263.4842,0.714 C263.4842,38.114 233.0562,68.542 195.6562,68.542 L195.6562,40.953 C217.8442,40.953 235.8952,22.902 235.8952,0.714 C235.8952,0.477 235.8912,0.237 235.8882,2.27373675e-13 L263.4782,2.27373675e-13 C263.4842,0.237 263.4842,0.477 263.4842,0.714" id="Fill-75-Copy-3"></path>
                <path d="M1046.4842,0.714 C1046.4842,38.114 1016.0562,68.542 978.6562,68.542 L978.6562,40.953 C1000.8442,40.953 1018.8952,22.902 1018.8952,0.714 C1018.8952,0.477 1018.8912,0.237 1018.8882,2.27373675e-13 L1046.4782,2.27373675e-13 C1046.4842,0.237 1046.4842,0.477 1046.4842,0.714" id="Fill-75-Copy-4"></path>
                <path d="M293.4842,67.8283 C293.4842,30.4283 323.9122,0.0003 361.3122,0.0003 L361.3122,27.5893 C339.1242,27.5893 321.0732,45.6403 321.0732,67.8283 C321.0732,68.0653 321.0772,68.3053 321.0802,68.5423 L293.4912,68.5423 C293.4842,68.3053 293.4842,68.0653 293.4842,67.8283" id="Fill-79-Copy-3"></path>
                <path d="M1076.4842,67.8283 C1076.4842,30.4283 1106.9122,0.0003 1144.3122,0.0003 L1144.3122,27.5893 C1122.1242,27.5893 1104.0732,45.6403 1104.0732,67.8283 C1104.0732,68.0653 1104.0772,68.3053 1104.0802,68.5423 L1076.4912,68.5423 C1076.4842,68.3053 1076.4842,68.0653 1076.4842,67.8283" id="Fill-79-Copy-4"></path>
                <path d="M67.828,99.8827 C67.828,137.2827 37.4,167.7107 0,167.7107 L0,140.1217 C22.188,140.1217 40.239,122.0707 40.239,99.8827 C40.239,99.6457 40.235,99.4057 40.232,99.1687 L67.822,99.1687 C67.828,99.4057 67.828,99.6457 67.828,99.8827" id="Fill-81-Copy-3"></path>
                <path d="M850.828,99.8827 C850.828,137.2827 820.4,167.7107 783,167.7107 L783,140.1217 C805.188,140.1217 823.239,122.0707 823.239,99.8827 C823.239,99.6457 823.235,99.4057 823.232,99.1687 L850.822,99.1687 C850.828,99.4057 850.828,99.6457 850.828,99.8827" id="Fill-81-Copy-4"></path>
                <path d="M67.828,197.7977 C67.828,235.1977 37.4,265.6257 0,265.6257 L0,238.0367 C22.188,238.0367 40.239,219.9857 40.239,197.7977 C40.239,197.5607 40.235,197.3207 40.232,197.0837 L67.821,197.0837 C67.828,197.3207 67.828,197.5607 67.828,197.7977" id="Fill-83-Copy-3"></path>
                <path d="M850.828,197.7977 C850.828,235.1977 820.4,265.6257 783,265.6257 L783,238.0367 C805.188,238.0367 823.239,219.9857 823.239,197.7977 C823.239,197.5607 823.235,197.3207 823.232,197.0837 L850.821,197.0837 C850.828,197.3207 850.828,197.5607 850.828,197.7977" id="Fill-83-Copy-4"></path>
                <path d="M97.828,166.3702 C97.828,128.9702 128.256,98.5422 165.656,98.5422 L165.656,126.1312 C143.469,126.1312 125.417,144.1822 125.417,166.3702 C125.417,166.6072 125.421,166.8472 125.424,167.0842 L97.835,167.0842 C97.828,166.8472 97.828,166.6072 97.828,166.3702" id="Fill-85-Copy-3"></path>
                <path d="M880.828,166.3702 C880.828,128.9702 911.256,98.5422 948.656,98.5422 L948.656,126.1312 C926.469,126.1312 908.417,144.1822 908.417,166.3702 C908.417,166.6072 908.421,166.8472 908.424,167.0842 L880.835,167.0842 C880.828,166.8472 880.828,166.6072 880.828,166.3702" id="Fill-85-Copy-4"></path>
                <path d="M97.828,264.9121 C97.828,227.5121 128.256,197.0841 165.656,197.0841 L165.656,224.6731 C143.468,224.6731 125.417,242.7241 125.417,264.9121 C125.417,265.1491 125.421,265.3891 125.424,265.6261 L97.835,265.6261 C97.828,265.3891 97.828,265.1491 97.828,264.9121" id="Fill-87-Copy-3"></path>
                <path d="M880.828,264.9121 C880.828,227.5121 911.256,197.0841 948.656,197.0841 L948.656,224.6731 C926.468,224.6731 908.417,242.7241 908.417,264.9121 C908.417,265.1491 908.421,265.3891 908.424,265.6261 L880.835,265.6261 C880.828,265.3891 880.828,265.1491 880.828,264.9121" id="Fill-87-Copy-4"></path>
                <path d="M263.4842,99.8827 C263.4842,137.2827 233.0562,167.7107 195.6562,167.7107 L195.6562,140.1217 C217.8442,140.1217 235.8952,122.0707 235.8952,99.8827 C235.8952,99.6457 235.8912,99.4057 235.8882,99.1687 L263.4782,99.1687 C263.4842,99.4057 263.4842,99.6457 263.4842,99.8827" id="Fill-90-Copy-3"></path>
                <path d="M1046.4842,99.8827 C1046.4842,137.2827 1016.0562,167.7107 978.6562,167.7107 L978.6562,140.1217 C1000.8442,140.1217 1018.8952,122.0707 1018.8952,99.8827 C1018.8952,99.6457 1018.8912,99.4057 1018.8882,99.1687 L1046.4782,99.1687 C1046.4842,99.4057 1046.4842,99.6457 1046.4842,99.8827" id="Fill-90-Copy-4"></path>
                <path d="M263.4842,197.7977 C263.4842,235.1977 233.0562,265.6257 195.6562,265.6257 L195.6562,238.0367 C217.8442,238.0367 235.8952,219.9857 235.8952,197.7977 C235.8952,197.5607 235.8912,197.3207 235.8882,197.0837 L263.4782,197.0837 C263.4842,197.3207 263.4842,197.5607 263.4842,197.7977" id="Fill-92-Copy-3"></path>
                <path d="M1046.4842,197.7977 C1046.4842,235.1977 1016.0562,265.6257 978.6562,265.6257 L978.6562,238.0367 C1000.8442,238.0367 1018.8952,219.9857 1018.8952,197.7977 C1018.8952,197.5607 1018.8912,197.3207 1018.8882,197.0837 L1046.4782,197.0837 C1046.4842,197.3207 1046.4842,197.5607 1046.4842,197.7977" id="Fill-92-Copy-4"></path>
                <path d="M293.4842,166.3702 C293.4842,128.9702 323.9122,98.5422 361.3122,98.5422 L361.3122,126.1312 C339.1252,126.1312 321.0732,144.1822 321.0732,166.3702 C321.0732,166.6072 321.0772,166.8472 321.0802,167.0842 L293.4912,167.0842 C293.4842,166.8472 293.4842,166.6072 293.4842,166.3702" id="Fill-94-Copy-3"></path>
                <path d="M1076.4842,166.3702 C1076.4842,128.9702 1106.9122,98.5422 1144.3122,98.5422 L1144.3122,126.1312 C1122.1252,126.1312 1104.0732,144.1822 1104.0732,166.3702 C1104.0732,166.6072 1104.0772,166.8472 1104.0802,167.0842 L1076.4912,167.0842 C1076.4842,166.8472 1076.4842,166.6072 1076.4842,166.3702" id="Fill-94-Copy-4"></path>
                <path d="M293.4842,264.9121 C293.4842,227.5121 323.9122,197.0841 361.3122,197.0841 L361.3122,224.6731 C339.1242,224.6731 321.0732,242.7241 321.0732,264.9121 C321.0732,265.1491 321.0772,265.3891 321.0802,265.6261 L293.4912,265.6261 C293.4842,265.3891 293.4842,265.1491 293.4842,264.9121" id="Fill-96-Copy-3"></path>
                <path d="M1076.4842,264.9121 C1076.4842,227.5121 1106.9122,197.0841 1144.3122,197.0841 L1144.3122,224.6731 C1122.1242,224.6731 1104.0732,242.7241 1104.0732,264.9121 C1104.0732,265.1491 1104.0772,265.3891 1104.0802,265.6261 L1076.4912,265.6261 C1076.4842,265.3891 1076.4842,265.1491 1076.4842,264.9121" id="Fill-96-Copy-4"></path>
                <path d="M459.1405,0.714 C459.1405,38.114 428.7125,68.542 391.3125,68.542 L391.3125,40.953 C413.4995,40.953 431.5515,22.902 431.5515,0.714 C431.5515,0.477 431.5475,0.237 431.5445,2.27373675e-13 L459.1335,2.27373675e-13 C459.1405,0.237 459.1405,0.477 459.1405,0.714" id="Fill-101-Copy-3"></path>
                <path d="M1242.1405,0.714 C1242.1405,38.114 1211.7125,68.542 1174.3125,68.542 L1174.3125,40.953 C1196.4995,40.953 1214.5515,22.902 1214.5515,0.714 C1214.5515,0.477 1214.5475,0.237 1214.5445,2.27373675e-13 L1242.1335,2.27373675e-13 C1242.1405,0.237 1242.1405,0.477 1242.1405,0.714" id="Fill-101-Copy-4"></path>
                <path d="M1633.1405,0.714 C1633.1405,38.114 1602.7125,68.542 1565.3125,68.542 L1565.3125,40.953 C1587.4995,40.953 1605.5515,22.902 1605.5515,0.714 C1605.5515,0.477 1605.5475,0.237 1605.5445,2.27373675e-13 L1633.1335,2.27373675e-13 C1633.1405,0.237 1633.1405,0.477 1633.1405,0.714" id="Fill-101-Copy-5"></path>
                <path d="M489.1405,67.8283 C489.1405,30.4283 519.5685,0.0003 556.9685,0.0003 L556.9685,27.5893 C534.7815,27.5893 516.7295,45.6403 516.7295,67.8283 C516.7295,68.0653 516.7335,68.3053 516.7365,68.5423 L489.1475,68.5423 C489.1405,68.3053 489.1405,68.0653 489.1405,67.8283" id="Fill-105-Copy-3"></path>
                <path d="M1272.1405,67.8283 C1272.1405,30.4283 1302.5685,0.0003 1339.9685,0.0003 L1339.9685,27.5893 C1317.7815,27.5893 1299.7295,45.6403 1299.7295,67.8283 C1299.7295,68.0653 1299.7335,68.3053 1299.7365,68.5423 L1272.1475,68.5423 C1272.1405,68.3053 1272.1405,68.0653 1272.1405,67.8283" id="Fill-105-Copy-4"></path>
                <path d="M1663.1405,67.8283 C1663.1405,30.4283 1693.5685,0.0003 1730.9685,0.0003 L1730.9685,27.5893 C1708.7815,27.5893 1690.7295,45.6403 1690.7295,67.8283 C1690.7295,68.0653 1690.7335,68.3053 1690.7365,68.5423 L1663.1475,68.5423 C1663.1405,68.3053 1663.1405,68.0653 1663.1405,67.8283" id="Fill-105-Copy-5"></path>
                <path d="M654.7967,0.714 C654.7967,38.114 624.3687,68.542 586.9687,68.542 L586.9687,40.953 C609.1567,40.953 627.2077,22.902 627.2077,0.714 C627.2077,0.477 627.2037,0.237 627.2007,2.27373675e-13 L654.7907,2.27373675e-13 C654.7967,0.237 654.7967,0.477 654.7967,0.714" id="Fill-109-Copy-3"></path>
                <path d="M1437.7967,0.714 C1437.7967,38.114 1407.3687,68.542 1369.9687,68.542 L1369.9687,40.953 C1392.1567,40.953 1410.2077,22.902 1410.2077,0.714 C1410.2077,0.477 1410.2037,0.237 1410.2007,2.27373675e-13 L1437.7907,2.27373675e-13 C1437.7967,0.237 1437.7967,0.477 1437.7967,0.714" id="Fill-109-Copy-4"></path>
                <path d="M1828.7967,0.714 C1828.7967,38.114 1798.3687,68.542 1760.9687,68.542 L1760.9687,40.953 C1783.1567,40.953 1801.2077,22.902 1801.2077,0.714 C1801.2077,0.477 1801.2037,0.237 1801.2007,2.27373675e-13 L1828.7907,2.27373675e-13 C1828.7967,0.237 1828.7967,0.477 1828.7967,0.714" id="Fill-109-Copy-5"></path>
                <path d="M684.7967,67.8283 C684.7967,30.4283 715.2247,0.0003 752.6247,0.0003 L752.6247,27.5893 C730.4367,27.5893 712.3857,45.6403 712.3857,67.8283 C712.3857,68.0653 712.3897,68.3053 712.3927,68.5423 L684.8027,68.5423 C684.7967,68.3053 684.7967,68.0653 684.7967,67.8283" id="Fill-113-Copy-3"></path>
                <path d="M1467.7967,67.8283 C1467.7967,30.4283 1498.2247,0.0003 1535.6247,0.0003 L1535.6247,27.5893 C1513.4367,27.5893 1495.3857,45.6403 1495.3857,67.8283 C1495.3857,68.0653 1495.3897,68.3053 1495.3927,68.5423 L1467.8027,68.5423 C1467.7967,68.3053 1467.7967,68.0653 1467.7967,67.8283" id="Fill-113-Copy-4"></path>
                <path d="M1858.7967,67.8283 C1858.7967,30.4283 1889.2247,0.0003 1926.6247,0.0003 L1926.6247,27.5893 C1904.4367,27.5893 1886.3857,45.6403 1886.3857,67.8283 C1886.3857,68.0653 1886.3897,68.3053 1886.3927,68.5423 L1858.8027,68.5423 C1858.7967,68.3053 1858.7967,68.0653 1858.7967,67.8283" id="Fill-113-Copy-5"></path>
                <path d="M459.1405,99.8827 C459.1405,137.2827 428.7125,167.7107 391.3125,167.7107 L391.3125,140.1217 C413.4995,140.1217 431.5515,122.0707 431.5515,99.8827 C431.5515,99.6457 431.5475,99.4057 431.5445,99.1687 L459.1335,99.1687 C459.1405,99.4057 459.1405,99.6457 459.1405,99.8827" id="Fill-115-Copy-3"></path>
                <path d="M1242.1405,99.8827 C1242.1405,137.2827 1211.7125,167.7107 1174.3125,167.7107 L1174.3125,140.1217 C1196.4995,140.1217 1214.5515,122.0707 1214.5515,99.8827 C1214.5515,99.6457 1214.5475,99.4057 1214.5445,99.1687 L1242.1335,99.1687 C1242.1405,99.4057 1242.1405,99.6457 1242.1405,99.8827" id="Fill-115-Copy-4"></path>
                <path d="M1633.1405,99.8827 C1633.1405,137.2827 1602.7125,167.7107 1565.3125,167.7107 L1565.3125,140.1217 C1587.4995,140.1217 1605.5515,122.0707 1605.5515,99.8827 C1605.5515,99.6457 1605.5475,99.4057 1605.5445,99.1687 L1633.1335,99.1687 C1633.1405,99.4057 1633.1405,99.6457 1633.1405,99.8827" id="Fill-115-Copy-5"></path>
                <path d="M459.1405,197.7977 C459.1405,235.1977 428.7125,265.6257 391.3125,265.6257 L391.3125,238.0367 C413.4995,238.0367 431.5515,219.9857 431.5515,197.7977 C431.5515,197.5607 431.5475,197.3207 431.5445,197.0837 L459.1335,197.0837 C459.1405,197.3207 459.1405,197.5607 459.1405,197.7977" id="Fill-117-Copy-3"></path>
                <path d="M1242.1405,197.7977 C1242.1405,235.1977 1211.7125,265.6257 1174.3125,265.6257 L1174.3125,238.0367 C1196.4995,238.0367 1214.5515,219.9857 1214.5515,197.7977 C1214.5515,197.5607 1214.5475,197.3207 1214.5445,197.0837 L1242.1335,197.0837 C1242.1405,197.3207 1242.1405,197.5607 1242.1405,197.7977" id="Fill-117-Copy-4"></path>
                <path d="M1633.1405,197.7977 C1633.1405,235.1977 1602.7125,265.6257 1565.3125,265.6257 L1565.3125,238.0367 C1587.4995,238.0367 1605.5515,219.9857 1605.5515,197.7977 C1605.5515,197.5607 1605.5475,197.3207 1605.5445,197.0837 L1633.1335,197.0837 C1633.1405,197.3207 1633.1405,197.5607 1633.1405,197.7977" id="Fill-117-Copy-5"></path>
                <path d="M489.1405,166.3702 C489.1405,128.9702 519.5685,98.5422 556.9685,98.5422 L556.9685,126.1312 C534.7815,126.1312 516.7295,144.1822 516.7295,166.3702 C516.7295,166.6072 516.7335,166.8472 516.7365,167.0842 L489.1475,167.0842 C489.1405,166.8472 489.1405,166.6072 489.1405,166.3702" id="Fill-119-Copy-3"></path>
                <path d="M1272.1405,166.3702 C1272.1405,128.9702 1302.5685,98.5422 1339.9685,98.5422 L1339.9685,126.1312 C1317.7815,126.1312 1299.7295,144.1822 1299.7295,166.3702 C1299.7295,166.6072 1299.7335,166.8472 1299.7365,167.0842 L1272.1475,167.0842 C1272.1405,166.8472 1272.1405,166.6072 1272.1405,166.3702" id="Fill-119-Copy-4"></path>
                <path d="M1663.1405,166.3702 C1663.1405,128.9702 1693.5685,98.5422 1730.9685,98.5422 L1730.9685,126.1312 C1708.7815,126.1312 1690.7295,144.1822 1690.7295,166.3702 C1690.7295,166.6072 1690.7335,166.8472 1690.7365,167.0842 L1663.1475,167.0842 C1663.1405,166.8472 1663.1405,166.6072 1663.1405,166.3702" id="Fill-119-Copy-5"></path>
                <path d="M489.1405,264.9121 C489.1405,227.5121 519.5685,197.0841 556.9685,197.0841 L556.9685,224.6731 C534.7815,224.6731 516.7295,242.7241 516.7295,264.9121 C516.7295,265.1491 516.7335,265.3891 516.7365,265.6261 L489.1475,265.6261 C489.1405,265.3891 489.1405,265.1491 489.1405,264.9121" id="Fill-121-Copy-3"></path>
                <path d="M1272.1405,264.9121 C1272.1405,227.5121 1302.5685,197.0841 1339.9685,197.0841 L1339.9685,224.6731 C1317.7815,224.6731 1299.7295,242.7241 1299.7295,264.9121 C1299.7295,265.1491 1299.7335,265.3891 1299.7365,265.6261 L1272.1475,265.6261 C1272.1405,265.3891 1272.1405,265.1491 1272.1405,264.9121" id="Fill-121-Copy-4"></path>
                <path d="M1663.1405,264.9121 C1663.1405,227.5121 1693.5685,197.0841 1730.9685,197.0841 L1730.9685,224.6731 C1708.7815,224.6731 1690.7295,242.7241 1690.7295,264.9121 C1690.7295,265.1491 1690.7335,265.3891 1690.7365,265.6261 L1663.1475,265.6261 C1663.1405,265.3891 1663.1405,265.1491 1663.1405,264.9121" id="Fill-121-Copy-5"></path>
                <path d="M654.7967,99.8827 C654.7967,137.2827 624.3687,167.7107 586.9687,167.7107 L586.9687,140.1217 C609.1567,140.1217 627.2077,122.0707 627.2077,99.8827 C627.2077,99.6457 627.2037,99.4057 627.2007,99.1687 L654.7907,99.1687 C654.7967,99.4057 654.7967,99.6457 654.7967,99.8827" id="Fill-124-Copy-3"></path>
                <path d="M1437.7967,99.8827 C1437.7967,137.2827 1407.3687,167.7107 1369.9687,167.7107 L1369.9687,140.1217 C1392.1567,140.1217 1410.2077,122.0707 1410.2077,99.8827 C1410.2077,99.6457 1410.2037,99.4057 1410.2007,99.1687 L1437.7907,99.1687 C1437.7967,99.4057 1437.7967,99.6457 1437.7967,99.8827" id="Fill-124-Copy-4"></path>
                <path d="M1828.7967,99.8827 C1828.7967,137.2827 1798.3687,167.7107 1760.9687,167.7107 L1760.9687,140.1217 C1783.1567,140.1217 1801.2077,122.0707 1801.2077,99.8827 C1801.2077,99.6457 1801.2037,99.4057 1801.2007,99.1687 L1828.7907,99.1687 C1828.7967,99.4057 1828.7967,99.6457 1828.7967,99.8827" id="Fill-124-Copy-5"></path>
                <path d="M654.7967,197.7977 C654.7967,235.1977 624.3687,265.6257 586.9687,265.6257 L586.9687,238.0367 C609.1567,238.0367 627.2077,219.9857 627.2077,197.7977 C627.2077,197.5607 627.2037,197.3207 627.2007,197.0837 L654.7907,197.0837 C654.7967,197.3207 654.7967,197.5607 654.7967,197.7977" id="Fill-126-Copy-3"></path>
                <path d="M1437.7967,197.7977 C1437.7967,235.1977 1407.3687,265.6257 1369.9687,265.6257 L1369.9687,238.0367 C1392.1567,238.0367 1410.2077,219.9857 1410.2077,197.7977 C1410.2077,197.5607 1410.2037,197.3207 1410.2007,197.0837 L1437.7907,197.0837 C1437.7967,197.3207 1437.7967,197.5607 1437.7967,197.7977" id="Fill-126-Copy-4"></path>
                <path d="M1828.7967,197.7977 C1828.7967,235.1977 1798.3687,265.6257 1760.9687,265.6257 L1760.9687,238.0367 C1783.1567,238.0367 1801.2077,219.9857 1801.2077,197.7977 C1801.2077,197.5607 1801.2037,197.3207 1801.2007,197.0837 L1828.7907,197.0837 C1828.7967,197.3207 1828.7967,197.5607 1828.7967,197.7977" id="Fill-126-Copy-5"></path>
                <path d="M684.7967,264.9121 C684.7967,227.5121 715.2247,197.0841 752.6247,197.0841 L752.6247,224.6731 C730.4367,224.6731 712.3857,242.7241 712.3857,264.9121 C712.3857,265.1491 712.3897,265.3891 712.3927,265.6261 L684.8027,265.6261 C684.7967,265.3891 684.7967,265.1491 684.7967,264.9121" id="Fill-130-Copy-4"></path>
                <path d="M1467.7967,264.9121 C1467.7967,227.5121 1498.2247,197.0841 1535.6247,197.0841 L1535.6247,224.6731 C1513.4367,224.6731 1495.3857,242.7241 1495.3857,264.9121 C1495.3857,265.1491 1495.3897,265.3891 1495.3927,265.6261 L1467.8027,265.6261 C1467.7967,265.3891 1467.7967,265.1491 1467.7967,264.9121" id="Fill-130-Copy-6"></path>
                <path d="M1858.7967,264.9121 C1858.7967,227.5121 1889.2247,197.0841 1926.6247,197.0841 L1926.6247,224.6731 C1904.4367,224.6731 1886.3857,242.7241 1886.3857,264.9121 C1886.3857,265.1491 1886.3897,265.3891 1886.3927,265.6261 L1858.8027,265.6261 C1858.7967,265.3891 1858.7967,265.1491 1858.7967,264.9121" id="Fill-130-Copy-8"></path>
                <path d="M684.7967,166.9121 C684.7967,129.5121 715.2247,99.0841 752.6247,99.0841 L752.6247,126.6731 C730.4367,126.6731 712.3857,144.7241 712.3857,166.9121 C712.3857,167.1491 712.3897,167.3891 712.3927,167.6261 L684.8027,167.6261 C684.7967,167.3891 684.7967,167.1491 684.7967,166.9121" id="Fill-130-Copy-5"></path>
                <path d="M1467.7967,166.9121 C1467.7967,129.5121 1498.2247,99.0841 1535.6247,99.0841 L1535.6247,126.6731 C1513.4367,126.6731 1495.3857,144.7241 1495.3857,166.9121 C1495.3857,167.1491 1495.3897,167.3891 1495.3927,167.6261 L1467.8027,167.6261 C1467.7967,167.3891 1467.7967,167.1491 1467.7967,166.9121" id="Fill-130-Copy-7"></path>
                <path d="M1858.7967,166.9121 C1858.7967,129.5121 1889.2247,99.0841 1926.6247,99.0841 L1926.6247,126.6731 C1904.4367,126.6731 1886.3857,144.7241 1886.3857,166.9121 C1886.3857,167.1491 1886.3897,167.3891 1886.3927,167.6261 L1858.8027,167.6261 C1858.7967,167.3891 1858.7967,167.1491 1858.7967,166.9121" id="Fill-130-Copy-9"></path>
            </g>
        </g>
    </g>
</svg>