<?xml version="1.0" encoding="UTF-8"?>
<svg width="68px" height="69px" viewBox="0 0 68 69" version="1.1" xmlns="http://www.w3.org/2000/svg" xmlns:xlink="http://www.w3.org/1999/xlink">
    <title>Group 30</title>
    <g id="COMPONENTS" stroke="none" stroke-width="1" fill="none" fill-rule="evenodd">
        <g id="SECTIONS/-Desktop/-O-nas-Small" transform="translate(-760.000000, -807.000000)" fill="#FFFFFF">
            <g id="Group-16" transform="translate(727.500000, 778.000000)">
                <g id="Group-30" transform="translate(33.500000, 29.000000)">
                    <circle id="Oval-Copy-9" opacity="0.1" cx="36.6249531" cy="30" r="30"></circle>
                    <path d="M35.6249531,13.5 C35.6249531,12.9477153 35.161248,12.5 34.5892388,12.5 L7.66066737,12.5 C7.08865817,12.5 6.62495309,12.9477153 6.62495309,13.5 L6.62495309,21.5 C6.62495309,22.0522847 7.08865817,22.5 7.66066737,22.5 L34.5892388,22.5 C35.161248,22.5 35.6249531,22.0522847 35.6249531,21.5 L35.6249531,13.5 Z M33.6249531,20.5 L8.62495309,20.5 L8.62495309,14.5 L33.6249531,14.5 L33.6249531,20.5 Z M14.6249531,28.5 C14.6249531,27.9477153 14.1772378,27.5 13.6249531,27.5 L7.62495309,27.5 C7.07266834,27.5 6.62495309,27.9477153 6.62495309,28.5 L6.62495309,34.5 C6.62495309,35.0522847 7.07266834,35.5 7.62495309,35.5 L13.6249531,35.5 C14.1772378,35.5 14.6249531,35.0522847 14.6249531,34.5 L14.6249531,28.5 Z M12.6249531,33.5 L8.62495309,33.5 L8.62495309,29.5 L12.6249531,29.5 L12.6249531,33.5 Z M24.6249531,28.5 C24.6249531,27.9477153 24.1772378,27.5 23.6249531,27.5 L17.6249531,27.5 C17.0726683,27.5 16.6249531,27.9477153 16.6249531,28.5 L16.6249531,34.5 C16.6249531,35.0522847 17.0726683,35.5 17.6249531,35.5 L23.6249531,35.5 C24.1772378,35.5 24.6249531,35.0522847 24.6249531,34.5 L24.6249531,28.5 Z M22.6249531,33.5 L18.6249531,33.5 L18.6249531,29.5 L22.6249531,29.5 L22.6249531,33.5 Z M14.6249531,38.5 C14.6249531,37.9477153 14.1772378,37.5 13.6249531,37.5 L7.62495309,37.5 C7.07266834,37.5 6.62495309,37.9477153 6.62495309,38.5 L6.62495309,44.5 C6.62495309,45.0522847 7.07266834,45.5 7.62495309,45.5 L13.6249531,45.5 C14.1772378,45.5 14.6249531,45.0522847 14.6249531,44.5 L14.6249531,38.5 Z M12.6249531,43.5 L8.62495309,43.5 L8.62495309,39.5 L12.6249531,39.5 L12.6249531,43.5 Z M24.6249531,38.5 C24.6249531,37.9477153 24.1772378,37.5 23.6249531,37.5 L17.6249531,37.5 C17.0726683,37.5 16.6249531,37.9477153 16.6249531,38.5 L16.6249531,44.5 C16.6249531,45.0522847 17.0726683,45.5 17.6249531,45.5 L23.6249531,45.5 C24.1772378,45.5 24.6249531,45.0522847 24.6249531,44.5 L24.6249531,38.5 Z M22.6249531,43.5 L18.6249531,43.5 L18.6249531,39.5 L22.6249531,39.5 L22.6249531,43.5 Z M13.6249531,48.5 L7.62495309,48.5 C7.07266834,48.5 6.62495309,48.9477153 6.62495309,49.5 L6.62495309,55.5 C6.62495309,56.0522847 7.07266834,56.5 7.62495309,56.5 L13.6249531,56.5 C14.1772378,56.5 14.6249531,56.0522847 14.6249531,55.5 L14.6249531,49.5 C14.6249531,48.9477153 14.1772378,48.5 13.6249531,48.5 Z M12.6249531,54.5 L8.62495309,54.5 L8.62495309,50.5 L12.6249531,50.5 L12.6249531,54.5 Z M23.6249531,48.5 L17.6249531,48.5 C17.0726683,48.5 16.6249531,48.9477153 16.6249531,49.5 L16.6249531,55.5 C16.6249531,56.0522847 17.0726683,56.5 17.6249531,56.5 L23.6249531,56.5 C24.1772378,56.5 24.6249531,56.0522847 24.6249531,55.5 L24.6249531,49.5 C24.6249531,48.9477153 24.1772378,48.5 23.6249531,48.5 Z M22.6249531,54.5 L18.6249531,54.5 L18.6249531,50.5 L22.6249531,50.5 L22.6249531,54.5 Z M33.6249531,31.5 L33.6249531,29.5 L29.6249531,29.5 L29.6249531,33.5 L31.6249531,33.5 C32.1772378,33.5 32.6249531,33.9477153 32.6249531,34.5 C32.6249531,35.0522847 32.1772378,35.5 31.6249531,35.5 L28.6249531,35.5 C28.0726683,35.5 27.6249531,35.0522847 27.6249531,34.5 L27.6249531,28.5 C27.6249531,27.9477153 28.0726683,27.5 28.6249531,27.5 L34.6249531,27.5 C35.1772378,27.5 35.6249531,27.9477153 35.6249531,28.5 L35.6249531,31.5 C35.6249531,32.0522847 35.1772378,32.5 34.6249531,32.5 C34.0726683,32.5 33.6249531,32.0522847 33.6249531,31.5 Z M27.6663056,61.462963 C27.6663056,62.0357027 27.1962046,62.5 26.6163056,62.5 L4.87495309,62.5 C1.97686854,62.4966399 -0.371644763,60.1771205 -0.375046913,57.3148148 L-0.375046913,11.6851852 C-0.371644763,8.82287946 1.97686854,6.50336015 4.87495309,6.5 L36.3749531,6.5 C39.2730376,6.50336015 41.6215509,8.82287946 41.6249531,11.6851852 L41.6249531,30.7701096 C41.6249531,31.3428494 41.1548521,31.8071467 40.5749531,31.8071467 C39.9950541,31.8071467 39.5249531,31.3428494 39.5249531,30.7701096 L39.5249531,11.6851852 C39.523055,9.96774307 38.1138632,8.57594874 36.3749531,8.57407407 L4.87495309,8.57407407 C3.13604295,8.57594874 1.72685118,9.96774307 1.72495309,11.6851852 L1.72495309,57.3148148 C1.72685118,59.0322569 3.13604295,60.4240513 4.87495309,60.4259259 L26.6163056,60.4259259 C27.1962046,60.4259259 27.6663056,60.8902232 27.6663056,61.462963 Z M45.1249531,33.5 C35.45997,33.5 27.6249531,41.3350169 27.6249531,51 C27.6249531,60.6649831 35.45997,68.5 45.1249531,68.5 C54.7899362,68.5 62.6249531,60.6649831 62.6249531,51 C62.6141741,41.3394852 54.7854679,33.510779 45.1249531,33.5 Z M45.1249531,66.5 C36.5645395,66.5 29.6249531,59.5604136 29.6249531,51 C29.6249531,42.4395864 36.5645395,35.5 45.1249531,35.5 C53.6853667,35.5 60.6249531,42.4395864 60.6249531,51 C60.6152723,59.5564005 53.6813536,66.4903192 45.1249531,66.5 Z M42.6251541,47.8333333 C42.6262565,48.9987854 43.5209515,49.9432807 44.6249531,49.9444444 C46.6376554,49.939891 48.3386389,51.5181083 48.5927245,53.6258471 C48.8468101,55.733586 47.5744835,57.7112445 45.6248526,58.239 L45.6248526,59.4444444 C45.6248526,60.0274117 45.1771823,60.5 44.6249531,60.5 C44.0727238,60.5 43.6250536,60.0274117 43.6250536,59.4444444 L43.6250536,58.239 C41.8637795,57.7603827 40.6308502,56.0865815 40.6253551,54.1666667 C40.6253551,53.5836994 41.0730254,53.1111111 41.6252546,53.1111111 C42.1774839,53.1111111 42.6251541,53.5836994 42.6251541,54.1666667 C42.6251541,55.3326011 43.5204946,56.2777778 44.6249531,56.2777778 C45.7294116,56.2777778 46.6247521,55.3326011 46.6247521,54.1666667 C46.6247521,53.0007322 45.7294116,52.0555556 44.6249531,52.0555556 C42.6122508,52.060109 40.9112672,50.4818917 40.6571817,48.3741529 C40.4030961,46.266414 41.6754227,44.2887555 43.6250536,43.761 L43.6250536,42.5555556 C43.6250536,41.9725883 44.0727238,41.5 44.6249531,41.5 C45.1771823,41.5 45.6248526,41.9725883 45.6248526,42.5555556 L45.6248526,43.761 C47.3861267,44.2396173 48.6190559,45.9134185 48.624551,47.8333333 C48.624551,48.4163006 48.1768808,48.8888889 47.6246516,48.8888889 C47.0724223,48.8888889 46.6247521,48.4163006 46.6247521,47.8333333 C46.6247521,46.6673989 45.7294116,45.7222222 44.6249531,45.7222222 C43.5204946,45.7222222 42.6251541,46.6673989 42.6251541,47.8333333 L42.6251541,47.8333333 Z M45.1249531,37.5 C37.669109,37.5 31.6249531,43.5441559 31.6249531,51 C31.6249531,58.4558441 37.669109,64.5 45.1249531,64.5 C52.5807972,64.5 58.6249531,58.4558441 58.6249531,51 C58.6167004,43.5475769 52.5773761,37.5082527 45.1249531,37.5 Z M45.1249531,62.5 C38.7736785,62.5 33.6249531,57.3512746 33.6249531,51 C33.6249531,44.6487254 38.7736785,39.5 45.1249531,39.5 C51.4762277,39.5 56.6249531,44.6487254 56.6249531,51 C56.6177801,57.3483011 51.4732542,62.492827 45.1249531,62.5 L45.1249531,62.5 Z" id="Shape" fill-rule="nonzero"></path>
                </g>
            </g>
        </g>
    </g>
</svg>