<?xml version="1.0" encoding="UTF-8"?>
<svg width="585px" height="182px" viewBox="0 0 585 182" version="1.1" xmlns="http://www.w3.org/2000/svg" xmlns:xlink="http://www.w3.org/1999/xlink">
    <title>Group</title>
    <g id="COMPONENTS" stroke="none" stroke-width="1" fill="none" fill-rule="evenodd">
        <g id="CTA/-Desktop/-Vypocitajte-si-pozicku" transform="translate(-855.000000, 0.000000)" stroke="#FCC800" stroke-width="2">
            <g id="Group" transform="translate(855.967204, -90.658221)">
                <path d="M712.476838,1.52316214 C712.476838,161.092529 582.653931,290.915436 423.084564,290.915436 L423.084564,173.205295 C517.751011,173.205295 594.766697,96.1896092 594.766697,1.52316214 C594.766697,0.511987275 594.749631,-0.511987275 594.736831,-1.52316214 L712.451238,-1.52316214 C712.476838,-0.511987275 712.476838,0.511987275 712.476838,1.52316214" id="Fill-59-Copy-3" transform="translate(567.780701, 144.696137) rotate(-90.000000) translate(-567.780701, -144.696137) "></path>
                <path d="M290.915436,77.3962728 L290.915436,195.106414 C196.248989,195.106414 119.233303,272.1221 119.233303,366.788547 C119.233303,367.799721 119.250369,368.823696 119.263169,369.834871 L1.54876151,369.834871 C1.52316214,368.823696 1.52316214,367.799721 1.52316214,366.788547 C1.52316214,207.219179 131.346069,77.3962728 290.915436,77.3962728 Z" id="Fill-63-Copy-3" transform="translate(146.219299, 223.615572) rotate(-90.000000) translate(-146.219299, -223.615572) "></path>
            </g>
        </g>
    </g>
</svg>