<?xml version="1.0" encoding="UTF-8"?>
<svg width="364px" height="170px" viewBox="0 0 364 170" version="1.1" xmlns="http://www.w3.org/2000/svg" xmlns:xlink="http://www.w3.org/1999/xlink">
    <title>Group 25</title>
    <g id="COMPONENTS" stroke="none" stroke-width="1" fill="none" fill-rule="evenodd">
        <g id="CTA/-Desktop/-Vypocitajte-o-Dofinancovanie-HYPO" transform="translate(-623.000000, -33.000000)" stroke="#FCC800" stroke-width="2">
            <g id="Group-29" transform="translate(90.000000, 34.000000)">
                <g id="Group-25" transform="translate(534.000000, 0.000000)">
                    <path d="M67.828,0.714 C67.828,38.114 37.4,68.542 0,68.542 L0,40.953 C22.187,40.953 40.239,22.902 40.239,0.714 C40.239,0.477 40.235,0.237 40.232,0 L67.821,0 C67.828,0.237 67.828,0.477 67.828,0.714" id="Fill-35"></path>
                    <path d="M97.828,67.8284 C97.828,30.4284 128.256,0.0004 165.656,0.0004 L165.656,27.5894 C143.469,27.5894 125.417,45.6404 125.417,67.8284 C125.417,68.0654 125.421,68.3054 125.424,68.5424 L97.835,68.5424 C97.828,68.3054 97.828,68.0654 97.828,67.8284" id="Fill-39"></path>
                    <path d="M263.4842,0.714 C263.4842,38.114 233.0562,68.542 195.6562,68.542 L195.6562,40.953 C217.8442,40.953 235.8952,22.902 235.8952,0.714 C235.8952,0.477 235.8912,0.237 235.8882,0 L263.4782,0 C263.4842,0.237 263.4842,0.477 263.4842,0.714" id="Fill-43"></path>
                    <path d="M293.4842,67.8284 C293.4842,30.4284 323.9122,0.0004 361.3122,0.0004 L361.3122,27.5894 C339.1242,27.5894 321.0732,45.6404 321.0732,67.8284 C321.0732,68.0654 321.0772,68.3054 321.0802,68.5424 L293.4902,68.5424 C293.4842,68.3054 293.4842,68.0654 293.4842,67.8284" id="Fill-47"></path>
                    <path d="M67.828,99.8828 C67.828,137.2828 37.4,167.7108 0,167.7108 L0,140.1218 C22.187,140.1218 40.239,122.0708 40.239,99.8828 C40.239,99.6458 40.235,99.4058 40.232,99.1688 L67.821,99.1688 C67.828,99.4058 67.828,99.6458 67.828,99.8828" id="Fill-49"></path>
                    <path d="M97.828,166.3702 C97.828,128.9702 128.256,98.5422 165.656,98.5422 L165.656,126.1312 C143.469,126.1312 125.417,144.1822 125.417,166.3702 C125.417,166.6072 125.421,166.8472 125.424,167.0842 L97.835,167.0842 C97.828,166.8472 97.828,166.6072 97.828,166.3702" id="Fill-53"></path>
                    <path d="M263.4842,99.8828 C263.4842,137.2828 233.0562,167.7108 195.6562,167.7108 L195.6562,140.1218 C217.8442,140.1218 235.8952,122.0708 235.8952,99.8828 C235.8952,99.6458 235.8912,99.4058 235.8882,99.1688 L263.4782,99.1688 C263.4842,99.4058 263.4842,99.6458 263.4842,99.8828" id="Fill-57"></path>
                    <path d="M293.4842,166.3702 C293.4842,128.9702 323.9122,98.5422 361.3122,98.5422 L361.3122,126.1312 C339.1252,126.1312 321.0732,144.1822 321.0732,166.3702 C321.0732,166.6072 321.0772,166.8472 321.0802,167.0842 L293.4912,167.0842 C293.4842,166.8472 293.4842,166.6072 293.4842,166.3702" id="Fill-61"></path>
                </g>
            </g>
        </g>
    </g>
</svg>