<?xml version="1.0" encoding="UTF-8"?>
<svg width="16px" height="16px" viewBox="0 0 16 16" version="1.1" xmlns="http://www.w3.org/2000/svg" xmlns:xlink="http://www.w3.org/1999/xlink">
    <title>noun-calendar-3953351</title>
    <g id="COMPONENTS" stroke="none" stroke-width="1" fill="none" fill-rule="evenodd">
        <g id="FORM/-COMPONENTS/-Mobile/-Podnikam-od/-Static" transform="translate(-16.000000, -40.000000)" fill="#223146" fill-rule="nonzero">
            <g id="noun-calendar-3953351" transform="translate(16.000000, 40.000000)">
                <path d="M14.2857143,1.14285714 L12,1.14285714 L12,0.571428571 C12,0.255837286 11.7441627,0 11.4285714,0 C11.1129801,0 10.8571429,0.255837286 10.8571429,0.571428571 L10.8571429,1.14285714 L5.14285714,1.14285714 L5.14285714,0.571428571 C5.14285714,0.255837286 4.88701986,0 4.57142857,0 C4.25583729,0 4,0.255837286 4,0.571428571 L4,1.14285714 L1.71428571,1.14285714 C0.767511857,1.14285714 0,1.910369 0,2.85714286 L0,14.2857143 C0,15.2324881 0.767511857,16 1.71428571,16 L14.2857143,16 C15.2324881,16 16,15.2324881 16,14.2857143 L16,2.85714286 C16,1.910369 15.2324881,1.14285714 14.2857143,1.14285714 Z M1.71428571,2.28571429 L4,2.28571429 L4,2.85714286 C4,3.17273414 4.25583729,3.42857143 4.57142857,3.42857143 C4.88701986,3.42857143 5.14285714,3.17273414 5.14285714,2.85714286 L5.14285714,2.28571429 L10.8571429,2.28571429 L10.8571429,2.85714286 C10.8571429,3.17273414 11.1129801,3.42857143 11.4285714,3.42857143 C11.7441627,3.42857143 12,3.17273414 12,2.85714286 L12,2.28571429 L14.2857143,2.28571429 C14.6013056,2.28571429 14.8571429,2.54155157 14.8571429,2.85714286 L14.8571429,4.57142857 L1.14285714,4.57142857 L1.14285714,2.85714286 C1.14285714,2.54155157 1.39869443,2.28571429 1.71428571,2.28571429 Z M14.2857143,14.8571429 L1.71428571,14.8571429 C1.39869443,14.8571429 1.14285714,14.6013056 1.14285714,14.2857143 L1.14285714,5.71428571 L14.8571429,5.71428571 L14.8571429,14.2857143 C14.8571429,14.6013056 14.6013056,14.8571429 14.2857143,14.8571429 Z M4,12.5714286 C4,12.8870199 3.74416271,13.1428571 3.42857143,13.1428571 C3.11298014,13.1428571 2.85714286,12.8870199 2.85714286,12.5714286 C2.85714286,12.2558373 3.11298014,12 3.42857143,12 C3.74416271,12 4,12.2558373 4,12.5714286 Z M6.28571429,12.5714286 C6.28571429,12.8870199 6.029877,13.1428571 5.71428571,13.1428571 C5.39869443,13.1428571 5.14285714,12.8870199 5.14285714,12.5714286 C5.14285714,12.2558373 5.39869443,12 5.71428571,12 C6.029877,12 6.28571429,12.2558373 6.28571429,12.5714286 Z M8.57142857,12.5714286 C8.57142857,12.8870199 8.31559129,13.1428571 8,13.1428571 C7.68440871,13.1428571 7.42857143,12.8870199 7.42857143,12.5714286 C7.42857143,12.2558373 7.68440871,12 8,12 C8.31559129,12 8.57142857,12.2558373 8.57142857,12.5714286 Z M10.8571429,12.5714286 C10.8571429,12.8870199 10.6013056,13.1428571 10.2857143,13.1428571 C9.970123,13.1428571 9.71428571,12.8870199 9.71428571,12.5714286 C9.71428571,12.2558373 9.970123,12 10.2857143,12 C10.6013056,12 10.8571429,12.2558373 10.8571429,12.5714286 Z M4,10.2857143 C4,10.6013056 3.74416271,10.8571429 3.42857143,10.8571429 C3.11298014,10.8571429 2.85714286,10.6013056 2.85714286,10.2857143 C2.85714286,9.970123 3.11298014,9.71428571 3.42857143,9.71428571 C3.74416271,9.71428571 4,9.970123 4,10.2857143 Z M6.28571429,10.2857143 C6.28571429,10.6013056 6.029877,10.8571429 5.71428571,10.8571429 C5.39869443,10.8571429 5.14285714,10.6013056 5.14285714,10.2857143 C5.14285714,9.970123 5.39869443,9.71428571 5.71428571,9.71428571 C6.029877,9.71428571 6.28571429,9.970123 6.28571429,10.2857143 Z M8.57142857,10.2857143 C8.57142857,10.6013056 8.31559129,10.8571429 8,10.8571429 C7.68440871,10.8571429 7.42857143,10.6013056 7.42857143,10.2857143 C7.42857143,9.970123 7.68440871,9.71428571 8,9.71428571 C8.31559129,9.71428571 8.57142857,9.970123 8.57142857,10.2857143 Z M10.8571429,10.2857143 C10.8571429,10.6013056 10.6013056,10.8571429 10.2857143,10.8571429 C9.970123,10.8571429 9.71428571,10.6013056 9.71428571,10.2857143 C9.71428571,9.970123 9.970123,9.71428571 10.2857143,9.71428571 C10.6013056,9.71428571 10.8571429,9.970123 10.8571429,10.2857143 Z M13.1428571,10.2857143 C13.1428571,10.6013056 12.8870199,10.8571429 12.5714286,10.8571429 C12.2558373,10.8571429 12,10.6013056 12,10.2857143 C12,9.970123 12.2558373,9.71428571 12.5714286,9.71428571 C12.8870199,9.71428571 13.1428571,9.970123 13.1428571,10.2857143 Z M6.28571429,8 C6.28571429,8.31559129 6.029877,8.57142857 5.71428571,8.57142857 C5.39869443,8.57142857 5.14285714,8.31559129 5.14285714,8 C5.14285714,7.68440871 5.39869443,7.42857143 5.71428571,7.42857143 C6.029877,7.42857143 6.28571429,7.68440871 6.28571429,8 Z M8.57142857,8 C8.57142857,8.31559129 8.31559129,8.57142857 8,8.57142857 C7.68440871,8.57142857 7.42857143,8.31559129 7.42857143,8 C7.42857143,7.68440871 7.68440871,7.42857143 8,7.42857143 C8.31559129,7.42857143 8.57142857,7.68440871 8.57142857,8 Z M10.8571429,8 C10.8571429,8.31559129 10.6013056,8.57142857 10.2857143,8.57142857 C9.970123,8.57142857 9.71428571,8.31559129 9.71428571,8 C9.71428571,7.68440871 9.970123,7.42857143 10.2857143,7.42857143 C10.6013056,7.42857143 10.8571429,7.68440871 10.8571429,8 Z M13.1428571,8 C13.1428571,8.31559129 12.8870199,8.57142857 12.5714286,8.57142857 C12.2558373,8.57142857 12,8.31559129 12,8 C12,7.68440871 12.2558373,7.42857143 12.5714286,7.42857143 C12.8870199,7.42857143 13.1428571,7.68440871 13.1428571,8 Z" id="Shape"></path>
            </g>
        </g>
    </g>
</svg>