<?xml version="1.0" encoding="UTF-8"?>
<svg width="103px" height="106px" viewBox="0 0 103 106" version="1.1" xmlns="http://www.w3.org/2000/svg" xmlns:xlink="http://www.w3.org/1999/xlink">
    <title>Group 14</title>
    <g id="COMPONENTS" stroke="none" stroke-width="1" fill="none" fill-rule="evenodd">
        <g id="SECTIONS/-Desktop/-Co-ponukame" transform="translate(-1047.000000, -92.000000)">
            <g id="Group-41" transform="translate(991.000000, 0.000000)">
                <g id="Group-14" transform="translate(56.000000, 92.000000)">
                    <circle id="Oval-Copy-7" fill="#FCC800" cx="56.5" cy="46.5" r="46.5"></circle>
                    <g id="noun-save-money-4561271-copy" transform="translate(0.000000, 15.681718)" fill="#223146" fill-rule="nonzero">
                        <path d="M88.8713345,39.3596742 C86.0439629,36.5388685 81.4716635,36.5210284 78.6223555,39.3196849 L65.5617345,51.4294084 C64.1856697,49.2078229 61.7601776,47.8536027 59.1464983,47.8476024 L29.0261637,47.8476024 C24.5985119,47.8352017 20.3499665,49.5944741 17.227773,52.7331765 L13.6232687,56.3367893 C11.8291817,54.7346149 9.09721438,54.8070688 7.39061332,56.5020843 L0.434551327,63.4566057 C-0.148598576,64.050274 -0.144283643,65.0028608 0.444220508,65.5912243 C1.03272466,66.1795879 1.98553912,66.1839018 2.57934924,65.6008912 L9.53553259,58.6472493 C10.127833,58.0554856 11.08762,58.0551531 11.6803305,58.6465063 L31.6598815,78.6219815 C31.9444156,78.9061374 32.1042913,79.2917217 32.1042913,79.6937983 C32.1042913,80.0958748 31.9444156,80.4814591 31.6598815,80.765615 L24.7038347,87.7200909 C24.314898,88.1019541 24.1608594,88.6631208 24.3003577,89.1899685 C24.4398561,89.7168162 24.8514302,90.128292 25.3784038,90.267757 C25.9053774,90.407222 26.4666782,90.2532202 26.8486326,89.8643764 L33.804816,82.9107345 C35.5161629,81.2109979 35.589133,78.4666822 33.9705297,76.678446 L34.1751349,76.4738897 C35.0317503,75.6243023 36.1887775,75.1464865 37.3953958,75.1440232 L62.0127765,75.1440232 C67.3639777,75.1362309 72.3883848,72.569027 75.5294477,68.2377255 L89.5675292,48.836855 C91.7154229,45.9414503 91.4192791,41.9102696 88.8713042,39.3596742 L88.8713345,39.3596742 Z M87.1160131,47.0501223 L73.0705294,66.4606223 C70.5010777,70.0042838 66.3906276,72.1047066 62.0127765,72.1110876 L37.3953958,72.1110876 C35.3846385,72.1156953 33.4568049,72.9128248 32.0302004,74.3295132 L31.8436303,74.5160388 L15.7868601,58.4625132 L19.3726467,54.8775833 C21.9274806,52.3098725 25.4035449,50.8706057 29.0261637,50.880538 L59.1464983,50.880538 C61.6596649,50.880538 63.6969889,52.9173754 63.6969889,55.4299415 C63.6969889,57.9425077 61.6596649,59.979345 59.1464983,59.979345 L43.9781962,59.979345 C43.140474,59.979345 42.461366,60.6582908 42.461366,61.4958128 C42.461366,62.3333349 43.140474,63.0122806 43.9781962,63.0122806 L59.1464983,63.0122806 C63.3330718,63.0073671 66.7257346,59.6155148 66.7306493,55.4299415 C66.7184289,55.1394763 66.6891543,54.8499795 66.6429765,54.5629465 L80.7257743,41.5040507 C82.4066178,39.9056061 85.0459981,39.9059329 86.7264456,41.5047937 C88.2177165,42.9991179 88.3837172,45.3620686 87.1160131,47.0501223 L87.1160131,47.0501223 Z M24.638611,43.2700684 C24.5732582,43.6668648 24.6682675,44.0733636 24.902733,44.4001182 C25.1371984,44.7268728 25.4919086,44.94711 25.8888128,45.0123686 C25.9706066,45.0255828 26.0533227,45.0323557 26.1361775,45.0323557 C26.8783994,45.0318932 27.5110587,44.4940469 27.6308013,43.7617225 C29.577941,31.9228401 39.4742722,23.6279886 41.4608496,22.0676494 L55.5972673,22.0676494 C57.4531242,23.525627 66.0678704,30.7462431 68.8696226,41.1923255 C69.0864167,42.0012211 69.9180592,42.4812561 70.7271481,42.2645138 C71.5362369,42.0477714 72.0163866,41.2163277 71.7995925,40.4074321 C69.3483949,31.270213 63.0494844,24.5815739 59.5070943,21.3975374 C60.9138054,20.5614424 61.7574538,19.0294223 61.7117937,17.3939219 C61.6661336,15.7584214 60.738323,14.2758335 59.2871539,13.519487 C61.1712932,11.2291016 62.1947284,8.35196073 62.1801587,5.38650328 C62.1801587,0.588308088 59.2042743,-0.679368026 57.6296681,-0.679368026 C56.4999441,-0.703470839 55.3956314,-0.342594008 54.4982479,0.343944463 C53.666509,1.00148279 52.4918458,1.00148279 51.6601069,0.343944463 C50.7627235,-0.342594008 49.6584108,-0.703470839 48.5286868,-0.679368026 C47.3893247,-0.688789762 46.2750803,-0.344716138 45.3394906,0.305441345 C44.8827212,0.65712591 44.320626,0.844447977 43.7441493,0.8370998 C43.2866579,0.874226907 42.8355159,0.711370491 42.5072804,0.390606178 C41.6483057,-0.334310456 40.5512214,-0.715483806 39.4277055,-0.679368026 C37.8530993,-0.679368026 34.8772149,0.588308088 34.8772149,5.38650328 C34.8626573,8.35195928 35.8861032,11.2290946 37.77025,13.5194719 C36.3194609,14.2756156 35.391716,15.7576341 35.345611,17.3926914 C35.2995061,19.0277486 36.1422648,20.5596674 37.5481406,21.3963242 C33.6386775,24.9078723 26.3800383,32.679224 24.638611,43.2700684 Z M39.8943128,16.0017781 L57.1630608,16.0017781 C58.0007829,16.0017781 58.679891,16.6807238 58.679891,17.5182459 C58.679891,18.3557679 58.0007829,19.0347137 57.1630608,19.0347137 L39.8943128,19.0347137 C39.0565907,19.0347137 38.3774826,18.3557679 38.3774826,17.5182459 C38.3774826,16.6807238 39.0565907,16.0017781 39.8943128,16.0017781 Z M39.4277055,2.35356763 C39.8851969,2.31644052 40.3363389,2.47929693 40.6645744,2.80006125 C41.5235506,3.52497534 42.6206338,3.90614834 43.7441493,3.87003545 C44.8841027,3.8795794 45.9989287,3.53522693 46.934832,2.88448301 C47.3914,2.53357542 47.9528394,2.34655911 48.5286868,2.35356763 C49.0472411,2.33146015 49.5547214,2.5078197 49.9477573,2.84672296 C51.8123265,4.21113889 54.3460284,4.21113889 56.2105976,2.84672296 C56.6036335,2.5078197 57.1111138,2.33146015 57.6296681,2.35356763 C58.2399495,2.35356763 59.1465486,3.1614052 59.1465486,5.38650328 C59.1558655,8.31586218 57.8564523,11.0964044 55.6030919,12.9688424 L41.4542817,12.9688424 C39.2009213,11.0964044 37.9015081,8.31586218 37.910825,5.38650328 C37.910825,3.1614052 38.8174241,2.35356763 39.4277055,2.35356763 Z M39.9141117,41.1341069 L41.4046553,41.1341069 C41.2674458,40.2141036 41.2674458,39.2788372 41.4046553,38.358834 L39.9141117,38.358834 C39.1477413,38.358834 38.5264753,37.7375679 38.5264753,36.9711975 C38.5264753,36.204827 39.1477413,35.583561 39.9141117,35.583561 L42.1844376,35.583561 C43.5542948,32.2820483 46.7476622,30.1037213 50.3213851,30.0330152 C52.4637755,30.0432257 54.5259666,30.8490238 56.1077181,32.2940162 C56.4763031,32.6259694 56.6396228,33.1294486 56.5360766,33.6145527 C56.4325305,34.0996568 56.0778739,34.4925732 55.6058754,34.6451027 C55.1338769,34.7976322 54.616355,34.686566 54.2485073,34.353796 C53.1802599,33.3633259 51.7781531,32.8115308 50.3213851,32.8082881 C48.3075301,32.8477126 46.4458945,33.8885785 45.3576846,35.583561 L51.0152034,35.583561 C51.7815738,35.583561 52.4028398,36.204827 52.4028398,36.9711975 C52.4028398,37.7375679 51.7815738,38.358834 51.0152034,38.358834 L44.203296,38.358834 C44.0349293,39.2762642 44.0349293,40.2166766 44.203296,41.1341069 L51.0152034,41.1341069 C51.7815738,41.1341069 52.4028398,41.7553729 52.4028398,42.5217433 C52.4028398,43.2881138 51.7815738,43.9093798 51.0152034,43.9093798 L45.3576846,43.9093798 C46.4458945,45.6043623 43.5542948,47.2108925 42.1844376,43.9093798 L39.9141117,43.9093798 C39.1477413,43.9093798 38.5264753,43.2881138 38.5264753,42.5217433 C38.5264753,41.7553729 39.1477413,41.1341069 39.9141117,41.1341069 Z" id="Shape"></path>
                    </g>
                </g>
            </g>
        </g>
    </g>
</svg>