<?xml version="1.0" encoding="UTF-8"?>
<svg width="72px" height="65px" viewBox="0 0 72 65" version="1.1" xmlns="http://www.w3.org/2000/svg" xmlns:xlink="http://www.w3.org/1999/xlink">
    <title>Group 29</title>
    <g id="COMPONENTS" stroke="none" stroke-width="1" fill="none" fill-rule="evenodd">
        <g id="SECTIONS/-Desktop/-O-nas-Small" transform="translate(-1246.000000, -809.000000)" fill="#FFFFFF">
            <g id="Group-18" transform="translate(1215.000000, 778.000000)">
                <g id="Group-29" transform="translate(32.000000, 31.000000)">
                    <circle id="Oval-Copy-10" opacity="0.1" cx="40.686292" cy="30" r="30"></circle>
                    <g id="noun-cash-4561275" transform="translate(0.000000, 12.047453)" fill-rule="nonzero">
                        <path d="M22.786292,7.73254672 C22.786292,8.30692286 22.316191,8.77254672 21.736292,8.77254672 L14.3114375,8.77254672 C13.8406031,11.964839 11.3092794,14.4720549 8.08629198,14.9384051 L8.08629198,25.4866883 C11.3092794,25.9530386 13.8406031,28.4602545 14.3114375,31.6525467 L21.736292,31.6525467 C22.316191,31.6525467 22.786292,32.1181706 22.786292,32.6925467 C22.786292,33.2669229 22.316191,33.7325467 21.736292,33.7325467 L13.336292,33.7325467 C12.756393,33.7325467 12.286292,33.2669229 12.286292,32.6925467 C12.2828898,29.822063 9.93437653,27.4959165 7.03629198,27.4925467 C6.456393,27.4925467 5.98629198,27.0269229 5.98629198,26.4525467 L5.98629198,13.9725467 C5.98629198,13.3981706 6.456393,12.9325467 7.03629198,12.9325467 C9.93437653,12.929177 12.2828898,10.6030305 12.286292,7.73254672 C12.286292,7.15817058 12.756393,6.69254672 13.336292,6.69254672 L21.736292,6.69254672 C22.316191,6.69254672 22.786292,7.15817058 22.786292,7.73254672 Z M40.636292,33.7325467 L49.036292,33.7325467 C49.616191,33.7325467 50.086292,33.2669229 50.086292,32.6925467 C50.0896941,29.822063 52.4382074,27.4959165 55.336292,27.4925467 C55.916191,27.4925467 56.386292,27.0269229 56.386292,26.4525467 L56.386292,13.9725467 C56.386292,13.3981706 55.916191,12.9325467 55.336292,12.9325467 C52.4382074,12.929177 50.0896941,10.6030305 50.086292,7.73254672 C50.086292,7.15817058 49.616191,6.69254672 49.036292,6.69254672 L40.636292,6.69254672 C40.056393,6.69254672 39.586292,7.15817058 39.586292,7.73254672 C39.586292,8.30692286 40.056393,8.77254672 40.636292,8.77254672 L48.0611465,8.77254672 C48.5319809,11.964839 51.0633046,14.4720549 54.286292,14.9384051 L54.286292,25.4866883 C51.0633046,25.9530386 48.5319809,28.4602545 48.0611465,31.6525467 L40.636292,31.6525467 C40.056393,31.6525467 39.586292,32.1181706 39.586292,32.6925467 C39.586292,33.2669229 40.056393,33.7325467 40.636292,33.7325467 L40.636292,33.7325467 Z M57.436292,0.452546725 L40.636292,0.452546725 C40.056393,0.452546725 39.586292,0.918170585 39.586292,1.49254672 C39.586292,2.06692286 40.056393,2.53254672 40.636292,2.53254672 L57.436292,2.53254672 C59.1752021,2.53442674 60.5843939,3.93019764 60.586292,5.65254672 L60.586292,34.7725467 C60.5843939,36.4948958 59.1752021,37.8906667 57.436292,37.8925467 L40.636292,37.8925467 C40.056393,37.8925467 39.586292,38.3581706 39.586292,38.9325467 C39.586292,39.5069229 40.056393,39.9725467 40.636292,39.9725467 L57.436292,39.9725467 C58.5759394,39.9685976 59.6827033,39.5938463 60.586292,38.9059539 L60.586292,41.0125467 C60.5843939,42.7348958 59.1752021,44.1306667 57.436292,44.1325467 L40.636292,44.1325467 C40.056393,44.1325467 39.586292,44.5981706 39.586292,45.1725467 C39.586292,45.7469229 40.056393,46.2125467 40.636292,46.2125467 L57.436292,46.2125467 C58.5759394,46.2085976 59.6827033,45.8338463 60.586292,45.1459539 L60.586292,47.2525467 C60.5843939,48.9748958 59.1752021,50.3706667 57.436292,50.3725467 L40.636292,50.3725467 C40.056393,50.3725467 39.586292,50.8381706 39.586292,51.4125467 C39.586292,51.9869229 40.056393,52.4525467 40.636292,52.4525467 L57.436292,52.4525467 C60.3343765,52.449177 62.6828898,50.1230305 62.686292,47.2525467 L62.686292,5.65254672 C62.6828898,2.78206298 60.3343765,0.455916473 57.436292,0.452546725 L57.436292,0.452546725 Z M21.736292,0.452546725 L4.93629198,0.452546725 C2.03820743,0.455916473 -0.310305866,2.78206298 -0.313708016,5.65254672 L-0.313708016,47.2525467 C-0.310305866,50.1230305 2.03820743,52.449177 4.93629198,52.4525467 L21.736292,52.4525467 C22.316191,52.4525467 22.786292,51.9869229 22.786292,51.4125467 C22.786292,50.8381706 22.316191,50.3725467 21.736292,50.3725467 L4.93629198,50.3725467 C3.19738185,50.3706667 1.78819008,48.9748958 1.78629198,47.2525467 L1.78629198,45.1459539 C2.68988062,45.8338463 3.7966446,46.2085976 4.93629198,46.2125467 L21.736292,46.2125467 C22.316191,46.2125467 22.786292,45.7469229 22.786292,45.1725467 C22.786292,44.5981706 22.316191,44.1325467 21.736292,44.1325467 L4.93629198,44.1325467 C3.19738185,44.1306667 1.78819008,42.7348958 1.78629198,41.0125467 L1.78629198,38.9059539 C2.68988062,39.5938463 3.7966446,39.9685976 4.93629198,39.9725467 L21.736292,39.9725467 C22.316191,39.9725467 22.786292,39.5069229 22.786292,38.9325467 C22.786292,38.3581706 22.316191,37.8925467 21.736292,37.8925467 L4.93629198,37.8925467 C3.19738185,37.8906667 1.78819008,36.4948958 1.78629198,34.7725467 L1.78629198,5.65254672 C1.78819008,3.93019764 3.19738185,2.53442674 4.93629198,2.53254672 L21.736292,2.53254672 C22.316191,2.53254672 22.786292,2.06692286 22.786292,1.49254672 C22.786292,0.918170585 22.316191,0.452546725 21.736292,0.452546725 Z M37.486292,1.49254672 L37.486292,51.4125467 C37.486292,51.9869229 37.016191,52.4525467 36.436292,52.4525467 L25.936292,52.4525467 C25.356393,52.4525467 24.886292,51.9869229 24.886292,51.4125467 L24.886292,1.49254672 C24.886292,0.918170585 25.356393,0.452546725 25.936292,0.452546725 L36.436292,0.452546725 C37.016191,0.452546725 37.486292,0.918170585 37.486292,1.49254672 Z M35.386292,2.53254672 L26.986292,2.53254672 L26.986292,50.3725467 L35.386292,50.3725467 L35.386292,2.53254672 Z M40.179479,25.6593387 C40.7016146,25.9092204 41.3294063,25.6925533 41.5817015,25.1753955 C43.1211551,22.0425093 43.1211551,18.3825841 41.5817015,15.2496979 C41.3277037,14.7356076 40.7020592,14.521414 40.1817624,14.7704194 C39.6614655,15.0194248 39.4420872,15.6380322 39.6908825,16.1546123 C40.951429,18.7158457 40.951429,21.7092478 39.6908825,24.2704811 C39.4386616,24.7876446 39.6573968,25.4094093 40.179479,25.6593387 Z M22.193105,14.7657547 C21.9424175,14.6454286 21.6536985,14.6288291 21.3906387,14.7196178 C21.1275788,14.8104066 20.9117928,15.0011238 20.7908825,15.2496979 C19.2514288,18.3825841 19.2514288,22.0425093 20.7908825,25.1753955 C21.0448802,25.6894858 21.6705247,25.9036794 22.1908216,25.654674 C22.7111185,25.4056686 22.9304968,24.7870612 22.6817015,24.2704811 C21.421155,21.7092478 21.421155,18.7158457 22.6817015,16.1546123 C22.9339224,15.6374488 22.7151872,15.0156842 22.193105,14.7657547 Z" id="Shape"></path>
                    </g>
                </g>
            </g>
        </g>
    </g>
</svg>