<?xml version="1.0" encoding="UTF-8"?>
<svg width="559px" height="268px" viewBox="0 0 559 268" version="1.1" xmlns="http://www.w3.org/2000/svg" xmlns:xlink="http://www.w3.org/1999/xlink">
    <title>Group 8</title>
    <g id="DESIGN---Web" stroke="none" stroke-width="1" fill="none" fill-rule="evenodd">
        <g id="best-pozicka.sk---Design---Centrála" transform="translate(-149.000000, -645.000000)" stroke="#FCC800" stroke-width="2">
            <g id="Group-8" transform="translate(150.000000, 646.000000)">
                <path d="M67.828,0.714 C67.828,38.114 37.4,68.542 0,68.542 L0,40.953 C22.188,40.953 40.239,22.902 40.239,0.714 C40.239,0.477 40.235,0.237 40.232,-4.54747351e-13 L67.822,-4.54747351e-13 C67.828,0.237 67.828,0.477 67.828,0.714" id="Fill-27"></path>
                <path d="M97.828,67.8283 C97.828,30.4283 128.256,0.000299999999 165.656,0.000299999999 L165.656,27.5893 C143.468,27.5893 125.417,45.6403 125.417,67.8283 C125.417,68.0653 125.421,68.3053 125.424,68.5423 L97.835,68.5423 C97.828,68.3053 97.828,68.0653 97.828,67.8283" id="Fill-31"></path>
                <path d="M263.4843,0.714 C263.4843,38.114 233.0563,68.542 195.6563,68.542 L195.6563,40.953 C217.8433,40.953 235.8953,22.902 235.8953,0.714 C235.8953,0.477 235.8913,0.237 235.8883,-4.54747351e-13 L263.4773,-4.54747351e-13 C263.4843,0.237 263.4843,0.477 263.4843,0.714" id="Fill-51"></path>
                <path d="M293.4843,67.8283 C293.4843,30.4283 323.9123,0.000299999999 361.3123,0.000299999999 L361.3123,27.5893 C339.1253,27.5893 321.0733,45.6403 321.0733,67.8283 C321.0733,68.0653 321.0773,68.3053 321.0803,68.5423 L293.4913,68.5423 C293.4843,68.3053 293.4843,68.0653 293.4843,67.8283" id="Fill-55"></path>
                <path d="M459.1405,0.714 C459.1405,38.114 428.7125,68.542 391.3125,68.542 L391.3125,40.953 C413.5005,40.953 431.5515,22.902 431.5515,0.714 C431.5515,0.477 431.5475,0.237 431.5445,-4.54747351e-13 L459.1345,-4.54747351e-13 C459.1405,0.237 459.1405,0.477 459.1405,0.714" id="Fill-59"></path>
                <path d="M489.1405,67.8283 C489.1405,30.4283 519.5685,0.000299999999 556.9685,0.000299999999 L556.9685,27.5893 C534.7805,27.5893 516.7295,45.6403 516.7295,67.8283 C516.7295,68.0653 516.7335,68.3053 516.7365,68.5423 L489.1465,68.5423 C489.1405,68.3053 489.1405,68.0653 489.1405,67.8283" id="Fill-63"></path>
                <path d="M67.828,99.8827 C67.828,137.2827 37.4,167.7107 0,167.7107 L0,140.1217 C22.188,140.1217 40.239,122.0707 40.239,99.8827 C40.239,99.6457 40.235,99.4057 40.232,99.1687 L67.822,99.1687 C67.828,99.4057 67.828,99.6457 67.828,99.8827" id="Fill-73"></path>
                <path d="M67.828,197.7977 C67.828,235.1977 37.4,265.6257 0,265.6257 L0,238.0367 C22.188,238.0367 40.239,219.9857 40.239,197.7977 C40.239,197.5607 40.235,197.3207 40.232,197.0837 L67.822,197.0837 C67.828,197.3207 67.828,197.5607 67.828,197.7977" id="Fill-75"></path>
                <path d="M97.8275,166.3706 C97.8275,128.9706 128.2555,98.5426 165.6555,98.5426 L165.6555,126.1316 C143.4685,126.1316 125.4165,144.1826 125.4165,166.3706 C125.4165,166.6076 125.4205,166.8476 125.4235,167.0846 L97.8345,167.0846 C97.8275,166.8476 97.8275,166.6076 97.8275,166.3706" id="Fill-77"></path>
                <path d="M97.828,264.912 C97.828,227.512 128.256,197.084 165.656,197.084 L165.656,224.673 C143.468,224.673 125.417,242.724 125.417,264.912 C125.417,265.149 125.421,265.389 125.424,265.626 L97.835,265.626 C97.828,265.389 97.828,265.149 97.828,264.912" id="Fill-79"></path>
                <path d="M263.4843,99.8827 C263.4843,137.2827 233.0563,167.7107 195.6563,167.7107 L195.6563,140.1217 C217.8433,140.1217 235.8953,122.0707 235.8953,99.8827 C235.8953,99.6457 235.8913,99.4057 235.8883,99.1687 L263.4773,99.1687 C263.4843,99.4057 263.4843,99.6457 263.4843,99.8827" id="Fill-99"></path>
                <path d="M263.4843,197.7977 C263.4843,235.1977 233.0563,265.6257 195.6563,265.6257 L195.6563,238.0367 C217.8433,238.0367 235.8953,219.9857 235.8953,197.7977 C235.8953,197.5607 235.8913,197.3207 235.8883,197.0837 L263.4773,197.0837 C263.4843,197.3207 263.4843,197.5607 263.4843,197.7977" id="Fill-101"></path>
                <path d="M293.4843,166.3701 C293.4843,128.9701 323.9123,98.5421 361.3123,98.5421 L361.3123,126.1311 C339.1253,126.1311 321.0733,144.1821 321.0733,166.3701 C321.0733,166.6071 321.0773,166.8471 321.0803,167.0841 L293.4913,167.0841 C293.4843,166.8471 293.4843,166.6071 293.4843,166.3701" id="Fill-103"></path>
                <path d="M293.4843,264.912 C293.4843,227.512 323.9123,197.084 361.3123,197.084 L361.3123,224.673 C339.1253,224.673 321.0733,242.724 321.0733,264.912 C321.0733,265.149 321.0773,265.389 321.0803,265.626 L293.4913,265.626 C293.4843,265.389 293.4843,265.149 293.4843,264.912" id="Fill-105"></path>
                <path d="M459.1405,99.8827 C459.1405,137.2827 428.7125,167.7107 391.3125,167.7107 L391.3125,140.1217 C413.5005,140.1217 431.5515,122.0707 431.5515,99.8827 C431.5515,99.6457 431.5475,99.4057 431.5445,99.1687 L459.1345,99.1687 C459.1405,99.4057 459.1405,99.6457 459.1405,99.8827" id="Fill-107"></path>
                <path d="M459.1405,197.7977 C459.1405,235.1977 428.7125,265.6257 391.3125,265.6257 L391.3125,238.0367 C413.5005,238.0367 431.5515,219.9857 431.5515,197.7977 C431.5515,197.5607 431.5475,197.3207 431.5445,197.0837 L459.1345,197.0837 C459.1405,197.3207 459.1405,197.5607 459.1405,197.7977" id="Fill-109"></path>
                <path d="M489.1405,166.3701 C489.1405,128.9701 519.5685,98.5421 556.9685,98.5421 L556.9685,126.1311 C534.7815,126.1311 516.7295,144.1821 516.7295,166.3701 C516.7295,166.6071 516.7335,166.8471 516.7365,167.0841 L489.1475,167.0841 C489.1405,166.8471 489.1405,166.6071 489.1405,166.3701" id="Fill-111"></path>
                <path d="M489.1405,264.912 C489.1405,227.512 519.5685,197.084 556.9685,197.084 L556.9685,224.673 C534.7805,224.673 516.7295,242.724 516.7295,264.912 C516.7295,265.149 516.7335,265.389 516.7365,265.626 L489.1465,265.626 C489.1405,265.389 489.1405,265.149 489.1405,264.912" id="Fill-113"></path>
            </g>
        </g>
    </g>
</svg>