<?xml version="1.0" encoding="UTF-8"?>
<svg width="267px" height="268px" viewBox="0 0 267 268" version="1.1" xmlns="http://www.w3.org/2000/svg" xmlns:xlink="http://www.w3.org/1999/xlink">
    <title>Group 10 Copy 2</title>
    <g id="COMPONENTS" stroke="none" stroke-width="1" fill="none" fill-rule="evenodd">
        <g id="SECTIONS/-Desktop/-Centrala-Gallery" transform="translate(25.000000, -98.000000)" stroke="#ED4036" stroke-width="2">
            <g id="Group-10-Copy-2" transform="translate(-23.172000, 99.000000)">
                <path d="M0,67.8283 C0,30.4283 30.428,0.000300000001 67.828,0.000300000001 L67.828,27.5893 C45.64,27.5893 27.589,45.6403 27.589,67.8283 C27.589,68.0653 27.593,68.3053 27.596,68.5423 L0.007,68.5423 C0,68.3053 0,68.0653 0,67.8283" id="Fill-71-Copy-3"></path>
                <path d="M165.6562,0.714 C165.6562,38.114 135.2282,68.542 97.8282,68.542 L97.8282,40.953 C120.0162,40.953 138.0672,22.902 138.0672,0.714 C138.0672,0.477 138.0632,0.237 138.0602,0 L165.6502,0 C165.6562,0.237 165.6562,0.477 165.6562,0.714" id="Fill-75-Copy-3"></path>
                <path d="M195.6562,67.8283 C195.6562,30.4283 226.0842,0.000300000001 263.4842,0.000300000001 L263.4842,27.5893 C241.2962,27.5893 223.2452,45.6403 223.2452,67.8283 C223.2452,68.0653 223.2492,68.3053 223.2522,68.5423 L195.6632,68.5423 C195.6562,68.3053 195.6562,68.0653 195.6562,67.8283" id="Fill-79-Copy-3"></path>
                <path d="M0,166.3702 C0,128.9702 30.428,98.5422 67.828,98.5422 L67.828,126.1312 C45.641,126.1312 27.589,144.1822 27.589,166.3702 C27.589,166.6072 27.593,166.8472 27.596,167.0842 L0.007,167.0842 C0,166.8472 0,166.6072 0,166.3702" id="Fill-85-Copy-3"></path>
                <path d="M0,264.9121 C0,227.5121 30.428,197.0841 67.828,197.0841 L67.828,224.6731 C45.64,224.6731 27.589,242.7241 27.589,264.9121 C27.589,265.1491 27.593,265.3891 27.596,265.6261 L0.007,265.6261 C0,265.3891 0,265.1491 0,264.9121" id="Fill-87-Copy-3"></path>
                <path d="M165.6562,99.8827 C165.6562,137.2827 135.2282,167.7107 97.8282,167.7107 L97.8282,140.1217 C120.0162,140.1217 138.0672,122.0707 138.0672,99.8827 C138.0672,99.6457 138.0632,99.4057 138.0602,99.1687 L165.6502,99.1687 C165.6562,99.4057 165.6562,99.6457 165.6562,99.8827" id="Fill-90-Copy-3"></path>
                <path d="M165.6562,197.7977 C165.6562,235.1977 135.2282,265.6257 97.8282,265.6257 L97.8282,238.0367 C120.0162,238.0367 138.0672,219.9857 138.0672,197.7977 C138.0672,197.5607 138.0632,197.3207 138.0602,197.0837 L165.6502,197.0837 C165.6562,197.3207 165.6562,197.5607 165.6562,197.7977" id="Fill-92-Copy-3"></path>
                <path d="M195.6562,166.3702 C195.6562,128.9702 226.0842,98.5422 263.4842,98.5422 L263.4842,126.1312 C241.2972,126.1312 223.2452,144.1822 223.2452,166.3702 C223.2452,166.6072 223.2492,166.8472 223.2522,167.0842 L195.6632,167.0842 C195.6562,166.8472 195.6562,166.6072 195.6562,166.3702" id="Fill-94-Copy-3"></path>
                <path d="M195.6562,264.9121 C195.6562,227.5121 226.0842,197.0841 263.4842,197.0841 L263.4842,224.6731 C241.2962,224.6731 223.2452,242.7241 223.2452,264.9121 C223.2452,265.1491 223.2492,265.3891 223.2522,265.6261 L195.6632,265.6261 C195.6562,265.3891 195.6562,265.1491 195.6562,264.9121" id="Fill-96-Copy-3"></path>
            </g>
        </g>
    </g>
</svg>