<?xml version="1.0" encoding="UTF-8"?>
<svg width="17px" height="18px" viewBox="0 0 17 18" version="1.1" xmlns="http://www.w3.org/2000/svg" xmlns:xlink="http://www.w3.org/1999/xlink">
    <title>Shape</title>
    <g id="COMPONENTS" stroke="none" stroke-width="1" fill="none" fill-rule="evenodd">
        <g id="FORM/-COMPONENTS/-Mobile/-MENUBAR/-Step1-Static" transform="translate(-295.000000, -148.000000)" fill="#FCC800" fill-rule="nonzero">
            <g id="Group-5" transform="translate(56.000000, 148.500000)">
                <path d="M247.5,0 C242.80558,0 239,3.80557963 239,8.5 C239,13.1944204 242.80558,17 247.5,17 C252.19442,17 256,13.1944204 256,8.5 C256,6.24565984 255.104467,4.08365158 253.510408,2.48959236 C251.916348,0.895533143 249.75434,0 247.5,0 Z M253.215031,13.3319415 L252.356994,12.4676409 C252.111406,12.2220529 251.713229,12.2220529 251.467641,12.4676409 C251.222053,12.7132289 251.222053,13.1114057 251.467641,13.3569937 L252.331942,14.2150313 C251.147254,15.2386319 249.6703,15.8631596 248.110647,16 L248.110647,14.7473904 C248.110647,14.4014918 247.830241,14.1210856 247.484342,14.1210856 C247.138444,14.1210856 246.858038,14.4014918 246.858038,14.7473904 L246.858038,16 C245.301991,15.872028 243.825425,15.2586178 242.636743,14.2463466 L243.501044,13.388309 C243.746632,13.142721 243.746632,12.7445442 243.501044,12.4989562 C243.255456,12.2533682 242.857279,12.2533682 242.611691,12.4989562 L241.753653,13.3319415 C240.741382,12.1432597 240.127972,10.6666937 240,9.11064718 L241.221294,9.11064718 C241.567193,9.11064718 241.847599,8.83024097 241.847599,8.48434238 C241.847599,8.13844379 241.567193,7.85803758 241.221294,7.85803758 L240,7.85803758 C240.127972,6.30199106 240.741382,4.82542503 241.753653,3.63674322 L242.611691,4.50104384 C242.729887,4.61827965 242.889894,4.68363471 243.056367,4.68267223 C243.222841,4.68363471 243.382848,4.61827965 243.501044,4.50104384 C243.619611,4.38344472 243.686304,4.2233638 243.686304,4.05636743 C243.686304,3.88937106 243.619611,3.72929015 243.501044,3.61169102 L242.636743,2.75365344 C243.825425,1.74138218 245.301991,1.12797196 246.858038,1 L246.858038,2.22129436 C246.858038,2.56719295 247.138444,2.84759916 247.484342,2.84759916 C247.830241,2.84759916 248.110647,2.56719295 248.110647,2.22129436 L248.110647,1 C249.666694,1.12797196 251.14326,1.74138218 252.331942,2.75365344 L251.467641,3.61169102 C251.349073,3.72929015 251.282381,3.88937106 251.282381,4.05636743 C251.282381,4.2233638 251.349073,4.38344472 251.467641,4.50104384 C251.585836,4.61827965 251.745844,4.68363471 251.912317,4.68267223 C252.078791,4.68363471 252.238798,4.61827965 252.356994,4.50104384 L253.215031,3.63674322 C254.238632,4.82143112 254.86316,6.29838432 255,7.85803758 L253.74739,7.85803758 C253.401492,7.85803758 253.121086,8.13844379 253.121086,8.48434238 C253.121086,8.83024097 253.401492,9.11064718 253.74739,9.11064718 L255,9.11064718 C254.86316,10.6703004 254.238632,12.1472536 253.215031,13.3319415 Z M249.822727,9.90870358 C249.936183,10.0281285 250,10.1906947 250,10.3602837 C250,10.5298728 249.936183,10.692439 249.822727,10.8118639 C249.710198,10.9322721 249.557019,11 249.397222,11 C249.237425,11 249.084246,10.9322721 248.971717,10.8118639 L247.173808,8.90377875 C247.061626,8.78374822 246.999089,8.62125685 247,8.45219861 L247,4.63602837 C247,4.2847596 247.268327,4 247.599313,4 C247.930299,4 248.198616,4.2847596 248.198616,4.63602837 L248.198616,8.19142698 L249.822727,9.90870358 Z" id="Shape"></path>
            </g>
        </g>
    </g>
</svg>