<?xml version="1.0" encoding="UTF-8"?>
<svg width="46px" height="33px" viewBox="0 0 46 33" version="1.1" xmlns="http://www.w3.org/2000/svg" xmlns:xlink="http://www.w3.org/1999/xlink">
    <title>noun-email-3953793</title>
    <g id="COMPONENTS" stroke="none" stroke-width="1" fill="none" fill-rule="evenodd">
        <g id="SECTIONS/-Desktop/-Basic-Form" transform="translate(-331.000000, -430.000000)" fill="#223146" fill-rule="nonzero">
            <g id="noun-email-3953793" transform="translate(331.687500, 430.571429)">
                <path d="M39.8568144,0.847076723 L5.28538587,0.847076723 C2.68175776,0.847076723 0.571100157,2.92895264 0.571100157,5.49707672 L0.571100157,27.1970767 C0.571100157,29.7652008 2.68175776,31.8470767 5.28538587,31.8470767 L39.8568144,31.8470767 C42.4604425,31.8470767 44.5711002,29.7652008 44.5711002,27.1970767 L44.5711002,5.49707672 C44.5711002,2.92895264 42.4604425,0.847076723 39.8568144,0.847076723 Z M38.9925287,3.94707672 L22.5711002,18.8890767 L6.14967159,3.94707672 L38.9925287,3.94707672 Z M39.8568144,28.7470767 L5.28538587,28.7470767 C4.41750984,28.7470767 3.7139573,28.0531181 3.7139573,27.1970767 L3.7139573,5.94657672 L21.5025287,22.1285767 C22.1052551,22.6799384 23.0369452,22.6799384 23.6396716,22.1285767 L41.428243,5.94657672 L41.428243,27.1970767 C41.428243,28.0531181 40.7246905,28.7470767 39.8568144,28.7470767 Z" id="Shape"></path>
            </g>
        </g>
    </g>
</svg>