<?xml version="1.0" encoding="UTF-8"?>
<svg width="41px" height="45px" viewBox="0 0 41 45" version="1.1" xmlns="http://www.w3.org/2000/svg" xmlns:xlink="http://www.w3.org/1999/xlink">
    <title>noun-location-3953807</title>
    <g id="COMPONENTS" stroke="none" stroke-width="1" fill="none" fill-rule="evenodd">
        <g id="SECTIONS/-Desktop/-Basic-Form" transform="translate(-331.000000, -487.000000)" fill="#223146" fill-rule="nonzero">
            <g id="noun-location-3953807" transform="translate(331.687500, 487.407929)">
                <path d="M39.8160312,36.2142446 C39.8160312,41.3685303 30.0660312,44.0713874 20.3160312,44.0713874 C10.5660312,44.0713874 0.816031186,41.3685303 0.816031186,36.2142446 C0.816031186,34.752816 1.64478119,32.6471017 5.69103119,30.8871017 C6.21933768,30.6513064 6.83759679,30.705979 7.31291629,31.0305249 C7.78823579,31.3550708 8.04840332,31.9001838 7.9954163,32.460525 C7.94242929,33.0208661 7.5843377,33.5113064 7.05603119,33.7471017 C4.82978119,34.642816 4.06603119,35.6799589 4.06603119,36.2142446 C4.06603119,38.0842446 10.5660312,40.9285303 20.3160312,40.9285303 C30.0660312,40.9285303 36.5660312,38.0842446 36.5660312,36.2142446 C36.5660312,35.6799589 35.8022812,34.642816 33.6410312,33.7471017 C33.046683,33.5662606 32.6115951,33.072704 32.5210139,32.4765723 C32.4304326,31.8804405 32.7003092,31.286712 33.215739,30.948177 C33.7311688,30.6096421 34.4013849,30.5859164 34.9410312,30.8871017 C38.9872812,32.6471017 39.8160312,34.752816 39.8160312,36.2142446 Z M4.06603119,15.7856732 C4.06603119,7.1069128 11.341404,0.0713874368 20.3160312,0.0713874368 C29.2906584,0.0713874368 36.5660312,7.1069128 36.5660312,15.7856732 C36.5660312,27.492816 21.8435312,37.1099589 21.2097812,37.5185303 C20.6674659,37.8638996 19.9645965,37.8638996 19.4222812,37.5185303 C18.7885312,37.1099589 4.06603119,27.492816 4.06603119,15.7856732 Z M7.31603119,15.7856732 C7.31603119,24.2871017 17.2285312,32.0656732 20.3160312,34.2813874 C23.4035312,32.0656732 33.3160312,24.2871017 33.3160312,15.7856732 C33.3160312,8.84266487 27.4957329,3.21424458 20.3160312,3.21424458 C13.1363294,3.21424458 7.31603119,8.84266487 7.31603119,15.7856732 Z M20.3160312,23.642816 C15.8287176,23.642816 12.1910312,20.1250533 12.1910312,15.7856732 C12.1910312,11.446293 15.8287176,7.92853029 20.3160312,7.92853029 C24.8033448,7.92853029 28.4410312,11.446293 28.4410312,15.7856732 C28.4410312,20.1250533 24.8033448,23.642816 20.3160312,23.642816 Z M20.3160312,20.4999589 C23.0084193,20.4999589 25.1910312,18.3893013 25.1910312,15.7856732 C25.1910312,13.182045 23.0084193,11.0713874 20.3160312,11.0713874 C17.623643,11.0713874 15.4410312,13.182045 15.4410312,15.7856732 C15.4410312,18.3893013 17.623643,20.4999589 20.3160312,20.4999589 Z" id="Shape"></path>
            </g>
        </g>
    </g>
</svg>