<?xml version="1.0" encoding="UTF-8"?>
<svg width="698px" height="807px" viewBox="0 0 698 807" version="1.1" xmlns="http://www.w3.org/2000/svg" xmlns:xlink="http://www.w3.org/1999/xlink">
    <title>Group 11</title>
    <g id="DESIGN---Web" stroke="none" stroke-width="1" fill="none" fill-rule="evenodd">
        <g id="best-pozicka.sk---Design---Pôžičky-(HOME)" transform="translate(-1073.000000, -211.000000)" stroke="#FCC800" stroke-width="2">
            <g id="Group-11" transform="translate(1074.000000, 212.000000)">
                <path d="M0,71.2499781 C0,31.9631175 32.3460555,0 72.1035971,0 L72.1035971,28.9808876 C48.5180202,28.9808876 29.3280967,47.9425754 29.3280967,71.2499781 C29.3280967,71.498935 29.3323488,71.7510432 29.3355379,72 L0.0074412511,72 C0,71.7510432 0,71.498935 0,71.2499781" id="Fill-5-Copy-2"></path>
                <path d="M176.253237,1.75002188 C176.253237,41.0368825 143.907182,73 104.14964,73 L104.14964,44.0191124 C127.73628,44.0191124 146.925141,25.0574246 146.925141,1.75002188 C146.925141,1.50106504 146.920889,1.24895684 146.917699,1 L176.246859,1 C176.253237,1.24895684 176.253237,1.50106504 176.253237,1.75002188" id="Fill-9-Copy-2"></path>
                <path d="M208.299281,71.2499781 C208.299281,31.9631175 240.645336,0 280.402878,0 L280.402878,28.9808876 C256.817301,28.9808876 237.627377,47.9425754 237.627377,71.2499781 C237.627377,71.498935 237.631629,71.7510432 237.634818,72 L208.306722,72 C208.299281,71.7510432 208.299281,71.498935 208.299281,71.2499781" id="Fill-13-Copy-2"></path>
                <path d="M383.551079,1.75002188 C383.551079,41.0368825 351.205024,73 311.447482,73 L311.447482,44.0191124 C335.033059,44.0191124 354.222982,25.0574246 354.222982,1.75002188 C354.222982,1.50106504 354.21873,1.24895684 354.215541,1 L383.543638,1 C383.551079,1.24895684 383.551079,1.50106504 383.551079,1.75002188" id="Fill-33-Copy-2"></path>
                <path d="M415.597122,71.2499781 C415.597122,31.9631175 447.943178,0 487.700719,0 L487.700719,28.9808876 C464.115143,28.9808876 444.925219,47.9425754 444.925219,71.2499781 C444.925219,71.498935 444.929471,71.7510432 444.93266,72 L415.604564,72 C415.597122,71.7510432 415.597122,71.498935 415.597122,71.2499781" id="Fill-37-Copy-2"></path>
                <path d="M591.85036,1.75002188 C591.85036,41.0368825 559.504304,73 519.746763,73 L519.746763,44.0191124 C543.333403,44.0191124 562.522263,25.0574246 562.522263,1.75002188 C562.522263,1.50106504 562.518011,1.24895684 562.514822,1 L591.843981,1 C591.85036,1.24895684 591.85036,1.50106504 591.85036,1.75002188" id="Fill-41-Copy-2"></path>
                <path d="M623.896403,71.2499781 C623.896403,31.9631175 656.242458,0 696,0 L696,28.9808876 C672.414423,28.9808876 653.2245,47.9425754 653.2245,71.2499781 C653.2245,71.498935 653.228752,71.7510432 653.231941,72 L623.903844,72 C623.896403,71.7510432 623.896403,71.498935 623.896403,71.2499781" id="Fill-45-Copy-2"></path>
                <path d="M623.896403,176.249978 C623.896403,136.963118 656.242458,105 696,105 L696,133.980888 C672.41336,133.980888 653.2245,152.942575 653.2245,176.249978 C653.2245,176.498935 653.228752,176.751043 653.231941,177 L623.902781,177 C623.896403,176.751043 623.896403,176.498935 623.896403,176.249978" id="Fill-47-Copy-2"></path>
                <path d="M623.896403,281.249978 C623.896403,241.963118 656.242458,210 696,210 L696,238.980888 C672.414423,238.980888 653.2245,257.942575 653.2245,281.249978 C653.2245,281.498935 653.228752,281.751043 653.231941,282 L623.903844,282 C623.896403,281.751043 623.896403,281.498935 623.896403,281.249978" id="Fill-61-Copy-2"></path>
                <path d="M623.896403,385.249978 C623.896403,345.963118 656.242458,314 696,314 L696,342.980888 C672.41336,342.980888 653.2245,361.942575 653.2245,385.249978 C653.2245,385.498935 653.228752,385.751043 653.231941,386 L623.902781,386 C623.896403,385.751043 623.896403,385.498935 623.896403,385.249978" id="Fill-63-Copy-2"></path>
                <path d="M623.896403,490.249978 C623.896403,450.963118 656.242458,419 696,419 L696,447.980888 C672.414423,447.980888 653.2245,466.942575 653.2245,490.249978 C653.2245,490.498935 653.228752,490.751043 653.231941,491 L623.903844,491 C623.896403,490.751043 623.896403,490.498935 623.896403,490.249978" id="Fill-111-Copy-2"></path>
                <path d="M623.896403,595.249978 C623.896403,555.963118 656.242458,524 696,524 L696,552.980888 C672.41336,552.980888 653.2245,571.942575 653.2245,595.249978 C653.2245,595.498935 653.228752,595.751043 653.231941,596 L623.902781,596 C623.896403,595.751043 623.896403,595.498935 623.896403,595.249978" id="Fill-113-Copy-2"></path>
                <path d="M623.896403,700.249978 C623.896403,660.963118 656.242458,629 696,629 L696,657.980888 C672.414423,657.980888 653.2245,676.942575 653.2245,700.249978 C653.2245,700.498935 653.228752,700.751043 653.231941,701 L623.903844,701 C623.896403,700.751043 623.896403,700.498935 623.896403,700.249978" id="Fill-128-Copy-2"></path>
                <path d="M623.896403,804.249978 C623.896403,764.963118 656.242458,733 696,733 L696,761.980888 C672.41336,761.980888 653.2245,780.942575 653.2245,804.249978 C653.2245,804.498935 653.228752,804.751043 653.231941,805 L623.902781,805 C623.896403,804.751043 623.896403,804.498935 623.896403,804.249978" id="Fill-130-Copy-2"></path>
            </g>
        </g>
    </g>
</svg>