<?xml version="1.0" encoding="UTF-8"?>
<svg width="179px" height="179px" viewBox="0 0 179 179" version="1.1" xmlns="http://www.w3.org/2000/svg" xmlns:xlink="http://www.w3.org/1999/xlink">
    <title>Group 9</title>
    <g id="DESIGN---Web" stroke="none" stroke-width="1" fill="none" fill-rule="evenodd">
        <g id="best-pozicka.sk---Design---Pôžičky-(HOME)" transform="translate(-807.000000, -740.000000)" stroke="#FCC800" stroke-width="2">
            <g id="Group-9" transform="translate(808.000000, 741.000000)">
                <path d="M72,1.75002188 C72,41.0368825 39.7004187,73 0,73 L0,44.0191124 C23.5527511,44.0191124 42.7140414,25.0574246 42.7140414,1.75002188 C42.7140414,1.50106504 42.7097954,1.24895684 42.7066108,1 L71.9936309,1 C72,1.24895684 72,1.50106504 72,1.75002188" id="Fill-1-Copy-2"></path>
                <path d="M72,105.750022 C72,145.036882 39.7004187,177 0,177 L0,148.019112 C23.5527511,148.019112 42.7140414,129.057425 42.7140414,105.750022 C42.7140414,105.501065 42.7097954,105.248957 42.7066108,105 L71.9925694,105 C72,105.248957 72,105.501065 72,105.750022" id="Fill-3-Copy-2"></path>
                <path d="M105,71.2499781 C105,31.9631175 137.299581,0 177,0 L177,28.9808876 C153.44831,28.9808876 134.285959,47.9425754 134.285959,71.2499781 C134.285959,71.498935 134.290205,71.7510432 134.293389,72 L105.007431,72 C105,71.7510432 105,71.498935 105,71.2499781" id="Fill-5-Copy-2"></path>
                <path d="M105,176.249978 C105,136.963118 137.299581,105 177,105 L177,133.980888 C153.447249,133.980888 134.285959,152.942575 134.285959,176.249978 C134.285959,176.498935 134.290205,176.751043 134.293389,177 L105.007431,177 C105,176.751043 105,176.498935 105,176.249978" id="Fill-7-Copy-2"></path>
            </g>
        </g>
    </g>
</svg>