<?xml version="1.0" encoding="UTF-8"?>
<svg width="462px" height="170px" viewBox="0 0 462 170" version="1.1" xmlns="http://www.w3.org/2000/svg" xmlns:xlink="http://www.w3.org/1999/xlink">
    <title>Group 13</title>
    <g id="COMPONENTS" stroke="none" stroke-width="1" fill="none" fill-rule="evenodd">
        <g id="SECTIONS/-Desktop/-FAQ" transform="translate(-1130.000000, 1.000000)" stroke="#ED4036" stroke-width="2">
            <g id="Group-13" transform="translate(1131.000000, -0.000000)">
                <path d="M67.828,0.714 C67.828,38.114 37.4,68.542 0,68.542 L0,40.953 C22.188,40.953 40.239,22.902 40.239,0.714 C40.239,0.477 40.235,0.237 40.232,4.54747351e-13 L67.821,4.54747351e-13 C67.828,0.237 67.828,0.477 67.828,0.714" id="Fill-67-Copy-3"></path>
                <path d="M97.828,67.8283 C97.828,30.4283 128.256,0.000300000001 165.656,0.000300000001 L165.656,27.5893 C143.468,27.5893 125.417,45.6403 125.417,67.8283 C125.417,68.0653 125.421,68.3053 125.424,68.5423 L97.835,68.5423 C97.828,68.3053 97.828,68.0653 97.828,67.8283" id="Fill-71-Copy-3"></path>
                <path d="M263.4842,0.714 C263.4842,38.114 233.0562,68.542 195.6562,68.542 L195.6562,40.953 C217.8442,40.953 235.8952,22.902 235.8952,0.714 C235.8952,0.477 235.8912,0.237 235.8882,4.54747351e-13 L263.4782,4.54747351e-13 C263.4842,0.237 263.4842,0.477 263.4842,0.714" id="Fill-75-Copy-3"></path>
                <path d="M293.4842,67.8283 C293.4842,30.4283 323.9122,0.000300000001 361.3122,0.000300000001 L361.3122,27.5893 C339.1242,27.5893 321.0732,45.6403 321.0732,67.8283 C321.0732,68.0653 321.0772,68.3053 321.0802,68.5423 L293.4912,68.5423 C293.4842,68.3053 293.4842,68.0653 293.4842,67.8283" id="Fill-79-Copy-3"></path>
                <path d="M67.828,99.8827 C67.828,137.2827 37.4,167.7107 0,167.7107 L0,140.1217 C22.188,140.1217 40.239,122.0707 40.239,99.8827 C40.239,99.6457 40.235,99.4057 40.232,99.1687 L67.822,99.1687 C67.828,99.4057 67.828,99.6457 67.828,99.8827" id="Fill-81-Copy-3"></path>
                <path d="M97.828,166.3702 C97.828,128.9702 128.256,98.5422 165.656,98.5422 L165.656,126.1312 C143.469,126.1312 125.417,144.1822 125.417,166.3702 C125.417,166.6072 125.421,166.8472 125.424,167.0842 L97.835,167.0842 C97.828,166.8472 97.828,166.6072 97.828,166.3702" id="Fill-85-Copy-3"></path>
                <path d="M263.4842,99.8827 C263.4842,137.2827 233.0562,167.7107 195.6562,167.7107 L195.6562,140.1217 C217.8442,140.1217 235.8952,122.0707 235.8952,99.8827 C235.8952,99.6457 235.8912,99.4057 235.8882,99.1687 L263.4782,99.1687 C263.4842,99.4057 263.4842,99.6457 263.4842,99.8827" id="Fill-90-Copy-3"></path>
                <path d="M293.4842,166.3702 C293.4842,128.9702 323.9122,98.5422 361.3122,98.5422 L361.3122,126.1312 C339.1252,126.1312 321.0732,144.1822 321.0732,166.3702 C321.0732,166.6072 321.0772,166.8472 321.0802,167.0842 L293.4912,167.0842 C293.4842,166.8472 293.4842,166.6072 293.4842,166.3702" id="Fill-94-Copy-3"></path>
                <path d="M459.1405,0.714 C459.1405,38.114 428.7125,68.542 391.3125,68.542 L391.3125,40.953 C413.4995,40.953 431.5515,22.902 431.5515,0.714 C431.5515,0.477 431.5475,0.237 431.5445,4.54747351e-13 L459.1335,4.54747351e-13 C459.1405,0.237 459.1405,0.477 459.1405,0.714" id="Fill-101-Copy-3"></path>
                <path d="M459.1405,99.8827 C459.1405,137.2827 428.7125,167.7107 391.3125,167.7107 L391.3125,140.1217 C413.4995,140.1217 431.5515,122.0707 431.5515,99.8827 C431.5515,99.6457 431.5475,99.4057 431.5445,99.1687 L459.1335,99.1687 C459.1405,99.4057 459.1405,99.6457 459.1405,99.8827" id="Fill-115-Copy-3"></path>
            </g>
        </g>
    </g>
</svg>