<?xml version="1.0" encoding="UTF-8"?>
<svg width="114px" height="63px" viewBox="0 0 114 63" version="1.1" xmlns="http://www.w3.org/2000/svg" xmlns:xlink="http://www.w3.org/1999/xlink">
    <title>Asset 3 Copy 5</title>
    <defs>
        <linearGradient x1="5.89356289%" y1="21.3034492%" x2="105.994024%" y2="86.7895438%" id="linearGradient-1">
            <stop stop-color="#FCC800" offset="0%"></stop>
            <stop stop-color="#F9951E" offset="100%"></stop>
        </linearGradient>
    </defs>
    <g id="COMPONENTS" stroke="none" stroke-width="1" fill="none" fill-rule="evenodd">
        <g id="SECTIONS/-Desktop/-Footer" transform="translate(-331.000000, -75.000000)" fill-rule="nonzero">
            <g id="Asset-3-Copy-5" transform="translate(331.000000, 75.000000)">
                <path d="M78.379251,0.166389802 C95.7011655,-1.59067097 111.262933,10.7694823 113.05,27.7105441 L100.267193,29 C99.1936286,18.9394178 89.9925168,11.6264562 79.6983256,12.6520475 L79.3690747,12.6884842 L78.05,0.192705228 C78.1604406,0.17516161 78.2701909,0.166389802 78.379251,0.166389802 Z" id="Path" fill="url(#linearGradient-1)"></path>
                <path d="M32.0346339,13 L32.0192677,13 C32.0307923,13.0403361 32.0403962,13.0806723 32.05,13.1229292 C32.0442377,13.0806723 32.0403962,13.0403361 32.0346339,13 Z M24.0711285,20.9154862 L24.05,20.9154862 L24.2113445,21 C24.1652461,20.9711885 24.1172269,20.942377 24.0711285,20.9154862 L24.0711285,20.9154862 Z" id="Shape" fill="#223146"></path>
                <path d="M44.3596491,22.9993607 C42.9879005,23.0135522 41.6242155,22.7913787 40.3303368,22.3428994 C39.0955475,21.9038377 38.135878,21.3475507 37.4513281,20.6740385 C37.1509264,20.3813963 37.0066933,19.9674994 37.0613947,19.5550705 C37.108841,19.1448793 37.32885,18.7730292 37.6679578,18.5298827 C38.0024102,18.2306797 38.4478092,18.0810068 38.8984145,18.1163973 C39.3000362,18.1664939 39.6699112,18.3571501 39.9404033,18.653502 C40.4235065,19.1271186 41.0010266,19.497216 41.6366138,19.7404995 C42.4576702,20.0859612 43.343275,20.258048 44.2361702,20.2456336 C45.4377429,20.2456336 46.3555307,20.0516792 46.9895336,19.6637703 C47.6235365,19.2758613 47.9506474,18.7785422 47.9708661,18.1718129 C47.9903628,17.5601104 47.6957464,17.0293998 47.0826844,16.5796812 C46.4696223,16.1299627 45.3496468,15.7633674 43.7379219,15.4777641 C41.6438348,15.0685415 40.127427,14.4561286 39.1886983,13.6405252 C38.2805402,12.901868 37.7605706,11.7987861 37.7741064,10.6395595 C37.7397918,9.69268275 38.0728092,8.76841125 38.7056141,8.05421052 C39.3584037,7.35125952 40.183228,6.82442872 41.1015385,6.52388853 C42.0772786,6.18174673 43.105003,6.00517325 44.1408531,6.00170345 C45.3855336,5.978336 46.6227718,6.19557974 47.7823983,6.64111375 C48.7611862,7.01396558 49.6279695,7.62478972 50.3018016,8.41654303 C50.5713852,8.69081898 50.7173931,9.06032395 50.7068992,9.44173088 C50.6814581,9.80694804 50.4864861,10.1402889 50.1783227,10.3454308 C49.8307577,10.5738135 49.402797,10.6509308 48.9955246,10.5585675 C48.5647608,10.4894191 48.1640679,10.2974903 47.8430546,10.0065433 C47.3719212,9.54462875 46.7967345,9.19850943 46.1641745,8.99627503 C45.486636,8.80270878 44.7834613,8.71003282 44.0780305,8.7213286 C43.2784721,8.70428755 42.4855639,8.8676031 41.7600928,9.19875496 C41.1275341,9.50567191 40.8112547,9.95468003 40.8112547,10.5457793 C40.8054939,10.9001358 40.9089645,11.2478982 41.1080374,11.5432594 C41.3058925,11.84023 41.6943818,12.1059405 42.2735052,12.3403909 C43.1017799,12.6436407 43.9557578,12.8740204 44.825403,13.0288227 C46.3808042,13.3328978 47.6083724,13.7208067 48.5081078,14.1925494 C49.4078431,14.6642921 50.0577322,15.2099223 50.457775,15.8294398 C50.8595984,16.4791477 51.064755,17.2281321 51.0491741,17.9885153 C51.059215,18.8913865 50.7935745,19.7764374 50.2866376,20.5291055 C49.7267884,21.3255878 48.9506021,21.9511482 48.0466865,22.334374 C47.0675203,22.7791194 45.8385078,23.0007816 44.3596491,22.9993607 Z" id="Path" fill="#223146"></path>
                <path d="M54.4052926,10.1880592 C54.046767,10.2036677 53.696183,10.0789829 53.4272426,9.84021713 C53.1813948,9.6186683 53.0439643,9.30036026 53.0509148,8.96858968 C53.0373811,8.6191315 53.1745466,8.28079805 53.4272426,8.04033678 C53.6969992,7.80003343 54.0491779,7.67456972 54.4093175,7.6904724 L61.0745469,7.6904724 C61.4353083,7.67446628 61.788151,7.7999095 62.0586342,8.04033678 C62.3113302,8.28079805 62.4484957,8.6191315 62.4349621,8.96858968 C62.4419125,9.30036026 62.304482,9.6186683 62.0586342,9.84021713 C61.7878419,10.0799132 61.4350335,10.2046192 61.0745469,10.1880592 L54.4052926,10.1880592 Z M60.8229908,22.999567 C59.9024986,23.0120386 58.9983168,22.7548408 58.2208949,22.2593915 C57.4487291,21.7593807 56.823452,21.0612145 56.4096913,20.237054 C55.9563191,19.3478705 55.7275586,18.3602695 55.7435708,17.3612902 L55.7435708,3.50827852 C55.7238153,2.97622478 55.9950084,2.47586624 56.4505177,2.20394267 C56.906027,1.93201911 57.4730031,1.93201911 57.9285124,2.20394267 C58.3840217,2.47586624 58.6552149,2.97622478 58.6354593,3.50827852 L58.6354593,17.3633125 C58.6095896,18.0665888 58.8319901,18.7564096 59.2633433,19.3108235 C59.6307391,19.80522 60.2089691,20.0961306 60.8229908,20.0954904 L61.8070781,20.0954904 C62.1461596,20.0917394 62.4692731,20.2400048 62.6885306,20.4999579 C62.9355076,20.7903581 63.0641755,21.1638117 63.0487589,21.5455064 C63.0588998,21.949322 62.88287,22.3352064 62.5718086,22.5910549 C62.2250904,22.8712581 61.7887197,23.0150335 61.344215,22.9955224 L60.8229908,22.999567 Z" id="Shape" fill="#223146"></path>
                <path d="M0,14 L0,14.0469974 C-7.21123942e-05,14.7081564 0.0336065415,15.3659021 0.1,16 C0.0358674597,15.34849 0.00224868339,14.6761136 0,14 Z" id="Path" fill="#223146"></path>
                <path d="M16.0496765,14.7271063 C15.9739211,11.6506223 14.1710159,8.88552219 11.401606,7.59840053 C8.63219605,6.31127887 5.3785813,6.72629129 3.01346054,8.6683442 L3.01346054,1.49537394 C3.03179087,1.09345832 2.88557428,0.701618716 2.60911141,0.411775873 C2.32118115,0.131134399 1.93134627,-0.017252901 1.53152098,0.00160033278 C1.13844342,-0.0113200145 0.756711139,0.135743447 0.472126254,0.409735198 C0.185392567,0.694798155 0.0324648525,1.08960228 0.0516031581,1.49537394 L0.0516031581,14.8801569 C0.0589677376,15.6728105 0.169077021,16.4610825 0.379125954,17.2248917 C1.32021784,20.422103 4.10939272,22.7082082 7.40267036,22.9816339 C7.42621207,22.9837211 7.44988974,22.9837211 7.47343146,22.9816339 C7.58664921,22.9816339 7.69986697,22.9959187 7.81510647,23 L8.05165071,23 L8.30032543,23 L8.46206508,23 C12.3246988,22.7948521 15.4906703,19.8336298 15.9870024,15.9617142 L15.9870024,15.9086567 C16.0051981,15.7515248 16.0193503,15.5943929 16.0294591,15.4331796 C16.0395678,15.2719663 16.045633,15.1025904 16.045633,14.9352551 L16.045633,14.8985229 C16.0516983,14.8373027 16.0496765,14.7822045 16.0496765,14.7271063 Z M8.05165071,9.75194186 C10.1298444,9.75111691 12.0038225,11.0141851 12.7994906,12.952004 C13.5951587,14.8898229 13.1557654,17.1206307 11.6862604,18.6038939 C10.2167554,20.0871572 8.00664,20.5306643 6.08679571,19.7275468 C4.16695142,18.9244292 2.91559905,17.0329059 2.91641635,14.9352551 C2.91975893,12.073989 5.21692484,9.75531574 8.05165071,9.75194186 Z" id="Shape" fill="#223146"></path>
                <path d="M32.13,13 L32.05,13 C32.11,13.21 32.16,13.42 32.21,13.64 C32.18,13.42 32.16,13.21 32.13,13 Z M32.13,13 L32.05,13 C32.11,13.21 32.16,13.42 32.21,13.64 C32.18,13.42 32.16,13.21 32.13,13 Z" id="Shape" fill="#223146"></path>
                <path d="M34.6730041,15.4938018 C34.9225909,15.2528921 35.0595257,14.9150688 35.0494841,14.5650113 C35.0582415,13.6244183 34.9376166,12.6872103 34.6911235,11.78069 C33.4772284,8.85558921 30.6483863,6.9671677 27.5303314,7.00043244 C24.4122765,7.03369718 21.6229009,8.98205623 20.4694429,11.932413 C20.1801996,12.8722729 20.0388645,13.8528366 20.0506845,14.8377025 C20.0389108,15.9609491 20.2441298,17.0755919 20.654663,18.1181988 C20.654663,18.1181988 20.654663,18.1181988 20.654663,18.1181988 C20.7861056,18.4436568 20.939479,18.7594737 21.1136866,19.0633918 C21.131806,19.0961968 21.1499254,19.1290018 21.170058,19.1618067 C21.1901906,19.1946117 21.2083099,19.2253663 21.2284426,19.2581713 C21.2666945,19.3217309 21.3069598,19.3852905 21.3492383,19.4467999 C21.9439744,20.3655703 22.7286564,21.1409004 23.6483831,21.7185436 C23.7027412,21.7533988 23.7570992,21.7903044 23.8134706,21.8231094 C23.8698419,21.8559143 23.9584254,21.9092224 24.0329161,21.9502286 L24.055062,21.9502286 C24.1033803,21.9789329 24.1537118,22.005587 24.2020301,22.0301907 C24.2253109,22.0454108 24.2495189,22.0591072 24.2745075,22.0711969 C25.4169299,22.6825457 26.6883705,23.0013292 27.978909,23 C28.1802352,23 28.3815614,23 28.5828875,22.977434 L28.6030201,22.977434 C29.4527165,22.9361352 30.2921416,22.7704087 31.0954381,22.4853596 C31.9699855,22.2005644 32.7894353,21.763529 33.5173919,21.1936641 C33.8178719,20.9930004 33.993488,20.6469689 33.9804421,20.2812761 C33.9814284,20.2683102 33.9814284,20.2552861 33.9804421,20.2423202 C33.9574687,19.9984709 33.8635314,19.7671592 33.7106651,19.5780197 C33.6373476,19.4801095 33.5543704,19.3901092 33.4630339,19.3094291 C33.2185854,19.0955474 32.9031638,18.9848051 32.5812252,18.9998322 C32.2410295,19.0109422 31.9125711,19.1291284 31.641032,19.3381334 C31.1745285,19.6746616 30.6606959,19.9373426 30.1169929,20.1172513 C29.5284197,20.3359637 28.9074082,20.4503853 28.2808983,20.4555525 C27.2606283,20.4752375 26.2532072,20.221399 25.3596556,19.7194911 C23.9460943,18.914103 22.9738527,17.4923929 22.7222827,15.8628576 L33.7187181,15.8628576 C34.0726396,15.8757605 34.4167039,15.7426988 34.6730041,15.4938018 Z M32.3698328,13.5050009 L22.8450917,13.5050009 C23.124572,12.4643252 23.7243591,11.5423394 24.5563641,10.8744529 C25.8563924,9.82847455 27.5854883,9.51770617 29.1585522,10.0473071 C30.7316161,10.576908 31.9381318,11.876004 32.3698328,13.5050009 L32.3859389,13.5050009 C32.3859389,13.5480574 32.3859389,13.5911139 32.402045,13.6362207 C32.3919786,13.5911139 32.3819123,13.5480574 32.3698328,13.5050009 Z" id="Shape" fill="#223146"></path>
                <path d="M28.05,56.0000001 C23.6319849,56.0000001 20.0503719,52.4186882 20.05,48.0006734 C20.0496281,43.5826586 23.6306381,40.0007441 28.0486531,40.0000001 C32.466668,39.9992563 36.0488841,43.5799646 36.05,47.9979793 C36.0455466,52.4147385 32.466758,55.994431 28.05,56.0000001 Z M28.0499999,42.8653701 C25.9720509,42.8653708 24.0987865,44.1173132 23.3039679,46.0372442 C22.5091494,47.9571752 22.9493606,50.1668569 24.4192706,51.6356103 C25.8891805,53.1043637 28.0992081,53.5428356 30.018513,52.7465061 C31.9378178,51.9501767 33.1882855,50.0759275 33.1866522,47.9979793 C33.1833081,45.1627983 30.885182,42.8655764 28.0499999,42.8633494 L28.0499999,42.8653701 Z" id="Shape" fill="#223146"></path>
                <path d="M15.452941,45.0205601 C14.2688764,42.1195538 11.5419029,40.1660438 8.44456388,40 L8.28321994,40 L8.03112004,40 L7.79313774,40 L7.61969301,40 C4.84018284,40.1472314 2.33381795,41.7392641 0.994507685,44.2082906 L0.976356492,44.2429855 C0.365400152,45.4477328 0.0480032765,46.7828603 0.0506456662,48.1369809 L0.0506456662,61.5047324 C0.0387944833,61.9045013 0.19052357,62.2914942 0.469993407,62.5743007 C0.749463244,62.8571072 1.13189036,63.0106478 1.52694267,62.9986551 C1.92767148,63.0161641 2.31715562,62.8620665 2.59987984,62.5741525 C2.87066599,62.2868745 3.01600886,61.9015297 3.00323967,61.5047324 L3.00323967,54.4351307 C4.39958156,55.5782871 6.13632031,56.2110927 7.93229688,56.2311034 L8.02910324,56.2311034 C11.7620537,56.2264562 15.0006894,53.6220279 15.8482337,49.943158 C15.8482337,49.943158 15.8482337,49.9309128 15.8482337,49.9247901 C15.9821074,49.3295123 16.0497547,48.7209479 16.0499573,48.1104495 C16.0533822,47.0508082 15.8505293,46.0008552 15.452941,45.0205601 L15.452941,45.0205601 Z M13.1477396,48.704345 L13.1477396,48.704345 C12.8424379,51.3304077 10.6430883,53.30953 8.03011164,53.30953 C5.41713495,53.30953 3.21778538,51.3304077 2.91248371,48.704345 C2.91248371,48.704345 2.91248371,48.6941406 2.91248371,48.6900589 C2.8646036,48.2597558 2.87002369,47.8250857 2.9286181,47.3961422 C2.92763823,47.3852801 2.92763823,47.3743502 2.9286181,47.3634881 C3.2910429,44.809468 5.44483045,42.907704 7.99454871,42.8903429 C10.544267,42.8729819 12.7231491,44.7452447 13.1195044,47.2940983 C13.1195044,47.3185888 13.1195044,47.3410385 13.1195044,47.3634881 C13.182691,47.8057234 13.1887926,48.2543951 13.1376556,48.6982224 L13.1477396,48.704345 Z" id="Shape" fill="#223146"></path>
                <path d="M24.4678622,37.9987193 C24.1032767,38.014025 23.745083,37.8917559 23.4543646,37.6527629 C23.1954717,37.4442384 23.0450156,37.1133547 23.0501261,36.7637598 C23.0555926,36.2292896 23.305663,35.7326903 23.7174098,35.4386419 L26.8294661,33.2391979 C27.0446473,33.0880774 27.2945579,33.0052781 27.5509061,33.0001735 C27.6810028,32.9982054 27.8108551,33.0129857 27.9377373,33.0442043 C28.0683489,33.0844997 28.1909692,33.1506071 28.2994243,33.2391979 L31.3844025,35.4386419 C31.7948959,35.7336838 32.0440382,36.2298784 32.049752,36.7637598 C32.0567941,37.1095147 31.9135315,37.4387562 31.6629209,37.6527629 C31.2320311,37.9845445 30.6847283,38.0842002 30.1774894,37.9232379 C30.0222343,37.8630146 29.8766834,37.7766938 29.7461727,37.6674398 L27.5509061,35.9900755 L25.3575737,37.6674398 C25.1047314,37.885021 24.7906716,38.0019595 24.4678622,37.9987193 Z" id="Path" fill="#223146"></path>
                <path d="M41.4223804,43.6967075 C40.5074601,43.6967075 40.05,43.2367045 40.05,42.3166986 C40.05,41.3966926 40.5074601,40.9366896 41.4223804,40.9366896 L51.3848452,40.9366896 C52.2997654,40.9366896 52.7572255,41.3966926 52.7572255,42.3166986 C52.7572255,43.2367045 52.2997654,43.6967075 51.3848452,43.6967075 L41.4223804,43.6967075 Z M41.7151548,56.999997 C40.7982014,56.999997 40.3427745,56.539991 40.3427745,55.619985 C40.3427745,54.699979 40.7982014,54.2379316 41.7151548,54.2379316 L51.6776196,54.2379316 C52.5925399,54.2379316 53.05,54.6986161 53.05,55.619985 C53.05,56.541354 52.5925399,57.0013569 51.6776196,56.999997 L41.7151548,56.999997 Z M42.5914451,56.441857 L40.6050516,54.6795345 L50.5329528,41.4948266 L52.4908821,43.2551047 L42.5914451,56.441857 Z M46.5621989,38.6448525 C46.2906657,38.6518159 46.0243249,38.5692437 45.8038317,38.4097398 L42.5324836,36.2364813 C42.1052637,35.9588431 41.8425662,35.4864218 41.8310447,34.9750509 C41.8310447,34.582515 42.0696017,34.293565 42.5467157,34.1082008 C43.0224742,33.9221551 43.5937911,34.0652672 44.2545668,34.533448 L46.5621989,36.1015471 L48.8698311,34.5436703 C49.6098999,34.0339188 50.1988375,33.882629 50.6366437,34.0898007 C51.07445,34.2969724 51.2933531,34.5954632 51.2933531,34.9852732 C51.2818316,35.4966441 51.0191341,35.9690654 50.5919143,36.2467036 L47.3510635,38.4199621 C47.1167736,38.5734144 46.8417192,38.6518272 46.5621989,38.6448525 Z" id="Shape" fill="#223146"></path>
                <path d="M58.0668671,37.8072264 C57.1112389,37.8148592 56.2834755,37.1778836 56.0911306,36.2868693 C55.8987856,35.395855 56.395615,34.4998205 57.2769817,34.1481805 C58.1583484,33.7965406 59.1779301,34.0875707 59.7105575,34.8428221 C60.243185,35.5980735 60.1400007,36.6064703 59.4642734,37.2497015 C59.0992989,37.6111838 58.5935544,37.8129613 58.0668671,37.8072264 Z M58.0668671,55.9984687 C57.657079,56.0090241 57.2607904,55.8585787 56.9711183,55.582483 C56.6814462,55.3063874 56.5239285,54.9289825 56.5355775,54.5389481 L56.5355775,41.8174237 C56.5163778,41.4221789 56.6745669,41.0377926 56.970698,40.7601174 C57.4088943,40.3241611 58.0844807,40.191191 58.6683929,40.4259741 C59.2523051,40.6607572 59.6231309,41.2144753 59.6002486,41.8174237 L59.6002486,54.5449215 C59.6142075,54.9321662 59.4633485,55.3083781 59.1818635,55.5882896 C58.8872454,55.8680442 58.4825694,56.0169143 58.0668671,55.9984687 Z" id="Shape" fill="#223146"></path>
                <path d="M71.5451602,37.9996315 C71.2866158,38.0056276 71.0330154,37.9345256 70.8230695,37.7971786 L67.7178856,35.9258095 C67.3111018,35.6867383 67.0609704,35.2799415 67.05,34.8396056 C67.05,34.5015973 67.2771456,34.2527856 67.7314369,34.0931705 C68.1857281,33.9335555 68.7277802,34.055614 69.357593,34.4593462 L71.5451602,35.8096191 L73.742407,34.4681485 C74.4470746,34.0292071 75.0078404,33.8989331 75.4247042,34.0773264 C75.8415681,34.2557197 76.05,34.5127468 76.05,34.8484079 C76.0390296,35.2887438 75.7888982,35.6955406 75.3821144,35.9346118 L72.2962895,37.8059809 C72.0732069,37.9381169 71.8113097,38.0056373 71.5451602,37.9996315 Z" id="Path" fill="#223146"></path>
                <path d="M83.5440245,56.8084068 C83.1422067,56.8285267 82.7503124,56.6850645 82.4657931,56.4136947 C82.1812737,56.1423249 82.0308599,55.7685427 82.0519547,55.3852956 L82.0519547,35.4312433 C82.0519547,34.6407894 82.7237944,34 83.5525506,34 C84.3813068,34 85.0531465,34.6407894 85.0531465,35.4312433 L85.0531465,55.3771635 C85.0742413,55.7604106 84.9238275,56.1341928 84.6393081,56.4055626 C84.3547888,56.6769325 83.9628945,56.8203946 83.5610767,56.8002747 L83.5440245,56.8084068 Z M84.9870691,50.9675518 L83.090009,48.9812951 L92.487917,40.981377 C92.7576875,40.7217189 93.130367,40.5835273 93.5131821,40.601203 C94.2789033,40.6799714 94.8635403,41.289865 94.8773602,42.0243143 C94.8510275,42.3852951 94.6745191,42.7212648 94.3871087,42.9574686 L84.9870691,50.9675518 Z M94.4787644,56.6599966 C94.1774215,56.9049519 93.786356,57.0256257 93.391685,56.9954443 C92.998609,56.9690329 92.6362311,56.7832661 92.3962613,56.4851572 L86.1807249,49.1541015 L88.3250423,47.2268023 L94.6940487,54.7022022 C94.9487958,54.982704 95.0754228,55.348688 95.0457509,55.7187102 C95.0014439,56.0953265 94.794395,56.4372319 94.4745013,56.6620296 L94.4787644,56.6599966 Z" id="Shape" fill="#223146"></path>
                <path d="M113.03616,48.2295176 C113.03616,48.1656239 113.03616,48.1017302 113.03616,48.0399663 C112.785857,43.4597708 108.950302,39.9035071 104.36693,40.0019971 C99.7835585,40.1004871 96.1041345,43.8182367 96.0505909,48.4049614 C95.9970473,52.9916861 99.5886802,56.7944118 104.168503,57 C104.294089,57 104.421803,57 104.549518,57 C106.512375,57.0016402 108.414709,56.3202349 109.930564,55.0725315 L109.930564,55.3430148 C109.909471,55.9141224 110.20195,56.4511161 110.693046,56.7429369 C111.184142,57.0347578 111.795353,57.0347578 112.286449,56.7429369 C112.777545,56.4511161 113.070025,55.9141224 113.048931,55.3430148 L113.048931,48.5021306 C113.040417,48.4105497 113.038289,48.3147091 113.03616,48.2295176 Z M99.6601737,50.9471291 C98.8613518,49.3555973 98.8907629,47.4738081 99.7389311,45.9080469 L99.7389311,45.9080469 C100.935609,43.6959016 103.487718,42.587833 105.91985,43.2244294 C108.351982,43.8610259 110.034878,46.0775823 109.995636,48.5926796 C109.956393,51.1077768 108.205164,53.2706898 105.754356,53.8310113 C103.303548,54.3913328 100.787254,53.2040922 99.6601737,50.9556482 L99.6601737,50.9471291 Z" id="Shape" fill="#223146"></path>
                <path d="M76.9686846,52.763318 L76.9686846,52.763318 C77.3325099,53.0450426 77.5500215,53.4886257 77.5568019,53.9626972 C77.5635822,54.4367687 77.3588541,54.8869866 77.0032492,55.1800157 C75.5908358,56.3596306 73.8380097,57.0013502 72.0320559,57 C67.6033919,56.9264942 64.05,53.1425284 64.05,48.5 C64.05,43.8574697 67.6033919,40.0735038 72.0320559,40 C74.1115914,39.999597 76.1093557,40.8489608 77.6010123,42.3676819 C77.9092645,42.675932 78.0725493,43.110701 78.0474857,43.5564813 C78.0224221,44.0022616 77.8115478,44.4139188 77.470887,44.6820855 L77.470887,44.6820855 C76.8958769,45.1263341 76.0982977,45.0676522 75.5881365,44.5435623 C74.4860556,43.4339053 72.9699045,42.8960535 71.4513939,43.0760606 C69.9328833,43.2560677 68.5696284,44.1352497 67.7318212,45.4748646 L67.7196219,45.4919137 C67.6972567,45.5260117 67.6769246,45.5601097 67.6565925,45.5942077 C66.6539774,47.2710146 66.595059,49.3850849 67.50258,51.1203776 C68.410101,52.8556704 70.142102,53.9407417 72.0300227,53.9567489 C73.1884918,53.9570408 74.3129187,53.5461531 75.2201258,52.7910226 C75.7299773,52.3685081 76.4468822,52.3571492 76.9686846,52.763318 Z" id="Path" fill="#223146"></path>
            </g>
        </g>
    </g>
</svg>