<?xml version="1.0" encoding="UTF-8"?>
<svg width="701px" height="391px" viewBox="0 0 701 391" version="1.1" xmlns="http://www.w3.org/2000/svg" xmlns:xlink="http://www.w3.org/1999/xlink">
    <title>Group 2 Copy</title>
    <g id="DESIGN---Form" stroke="none" stroke-width="1" fill="none" fill-rule="evenodd" opacity="0.203869048">
        <g id="best-pozicka.sk---Design---Pôžička-Form---Succes-page" transform="translate(-1206.000000, -345.000000)" stroke="#FFFFFF" stroke-width="2">
            <g id="Group-2-Copy" transform="translate(1207.000000, 346.000000)">
                <path d="M490,210.770856 C490,251.149018 457.251813,284 417,284 L417,254.214088 C440.879873,254.214088 460.307292,234.725686 460.307292,210.770856 C460.307292,210.514984 460.302987,210.255872 460.299758,210 L489.992466,210 C490,210.255872 490,210.514984 490,210.770856" id="Fill-67-Copy-4"></path>
                <path d="M490,0.770855826 C490,41.1490181 457.251813,74 417,74 L417,44.2140877 C440.879873,44.2140877 460.307292,24.7256864 460.307292,0.770855826 C460.307292,0.514983514 460.302987,0.255872312 460.299758,0 L489.992466,0 C490,0.255872312 490,0.514983514 490,0.770855826" id="Fill-67-Copy-5"></path>
                <path d="M521,283.229144 C521,242.850982 553.748187,210 594,210 L594,239.785912 C570.120127,239.785912 550.692708,259.274314 550.692708,283.229144 C550.692708,283.485016 550.697013,283.744128 550.700242,284 L521.007534,284 C521,283.744128 521,283.485016 521,283.229144" id="Fill-71-Copy-4"></path>
                <path d="M521,73.2291442 C521,32.8509819 553.748187,0 594,0 L594,29.7859123 C570.120127,29.7859123 550.692708,49.2743136 550.692708,73.2291442 C550.692708,73.4850165 550.697013,73.7441277 550.700242,74 L521.007534,74 C521,73.7441277 521,73.4850165 521,73.2291442" id="Fill-71-Copy-5"></path>
                <path d="M699,210.770856 C699,251.149018 666.251813,284 626,284 L626,254.214088 C649.879873,254.214088 669.307292,234.725686 669.307292,210.770856 C669.307292,210.514984 669.302987,210.255872 669.299758,210 L698.993542,210 C699,210.255872 699,210.514984 699,210.770856" id="Fill-75-Copy-4"></path>
                <path d="M699,0.770855826 C699,41.1490181 666.251813,74 626,74 L626,44.2140877 C649.879873,44.2140877 669.307292,24.7256864 669.307292,0.770855826 C669.307292,0.514983514 669.302987,0.255872312 669.299758,0 L698.993542,0 C699,0.255872312 699,0.514983514 699,0.770855826" id="Fill-75-Copy-5"></path>
                <path d="M490,315.770856 C490,356.149018 457.251813,389 417,389 L417,359.214088 C440.879873,359.214088 460.307292,339.725686 460.307292,315.770856 C460.307292,315.514984 460.302987,315.255872 460.299758,315 L489.993542,315 C490,315.255872 490,315.514984 490,315.770856" id="Fill-81-Copy-4"></path>
                <path d="M490,105.770856 C490,146.149018 457.251813,179 417,179 L417,149.214088 C440.879873,149.214088 460.307292,129.725686 460.307292,105.770856 C460.307292,105.514984 460.302987,105.255872 460.299758,105 L489.993542,105 C490,105.255872 490,105.514984 490,105.770856" id="Fill-81-Copy-5"></path>
                <path d="M521,388.229144 C521,347.850982 553.748187,315 594,315 L594,344.785912 C570.121204,344.785912 550.692708,364.274314 550.692708,388.229144 C550.692708,388.485016 550.697013,388.744128 550.700242,389 L521.007534,389 C521,388.744128 521,388.485016 521,388.229144" id="Fill-85-Copy-4"></path>
                <path d="M521,178.229144 C521,137.850982 553.748187,105 594,105 L594,134.785912 C570.121204,134.785912 550.692708,154.274314 550.692708,178.229144 C550.692708,178.485016 550.697013,178.744128 550.700242,179 L521.007534,179 C521,178.744128 521,178.485016 521,178.229144" id="Fill-85-Copy-5"></path>
                <path d="M699,315.770856 C699,356.149018 666.251813,389 626,389 L626,359.214088 C649.879873,359.214088 669.307292,339.725686 669.307292,315.770856 C669.307292,315.514984 669.302987,315.255872 669.299758,315 L698.993542,315 C699,315.255872 699,315.514984 699,315.770856" id="Fill-90-Copy-4"></path>
                <path d="M699,105.770856 C699,146.149018 666.251813,179 626,179 L626,149.214088 C649.879873,149.214088 669.307292,129.725686 669.307292,105.770856 C669.307292,105.514984 669.302987,105.255872 669.299758,105 L698.993542,105 C699,105.255872 699,105.514984 699,105.770856" id="Fill-90-Copy-5"></path>
                <path d="M73,210.770856 C73,251.149018 40.2518134,284 0,284 L0,254.214088 C23.8787964,254.214088 43.307292,234.725686 43.307292,210.770856 C43.307292,210.514984 43.302987,210.255872 43.2997582,210 L72.9924662,210 C73,210.255872 73,210.514984 73,210.770856" id="Fill-101-Copy-3"></path>
                <path d="M73,0.770855826 C73,41.1490181 40.2518134,74 0,74 L0,44.2140877 C23.8787964,44.2140877 43.307292,24.7256864 43.307292,0.770855826 C43.307292,0.514983514 43.302987,0.255872312 43.2997582,0 L72.9924662,0 C73,0.255872312 73,0.514983514 73,0.770855826" id="Fill-101-Copy-6"></path>
                <path d="M104,283.229144 C104,242.850982 136.748187,210 177,210 L177,239.785912 C153.121204,239.785912 133.692708,259.274314 133.692708,283.229144 C133.692708,283.485016 133.697013,283.744128 133.700242,284 L104.007534,284 C104,283.744128 104,283.485016 104,283.229144" id="Fill-105-Copy-3"></path>
                <path d="M104,73.2291442 C104,32.8509819 136.748187,0 177,0 L177,29.7859123 C153.121204,29.7859123 133.692708,49.2743136 133.692708,73.2291442 C133.692708,73.4850165 133.697013,73.7441277 133.700242,74 L104.007534,74 C104,73.7441277 104,73.4850165 104,73.2291442" id="Fill-105-Copy-6"></path>
                <path d="M281,210.770856 C281,251.149018 248.251813,284 208,284 L208,254.214088 C231.879873,254.214088 251.307292,234.725686 251.307292,210.770856 C251.307292,210.514984 251.302987,210.255872 251.299758,210 L280.993542,210 C281,210.255872 281,210.514984 281,210.770856" id="Fill-109-Copy-3"></path>
                <path d="M281,0.770855826 C281,41.1490181 248.251813,74 208,74 L208,44.2140877 C231.879873,44.2140877 251.307292,24.7256864 251.307292,0.770855826 C251.307292,0.514983514 251.302987,0.255872312 251.299758,0 L280.993542,0 C281,0.255872312 281,0.514983514 281,0.770855826" id="Fill-109-Copy-6"></path>
                <path d="M312,283.229144 C312,242.850982 344.748187,210 385,210 L385,239.785912 C361.120127,239.785912 341.692708,259.274314 341.692708,283.229144 C341.692708,283.485016 341.697013,283.744128 341.700242,284 L312.006458,284 C312,283.744128 312,283.485016 312,283.229144" id="Fill-113-Copy-3"></path>
                <path d="M312,73.2291442 C312,32.8509819 344.748187,0 385,0 L385,29.7859123 C361.120127,29.7859123 341.692708,49.2743136 341.692708,73.2291442 C341.692708,73.4850165 341.697013,73.7441277 341.700242,74 L312.006458,74 C312,73.7441277 312,73.4850165 312,73.2291442" id="Fill-113-Copy-6"></path>
                <path d="M73,315.770856 C73,356.149018 40.2518134,389 0,389 L0,359.214088 C23.8787964,359.214088 43.307292,339.725686 43.307292,315.770856 C43.307292,315.514984 43.302987,315.255872 43.2997582,315 L72.9924662,315 C73,315.255872 73,315.514984 73,315.770856" id="Fill-115-Copy-3"></path>
                <path d="M73,105.770856 C73,146.149018 40.2518134,179 0,179 L0,149.214088 C23.8787964,149.214088 43.307292,129.725686 43.307292,105.770856 C43.307292,105.514984 43.302987,105.255872 43.2997582,105 L72.9924662,105 C73,105.255872 73,105.514984 73,105.770856" id="Fill-115-Copy-6"></path>
                <path d="M104,388.229144 C104,347.850982 136.748187,315 177,315 L177,344.785912 C153.121204,344.785912 133.692708,364.274314 133.692708,388.229144 C133.692708,388.485016 133.697013,388.744128 133.700242,389 L104.007534,389 C104,388.744128 104,388.485016 104,388.229144" id="Fill-119-Copy-3"></path>
                <path d="M104,178.229144 C104,137.850982 136.748187,105 177,105 L177,134.785912 C153.121204,134.785912 133.692708,154.274314 133.692708,178.229144 C133.692708,178.485016 133.697013,178.744128 133.700242,179 L104.007534,179 C104,178.744128 104,178.485016 104,178.229144" id="Fill-119-Copy-6"></path>
                <path d="M281,315.770856 C281,356.149018 248.251813,389 208,389 L208,359.214088 C231.879873,359.214088 251.307292,339.725686 251.307292,315.770856 C251.307292,315.514984 251.302987,315.255872 251.299758,315 L280.993542,315 C281,315.255872 281,315.514984 281,315.770856" id="Fill-124-Copy-3"></path>
                <path d="M281,105.770856 C281,146.149018 248.251813,179 208,179 L208,149.214088 C231.879873,149.214088 251.307292,129.725686 251.307292,105.770856 C251.307292,105.514984 251.302987,105.255872 251.299758,105 L280.993542,105 C281,105.255872 281,105.514984 281,105.770856" id="Fill-124-Copy-6"></path>
                <path d="M312,388.229144 C312,347.850982 344.748187,315 385,315 L385,344.785912 C361.120127,344.785912 341.692708,364.274314 341.692708,388.229144 C341.692708,388.485016 341.697013,388.744128 341.700242,389 L312.006458,389 C312,388.744128 312,388.485016 312,388.229144" id="Fill-130-Copy-5"></path>
                <path d="M312,178.229144 C312,137.850982 344.748187,105 385,105 L385,134.785912 C361.120127,134.785912 341.692708,154.274314 341.692708,178.229144 C341.692708,178.485016 341.697013,178.744128 341.700242,179 L312.006458,179 C312,178.744128 312,178.485016 312,178.229144" id="Fill-130-Copy-6"></path>
            </g>
        </g>
    </g>
</svg>