<?xml version="1.0" encoding="UTF-8"?>
<svg width="697px" height="703px" viewBox="0 0 697 703" version="1.1" xmlns="http://www.w3.org/2000/svg" xmlns:xlink="http://www.w3.org/1999/xlink">
    <title>Group 5</title>
    <g id="DESIGN---Web" stroke="none" stroke-width="1" fill="none" fill-rule="evenodd">
        <g id="best-pozicka.sk---Design---Refinancovanie" transform="translate(-1073.000000, -211.000000)" stroke="#FCC800" stroke-width="2">
            <g id="Group-5" transform="translate(1074.000000, 212.000000)">
                <path d="M0,71.2499781 C0,31.9631175 32.2995813,0 72,0 L72,28.9808876 C48.4483104,28.9808876 29.2859586,47.9425754 29.2859586,71.2499781 C29.2859586,71.498935 29.2902046,71.7510432 29.2933892,72 L0.00743055965,72 C0,71.7510432 0,71.498935 0,71.2499781" id="Fill-5-Copy-2"></path>
                <path d="M176,1.75002188 C176,41.0368825 143.700419,73 104,73 L104,44.0191124 C127.552751,44.0191124 146.714041,25.0574246 146.714041,1.75002188 C146.714041,1.50106504 146.709795,1.24895684 146.706611,1 L175.993631,1 C176,1.24895684 176,1.50106504 176,1.75002188" id="Fill-9-Copy-2"></path>
                <path d="M208,71.2499781 C208,31.9631175 240.299581,0 280,0 L280,28.9808876 C256.44831,28.9808876 237.285959,47.9425754 237.285959,71.2499781 C237.285959,71.498935 237.290205,71.7510432 237.293389,72 L208.007431,72 C208,71.7510432 208,71.498935 208,71.2499781" id="Fill-13-Copy-2"></path>
                <path d="M383,1.75002188 C383,41.0368825 350.700419,73 311,73 L311,44.0191124 C334.55169,44.0191124 353.714041,25.0574246 353.714041,1.75002188 C353.714041,1.50106504 353.709795,1.24895684 353.706611,1 L382.992569,1 C383,1.24895684 383,1.50106504 383,1.75002188" id="Fill-33-Copy-2"></path>
                <path d="M415,71.2499781 C415,31.9631175 447.299581,0 487,0 L487,28.9808876 C463.44831,28.9808876 444.285959,47.9425754 444.285959,71.2499781 C444.285959,71.498935 444.290205,71.7510432 444.293389,72 L415.007431,72 C415,71.7510432 415,71.498935 415,71.2499781" id="Fill-37-Copy-2"></path>
                <path d="M591,1.75002188 C591,41.0368825 558.700419,73 519,73 L519,44.0191124 C542.552751,44.0191124 561.714041,25.0574246 561.714041,1.75002188 C561.714041,1.50106504 561.709795,1.24895684 561.706611,1 L590.993631,1 C591,1.24895684 591,1.50106504 591,1.75002188" id="Fill-41-Copy-2"></path>
                <path d="M623,71.2499781 C623,31.9631175 655.299581,0 695,0 L695,28.9808876 C671.44831,28.9808876 652.285959,47.9425754 652.285959,71.2499781 C652.285959,71.498935 652.290205,71.7510432 652.293389,72 L623.007431,72 C623,71.7510432 623,71.498935 623,71.2499781" id="Fill-45-Copy-2"></path>
                <path d="M623,176.249978 C623,136.963118 655.299581,105 695,105 L695,133.980888 C671.447249,133.980888 652.285959,152.942575 652.285959,176.249978 C652.285959,176.498935 652.290205,176.751043 652.293389,177 L623.006369,177 C623,176.751043 623,176.498935 623,176.249978" id="Fill-47-Copy-2"></path>
                <path d="M623,281.249978 C623,241.963118 655.299581,210 695,210 L695,238.980888 C671.44831,238.980888 652.285959,257.942575 652.285959,281.249978 C652.285959,281.498935 652.290205,281.751043 652.293389,282 L623.007431,282 C623,281.751043 623,281.498935 623,281.249978" id="Fill-61-Copy-2"></path>
                <path d="M623,385.249978 C623,345.963118 655.299581,314 695,314 L695,342.980888 C671.447249,342.980888 652.285959,361.942575 652.285959,385.249978 C652.285959,385.498935 652.290205,385.751043 652.293389,386 L623.006369,386 C623,385.751043 623,385.498935 623,385.249978" id="Fill-63-Copy-2"></path>
                <path d="M623,490.249978 C623,450.963118 655.299581,419 695,419 L695,447.980888 C671.44831,447.980888 652.285959,466.942575 652.285959,490.249978 C652.285959,490.498935 652.290205,490.751043 652.293389,491 L623.007431,491 C623,490.751043 623,490.498935 623,490.249978" id="Fill-111-Copy-2"></path>
                <path d="M623,595.249978 C623,555.963118 655.299581,524 695,524 L695,552.980888 C671.447249,552.980888 652.285959,571.942575 652.285959,595.249978 C652.285959,595.498935 652.290205,595.751043 652.293389,596 L623.006369,596 C623,595.751043 623,595.498935 623,595.249978" id="Fill-113-Copy-2"></path>
                <path d="M623,700.249978 C623,660.963118 655.299581,629 695,629 L695,657.980888 C671.44831,657.980888 652.285959,676.942575 652.285959,700.249978 C652.285959,700.498935 652.290205,700.751043 652.293389,701 L623.007431,701 C623,700.751043 623,700.498935 623,700.249978" id="Fill-128-Copy-2"></path>
            </g>
        </g>
    </g>
</svg>