<?xml version="1.0" encoding="UTF-8"?>
<svg width="104px" height="105px" viewBox="0 0 104 105" version="1.1" xmlns="http://www.w3.org/2000/svg" xmlns:xlink="http://www.w3.org/1999/xlink">
    <title>Group 16</title>
    <g id="COMPONENTS" stroke="none" stroke-width="1" fill="none" fill-rule="evenodd">
        <g id="SECTIONS/-Desktop/-Co-ponukame" transform="translate(-386.000000, -417.000000)">
            <g id="Group-16" transform="translate(386.000000, 417.000000)">
                <circle id="Oval-Copy-8" fill="#ED4036" cx="56.6826591" cy="46.5" r="46.5"></circle>
                <g id="noun-loan-4561226-copy" transform="translate(0.000000, 14.681718)" fill="#223146" fill-rule="nonzero">
                    <path d="M9.18265906,67.5682957 C9.18265906,66.7306644 9.85423193,66.05163 10.6826591,66.05163 L30.1826591,66.05163 C31.0110862,66.05163 31.6826591,66.7306644 31.6826591,67.5682957 C31.6826591,68.4059271 31.0110862,69.0849614 30.1826591,69.0849614 L10.6826591,69.0849614 C9.85423193,69.0849614 9.18265906,68.4059271 9.18265906,67.5682957 Z M33.1826591,58.4690445 C33.1826591,57.6314131 32.5110862,56.9523788 31.6826591,56.9523788 L25.6826591,56.9523788 C24.8542319,56.9523788 24.1826591,57.6314131 24.1826591,58.4690445 C24.1826591,59.3066758 24.8542319,59.9857102 25.6826591,59.9857102 L31.6826591,59.9857102 C32.511069,59.9856683 33.1826591,59.3066585 33.1826591,58.4690445 Z M10.6826591,59.9849671 L19.6826591,59.9849671 C20.5110862,59.9849671 21.1826591,59.3059327 21.1826591,58.4683013 C21.1826591,57.63067 20.5110862,56.9516356 19.6826591,56.9516356 L10.6826591,56.9516356 C9.85423193,56.9516356 9.18265906,57.63067 9.18265906,58.4683013 C9.18265906,59.3059327 9.85423193,59.9849671 10.6826591,59.9849671 Z M87.1826591,64.5349642 C87.1826591,78.7746972 75.7659202,90.3182817 61.6826591,90.3182817 C47.5993979,90.3182817 36.1826591,78.7746972 36.1826591,64.5349642 C36.1826591,50.2952312 47.5993979,38.7516468 61.6826591,38.7516468 C75.7594092,38.7675279 87.1669525,50.3018146 87.1826591,64.5349642 L87.1826591,64.5349642 Z M84.1826591,64.5349642 C84.1826591,51.9704939 74.1090659,41.7849783 61.6826591,41.7849783 C49.2562522,41.7849783 39.1826591,51.9704939 39.1826591,64.5349642 C39.1826591,77.0994345 49.2562522,87.2849502 61.6826591,87.2849502 C74.1032404,87.2707413 84.1686063,77.0935443 84.1826591,64.5349642 L84.1826591,64.5349642 Z M43.5954941,39.2678137 L43.5954941,31.732624 L31.6826591,22.4652656 L19.6826591,31.8003431 L19.6826591,47.8516412 L25.5954941,47.8516412 L25.5954941,35.7183154 C25.5955355,34.8807014 26.2670841,34.2016915 27.0954941,34.2016496 L36.1826591,34.2016496 C37.0110862,34.2016496 37.6826591,34.880684 37.6826591,35.7183154 L37.6826591,49.3683069 C37.6826591,50.2059383 37.0110862,50.8849727 36.1826591,50.8849727 L18.1826591,50.8849727 C17.3542319,50.8849727 16.6826591,50.2059383 16.6826591,49.3683069 L16.6826591,34.1215697 C16.0293737,34.5998472 15.1186247,34.4678248 14.6245541,33.8232264 L10.9946591,29.0606837 C10.7516066,28.7420039 10.6438296,28.3386949 10.6950733,27.9396125 C10.746317,27.5405302 10.9523767,27.1784195 11.2678541,26.9330595 L28.9389941,13.1890346 L28.9397291,13.1890346 C30.5573802,11.9330391 32.807908,11.9330391 34.4255591,13.1890346 L52.0974341,26.9330595 C52.4129114,27.1784195 52.6189711,27.5405302 52.6702148,27.9396125 C52.7214585,28.3386949 52.6136815,28.7420039 52.3706291,29.0606837 L48.7407491,33.8232264 C48.235429,34.4864656 47.2941169,34.6101199 46.6379591,34.0994567 L46.5954791,34.0664086 L46.5954791,39.2678137 C46.5954791,40.105445 45.9239062,40.7844794 45.0954791,40.7844794 C44.2670519,40.7844794 43.5954791,40.105445 43.5954791,39.2678137 L43.5954941,39.2678137 Z M28.5954941,47.8516412 L34.6826591,47.8516412 L34.6826591,37.2349811 L28.5954941,37.2349811 L28.5954941,47.8516412 Z M32.5974941,19.3497308 L47.2796591,30.7713764 L49.0784891,28.4119602 L32.5967291,15.592874 C32.0570872,15.1751981 31.3075109,15.1751981 30.7678691,15.592874 L14.2869041,28.4119602 L16.0857341,30.7713764 L30.7678691,19.3497308 C31.3071155,18.9300803 32.0582026,18.9300803 32.5974491,19.3497308 L32.5974941,19.3497308 Z M36.1826591,79.7016215 C36.1826591,80.5392529 35.5110862,81.2182873 34.6826591,81.2182873 L7.68265906,81.2182873 C3.54253827,81.2133731 0.187519273,77.8210782 0.18265906,73.6349586 L0.18265906,6.90166651 C0.187519273,2.71554697 3.54253827,-0.676747927 7.68265906,-0.681690387 L47.1975491,-0.681690387 C49.1875562,-0.687168584 51.0970256,0.112573812 52.5002891,1.53928249 L60.9861191,10.1193942 C62.3971505,11.5382485 63.188105,13.4689332 63.182687,15.4810502 L63.182687,34.2016496 C63.182687,35.039281 62.5110862,35.7183154 61.6826591,35.7183154 C60.8542319,35.7183154 60.1826591,35.039281 60.1826591,34.2016496 L60.1826591,15.4810502 C60.1794009,15.1455199 60.1389585,14.8114159 60.0620891,14.4849952 L52.6826591,14.4849952 C50.1985017,14.4822535 48.1853706,12.4467555 48.1826591,9.93499797 L48.1826591,2.46978725 C47.8595767,2.39394873 47.5292131,2.35433705 47.1975491,2.35166932 L7.68265906,2.35166932 C5.19850172,2.35441101 3.18537063,4.38990897 3.18265906,6.90166651 L3.18265906,73.6349586 C3.18537063,76.1467162 5.19850172,78.1822141 7.68265906,78.1849558 L34.6826591,78.1849558 C35.5110862,78.1849558 36.1826591,78.8639902 36.1826591,79.7016215 Z M51.1826591,4.49632566 L51.1826591,9.93499797 C51.1837333,10.772179 51.8546773,11.4505775 52.6826591,11.4516637 L58.0615691,11.4516637 L51.1826591,4.49632566 Z M52.0675255,66.0148225 L53.5798612,66.0148225 C53.4406457,65.0716109 53.4406457,64.1127511 53.5798612,63.1695395 L52.0675255,63.1695395 C51.2899505,63.1695395 50.6596014,62.5326012 50.6596014,61.746898 C50.6596014,60.9611948 51.2899505,60.3242565 52.0675255,60.3242565 L54.3710442,60.3242565 C55.7609291,56.9394585 59.0009845,54.7061802 62.6269563,54.6336905 C64.800669,54.6441585 66.89301,55.470284 68.4978872,56.9517283 C68.871861,57.2920555 69.0375684,57.8082356 68.9325084,58.3055772 C68.8274483,58.8029187 68.4676066,59.205747 67.9887073,59.3621242 C67.5098081,59.5185015 66.9847198,59.4046336 66.6114941,59.0634689 C65.5276286,58.0480129 64.1050226,57.4822979 62.6269563,57.4789735 C60.5836581,57.5193925 58.6948049,58.5865157 57.590685,60.3242565 L63.3309183,60.3242565 C64.1084933,60.3242565 64.7388424,60.9611948 64.7388424,61.746898 C64.7388424,62.5326012 64.1084933,63.1695395 63.3309183,63.1695395 L56.4194189,63.1695395 C56.2485906,64.1101132 56.2485906,65.0742488 56.4194189,66.0148225 L63.3309183,66.0148225 C64.1084933,66.0148225 64.7388424,66.6517608 64.7388424,67.437464 C64.7388424,68.2231673 64.1084933,68.8601056 63.3309183,68.8601056 L57.590685,68.8601056 C58.6948049,70.5978463 60.5836581,71.6649696 62.6269563,71.7053886 C64.1050226,71.7020641 65.5276286,71.1363492 66.6114941,70.1208931 C66.9847198,69.7797285 67.5098081,69.6658606 67.9887073,69.8222378 C68.4676066,69.978615 68.8274483,70.3814433 68.9325084,70.8787849 C69.0375684,71.3761264 68.871861,71.8923066 68.4978872,72.2326337 C66.89301,73.714078 64.800669,74.5402035 62.6269563,74.5506716 C59.0009845,74.4781818 55.7609291,72.2449035 54.3710442,68.8601056 L52.0675255,68.8601056 C51.2899505,68.8601056 50.6596014,68.2231673 50.6596014,67.437464 C50.6596014,66.6517608 51.2899505,66.0148225 52.0675255,66.0148225 Z M81.1826591,64.5349642 C81.1826591,75.4241718 72.4522117,84.2516187 61.6826591,84.2516187 C50.9131064,84.2516187 42.1826591,75.4241718 42.1826591,64.5349642 C42.1826591,53.6457567 50.9131064,44.8183098 61.6826591,44.8183098 C72.4472701,44.8303628 81.1707384,53.6507531 81.1826591,64.5349642 L81.1826591,64.5349642 Z M78.1826591,64.5349642 C78.1826591,55.3210194 70.7953574,47.8516412 61.6826591,47.8516412 C52.5699607,47.8516412 45.1826591,55.3210194 45.1826591,64.5349642 C45.1826591,73.7489091 52.5699607,81.2182873 61.6826591,81.2182873 C70.7910911,81.2078813 78.1723674,73.7445954 78.1826591,64.5349642 L78.1826591,64.5349642 Z" id="Shape"></path>
                </g>
            </g>
        </g>
    </g>
</svg>