<?xml version="1.0" encoding="UTF-8"?>
<svg width="25px" height="25px" viewBox="0 0 25 25" version="1.1" xmlns="http://www.w3.org/2000/svg" xmlns:xlink="http://www.w3.org/1999/xlink">
    <title>Instagram Copy 7</title>
    <g id="COMPONENTS" stroke="none" stroke-width="1" fill="none" fill-rule="evenodd">
        <g id="SECTIONS/-Desktop/-Footer" transform="translate(-368.000000, -171.000000)" fill="#223146">
            <g id="Group-57-Copy-4" transform="translate(331.000000, 75.000000)">
                <g id="Instagram-Copy-7" transform="translate(37.817985, 96.663367)">
                    <path d="M13.2602283,0.000815821068 C15.5001354,0.00451028116 15.9584313,0.0217642824 17.0761145,0.0727609206 C18.3630613,0.131459209 19.2419998,0.335871321 20.011077,0.634786237 C20.8061676,0.943732178 21.480454,1.35716395 22.1526766,2.02933855 C22.8248512,2.70156115 23.238283,3.37584754 23.5472769,4.17093818 C23.8461438,4.94001535 24.050556,5.81895383 24.1092542,7.10590062 C24.1602509,8.22358387 24.1775049,8.68187976 24.1811993,10.9218181 L24.1819676,11.7720916 L24.1819676,11.7720916 L24.1820152,12.0910316 C24.1820152,12.2004881 24.1819997,12.3067536 24.1819676,12.409967 L24.1811993,13.2602283 C24.1775049,15.5001354 24.1602509,15.9584313 24.1092542,17.0761145 C24.050556,18.3630613 23.8461438,19.2419998 23.5472769,20.011077 C23.238283,20.8061676 22.8248512,21.480454 22.1526766,22.1526766 C21.480454,22.8248512 20.8061676,23.238283 20.011077,23.5472769 C19.2419998,23.8461438 18.3630613,24.050556 17.0761145,24.1092542 C15.9584313,24.1602509 15.5001354,24.1775049 13.2602283,24.1811993 L12.409967,24.1819676 L12.409967,24.1819676 L12.0910316,24.1820152 C11.9815734,24.1820152 11.8753064,24.1819997 11.7720916,24.1819676 L10.9218181,24.1811993 C8.68187976,24.1775049 8.22358387,24.1602509 7.10590062,24.1092542 C5.81895383,24.050556 4.94001535,23.8461438 4.17093818,23.5472769 C3.37584754,23.238283 2.70156115,22.8248512 2.02933855,22.1526766 C1.35716395,21.480454 0.943732178,20.8061676 0.634786237,20.011077 C0.335871321,19.2419998 0.131459209,18.3630613 0.0727609206,17.0761145 C0.0217642824,15.9584313 0.00451028116,15.5001354 0.000815821068,13.2602283 L0.000815821068,10.9218181 C0.00451028116,8.68187976 0.0217642824,8.22358387 0.0727609206,7.10590062 C0.131459209,5.81895383 0.335871321,4.94001535 0.634786237,4.17093818 C0.943732178,3.37584754 1.35716395,2.70156115 2.02933855,2.02933855 C2.70156115,1.35716395 3.37584754,0.943732178 4.17093818,0.634786237 C4.94001535,0.335871321 5.81895383,0.131459209 7.10590062,0.0727609206 C8.22358387,0.0217642824 8.68187976,0.00451028116 10.9218181,0.000815821068 Z M12.9779125,2.17895958 L11.2041377,2.17895958 C9.40638172,2.18082756 8.70736898,2.18966659 7.99938148,2.21540282 L7.78560826,2.22364054 C7.60539335,2.23094427 7.41769428,2.23936612 7.20520296,2.24906117 C6.02634166,2.30281594 5.38613195,2.49978878 4.9600774,2.66537267 C4.39570031,2.88471133 3.9929235,3.14671783 3.56984467,3.56984467 C3.14671783,3.9929235 2.88471133,4.39570031 2.66537267,4.9600774 C2.49978878,5.38613195 2.30281594,6.02634166 2.24906117,7.20520296 C2.23936612,7.41769428 2.23094427,7.60539335 2.22364054,7.78560826 L2.21540282,7.99938148 C2.18966659,8.70736898 2.18082756,9.40638172 2.17895958,11.2041377 L2.17895958,12.9779125 C2.18082756,14.7756425 2.18966659,15.4746485 2.21540282,16.1826343 L2.22364054,16.3964071 C2.23094427,16.5766218 2.23936612,16.7643209 2.24906117,16.9768122 C2.30281594,18.1556735 2.49978878,18.7958832 2.66537267,19.2219378 C2.88471133,19.7863149 3.14676583,20.1890917 3.56984467,20.6121705 C3.9929235,21.0352973 4.39570031,21.2973038 4.9600774,21.5166425 C5.38613195,21.6822264 6.02634166,21.8791992 7.20520296,21.932954 C7.41767028,21.9426491 7.60534669,21.9510709 7.7855416,21.9583746 L7.99929218,21.9666123 C8.70720908,21.9923486 9.40620241,22.0011876 11.2040755,22.0030556 L12.977976,22.0030556 C14.7758286,22.0011876 15.4748355,21.9923486 16.1827433,21.9666123 L16.3964905,21.9583746 C16.5766818,21.9510709 16.7643529,21.9426491 16.9768122,21.932954 C18.1556735,21.8791992 18.7958832,21.6822264 19.2219378,21.5166425 C19.7863149,21.2973038 20.1890917,21.0352973 20.6121705,20.6121705 C21.0352973,20.1890917 21.2973038,19.7863149 21.5166425,19.2219378 C21.6822264,18.7958832 21.8791992,18.1556735 21.932954,16.9768122 C21.9426491,16.7643209 21.9510709,16.5766218 21.9583746,16.3964071 L21.9666123,16.1826343 C21.9923486,15.4746485 22.0011876,14.7756425 22.0030556,12.9779125 L22.0030556,11.2041377 C22.0011876,9.40638172 21.9923486,8.70736898 21.9666123,7.99938148 L21.9583746,7.78560826 C21.9510709,7.60539335 21.9426491,7.41769428 21.932954,7.20520296 C21.8791992,6.02634166 21.6822264,5.38613195 21.5166425,4.9600774 C21.2973038,4.39570031 21.0352973,3.9929235 20.6121705,3.56984467 C20.1890917,3.14671783 19.7863149,2.88471133 19.2219378,2.66537267 C18.7958832,2.49978878 18.1556735,2.30281594 16.9768122,2.24906117 C16.7643209,2.23936612 16.5766218,2.23094427 16.3964071,2.22364054 L16.1826343,2.21540282 C15.4746485,2.18966659 14.7756425,2.18082756 12.9779125,2.17895958 Z M12.0910316,5.88211569 C15.5201059,5.88211569 18.2998995,8.66190922 18.2998995,12.0910316 C18.2998995,15.5201059 15.5201059,18.2998995 12.0910316,18.2998995 C8.66190922,18.2998995 5.88211569,15.5201059 5.88211569,12.0910316 C5.88211569,8.66190922 8.66190922,5.88211569 12.0910316,5.88211569 Z M12.0910316,8.06067172 C9.86510416,8.06067172 8.06067172,9.86510416 8.06067172,12.0910316 C8.06067172,14.316911 9.86510416,16.1213434 12.0910316,16.1213434 C14.316911,16.1213434 16.1213434,14.316911 16.1213434,12.0910316 C16.1213434,9.86510416 14.316911,8.06067172 12.0910316,8.06067172 Z M18.5452036,4.18586473 C19.3465336,4.18586473 19.9961504,4.83548152 19.9961504,5.63681156 C19.9961504,6.43814159 19.3465336,7.08771039 18.5452036,7.08771039 C17.7439216,7.08771039 17.0943048,6.43814159 17.0943048,5.63681156 C17.0943048,4.83548152 17.7439216,4.18586473 18.5452036,4.18586473 Z" id="Instagram"></path>
                </g>
            </g>
        </g>
    </g>
</svg>