<?xml version="1.0" encoding="UTF-8"?>
<svg width="76px" height="60px" viewBox="0 0 76 60" version="1.1" xmlns="http://www.w3.org/2000/svg" xmlns:xlink="http://www.w3.org/1999/xlink">
    <title>Group 31</title>
    <g id="COMPONENTS" stroke="none" stroke-width="1" fill="none" fill-rule="evenodd">
        <g id="SECTIONS/-Desktop/-O-nas-Small" transform="translate(-268.000000, -807.000000)" fill="#FFFFFF">
            <g id="Group-15" transform="translate(240.000000, 778.000000)">
                <g id="Group-31" transform="translate(29.000000, 29.000000)">
                    <g id="noun-payment-4561293" transform="translate(0.000000, 9.500000)" fill-rule="nonzero">
                        <path d="M18.7702883,29.5406345 C18.7702883,33.5823481 22.0609832,36.8588043 26.120261,36.8588043 C30.1795389,36.8588043 33.4702338,33.5823481 33.4702338,29.5406345 C33.4702338,25.4989209 30.1795389,22.2224646 26.120261,22.2224646 C22.0629452,22.2271771 18.7750212,25.5008744 18.7702883,29.5406345 L18.7702883,29.5406345 Z M31.3702416,29.5406345 C31.3702416,32.4275727 29.0197452,34.7678986 26.120261,34.7678986 C23.2207768,34.7678986 20.8702805,32.4275727 20.8702805,29.5406345 C20.8702805,26.6536962 23.2207768,24.3133703 26.120261,24.3133703 C29.0183349,24.3167577 31.3668395,26.6551004 31.3702416,29.5406345 Z M29.5778982,10.4161657 C29.3809373,10.2201635 29.2702768,9.95426352 29.2702768,9.67699921 C29.2702768,9.39973491 29.3809373,9.13383492 29.5778982,8.9378327 L34.901704,3.63756455 C37.0620875,1.47349934 40.00233,0.260111076 43.0668308,0.267917261 L54.470156,0.267917261 C57.5233054,0.34475314 60.43003,1.58695685 62.589167,3.7376562 C62.8446851,4.01121824 62.9342157,4.39972742 62.8240335,4.7568361 C62.7138513,5.11394478 62.4206956,5.38539966 62.0549953,5.4689463 C61.6892951,5.55249294 61.3066088,5.43543864 61.0510907,5.1618766 C59.2839809,3.4450305 56.9376073,2.44564014 54.470156,2.35886073 L43.0668308,2.35886073 C40.5595473,2.35251316 38.1539545,3.34532915 36.38643,5.1159394 L31.0625927,10.4161657 C30.8657374,10.6122719 30.5986824,10.7224518 30.320214,10.7224518 C30.0417456,10.7224518 29.7746906,10.6122719 29.5778352,10.4161657 L29.5778982,10.4161657 Z M29.4250818,18.0406533 C29.425157,18.3179475 29.3145569,18.5839061 29.1176281,18.7799828 C28.9206994,18.9760594 28.653585,19.086181 28.3750857,19.0861061 L10.2647528,19.0861061 C9.84019769,21.1372497 8.23039773,22.7400636 6.17033492,23.1627553 L6.17033492,35.9185136 C8.23037741,36.3412239 9.84015296,37.944034 10.2647003,39.9951628 L41.9758218,39.9951628 C42.4003691,37.944034 44.0101447,36.3412239 46.0701872,35.9185136 L46.0701872,23.1570994 C45.5823565,23.0514755 45.1116494,22.8788134 44.6715923,22.6440748 C44.3373051,22.470581 44.1220827,22.1319738 44.1076967,21.7569032 C44.0933106,21.3818326 44.281969,21.0278681 44.6019931,20.8294945 C44.9220172,20.631121 45.3242867,20.6187866 45.6559637,20.7971778 C46.1050994,21.0421021 46.6081153,21.1725897 47.1201833,21.1770118 C47.3986818,21.1769396 47.6657945,21.2870621 47.8627226,21.4831382 C48.0596508,21.6792142 48.1701794,21.9451712 48.1701794,22.2224646 L48.1701794,36.8588043 C48.1701794,37.1360977 48.0596508,37.4020547 47.8627226,37.5981307 C47.6657945,37.7942068 47.3986818,37.9043293 47.1201833,37.9042571 C45.3812796,37.906147 43.972093,39.3092361 43.9701949,41.0406156 C43.9702674,41.3179091 43.8596664,41.583866 43.6627382,41.7799421 C43.46581,41.9760182 43.1986973,42.0860685 42.9201988,42.0860685 L9.32032325,42.0860685 C9.04182477,42.0860685 8.77471206,41.9760182 8.57778389,41.7799421 C8.38085571,41.583866 8.2702547,41.3179091 8.27032714,41.0406156 C8.26842905,39.3092361 6.8592425,37.906147 5.12033881,37.9042571 C4.84184032,37.9043293 4.57472761,37.7942068 4.37779944,37.5981307 C4.18087127,37.4020547 4.07034266,37.1360977 4.07034266,36.8588043 L4.07034266,22.2224646 C4.07034266,21.9451712 4.18087127,21.6792142 4.37779944,21.4831382 C4.57472761,21.2870621 4.84184032,21.1769396 5.12033881,21.1770118 C6.8592425,21.1751219 8.26842905,19.7720328 8.27032714,18.0406533 C8.2702547,17.7633598 8.38085571,17.4974029 8.57778389,17.3013268 C8.77471206,17.1052507 9.04182477,16.9952004 9.32032325,16.9952004 L28.3750857,16.9952004 C28.653585,16.9952004 28.9206994,17.1052471 29.1176281,17.3013238 C29.3145569,17.4974004 29.425157,17.763359 29.4250818,18.0406533 Z M52.3701638,22.7839878 L52.3701638,41.0406156 C52.3667617,43.9261497 50.0182571,46.2644924 47.1201833,46.2678798 L5.12033881,46.2678798 C2.22226499,46.2644924 -0.126239616,43.9261497 -0.129641753,41.0406156 L-0.129641753,18.0406533 C-0.126239616,15.1551193 2.22226499,12.8167765 5.12033881,12.8133891 L30.6801527,12.8133891 C31.2600495,12.8133891 31.7301488,13.2814543 31.7301488,13.8588419 C31.7301488,14.4362296 31.2600495,14.9042948 30.6801527,14.9042948 L5.12033881,14.9042948 C3.38143511,14.9061846 1.97224856,16.3092737 1.97035047,18.0406533 L1.97035047,41.0406156 C1.97224856,42.7719952 3.38143511,44.1750843 5.12033881,44.1769742 L47.1201833,44.1769742 C48.859087,44.1750843 50.2682735,42.7719952 50.2701716,41.0406156 L50.2701716,22.7839878 C50.2701716,22.2066001 50.7402709,21.7385349 51.3201677,21.7385349 C51.9000646,21.7385349 52.3701638,22.2066001 52.3701638,22.7839878 Z M47.4565075,15.0028182 L39.499511,22.9243712 C38.296464,24.1222126 36.5429849,24.590023 34.8995922,24.1515826 C33.2561995,23.7131422 31.9725636,22.4350606 31.5322179,20.7987787 C31.0918722,19.1624969 31.5617155,17.416605 32.7647624,16.2187635 L42.1778516,6.84698975 C42.4422521,6.57892086 42.8308016,6.47275205 43.1955888,6.56889922 C43.560376,6.66504639 43.8452801,6.94871776 43.9418451,7.31192654 C44.0384101,7.67513531 43.9317799,8.06200361 43.6625461,8.32526006 L34.2494989,17.6970756 C33.211809,18.733154 33.211809,20.409918 34.2494989,21.4459963 C35.303016,22.4475548 36.9611944,22.4475548 38.0147115,21.4459963 L47.4278321,12.0742539 C47.7280914,11.7752542 48.1796847,11.6857926 48.5720235,11.8475871 C48.9643623,12.0093817 49.2201771,12.3905676 49.2201755,12.8133891 C49.2235776,15.6989231 51.5720822,18.0372658 54.470156,18.0406533 L56.5701483,18.0406533 C57.1500451,18.0406533 57.6201444,18.5087184 57.6201444,19.0861061 C57.6201444,19.6634938 57.1500451,20.1315589 56.5701483,20.1315589 L54.470156,20.1315589 C51.2590998,20.1278592 48.420862,18.0523937 47.4565075,15.0028182 Z M62.870125,25.3588231 C62.870125,25.6361165 62.7595964,25.9020735 62.5626682,26.0981496 C62.36574,26.2942256 62.0986273,26.4043481 61.8201288,26.4042759 L59.1920621,26.4042759 C58.8030986,26.8818055 58.3713416,27.3231404 57.9021208,27.7228324 C57.313657,28.2323501 56.655227,28.6557126 55.9467131,28.9801358 C55.4169968,29.2129765 54.7979416,28.9750273 54.562772,28.448184 C54.3276025,27.9213406 54.565045,27.304374 55.0935912,27.0689121 C55.6195131,26.8252591 56.1080296,26.5084975 56.5445179,26.1281091 C57.0154549,25.7292124 57.4364929,25.2753625 57.7985597,24.7763386 C57.994046,24.4877032 58.3204977,24.3142978 58.6701405,24.3133702 L61.8201288,24.3133702 C62.0986273,24.3132982 62.36574,24.4234206 62.5626682,24.6194967 C62.7595964,24.8155728 62.870125,25.0815297 62.870125,25.3588231 L62.870125,25.3588231 Z" id="Shape"></path>
                    </g>
                    <circle id="Oval-Copy-7" opacity="0.1" cx="45" cy="30" r="30"></circle>
                </g>
            </g>
        </g>
    </g>
</svg>