<?xml version="1.0" encoding="UTF-8"?>
<svg width="104px" height="99px" viewBox="0 0 104 99" version="1.1" xmlns="http://www.w3.org/2000/svg" xmlns:xlink="http://www.w3.org/1999/xlink">
    <title>Group 15</title>
    <g id="COMPONENTS" stroke="none" stroke-width="1" fill="none" fill-rule="evenodd">
        <g id="SECTIONS/-Desktop/-Co-ponukame" transform="translate(-1031.000000, -420.000000)">
            <g id="Group-15" transform="translate(1032.000000, 420.000000)">
                <circle id="Oval" fill="#F9951E" cx="55.7476885" cy="46.5" r="46.5"></circle>
                <g id="noun-cash-flow-4561280-copy" transform="translate(0.000000, 14.359737)" fill="#223146" fill-rule="nonzero">
                    <path d="M35.4623638,43.5397224 L36.9377379,43.5397224 C36.8019248,42.6308172 36.8019248,41.7068329 36.9377379,40.7979277 L35.4623638,40.7979277 C34.7037929,40.7979277 34.0888496,40.184156 34.0888496,39.4270303 C34.0888496,38.6699045 34.7037929,38.0561329 35.4623638,38.0561329 L37.7095842,38.0561329 C39.0655,34.7944463 42.226368,32.6423965 45.7637204,32.5725433 C47.8843073,32.5826306 49.9255111,33.3787084 51.4911648,34.8062698 C51.8559986,35.1342186 52.0176562,35.6316244 51.9151638,36.1108767 C51.8126715,36.590129 51.4616243,36.9783056 50.9944294,37.1289951 C50.5272345,37.2796846 50.0149795,37.1699583 49.6508755,36.8412025 C48.5934999,35.8626804 47.2056626,35.3175416 45.7637204,35.3143381 C43.7703608,35.353287 41.9276714,36.3815969 40.8505365,38.0561329 L46.4504775,38.0561329 C47.2090485,38.0561329 47.8239918,38.6699045 47.8239918,39.4270303 C47.8239918,40.184156 47.2090485,40.7979277 46.4504775,40.7979277 L39.7078963,40.7979277 C39.541243,41.704291 39.541243,42.6333591 39.7078963,43.5397224 L46.4504775,43.5397224 C47.2090485,43.5397224 47.8239918,44.1534941 47.8239918,44.9106198 C47.8239918,45.6677456 47.2090485,46.2815172 46.4504775,46.2815172 L40.8505365,46.2815172 C41.9276714,47.9560532 43.7703608,48.9843631 45.7637204,49.023312 C47.2056626,49.0201085 48.5934999,48.4749697 49.6508755,47.4964476 C50.0149795,47.1676918 50.5272345,47.0579655 50.9944294,47.208655 C51.4616243,47.3593445 51.8126715,47.7475211 51.9151638,48.2267734 C52.0176562,48.7060258 51.8559986,49.2034315 51.4911648,49.5313803 C49.9255111,50.9589417 47.8843073,51.7550195 45.7637204,51.7651068 C42.226368,51.6952536 39.0655,49.5432038 37.7095842,46.2815172 L35.4623638,46.2815172 C34.7037929,46.2815172 34.0888496,45.6677456 34.0888496,44.9106198 C34.0888496,44.1534941 34.7037929,43.5397224 35.4623638,43.5397224 Z M45.0913441,61.8628756 C34.202132,61.8628756 25.3746813,53.0262448 25.3746813,42.1257083 C25.3746813,31.2251718 34.202132,22.388541 45.0913441,22.388541 C55.9805563,22.388541 64.8080069,31.2251718 64.8080069,42.1257083 C64.795687,53.0211323 55.9754491,61.8505429 45.0913441,61.8628756 Z M45.0913441,58.8263884 C54.3052929,58.8263884 61.7746742,51.3492392 61.7746742,42.1257083 C61.7746742,32.9021774 54.3052929,25.4250283 45.0913441,25.4250283 C35.8773954,25.4250283 28.4080141,32.9021774 28.4080141,42.1257083 C28.41842,51.344921 35.8817091,58.8159716 45.0913441,58.8263884 L45.0913441,58.8263884 Z M74.0694543,33.0659082 C73.6803705,33.168095 73.347814,33.4208996 73.1450177,33.7686516 C72.9422214,34.1164036 72.885816,34.5305848 72.9882228,34.9199874 C73.6014108,37.2726309 73.9105285,39.6943081 73.9080052,42.1257083 C73.8899349,58.0497629 60.9988556,70.9542484 45.0913366,70.9723375 L11.724684,70.9723375 C11.1112856,70.9723352 10.558289,71.342231 10.3235693,71.9095339 C10.0888496,72.4768369 10.218634,73.1298189 10.6524009,73.5639794 L16.2792331,79.1906814 L13.8738002,81.6044914 L3.25713566,70.9767859 C2.85231011,70.5736892 2.62470008,70.0256808 2.62470008,69.4540938 C2.62470008,68.8825068 2.85231011,68.3344984 3.25713566,67.9314017 L13.8678852,57.3036963 L16.2791269,59.7115244 L10.6522947,65.3442083 C10.2185141,65.7783824 10.0887365,66.4313902 10.3234834,66.9987028 C10.5582304,67.5660154 11.1112663,67.9358955 11.724684,67.9358502 L45.0913366,67.9358502 C55.8203765,67.9449118 65.4317258,61.2965385 69.2176038,51.2472068 C73.0034817,41.1978751 70.171151,29.8518471 62.1079313,22.7665837 C61.4788699,22.2130377 60.5206433,22.2747853 59.9676724,22.9045009 C59.4147014,23.5342165 59.476385,24.4934396 60.1054464,25.0469856 C67.220327,31.2980179 69.7197098,41.3090049 66.3792065,50.1758019 C63.0387032,59.042599 54.5579013,64.9082703 45.0913366,64.8993629 L15.3860076,64.8993629 L18.425316,61.8576832 C19.604604,60.6722048 19.6039258,58.7552152 18.4237994,57.5705731 L16.0139985,55.1575526 C14.8156414,54.0105049 12.9278823,54.0101771 11.7291278,55.1568087 L1.11246324,65.7845141 C0.138634574,66.7568989 -0.408663447,68.0772111 -0.408663447,69.454109 C-0.408663447,70.831007 0.138634574,72.1513191 1.11246324,73.1237039 L11.7276112,83.7506654 C12.2954495,84.3200831 13.0661566,84.6402632 13.8699,84.6402632 C14.6736434,84.6402632 15.4444614,84.3206298 16.012497,83.7514094 L18.425316,81.3368706 C19.604604,80.1513921 19.6039258,78.2344025 18.4237994,77.0497605 L15.3860076,74.0088247 L45.0913366,74.0088247 C62.673329,73.9888281 76.921362,59.7259778 76.9413507,42.1257083 C76.9437697,39.4340307 76.6008003,36.7531891 75.9208489,34.1489929 C75.8190537,33.759454 75.5667185,33.4264133 75.2194437,33.223254 C74.872169,33.0200948 74.4584526,32.9634886 74.0694543,33.0659082 Z M89.070225,11.1277279 L78.4550771,0.500766407 C77.2567149,-0.646283242 75.3689509,-0.646610994 74.1701913,0.500022468 L71.7573723,2.91454606 C70.5780843,4.10002452 70.5787625,6.01701414 71.7588889,7.20165617 L74.7966807,10.2425919 L45.0913441,10.2425919 C27.5093592,10.2625886 13.2613263,24.5254389 13.2413375,42.1257083 C13.2389186,44.8173859 13.581888,47.4982275 14.2618393,50.1024238 C14.3982236,50.6281801 14.804912,51.0408775 15.328215,51.1845552 C15.8515179,51.3282329 16.411627,51.1809789 16.796874,50.7984412 C17.1821209,50.4159035 17.3337522,49.8564226 17.1944654,49.3314293 C16.5812774,46.9787858 16.2721597,44.5571086 16.2746831,42.1257083 C16.2927534,26.2016537 29.1838327,13.2971682 45.0913441,13.2790792 L78.4580043,13.2790792 C79.0714027,13.2790815 79.6243993,12.9091856 79.859119,12.3418827 C80.0938387,11.7745798 79.9640543,11.1215977 79.5302874,10.6874373 L73.9034552,5.06073527 L76.308888,2.64692525 L86.9255526,13.2746307 C87.3303782,13.6777274 87.5579882,14.2257358 87.5579882,14.7973228 C87.5579882,15.3689098 87.3303782,15.9169182 86.9255526,16.3200149 L76.314803,26.9477204 L73.9035613,24.5398923 L79.5303936,18.9072083 C79.9641741,18.4730342 80.0939517,17.8200264 79.8592048,17.2527138 C79.6244579,16.6854013 79.071422,16.3155212 78.4580043,16.3155665 L45.0913441,16.3155665 C34.3623118,16.3065048 24.7509624,22.9548782 20.9650845,33.0042099 C17.1792066,43.0535416 20.0115373,54.3995696 28.074757,61.484833 C28.4816883,61.8429145 29.0485442,61.9564744 29.5617954,61.7827357 C30.0750466,61.608997 30.4567181,61.1743549 30.5630379,60.6425347 C30.6693577,60.1107145 30.4841733,59.5625125 30.0772419,59.204431 C22.9623613,52.9533988 20.4629785,42.9424117 23.8034817,34.0756147 C27.143985,25.2088177 35.624787,19.3431463 45.0913441,19.3520537 L74.7966807,19.3520537 L71.7573723,22.3937334 C70.5780843,23.5792119 70.5787625,25.4962015 71.7588889,26.6808435 L74.1686746,29.093864 C75.3670317,30.2409118 77.2547908,30.2412395 78.4535453,29.094608 L89.0702099,18.4669025 C90.0440385,17.4945177 90.5913366,16.1742056 90.5913366,14.7973076 C90.5913366,13.4204097 90.0440385,12.1000976 89.0702099,11.1277128 L89.070225,11.1277279 Z" id="Shape"></path>
                </g>
            </g>
        </g>
    </g>
</svg>