<?xml version="1.0" encoding="UTF-8"?>
<svg width="168px" height="268px" viewBox="0 0 168 268" version="1.1" xmlns="http://www.w3.org/2000/svg" xmlns:xlink="http://www.w3.org/1999/xlink">
    <title>Group 4</title>
    <g id="COMPONENTS" stroke="none" stroke-width="1" fill="none" fill-rule="evenodd">
        <g id="SECTIONS/-Desktop/-Map-Centrala" transform="translate(-1350.000000, -193.000000)" stroke="#FCC800" stroke-width="2">
            <g id="Group-4" transform="translate(1351.000000, 194.000000)">
                <path d="M-4.54747351e-13,67.8283 C-4.54747351e-13,30.4283 30.428,0.000299999999 67.828,0.000299999999 L67.828,27.5893 C45.641,27.5893 27.589,45.6403 27.589,67.8283 C27.589,68.0653 27.593,68.3053 27.596,68.5423 L0.007,68.5423 C-4.54747351e-13,68.3053 -4.54747351e-13,68.0653 -4.54747351e-13,67.8283" id="Fill-105"></path>
                <path d="M165.6562,0.714 C165.6562,38.114 135.2282,68.542 97.8282,68.542 L97.8282,40.953 C120.0162,40.953 138.0672,22.902 138.0672,0.714 C138.0672,0.477 138.0632,0.237 138.0602,1.84741111e-13 L165.6502,1.84741111e-13 C165.6562,0.237 165.6562,0.477 165.6562,0.714" id="Fill-109"></path>
                <path d="M-4.54747351e-13,166.3702 C-4.54747351e-13,128.9702 30.428,98.5422 67.828,98.5422 L67.828,126.1312 C45.641,126.1312 27.589,144.1822 27.589,166.3702 C27.589,166.6072 27.593,166.8472 27.596,167.0842 L0.007,167.0842 C-4.54747351e-13,166.8472 -4.54747351e-13,166.6072 -4.54747351e-13,166.3702" id="Fill-119"></path>
                <path d="M-4.54747351e-13,264.9121 C-4.54747351e-13,227.5121 30.428,197.0841 67.828,197.0841 L67.828,224.6731 C45.641,224.6731 27.589,242.7241 27.589,264.9121 C27.589,265.1491 27.593,265.3891 27.596,265.6261 L0.007,265.6261 C-4.54747351e-13,265.3891 -4.54747351e-13,265.1491 -4.54747351e-13,264.9121" id="Fill-121"></path>
                <path d="M165.6562,99.8827 C165.6562,137.2827 135.2282,167.7107 97.8282,167.7107 L97.8282,140.1217 C120.0162,140.1217 138.0672,122.0707 138.0672,99.8827 C138.0672,99.6457 138.0632,99.4057 138.0602,99.1687 L165.6502,99.1687 C165.6562,99.4057 165.6562,99.6457 165.6562,99.8827" id="Fill-124"></path>
                <path d="M165.6562,197.7977 C165.6562,235.1977 135.2282,265.6257 97.8282,265.6257 L97.8282,238.0367 C120.0162,238.0367 138.0672,219.9857 138.0672,197.7977 C138.0672,197.5607 138.0632,197.3207 138.0602,197.0837 L165.6502,197.0837 C165.6562,197.3207 165.6562,197.5607 165.6562,197.7977" id="Fill-126"></path>
            </g>
        </g>
    </g>
</svg>