<?xml version="1.0" encoding="UTF-8"?>
<svg width="266px" height="269px" viewBox="0 0 266 269" version="1.1" xmlns="http://www.w3.org/2000/svg" xmlns:xlink="http://www.w3.org/1999/xlink">
    <title>Group 23</title>
    <g id="COMPONENTS" stroke="none" stroke-width="1" fill="none" fill-rule="evenodd">
        <g id="SECTIONS/-Desktop/-Co-ponukame" transform="translate(25.000000, -11.000000)" stroke="#ED4036" stroke-width="2">
            <g id="Group-23" transform="translate(-23.859500, 12.000000)">
                <path d="M0,67.828 C0,30.428 30.428,0 67.828,0 L67.828,27.589 C45.641,27.589 27.589,45.64 27.589,67.828 C27.589,68.065 27.593,68.305 27.596,68.542 L0.007,68.542 C0,68.305 0,68.065 0,67.828" id="Fill-37-Copy-3"></path>
                <path d="M0,166.3699 C0,128.9699 30.428,98.5419 67.828,98.5419 L67.828,126.1309 C45.641,126.1309 27.589,144.1819 27.589,166.3699 C27.589,166.6069 27.593,166.8469 27.596,167.0839 L0.007,167.0839 C0,166.8469 0,166.6069 0,166.3699" id="Fill-39-Copy-3"></path>
                <path d="M165.6562,1.3406 C165.6562,38.7406 135.2282,69.1686 97.8282,69.1686 L97.8282,41.5796 C120.0162,41.5796 138.0672,23.5286 138.0672,1.3406 C138.0672,1.1036 138.0632,0.8636 138.0602,0.6266 L165.6502,0.6266 C165.6562,0.8636 165.6562,1.1036 165.6562,1.3406" id="Fill-41-Copy-3"></path>
                <path d="M165.6562,99.2555 C165.6562,136.6555 135.2282,167.0835 97.8282,167.0835 L97.8282,139.4945 C120.0162,139.4945 138.0672,121.4435 138.0672,99.2555 C138.0672,99.0185 138.0632,98.7785 138.0602,98.5415 L165.6502,98.5415 C165.6562,98.7785 165.6562,99.0185 165.6562,99.2555" id="Fill-43-Copy-3"></path>
                <path d="M195.6562,67.828 C195.6562,30.428 226.0842,0 263.4842,0 L263.4842,27.589 C241.2972,27.589 223.2452,45.64 223.2452,67.828 C223.2452,68.065 223.2492,68.305 223.2522,68.542 L195.6632,68.542 C195.6562,68.305 195.6562,68.065 195.6562,67.828" id="Fill-45-Copy-3"></path>
                <path d="M195.6562,166.3699 C195.6562,128.9699 226.0842,98.5419 263.4842,98.5419 L263.4842,126.1309 C241.2962,126.1309 223.2452,144.1819 223.2452,166.3699 C223.2452,166.6069 223.2492,166.8469 223.2522,167.0839 L195.6622,167.0839 C195.6562,166.8469 195.6562,166.6069 195.6562,166.3699" id="Fill-47-Copy-3"></path>
                <path d="M0,264.9117 C0,227.5117 30.428,197.0837 67.828,197.0837 L67.828,224.6727 C45.641,224.6727 27.589,242.7237 27.589,264.9117 C27.589,265.1487 27.593,265.3887 27.596,265.6257 L0.007,265.6257 C0,265.3887 0,265.1487 0,264.9117" id="Fill-53-Copy-3"></path>
                <path d="M97.8282,266.2523 L97.8282,238.6633 C120.0162,238.6633 138.0672,220.6123 138.0672,198.4243 C138.0672,198.1873 138.0632,197.9473 138.0602,197.7103 L165.6502,197.7103 C165.6562,197.9473 165.6562,198.1873 165.6562,198.4243 C165.6562,235.8243 135.2282,266.2523 97.8282,266.2523 Z" id="Fill-57-Copy-3"></path>
                <path d="M195.6562,264.9117 C195.6562,227.5117 226.0842,197.0837 263.4842,197.0837 L263.4842,224.6727 C241.2972,224.6727 223.2452,242.7237 223.2452,264.9117 C223.2452,265.1487 223.2492,265.3887 223.2522,265.6257 L195.6632,265.6257 C195.6562,265.3887 195.6562,265.1487 195.6562,264.9117" id="Fill-61-Copy-3"></path>
            </g>
        </g>
    </g>
</svg>