<?xml version="1.0" encoding="UTF-8"?>
<svg width="266px" height="269px" viewBox="0 0 266 269" version="1.1" xmlns="http://www.w3.org/2000/svg" xmlns:xlink="http://www.w3.org/1999/xlink">
    <title>Group 23 Copy</title>
    <g id="COMPONENTS" stroke="none" stroke-width="1" fill="none" fill-rule="evenodd">
        <g id="SECTIONS/-Desktop/-Co-ponukame" transform="translate(-1679.000000, -335.000000)" stroke="#ED4036" stroke-width="2">
            <g id="Group-23-Copy" transform="translate(1680.000100, 336.000200)">
                <path d="M67.828,1.3406 C67.828,38.7406 37.4,69.1686 0,69.1686 L0,41.5796 C22.188,41.5796 40.239,23.5286 40.239,1.3406 C40.239,1.1036 40.235,0.8636 40.232,0.6266 L67.822,0.6266 C67.828,0.8636 67.828,1.1036 67.828,1.3406" id="Fill-1-Copy-3"></path>
                <path d="M67.828,99.2555 C67.828,136.6555 37.4,167.0835 0,167.0835 L0,139.4945 C22.188,139.4945 40.239,121.4435 40.239,99.2555 C40.239,99.0185 40.235,98.7785 40.232,98.5415 L67.821,98.5415 C67.828,98.7785 67.828,99.0185 67.828,99.2555" id="Fill-3-Copy-3"></path>
                <path d="M97.828,67.828 C97.828,30.428 128.256,0 165.656,0 L165.656,27.589 C143.469,27.589 125.417,45.64 125.417,67.828 C125.417,68.065 125.421,68.305 125.424,68.542 L97.835,68.542 C97.828,68.305 97.828,68.065 97.828,67.828" id="Fill-5-Copy-3"></path>
                <path d="M97.828,166.3699 C97.828,128.9699 128.256,98.5419 165.656,98.5419 L165.656,126.1309 C143.468,126.1309 125.417,144.1819 125.417,166.3699 C125.417,166.6069 125.421,166.8469 125.424,167.0839 L97.835,167.0839 C97.828,166.8469 97.828,166.6069 97.828,166.3699" id="Fill-7-Copy-3"></path>
                <path d="M263.4842,1.3406 C263.4842,38.7406 233.0562,69.1686 195.6562,69.1686 L195.6562,41.5796 C217.8442,41.5796 235.8952,23.5286 235.8952,1.3406 C235.8952,1.1036 235.8912,0.8636 235.8882,0.6266 L263.4782,0.6266 C263.4842,0.8636 263.4842,1.1036 263.4842,1.3406" id="Fill-9-Copy-3"></path>
                <path d="M263.4842,99.2555 C263.4842,136.6555 233.0562,167.0835 195.6562,167.0835 L195.6562,139.4945 C217.8442,139.4945 235.8952,121.4435 235.8952,99.2555 C235.8952,99.0185 235.8912,98.7785 235.8882,98.5415 L263.4782,98.5415 C263.4842,98.7785 263.4842,99.0185 263.4842,99.2555" id="Fill-11-Copy-3"></path>
                <path d="M67.828,198.4243 C67.828,235.8243 37.4,266.2523 0,266.2523 L0,238.6633 C22.188,238.6633 40.239,220.6123 40.239,198.4243 C40.239,198.1873 40.235,197.9473 40.232,197.7103 L67.822,197.7103 C67.828,197.9473 67.828,198.1873 67.828,198.4243" id="Fill-17-Copy-3"></path>
                <path d="M97.828,264.9117 C97.828,227.5117 128.256,197.0837 165.656,197.0837 L165.656,224.6727 C143.469,224.6727 125.417,242.7237 125.417,264.9117 C125.417,265.1487 125.421,265.3887 125.424,265.6257 L97.835,265.6257 C97.828,265.3887 97.828,265.1487 97.828,264.9117" id="Fill-21-Copy-3"></path>
                <path d="M263.4842,198.4243 C263.4842,235.8243 233.0562,266.2523 195.6562,266.2523 L195.6562,238.6633 C217.8442,238.6633 235.8952,220.6123 235.8952,198.4243 C235.8952,198.1873 235.8912,197.9473 235.8882,197.7103 L263.4782,197.7103 C263.4842,197.9473 263.4842,198.1873 263.4842,198.4243" id="Fill-25-Copy-3"></path>
            </g>
        </g>
    </g>
</svg>