<?xml version="1.0" encoding="UTF-8"?>
<svg width="755px" height="270px" viewBox="0 0 755 270" version="1.1" xmlns="http://www.w3.org/2000/svg" xmlns:xlink="http://www.w3.org/1999/xlink">
    <title>Group 23 Copy 2</title>
    <g id="COMPONENTS" stroke="none" stroke-width="1" fill="none" fill-rule="evenodd">
        <g id="SECTIONS/-Desktop/-Produkty" transform="translate(-1187.000000, 1.000000)" stroke="#ED4036" stroke-width="2">
            <g id="Group-23-Copy-2" transform="translate(1188.000000, 0.000000)">
                <path d="M67.828,1.3493998 C67.828,38.9948962 37.4,69.6226279 -1.8189894e-12,69.6226279 L-1.8189894e-12,41.8525316 C22.188,41.8525316 40.239,23.6830435 40.239,1.3493998 C40.239,1.11084411 40.235,0.869268735 40.232,0.630713049 L67.822,0.630713049 C67.828,0.869268735 67.828,1.11084411 67.828,1.3493998" id="Fill-1-Copy-3"></path>
                <path d="M67.828,99.9070205 C67.828,137.552517 37.4,168.180249 -1.8189894e-12,168.180249 L-1.8189894e-12,140.410152 C22.188,140.410152 40.239,122.240664 40.239,99.9070205 C40.239,99.6684648 40.235,99.4268895 40.232,99.1883338 L67.821,99.1883338 C67.828,99.4268895 67.828,99.6684648 67.828,99.9070205" id="Fill-3-Copy-3"></path>
                <path d="M97.828,68.2732281 C97.828,30.6277317 128.256,0 165.656,0 L165.656,27.7700963 C143.469,27.7700963 125.417,45.9395844 125.417,68.2732281 C125.417,68.5117837 125.421,68.7533591 125.424,68.9919148 L97.835,68.9919148 C97.828,68.7533591 97.828,68.5117837 97.828,68.2732281" id="Fill-5-Copy-3"></path>
                <path d="M97.828,167.461964 C97.828,129.816468 128.256,99.1887364 165.656,99.1887364 L165.656,126.958833 C143.468,126.958833 125.417,145.128321 125.417,167.461964 C125.417,167.70052 125.421,167.942096 125.424,168.180651 L97.835,168.180651 C97.828,167.942096 97.828,167.70052 97.828,167.461964" id="Fill-7-Copy-3"></path>
                <path d="M263.4842,1.3493998 C263.4842,38.9948962 233.0562,69.6226279 195.6562,69.6226279 L195.6562,41.8525316 C217.8442,41.8525316 235.8952,23.6830435 235.8952,1.3493998 C235.8952,1.11084411 235.8912,0.869268735 235.8882,0.630713049 L263.4782,0.630713049 C263.4842,0.869268735 263.4842,1.11084411 263.4842,1.3493998" id="Fill-9-Copy-3"></path>
                <path d="M263.4842,99.9070205 C263.4842,137.552517 233.0562,168.180249 195.6562,168.180249 L195.6562,140.410152 C217.8442,140.410152 235.8952,122.240664 235.8952,99.9070205 C235.8952,99.6684648 235.8912,99.4268895 235.8882,99.1883338 L263.4782,99.1883338 C263.4842,99.4268895 263.4842,99.6684648 263.4842,99.9070205" id="Fill-11-Copy-3"></path>
                <path d="M293.4842,68.2732281 C293.4842,30.6277317 323.9122,0 361.3122,0 L361.3122,27.7700963 C339.1252,27.7700963 321.0732,45.9395844 321.0732,68.2732281 C321.0732,68.5117837 321.0772,68.7533591 321.0802,68.9919148 L293.4912,68.9919148 C293.4842,68.7533591 293.4842,68.5117837 293.4842,68.2732281" id="Fill-13-Copy-3"></path>
                <path d="M293.4842,167.461964 C293.4842,129.816468 323.9122,99.1887364 361.3122,99.1887364 L361.3122,126.958833 C339.1242,126.958833 321.0732,145.128321 321.0732,167.461964 C321.0732,167.70052 321.0772,167.942096 321.0802,168.180651 L293.4912,168.180651 C293.4842,167.942096 293.4842,167.70052 293.4842,167.461964" id="Fill-15-Copy-3"></path>
                <path d="M67.828,199.726772 C67.828,237.372268 37.4,268 -1.8189894e-12,268 L-1.8189894e-12,240.229904 C22.188,240.229904 40.239,222.060416 40.239,199.726772 C40.239,199.488216 40.235,199.246641 40.232,199.008085 L67.822,199.008085 C67.828,199.246641 67.828,199.488216 67.828,199.726772" id="Fill-17-Copy-3"></path>
                <path d="M97.828,266.6506 C97.828,229.005104 128.256,198.377372 165.656,198.377372 L165.656,226.147468 C143.469,226.147468 125.417,244.316957 125.417,266.6506 C125.417,266.889156 125.421,267.130731 125.424,267.369287 L97.835,267.369287 C97.828,267.130731 97.828,266.889156 97.828,266.6506" id="Fill-21-Copy-3"></path>
                <path d="M263.4842,199.726772 C263.4842,237.372268 233.0562,268 195.6562,268 L195.6562,240.229904 C217.8442,240.229904 235.8952,222.060416 235.8952,199.726772 C235.8952,199.488216 235.8912,199.246641 235.8882,199.008085 L263.4782,199.008085 C263.4842,199.246641 263.4842,199.488216 263.4842,199.726772" id="Fill-25-Copy-3"></path>
                <path d="M293.4842,266.6506 C293.4842,229.005104 323.9122,198.377372 361.3122,198.377372 L361.3122,226.147468 C339.1252,226.147468 321.0732,244.316957 321.0732,266.6506 C321.0732,266.889156 321.0772,267.130731 321.0802,267.369287 L293.4912,267.369287 C293.4842,267.130731 293.4842,266.889156 293.4842,266.6506" id="Fill-29-Copy-3"></path>
                <path d="M459.1405,1.3493998 C459.1405,38.9948962 428.7125,69.6226279 391.3125,69.6226279 L391.3125,41.8525316 C413.4995,41.8525316 431.5515,23.6830435 431.5515,1.3493998 C431.5515,1.11084411 431.5475,0.869268735 431.5445,0.630713049 L459.1335,0.630713049 C459.1405,0.869268735 459.1405,1.11084411 459.1405,1.3493998" id="Fill-33-Copy-3"></path>
                <path d="M459.1405,99.9070205 C459.1405,137.552517 428.7125,168.180249 391.3125,168.180249 L391.3125,140.410152 C413.4995,140.410152 431.5515,122.240664 431.5515,99.9070205 C431.5515,99.6684648 431.5475,99.4268895 431.5445,99.1883338 L459.1335,99.1883338 C459.1405,99.4268895 459.1405,99.6684648 459.1405,99.9070205" id="Fill-35-Copy-3"></path>
                <path d="M489.1405,68.2732281 C489.1405,30.6277317 519.5685,0 556.9685,0 L556.9685,27.7700963 C534.7815,27.7700963 516.7295,45.9395844 516.7295,68.2732281 C516.7295,68.5117837 516.7335,68.7533591 516.7365,68.9919148 L489.1475,68.9919148 C489.1405,68.7533591 489.1405,68.5117837 489.1405,68.2732281" id="Fill-37-Copy-3"></path>
                <path d="M489.1405,167.461964 C489.1405,129.816468 519.5685,99.1887364 556.9685,99.1887364 L556.9685,126.958833 C534.7815,126.958833 516.7295,145.128321 516.7295,167.461964 C516.7295,167.70052 516.7335,167.942096 516.7365,168.180651 L489.1475,168.180651 C489.1405,167.942096 489.1405,167.70052 489.1405,167.461964" id="Fill-39-Copy-3"></path>
                <path d="M654.7967,1.3493998 C654.7967,38.9948962 624.3687,69.6226279 586.9687,69.6226279 L586.9687,41.8525316 C609.1567,41.8525316 627.2077,23.6830435 627.2077,1.3493998 C627.2077,1.11084411 627.2037,0.869268735 627.2007,0.630713049 L654.7907,0.630713049 C654.7967,0.869268735 654.7967,1.11084411 654.7967,1.3493998" id="Fill-41-Copy-3"></path>
                <path d="M654.7967,99.9070205 C654.7967,137.552517 624.3687,168.180249 586.9687,168.180249 L586.9687,140.410152 C609.1567,140.410152 627.2077,122.240664 627.2077,99.9070205 C627.2077,99.6684648 627.2037,99.4268895 627.2007,99.1883338 L654.7907,99.1883338 C654.7967,99.4268895 654.7967,99.6684648 654.7967,99.9070205" id="Fill-43-Copy-3"></path>
                <path d="M684.7967,68.2732281 C684.7967,30.6277317 715.2247,0 752.6247,0 L752.6247,27.7700963 C730.4377,27.7700963 712.3857,45.9395844 712.3857,68.2732281 C712.3857,68.5117837 712.3897,68.7533591 712.3927,68.9919148 L684.8037,68.9919148 C684.7967,68.7533591 684.7967,68.5117837 684.7967,68.2732281" id="Fill-45-Copy-3"></path>
                <path d="M684.7967,167.461964 C684.7967,129.816468 715.2247,99.1887364 752.6247,99.1887364 L752.6247,126.958833 C730.4367,126.958833 712.3857,145.128321 712.3857,167.461964 C712.3857,167.70052 712.3897,167.942096 712.3927,168.180651 L684.8027,168.180651 C684.7967,167.942096 684.7967,167.70052 684.7967,167.461964" id="Fill-47-Copy-3"></path>
                <path d="M459.1405,199.726772 C459.1405,237.372268 428.7125,268 391.3125,268 L391.3125,240.229904 C413.4995,240.229904 431.5515,222.060416 431.5515,199.726772 C431.5515,199.488216 431.5475,199.246641 431.5445,199.008085 L459.1335,199.008085 C459.1405,199.246641 459.1405,199.488216 459.1405,199.726772" id="Fill-49-Copy-3"></path>
                <path d="M489.1405,266.6506 C489.1405,229.005104 519.5685,198.377372 556.9685,198.377372 L556.9685,226.147468 C534.7815,226.147468 516.7295,244.316957 516.7295,266.6506 C516.7295,266.889156 516.7335,267.130731 516.7365,267.369287 L489.1475,267.369287 C489.1405,267.130731 489.1405,266.889156 489.1405,266.6506" id="Fill-53-Copy-3"></path>
                <path d="M586.9687,268 L586.9687,240.229904 C609.1567,240.229904 627.2077,222.060416 627.2077,199.726772 C627.2077,199.488216 627.2037,199.246641 627.2007,199.008085 L654.7907,199.008085 C654.7967,199.246641 654.7967,199.488216 654.7967,199.726772 C654.7967,237.372268 624.3687,268 586.9687,268 Z" id="Fill-57-Copy-3"></path>
                <path d="M684.7967,266.6506 C684.7967,229.005104 715.2247,198.377372 752.6247,198.377372 L752.6247,226.147468 C730.4377,226.147468 712.3857,244.316957 712.3857,266.6506 C712.3857,266.889156 712.3897,267.130731 712.3927,267.369287 L684.8037,267.369287 C684.7967,267.130731 684.7967,266.889156 684.7967,266.6506" id="Fill-61-Copy-3"></path>
            </g>
        </g>
    </g>
</svg>