<?xml version="1.0" encoding="UTF-8"?>
<svg width="951px" height="366px" viewBox="0 0 951 366" version="1.1" xmlns="http://www.w3.org/2000/svg" xmlns:xlink="http://www.w3.org/1999/xlink">
    <title>Group 13 Copy 4</title>
    <g id="DESIGN---Web" stroke="none" stroke-width="1" fill="none" fill-rule="evenodd" opacity="0.203264509">
        <g id="best-pozicka.sk---Design---Dofinancovanie-HYPO" transform="translate(-1005.000000, -276.000000)" stroke="#FFFFFF" stroke-width="2">
            <g id="Group-13-Copy-4" transform="translate(1006.000000, 277.000000)">
                <path d="M67.828,98.714 C67.828,136.114 37.4,166.542 0,166.542 L0,138.953 C22.188,138.953 40.239,120.902 40.239,98.714 C40.239,98.477 40.235,98.237 40.232,98 L67.821,98 C67.828,98.237 67.828,98.477 67.828,98.714" id="Fill-67-Copy-3"></path>
                <path d="M67.828,0.714 C67.828,38.114 37.4,68.542 0,68.542 L0,40.953 C22.188,40.953 40.239,22.902 40.239,0.714 C40.239,0.477 40.235,0.237 40.232,0 L67.821,0 C67.828,0.237 67.828,0.477 67.828,0.714" id="Fill-67-Copy-5"></path>
                <path d="M850.828,98.714 C850.828,136.114 820.4,166.542 783,166.542 L783,138.953 C805.188,138.953 823.239,120.902 823.239,98.714 C823.239,98.477 823.235,98.237 823.232,98 L850.821,98 C850.828,98.237 850.828,98.477 850.828,98.714" id="Fill-67-Copy-4"></path>
                <path d="M850.828,0.714 C850.828,38.114 820.4,68.542 783,68.542 L783,40.953 C805.188,40.953 823.239,22.902 823.239,0.714 C823.239,0.477 823.235,0.237 823.232,0 L850.821,0 C850.828,0.237 850.828,0.477 850.828,0.714" id="Fill-67-Copy-6"></path>
                <path d="M97.828,165.8283 C97.828,128.4283 128.256,98.0003 165.656,98.0003 L165.656,125.5893 C143.468,125.5893 125.417,143.6403 125.417,165.8283 C125.417,166.0653 125.421,166.3053 125.424,166.5423 L97.835,166.5423 C97.828,166.3053 97.828,166.0653 97.828,165.8283" id="Fill-71-Copy-3"></path>
                <path d="M97.828,67.8283 C97.828,30.4283 128.256,0.0003 165.656,0.0003 L165.656,27.5893 C143.468,27.5893 125.417,45.6403 125.417,67.8283 C125.417,68.0653 125.421,68.3053 125.424,68.5423 L97.835,68.5423 C97.828,68.3053 97.828,68.0653 97.828,67.8283" id="Fill-71-Copy-5"></path>
                <path d="M880.828,165.8283 C880.828,128.4283 911.256,98.0003 948.656,98.0003 L948.656,125.5893 C926.468,125.5893 908.417,143.6403 908.417,165.8283 C908.417,166.0653 908.421,166.3053 908.424,166.5423 L880.835,166.5423 C880.828,166.3053 880.828,166.0653 880.828,165.8283" id="Fill-71-Copy-4"></path>
                <path d="M880.828,67.8283 C880.828,30.4283 911.256,0.0003 948.656,0.0003 L948.656,27.5893 C926.468,27.5893 908.417,45.6403 908.417,67.8283 C908.417,68.0653 908.421,68.3053 908.424,68.5423 L880.835,68.5423 C880.828,68.3053 880.828,68.0653 880.828,67.8283" id="Fill-71-Copy-6"></path>
                <path d="M263.4842,98.714 C263.4842,136.114 233.0562,166.542 195.6562,166.542 L195.6562,138.953 C217.8442,138.953 235.8952,120.902 235.8952,98.714 C235.8952,98.477 235.8912,98.237 235.8882,98 L263.4782,98 C263.4842,98.237 263.4842,98.477 263.4842,98.714" id="Fill-75-Copy-3"></path>
                <path d="M263.4842,0.714 C263.4842,38.114 233.0562,68.542 195.6562,68.542 L195.6562,40.953 C217.8442,40.953 235.8952,22.902 235.8952,0.714 C235.8952,0.477 235.8912,0.237 235.8882,1.84741111e-13 L263.4782,1.84741111e-13 C263.4842,0.237 263.4842,0.477 263.4842,0.714" id="Fill-75-Copy-5"></path>
                <path d="M293.4842,165.8283 C293.4842,128.4283 323.9122,98.0003 361.3122,98.0003 L361.3122,125.5893 C339.1242,125.5893 321.0732,143.6403 321.0732,165.8283 C321.0732,166.0653 321.0772,166.3053 321.0802,166.5423 L293.4912,166.5423 C293.4842,166.3053 293.4842,166.0653 293.4842,165.8283" id="Fill-79-Copy-3"></path>
                <path d="M293.4842,67.8283 C293.4842,30.4283 323.9122,0.0003 361.3122,0.0003 L361.3122,27.5893 C339.1242,27.5893 321.0732,45.6403 321.0732,67.8283 C321.0732,68.0653 321.0772,68.3053 321.0802,68.5423 L293.4912,68.5423 C293.4842,68.3053 293.4842,68.0653 293.4842,67.8283" id="Fill-79-Copy-5"></path>
                <path d="M67.828,197.8827 C67.828,235.2827 37.4,265.7107 0,265.7107 L0,238.1217 C22.188,238.1217 40.239,220.0707 40.239,197.8827 C40.239,197.6457 40.235,197.4057 40.232,197.1687 L67.822,197.1687 C67.828,197.4057 67.828,197.6457 67.828,197.8827" id="Fill-81-Copy-3"></path>
                <path d="M850.828,197.8827 C850.828,235.2827 820.4,265.7107 783,265.7107 L783,238.1217 C805.188,238.1217 823.239,220.0707 823.239,197.8827 C823.239,197.6457 823.235,197.4057 823.232,197.1687 L850.822,197.1687 C850.828,197.4057 850.828,197.6457 850.828,197.8827" id="Fill-81-Copy-4"></path>
                <path d="M67.828,295.7977 C67.828,333.1977 37.4,363.6257 0,363.6257 L0,336.0367 C22.188,336.0367 40.239,317.9857 40.239,295.7977 C40.239,295.5607 40.235,295.3207 40.232,295.0837 L67.821,295.0837 C67.828,295.3207 67.828,295.5607 67.828,295.7977" id="Fill-83-Copy-3"></path>
                <path d="M850.828,295.7977 C850.828,333.1977 820.4,363.6257 783,363.6257 L783,336.0367 C805.188,336.0367 823.239,317.9857 823.239,295.7977 C823.239,295.5607 823.235,295.3207 823.232,295.0837 L850.821,295.0837 C850.828,295.3207 850.828,295.5607 850.828,295.7977" id="Fill-83-Copy-4"></path>
                <path d="M97.828,264.3702 C97.828,226.9702 128.256,196.5422 165.656,196.5422 L165.656,224.1312 C143.469,224.1312 125.417,242.1822 125.417,264.3702 C125.417,264.6072 125.421,264.8472 125.424,265.0842 L97.835,265.0842 C97.828,264.8472 97.828,264.6072 97.828,264.3702" id="Fill-85-Copy-3"></path>
                <path d="M880.828,264.3702 C880.828,226.9702 911.256,196.5422 948.656,196.5422 L948.656,224.1312 C926.469,224.1312 908.417,242.1822 908.417,264.3702 C908.417,264.6072 908.421,264.8472 908.424,265.0842 L880.835,265.0842 C880.828,264.8472 880.828,264.6072 880.828,264.3702" id="Fill-85-Copy-4"></path>
                <path d="M97.828,362.9121 C97.828,325.5121 128.256,295.0841 165.656,295.0841 L165.656,322.6731 C143.468,322.6731 125.417,340.7241 125.417,362.9121 C125.417,363.1491 125.421,363.3891 125.424,363.6261 L97.835,363.6261 C97.828,363.3891 97.828,363.1491 97.828,362.9121" id="Fill-87-Copy-3"></path>
                <path d="M880.828,362.9121 C880.828,325.5121 911.256,295.0841 948.656,295.0841 L948.656,322.6731 C926.468,322.6731 908.417,340.7241 908.417,362.9121 C908.417,363.1491 908.421,363.3891 908.424,363.6261 L880.835,363.6261 C880.828,363.3891 880.828,363.1491 880.828,362.9121" id="Fill-87-Copy-4"></path>
                <path d="M263.4842,197.8827 C263.4842,235.2827 233.0562,265.7107 195.6562,265.7107 L195.6562,238.1217 C217.8442,238.1217 235.8952,220.0707 235.8952,197.8827 C235.8952,197.6457 235.8912,197.4057 235.8882,197.1687 L263.4782,197.1687 C263.4842,197.4057 263.4842,197.6457 263.4842,197.8827" id="Fill-90-Copy-3"></path>
                <path d="M263.4842,295.7977 C263.4842,333.1977 233.0562,363.6257 195.6562,363.6257 L195.6562,336.0367 C217.8442,336.0367 235.8952,317.9857 235.8952,295.7977 C235.8952,295.5607 235.8912,295.3207 235.8882,295.0837 L263.4782,295.0837 C263.4842,295.3207 263.4842,295.5607 263.4842,295.7977" id="Fill-92-Copy-3"></path>
                <path d="M293.4842,264.3702 C293.4842,226.9702 323.9122,196.5422 361.3122,196.5422 L361.3122,224.1312 C339.1252,224.1312 321.0732,242.1822 321.0732,264.3702 C321.0732,264.6072 321.0772,264.8472 321.0802,265.0842 L293.4912,265.0842 C293.4842,264.8472 293.4842,264.6072 293.4842,264.3702" id="Fill-94-Copy-3"></path>
                <path d="M293.4842,362.9121 C293.4842,325.5121 323.9122,295.0841 361.3122,295.0841 L361.3122,322.6731 C339.1242,322.6731 321.0732,340.7241 321.0732,362.9121 C321.0732,363.1491 321.0772,363.3891 321.0802,363.6261 L293.4912,363.6261 C293.4842,363.3891 293.4842,363.1491 293.4842,362.9121" id="Fill-96-Copy-3"></path>
                <path d="M459.1405,98.714 C459.1405,136.114 428.7125,166.542 391.3125,166.542 L391.3125,138.953 C413.4995,138.953 431.5515,120.902 431.5515,98.714 C431.5515,98.477 431.5475,98.237 431.5445,98 L459.1335,98 C459.1405,98.237 459.1405,98.477 459.1405,98.714" id="Fill-101-Copy-3"></path>
                <path d="M459.1405,0.714 C459.1405,38.114 428.7125,68.542 391.3125,68.542 L391.3125,40.953 C413.4995,40.953 431.5515,22.902 431.5515,0.714 C431.5515,0.477 431.5475,0.237 431.5445,1.84741111e-13 L459.1335,1.84741111e-13 C459.1405,0.237 459.1405,0.477 459.1405,0.714" id="Fill-101-Copy-6"></path>
                <path d="M489.1405,165.8283 C489.1405,128.4283 519.5685,98.0003 556.9685,98.0003 L556.9685,125.5893 C534.7815,125.5893 516.7295,143.6403 516.7295,165.8283 C516.7295,166.0653 516.7335,166.3053 516.7365,166.5423 L489.1475,166.5423 C489.1405,166.3053 489.1405,166.0653 489.1405,165.8283" id="Fill-105-Copy-3"></path>
                <path d="M489.1405,67.8283 C489.1405,30.4283 519.5685,0.0003 556.9685,0.0003 L556.9685,27.5893 C534.7815,27.5893 516.7295,45.6403 516.7295,67.8283 C516.7295,68.0653 516.7335,68.3053 516.7365,68.5423 L489.1475,68.5423 C489.1405,68.3053 489.1405,68.0653 489.1405,67.8283" id="Fill-105-Copy-6"></path>
                <path d="M654.7967,98.714 C654.7967,136.114 624.3687,166.542 586.9687,166.542 L586.9687,138.953 C609.1567,138.953 627.2077,120.902 627.2077,98.714 C627.2077,98.477 627.2037,98.237 627.2007,98 L654.7907,98 C654.7967,98.237 654.7967,98.477 654.7967,98.714" id="Fill-109-Copy-3"></path>
                <path d="M654.7967,0.714 C654.7967,38.114 624.3687,68.542 586.9687,68.542 L586.9687,40.953 C609.1567,40.953 627.2077,22.902 627.2077,0.714 C627.2077,0.477 627.2037,0.237 627.2007,1.84741111e-13 L654.7907,1.84741111e-13 C654.7967,0.237 654.7967,0.477 654.7967,0.714" id="Fill-109-Copy-6"></path>
                <path d="M684.7967,165.8283 C684.7967,128.4283 715.2247,98.0003 752.6247,98.0003 L752.6247,125.5893 C730.4367,125.5893 712.3857,143.6403 712.3857,165.8283 C712.3857,166.0653 712.3897,166.3053 712.3927,166.5423 L684.8027,166.5423 C684.7967,166.3053 684.7967,166.0653 684.7967,165.8283" id="Fill-113-Copy-3"></path>
                <path d="M684.7967,67.8283 C684.7967,30.4283 715.2247,0.0003 752.6247,0.0003 L752.6247,27.5893 C730.4367,27.5893 712.3857,45.6403 712.3857,67.8283 C712.3857,68.0653 712.3897,68.3053 712.3927,68.5423 L684.8027,68.5423 C684.7967,68.3053 684.7967,68.0653 684.7967,67.8283" id="Fill-113-Copy-6"></path>
                <path d="M459.1405,197.8827 C459.1405,235.2827 428.7125,265.7107 391.3125,265.7107 L391.3125,238.1217 C413.4995,238.1217 431.5515,220.0707 431.5515,197.8827 C431.5515,197.6457 431.5475,197.4057 431.5445,197.1687 L459.1335,197.1687 C459.1405,197.4057 459.1405,197.6457 459.1405,197.8827" id="Fill-115-Copy-3"></path>
                <path d="M459.1405,295.7977 C459.1405,333.1977 428.7125,363.6257 391.3125,363.6257 L391.3125,336.0367 C413.4995,336.0367 431.5515,317.9857 431.5515,295.7977 C431.5515,295.5607 431.5475,295.3207 431.5445,295.0837 L459.1335,295.0837 C459.1405,295.3207 459.1405,295.5607 459.1405,295.7977" id="Fill-117-Copy-3"></path>
                <path d="M489.1405,264.3702 C489.1405,226.9702 519.5685,196.5422 556.9685,196.5422 L556.9685,224.1312 C534.7815,224.1312 516.7295,242.1822 516.7295,264.3702 C516.7295,264.6072 516.7335,264.8472 516.7365,265.0842 L489.1475,265.0842 C489.1405,264.8472 489.1405,264.6072 489.1405,264.3702" id="Fill-119-Copy-3"></path>
                <path d="M489.1405,362.9121 C489.1405,325.5121 519.5685,295.0841 556.9685,295.0841 L556.9685,322.6731 C534.7815,322.6731 516.7295,340.7241 516.7295,362.9121 C516.7295,363.1491 516.7335,363.3891 516.7365,363.6261 L489.1475,363.6261 C489.1405,363.3891 489.1405,363.1491 489.1405,362.9121" id="Fill-121-Copy-3"></path>
                <path d="M654.7967,197.8827 C654.7967,235.2827 624.3687,265.7107 586.9687,265.7107 L586.9687,238.1217 C609.1567,238.1217 627.2077,220.0707 627.2077,197.8827 C627.2077,197.6457 627.2037,197.4057 627.2007,197.1687 L654.7907,197.1687 C654.7967,197.4057 654.7967,197.6457 654.7967,197.8827" id="Fill-124-Copy-3"></path>
                <path d="M654.7967,295.7977 C654.7967,333.1977 624.3687,363.6257 586.9687,363.6257 L586.9687,336.0367 C609.1567,336.0367 627.2077,317.9857 627.2077,295.7977 C627.2077,295.5607 627.2037,295.3207 627.2007,295.0837 L654.7907,295.0837 C654.7967,295.3207 654.7967,295.5607 654.7967,295.7977" id="Fill-126-Copy-3"></path>
                <path d="M684.7967,362.9121 C684.7967,325.5121 715.2247,295.0841 752.6247,295.0841 L752.6247,322.6731 C730.4367,322.6731 712.3857,340.7241 712.3857,362.9121 C712.3857,363.1491 712.3897,363.3891 712.3927,363.6261 L684.8027,363.6261 C684.7967,363.3891 684.7967,363.1491 684.7967,362.9121" id="Fill-130-Copy-4"></path>
                <path d="M684.7967,264.9121 C684.7967,227.5121 715.2247,197.0841 752.6247,197.0841 L752.6247,224.6731 C730.4367,224.6731 712.3857,242.7241 712.3857,264.9121 C712.3857,265.1491 712.3897,265.3891 712.3927,265.6261 L684.8027,265.6261 C684.7967,265.3891 684.7967,265.1491 684.7967,264.9121" id="Fill-130-Copy-5"></path>
            </g>
        </g>
    </g>
</svg>