<?xml version="1.0" encoding="UTF-8"?>
<svg width="178px" height="703px" viewBox="0 0 178 703" version="1.1" xmlns="http://www.w3.org/2000/svg" xmlns:xlink="http://www.w3.org/1999/xlink">
    <title>Group 7</title>
    <g id="DESIGN---Form" stroke="none" stroke-width="1" fill="none" fill-rule="evenodd">
        <g id="best-pozicka.sk---Design---Pôžička-Form-Step-2---Zamietnutie" transform="translate(1.000000, -235.000000)" stroke="#FCC800" stroke-width="2">
            <g id="Group-7" transform="translate(0.000000, 236.000000)">
                <path d="M0,71.2499781 C0,31.9631175 32.2995813,0 72,0 L72,28.9808876 C48.4483104,28.9808876 29.2859586,47.9425754 29.2859586,71.2499781 C29.2859586,71.498935 29.2902046,71.7510432 29.2933892,72 L0.00743055965,72 C0,71.7510432 0,71.498935 0,71.2499781" id="Fill-5-Copy-2"></path>
                <path d="M0,176.249978 C0,136.963118 32.2995813,105 72,105 L72,133.980888 C48.4472489,133.980888 29.2859586,152.942575 29.2859586,176.249978 C29.2859586,176.498935 29.2902046,176.751043 29.2933892,177 L0.00743055965,177 C0,176.751043 0,176.498935 0,176.249978" id="Fill-7-Copy-2"></path>
                <path d="M176,1.75002188 C176,41.0368825 143.700419,73 104,73 L104,44.0191124 C127.552751,44.0191124 146.714041,25.0574246 146.714041,1.75002188 C146.714041,1.50106504 146.709795,1.24895684 146.706611,1 L175.993631,1 C176,1.24895684 176,1.50106504 176,1.75002188" id="Fill-9-Copy-2"></path>
                <path d="M176,105.750022 C176,145.036882 143.700419,177 104,177 L104,148.019112 C127.552751,148.019112 146.714041,129.057425 146.714041,105.750022 C146.714041,105.501065 146.709795,105.248957 146.706611,105 L175.993631,105 C176,105.248957 176,105.501065 176,105.750022" id="Fill-11-Copy-2"></path>
                <path d="M0,281.249978 C0,241.963118 32.2995813,210 72,210 L72,238.980888 C48.4483104,238.980888 29.2859586,257.942575 29.2859586,281.249978 C29.2859586,281.498935 29.2902046,281.751043 29.2933892,282 L0.00743055965,282 C0,281.751043 0,281.498935 0,281.249978" id="Fill-21-Copy-2"></path>
                <path d="M0,385.249978 C0,345.963118 32.2995813,314 72,314 L72,342.980888 C48.4472489,342.980888 29.2859586,361.942575 29.2859586,385.249978 C29.2859586,385.498935 29.2902046,385.751043 29.2933892,386 L0.00743055965,386 C0,385.751043 0,385.498935 0,385.249978" id="Fill-23-Copy-2"></path>
                <path d="M176,210.750022 C176,250.036882 143.700419,282 104,282 L104,253.019112 C127.552751,253.019112 146.714041,234.057425 146.714041,210.750022 C146.714041,210.501065 146.709795,210.248957 146.706611,210 L175.993631,210 C176,210.248957 176,210.501065 176,210.750022" id="Fill-25-Copy-2"></path>
                <path d="M176,314.750022 C176,354.036882 143.700419,386 104,386 L104,357.019112 C127.552751,357.019112 146.714041,338.057425 146.714041,314.750022 C146.714041,314.501065 146.709795,314.248957 146.706611,314 L175.993631,314 C176,314.248957 176,314.501065 176,314.750022" id="Fill-27-Copy-2"></path>
                <path d="M0,490.249978 C0,450.963118 32.2995813,419 72,419 L72,447.980888 C48.4483104,447.980888 29.2859586,466.942575 29.2859586,490.249978 C29.2859586,490.498935 29.2902046,490.751043 29.2933892,491 L0.00743055965,491 C0,490.751043 0,490.498935 0,490.249978" id="Fill-69-Copy-2"></path>
                <path d="M0,595.249978 C0,555.963118 32.2995813,524 72,524 L72,552.980888 C48.4472489,552.980888 29.2859586,571.942575 29.2859586,595.249978 C29.2859586,595.498935 29.2902046,595.751043 29.2933892,596 L0.00743055965,596 C0,595.751043 0,595.498935 0,595.249978" id="Fill-71-Copy-2"></path>
                <path d="M176,420.750022 C176,460.036882 143.700419,492 104,492 L104,463.019112 C127.552751,463.019112 146.714041,444.057425 146.714041,420.750022 C146.714041,420.501065 146.709795,420.248957 146.706611,420 L175.993631,420 C176,420.248957 176,420.501065 176,420.750022" id="Fill-73-Copy-2"></path>
                <path d="M176,524.750022 C176,564.036882 143.700419,596 104,596 L104,567.019112 C127.552751,567.019112 146.714041,548.057425 146.714041,524.750022 C146.714041,524.501065 146.709795,524.248957 146.706611,524 L175.993631,524 C176,524.248957 176,524.501065 176,524.750022" id="Fill-75-Copy-2"></path>
                <path d="M0,700.249978 C0,660.963118 32.2995813,629 72,629 L72,657.980888 C48.4483104,657.980888 29.2859586,676.942575 29.2859586,700.249978 C29.2859586,700.498935 29.2902046,700.751043 29.2933892,701 L0.00743055965,701 C0,700.751043 0,700.498935 0,700.249978" id="Fill-85-Copy-2"></path>
                <path d="M176,629.750022 C176,669.036882 143.700419,701 104,701 L104,672.019112 C127.552751,672.019112 146.714041,653.057425 146.714041,629.750022 C146.714041,629.501065 146.709795,629.248957 146.706611,629 L175.993631,629 C176,629.248957 176,629.501065 176,629.750022" id="Fill-90-Copy-2"></path>
            </g>
        </g>
    </g>
</svg>