<?xml version="1.0" encoding="UTF-8"?>
<svg width="1208px" height="181px" viewBox="0 0 1208 181" version="1.1" xmlns="http://www.w3.org/2000/svg" xmlns:xlink="http://www.w3.org/1999/xlink">
    <title>Group 40</title>
    <g id="DESIGN---Form" stroke="none" stroke-width="1" fill="none" fill-rule="evenodd" opacity="0.196033296">
        <g id="best-pozicka.sk---Design---Pôžička-Form-Step-2---Zamietnutie" transform="translate(-712.000000, -450.000000)" stroke="#D8D8D8" stroke-width="2">
            <g id="Group" transform="translate(240.000000, 451.000000)">
                <g id="Group-40" transform="translate(473.000000, 0.000000)">
                    <path d="M490,0.770855826 C490,41.1490181 457.251813,74 417,74 L417,44.2140877 C440.879873,44.2140877 460.307292,24.7256864 460.307292,0.770855826 C460.307292,0.514983514 460.302987,0.255872312 460.299758,0 L489.992466,0 C490,0.255872312 490,0.514983514 490,0.770855826" id="Fill-67-Copy-4"></path>
                    <path d="M521,73.2291442 C521,32.8509819 553.748187,0 594,0 L594,29.7859123 C570.120127,29.7859123 550.692708,49.2743136 550.692708,73.2291442 C550.692708,73.4850165 550.697013,73.7441277 550.700242,74 L521.007534,74 C521,73.7441277 521,73.4850165 521,73.2291442" id="Fill-71-Copy-4"></path>
                    <path d="M699,0.770855826 C699,41.1490181 666.251813,74 626,74 L626,44.2140877 C649.879873,44.2140877 669.307292,24.7256864 669.307292,0.770855826 C669.307292,0.514983514 669.302987,0.255872312 669.299758,0 L698.993542,0 C699,0.255872312 699,0.514983514 699,0.770855826" id="Fill-75-Copy-4"></path>
                    <path d="M730,73.2291442 C730,32.8509819 762.748187,0 803,0 L803,29.7859123 C779.120127,29.7859123 759.692708,49.2743136 759.692708,73.2291442 C759.692708,73.4850165 759.697013,73.7441277 759.700242,74 L730.007534,74 C730,73.7441277 730,73.4850165 730,73.2291442" id="Fill-79-Copy-4"></path>
                    <path d="M490,105.770856 C490,146.149018 457.251813,179 417,179 L417,149.214088 C440.879873,149.214088 460.307292,129.725686 460.307292,105.770856 C460.307292,105.514984 460.302987,105.255872 460.299758,105 L489.993542,105 C490,105.255872 490,105.514984 490,105.770856" id="Fill-81-Copy-4"></path>
                    <path d="M521,178.229144 C521,137.850982 553.748187,105 594,105 L594,134.785912 C570.121204,134.785912 550.692708,154.274314 550.692708,178.229144 C550.692708,178.485016 550.697013,178.744128 550.700242,179 L521.007534,179 C521,178.744128 521,178.485016 521,178.229144" id="Fill-85-Copy-4"></path>
                    <path d="M699,105.770856 C699,146.149018 666.251813,179 626,179 L626,149.214088 C649.879873,149.214088 669.307292,129.725686 669.307292,105.770856 C669.307292,105.514984 669.302987,105.255872 669.299758,105 L698.993542,105 C699,105.255872 699,105.514984 699,105.770856" id="Fill-90-Copy-4"></path>
                    <path d="M730,178.229144 C730,137.850982 762.748187,105 803,105 L803,134.785912 C779.121204,134.785912 759.692708,154.274314 759.692708,178.229144 C759.692708,178.485016 759.697013,178.744128 759.700242,179 L730.007534,179 C730,178.744128 730,178.485016 730,178.229144" id="Fill-94-Copy-4"></path>
                    <path d="M73,0.770855826 C73,41.1490181 40.2518134,74 0,74 L0,44.2140877 C23.8787964,44.2140877 43.307292,24.7256864 43.307292,0.770855826 C43.307292,0.514983514 43.302987,0.255872312 43.2997582,0 L72.9924662,0 C73,0.255872312 73,0.514983514 73,0.770855826" id="Fill-101-Copy-3"></path>
                    <path d="M908,0.770855826 C908,41.1490181 875.251813,74 835,74 L835,44.2140877 C858.878796,44.2140877 878.307292,24.7256864 878.307292,0.770855826 C878.307292,0.514983514 878.302987,0.255872312 878.299758,0 L907.992466,0 C908,0.255872312 908,0.514983514 908,0.770855826" id="Fill-101-Copy-4"></path>
                    <path d="M104,73.2291442 C104,32.8509819 136.748187,0 177,0 L177,29.7859123 C153.121204,29.7859123 133.692708,49.2743136 133.692708,73.2291442 C133.692708,73.4850165 133.697013,73.7441277 133.700242,74 L104.007534,74 C104,73.7441277 104,73.4850165 104,73.2291442" id="Fill-105-Copy-3"></path>
                    <path d="M939,73.2291442 C939,32.8509819 971.748187,0 1012,0 L1012,29.7859123 C988.121204,29.7859123 968.692708,49.2743136 968.692708,73.2291442 C968.692708,73.4850165 968.697013,73.7441277 968.700242,74 L939.007534,74 C939,73.7441277 939,73.4850165 939,73.2291442" id="Fill-105-Copy-4"></path>
                    <path d="M281,0.770855826 C281,41.1490181 248.251813,74 208,74 L208,44.2140877 C231.879873,44.2140877 251.307292,24.7256864 251.307292,0.770855826 C251.307292,0.514983514 251.302987,0.255872312 251.299758,0 L280.993542,0 C281,0.255872312 281,0.514983514 281,0.770855826" id="Fill-109-Copy-3"></path>
                    <path d="M1116,0.770855826 C1116,41.1490181 1083.25181,74 1043,74 L1043,44.2140877 C1066.87987,44.2140877 1086.30729,24.7256864 1086.30729,0.770855826 C1086.30729,0.514983514 1086.30299,0.255872312 1086.29976,0 L1115.99354,0 C1116,0.255872312 1116,0.514983514 1116,0.770855826" id="Fill-109-Copy-4"></path>
                    <path d="M312,73.2291442 C312,32.8509819 344.748187,0 385,0 L385,29.7859123 C361.120127,29.7859123 341.692708,49.2743136 341.692708,73.2291442 C341.692708,73.4850165 341.697013,73.7441277 341.700242,74 L312.006458,74 C312,73.7441277 312,73.4850165 312,73.2291442" id="Fill-113-Copy-3"></path>
                    <path d="M1147,73.2291442 C1147,32.8509819 1179.74819,0 1220,0 L1220,29.7859123 C1196.12013,29.7859123 1176.69271,49.2743136 1176.69271,73.2291442 C1176.69271,73.4850165 1176.69701,73.7441277 1176.70024,74 L1147.00646,74 C1147,73.7441277 1147,73.4850165 1147,73.2291442" id="Fill-113-Copy-4"></path>
                    <path d="M73,105.770856 C73,146.149018 40.2518134,179 0,179 L0,149.214088 C23.8787964,149.214088 43.307292,129.725686 43.307292,105.770856 C43.307292,105.514984 43.302987,105.255872 43.2997582,105 L72.9924662,105 C73,105.255872 73,105.514984 73,105.770856" id="Fill-115-Copy-3"></path>
                    <path d="M908,105.770856 C908,146.149018 875.251813,179 835,179 L835,149.214088 C858.878796,149.214088 878.307292,129.725686 878.307292,105.770856 C878.307292,105.514984 878.302987,105.255872 878.299758,105 L907.992466,105 C908,105.255872 908,105.514984 908,105.770856" id="Fill-115-Copy-4"></path>
                    <path d="M104,178.229144 C104,137.850982 136.748187,105 177,105 L177,134.785912 C153.121204,134.785912 133.692708,154.274314 133.692708,178.229144 C133.692708,178.485016 133.697013,178.744128 133.700242,179 L104.007534,179 C104,178.744128 104,178.485016 104,178.229144" id="Fill-119-Copy-3"></path>
                    <path d="M939,178.229144 C939,137.850982 971.748187,105 1012,105 L1012,134.785912 C988.121204,134.785912 968.692708,154.274314 968.692708,178.229144 C968.692708,178.485016 968.697013,178.744128 968.700242,179 L939.007534,179 C939,178.744128 939,178.485016 939,178.229144" id="Fill-119-Copy-4"></path>
                    <path d="M281,105.770856 C281,146.149018 248.251813,179 208,179 L208,149.214088 C231.879873,149.214088 251.307292,129.725686 251.307292,105.770856 C251.307292,105.514984 251.302987,105.255872 251.299758,105 L280.993542,105 C281,105.255872 281,105.514984 281,105.770856" id="Fill-124-Copy-3"></path>
                    <path d="M1116,105.770856 C1116,146.149018 1083.25181,179 1043,179 L1043,149.214088 C1066.87987,149.214088 1086.30729,129.725686 1086.30729,105.770856 C1086.30729,105.514984 1086.30299,105.255872 1086.29976,105 L1115.99354,105 C1116,105.255872 1116,105.514984 1116,105.770856" id="Fill-124-Copy-4"></path>
                    <path d="M312,178.229144 C312,137.850982 344.748187,105 385,105 L385,134.785912 C361.120127,134.785912 341.692708,154.274314 341.692708,178.229144 C341.692708,178.485016 341.697013,178.744128 341.700242,179 L312.006458,179 C312,178.744128 312,178.485016 312,178.229144" id="Fill-130-Copy-5"></path>
                    <path d="M1147,178.229144 C1147,137.850982 1179.74819,105 1220,105 L1220,134.785912 C1196.12013,134.785912 1176.69271,154.274314 1176.69271,178.229144 C1176.69271,178.485016 1176.69701,178.744128 1176.70024,179 L1147.00646,179 C1147,178.744128 1147,178.485016 1147,178.229144" id="Fill-130-Copy-7"></path>
                </g>
            </g>
        </g>
    </g>
</svg>