<?xml version="1.0" encoding="UTF-8"?>
<svg width="266px" height="761px" viewBox="0 0 266 761" version="1.1" xmlns="http://www.w3.org/2000/svg" xmlns:xlink="http://www.w3.org/1999/xlink">
    <title>Group 27 Copy 2</title>
    <g id="COMPONENTS" stroke="none" stroke-width="1" fill="none" fill-rule="evenodd">
        <g id="SECTIONS/-Desktop/-Recenzie" transform="translate(25.000000, 1.000000)" stroke="#ED4036" stroke-width="2">
            <g id="Group-27-Copy-2" transform="translate(-23.859500, 0.000000)">
                <path d="M0,67.828 C0,30.428 30.428,0 67.828,0 L67.828,27.589 C45.641,27.589 27.589,45.64 27.589,67.828 C27.589,68.065 27.593,68.305 27.596,68.542 L0.007,68.542 C0,68.305 0,68.065 0,67.828" id="Fill-37"></path>
                <path d="M0,166.3699 C0,128.9699 30.428,98.5419 67.828,98.5419 L67.828,126.1309 C45.641,126.1309 27.589,144.1819 27.589,166.3699 C27.589,166.6069 27.593,166.8469 27.596,167.0839 L0.007,167.0839 C0,166.8469 0,166.6069 0,166.3699" id="Fill-39"></path>
                <path d="M165.6562,1.3406 C165.6562,38.7406 135.2282,69.1686 97.8282,69.1686 L97.8282,41.5796 C120.0162,41.5796 138.0672,23.5286 138.0672,1.3406 C138.0672,1.1036 138.0632,0.8636 138.0602,0.6266 L165.6502,0.6266 C165.6562,0.8636 165.6562,1.1036 165.6562,1.3406" id="Fill-41"></path>
                <path d="M165.6562,99.2555 C165.6562,136.6555 135.2282,167.0835 97.8282,167.0835 L97.8282,139.4945 C120.0162,139.4945 138.0672,121.4435 138.0672,99.2555 C138.0672,99.0185 138.0632,98.7785 138.0602,98.5415 L165.6502,98.5415 C165.6562,98.7785 165.6562,99.0185 165.6562,99.2555" id="Fill-43"></path>
                <path d="M195.6562,67.828 C195.6562,30.428 226.0842,0 263.4842,0 L263.4842,27.589 C241.2972,27.589 223.2452,45.64 223.2452,67.828 C223.2452,68.065 223.2492,68.305 223.2522,68.542 L195.6632,68.542 C195.6562,68.305 195.6562,68.065 195.6562,67.828" id="Fill-45"></path>
                <path d="M195.6562,166.3699 C195.6562,128.9699 226.0842,98.5419 263.4842,98.5419 L263.4842,126.1309 C241.2962,126.1309 223.2452,144.1819 223.2452,166.3699 C223.2452,166.6069 223.2492,166.8469 223.2522,167.0839 L195.6622,167.0839 C195.6562,166.8469 195.6562,166.6069 195.6562,166.3699" id="Fill-47"></path>
                <path d="M0,264.9117 C0,227.5117 30.428,197.0837 67.828,197.0837 L67.828,224.6727 C45.641,224.6727 27.589,242.7237 27.589,264.9117 C27.589,265.1487 27.593,265.3887 27.596,265.6257 L0.007,265.6257 C0,265.3887 0,265.1487 0,264.9117" id="Fill-53"></path>
                <path d="M0,363.4536 C0,326.0536 30.428,295.6256 67.828,295.6256 L67.828,323.2146 C45.641,323.2146 27.589,341.2656 27.589,363.4536 C27.589,363.6906 27.593,363.9306 27.596,364.1676 L0.007,364.1676 C0,363.9306 0,363.6906 0,363.4536" id="Fill-55"></path>
                <path d="M165.6562,198.4243 C165.6562,235.8243 135.2282,266.2523 97.8282,266.2523 L97.8282,238.6633 C120.0162,238.6633 138.0672,220.6123 138.0672,198.4243 C138.0672,198.1873 138.0632,197.9473 138.0602,197.7103 L165.6502,197.7103 C165.6562,197.9473 165.6562,198.1873 165.6562,198.4243" id="Fill-57"></path>
                <path d="M165.6562,296.3393 C165.6562,333.7393 135.2282,364.1673 97.8282,364.1673 L97.8282,336.5783 C120.0162,336.5783 138.0672,318.5273 138.0672,296.3393 C138.0672,296.1023 138.0632,295.8623 138.0602,295.6253 L165.6502,295.6253 C165.6562,295.8623 165.6562,296.1023 165.6562,296.3393" id="Fill-59"></path>
                <path d="M195.6562,264.9117 C195.6562,227.5117 226.0842,197.0837 263.4842,197.0837 L263.4842,224.6727 C241.2972,224.6727 223.2452,242.7237 223.2452,264.9117 C223.2452,265.1487 223.2492,265.3887 223.2522,265.6257 L195.6632,265.6257 C195.6562,265.3887 195.6562,265.1487 195.6562,264.9117" id="Fill-61"></path>
                <path d="M195.6562,363.4536 C195.6562,326.0536 226.0842,295.6256 263.4842,295.6256 L263.4842,323.2146 C241.2962,323.2146 223.2452,341.2656 223.2452,363.4536 C223.2452,363.6906 223.2492,363.9306 223.2522,364.1676 L195.6622,364.1676 C195.6562,363.9306 195.6562,363.6906 195.6562,363.4536" id="Fill-63"></path>
                <path d="M0,461.9954 C0,424.5954 30.428,394.1674 67.828,394.1674 L67.828,421.7564 C45.641,421.7564 27.589,439.8074 27.589,461.9954 C27.589,462.2324 27.593,462.4724 27.596,462.7094 L0.007,462.7094 C0,462.4724 0,462.2324 0,461.9954" id="Fill-103"></path>
                <path d="M0,560.5373 C0,523.1373 30.428,492.7093 67.828,492.7093 L67.828,520.2983 C45.641,520.2983 27.589,538.3493 27.589,560.5373 C27.589,560.7743 27.593,561.0143 27.596,561.2513 L0.007,561.2513 C0,561.0143 0,560.7743 0,560.5373" id="Fill-105"></path>
                <path d="M165.6562,395.508 C165.6562,432.908 135.2282,463.336 97.8282,463.336 L97.8282,435.747 C120.0162,435.747 138.0672,417.696 138.0672,395.508 C138.0672,395.271 138.0632,395.031 138.0602,394.794 L165.6502,394.794 C165.6562,395.031 165.6562,395.271 165.6562,395.508" id="Fill-107"></path>
                <path d="M165.6562,493.423 C165.6562,530.823 135.2282,561.251 97.8282,561.251 L97.8282,533.662 C120.0162,533.662 138.0672,515.611 138.0672,493.423 C138.0672,493.186 138.0632,492.946 138.0602,492.709 L165.6502,492.709 C165.6562,492.946 165.6562,493.186 165.6562,493.423" id="Fill-109"></path>
                <path d="M195.6562,461.9954 C195.6562,424.5954 226.0842,394.1674 263.4842,394.1674 L263.4842,421.7564 C241.2972,421.7564 223.2452,439.8074 223.2452,461.9954 C223.2452,462.2324 223.2492,462.4724 223.2522,462.7094 L195.6632,462.7094 C195.6562,462.4724 195.6562,462.2324 195.6562,461.9954" id="Fill-111"></path>
                <path d="M195.6562,560.5373 C195.6562,523.1373 226.0842,492.7093 263.4842,492.7093 L263.4842,520.2983 C241.2962,520.2983 223.2452,538.3493 223.2452,560.5373 C223.2452,560.7743 223.2492,561.0143 223.2522,561.2513 L195.6622,561.2513 C195.6562,561.0143 195.6562,560.7743 195.6562,560.5373" id="Fill-113"></path>
                <path d="M0,659.0792 C0,621.6792 30.428,591.2512 67.828,591.2512 L67.828,618.8402 C45.641,618.8402 27.589,636.8912 27.589,659.0792 C27.589,659.3162 27.593,659.5562 27.596,659.7932 L0.007,659.7932 C0,659.5562 0,659.3162 0,659.0792" id="Fill-119"></path>
                <path d="M0,757.6211 C0,720.2211 30.428,689.7931 67.828,689.7931 L67.828,717.3821 C45.641,717.3821 27.589,735.4331 27.589,757.6211 C27.589,757.8581 27.593,758.0981 27.596,758.3351 L0.007,758.3351 C0,758.0981 0,757.8581 0,757.6211" id="Fill-121"></path>
                <path d="M165.6562,592.5917 C165.6562,629.9917 135.2282,660.4197 97.8282,660.4197 L97.8282,632.8307 C120.0162,632.8307 138.0672,614.7797 138.0672,592.5917 C138.0672,592.3547 138.0632,592.1147 138.0602,591.8777 L165.6502,591.8777 C165.6562,592.1147 165.6562,592.3547 165.6562,592.5917" id="Fill-124"></path>
                <path d="M165.6562,690.5067 C165.6562,727.9067 135.2282,758.3347 97.8282,758.3347 L97.8282,730.7457 C120.0162,730.7457 138.0672,712.6947 138.0672,690.5067 C138.0672,690.2697 138.0632,690.0297 138.0602,689.7927 L165.6502,689.7927 C165.6562,690.0297 165.6562,690.2697 165.6562,690.5067" id="Fill-126"></path>
                <path d="M195.6562,757.6211 C195.6562,720.2211 226.0842,689.7931 263.4842,689.7931 L263.4842,717.3821 C241.2962,717.3821 223.2452,735.4331 223.2452,757.6211 C223.2452,757.8581 223.2492,758.0981 223.2522,758.3351 L195.6622,758.3351 C195.6562,758.0981 195.6562,757.8581 195.6562,757.6211" id="Fill-130"></path>
                <path d="M195.6562,659.6211 C195.6562,622.2211 226.0842,591.7931 263.4842,591.7931 L263.4842,619.3821 C241.2962,619.3821 223.2452,637.4331 223.2452,659.6211 C223.2452,659.8581 223.2492,660.0981 223.2522,660.3351 L195.6622,660.3351 C195.6562,660.0981 195.6562,659.8581 195.6562,659.6211" id="Fill-130-Copy-3"></path>
            </g>
        </g>
    </g>
</svg>