<?xml version="1.0" encoding="UTF-8"?>
<svg width="559px" height="761px" viewBox="0 0 559 761" version="1.1" xmlns="http://www.w3.org/2000/svg" xmlns:xlink="http://www.w3.org/1999/xlink">
    <title>Group 27</title>
    <g id="COMPONENTS" stroke="none" stroke-width="1" fill="none" fill-rule="evenodd" opacity="0.100795201">
        <g id="SECTIONS/-Desktop/-Recenzie" transform="translate(-1154.000000, -50.000000)" stroke="#223146" stroke-width="2">
            <g id="Group-27" transform="translate(1155.000000, 51.000000)">
                <path d="M67.828,1.3406 C67.828,38.7406 37.4,69.1686 0,69.1686 L0,41.5796 C22.188,41.5796 40.239,23.5286 40.239,1.3406 C40.239,1.1036 40.235,0.8636 40.232,0.6266 L67.822,0.6266 C67.828,0.8636 67.828,1.1036 67.828,1.3406" id="Fill-1"></path>
                <path d="M67.828,99.2555 C67.828,136.6555 37.4,167.0835 0,167.0835 L0,139.4945 C22.188,139.4945 40.239,121.4435 40.239,99.2555 C40.239,99.0185 40.235,98.7785 40.232,98.5415 L67.821,98.5415 C67.828,98.7785 67.828,99.0185 67.828,99.2555" id="Fill-3"></path>
                <path d="M97.828,67.828 C97.828,30.428 128.256,0 165.656,0 L165.656,27.589 C143.469,27.589 125.417,45.64 125.417,67.828 C125.417,68.065 125.421,68.305 125.424,68.542 L97.835,68.542 C97.828,68.305 97.828,68.065 97.828,67.828" id="Fill-5"></path>
                <path d="M97.828,166.3699 C97.828,128.9699 128.256,98.5419 165.656,98.5419 L165.656,126.1309 C143.468,126.1309 125.417,144.1819 125.417,166.3699 C125.417,166.6069 125.421,166.8469 125.424,167.0839 L97.835,167.0839 C97.828,166.8469 97.828,166.6069 97.828,166.3699" id="Fill-7"></path>
                <path d="M263.4842,1.3406 C263.4842,38.7406 233.0562,69.1686 195.6562,69.1686 L195.6562,41.5796 C217.8442,41.5796 235.8952,23.5286 235.8952,1.3406 C235.8952,1.1036 235.8912,0.8636 235.8882,0.6266 L263.4782,0.6266 C263.4842,0.8636 263.4842,1.1036 263.4842,1.3406" id="Fill-9"></path>
                <path d="M263.4842,99.2555 C263.4842,136.6555 233.0562,167.0835 195.6562,167.0835 L195.6562,139.4945 C217.8442,139.4945 235.8952,121.4435 235.8952,99.2555 C235.8952,99.0185 235.8912,98.7785 235.8882,98.5415 L263.4782,98.5415 C263.4842,98.7785 263.4842,99.0185 263.4842,99.2555" id="Fill-11"></path>
                <path d="M293.4842,67.828 C293.4842,30.428 323.9122,0 361.3122,0 L361.3122,27.589 C339.1252,27.589 321.0732,45.64 321.0732,67.828 C321.0732,68.065 321.0772,68.305 321.0802,68.542 L293.4912,68.542 C293.4842,68.305 293.4842,68.065 293.4842,67.828" id="Fill-13"></path>
                <path d="M293.4842,166.3699 C293.4842,128.9699 323.9122,98.5419 361.3122,98.5419 L361.3122,126.1309 C339.1242,126.1309 321.0732,144.1819 321.0732,166.3699 C321.0732,166.6069 321.0772,166.8469 321.0802,167.0839 L293.4912,167.0839 C293.4842,166.8469 293.4842,166.6069 293.4842,166.3699" id="Fill-15"></path>
                <path d="M67.828,198.4243 C67.828,235.8243 37.4,266.2523 0,266.2523 L0,238.6633 C22.188,238.6633 40.239,220.6123 40.239,198.4243 C40.239,198.1873 40.235,197.9473 40.232,197.7103 L67.822,197.7103 C67.828,197.9473 67.828,198.1873 67.828,198.4243" id="Fill-17"></path>
                <path d="M67.828,296.3393 C67.828,333.7393 37.4,364.1673 0,364.1673 L0,336.5783 C22.188,336.5783 40.239,318.5273 40.239,296.3393 C40.239,296.1023 40.235,295.8623 40.232,295.6253 L67.821,295.6253 C67.828,295.8623 67.828,296.1023 67.828,296.3393" id="Fill-19"></path>
                <path d="M97.828,264.9117 C97.828,227.5117 128.256,197.0837 165.656,197.0837 L165.656,224.6727 C143.469,224.6727 125.417,242.7237 125.417,264.9117 C125.417,265.1487 125.421,265.3887 125.424,265.6257 L97.835,265.6257 C97.828,265.3887 97.828,265.1487 97.828,264.9117" id="Fill-21"></path>
                <path d="M97.828,363.4536 C97.828,326.0536 128.256,295.6256 165.656,295.6256 L165.656,323.2146 C143.468,323.2146 125.417,341.2656 125.417,363.4536 C125.417,363.6906 125.421,363.9306 125.424,364.1676 L97.835,364.1676 C97.828,363.9306 97.828,363.6906 97.828,363.4536" id="Fill-23"></path>
                <path d="M263.4842,198.4243 C263.4842,235.8243 233.0562,266.2523 195.6562,266.2523 L195.6562,238.6633 C217.8442,238.6633 235.8952,220.6123 235.8952,198.4243 C235.8952,198.1873 235.8912,197.9473 235.8882,197.7103 L263.4782,197.7103 C263.4842,197.9473 263.4842,198.1873 263.4842,198.4243" id="Fill-25"></path>
                <path d="M263.4842,296.3393 C263.4842,333.7393 233.0562,364.1673 195.6562,364.1673 L195.6562,336.5783 C217.8442,336.5783 235.8952,318.5273 235.8952,296.3393 C235.8952,296.1023 235.8912,295.8623 235.8882,295.6253 L263.4782,295.6253 C263.4842,295.8623 263.4842,296.1023 263.4842,296.3393" id="Fill-27"></path>
                <path d="M293.4842,264.9117 C293.4842,227.5117 323.9122,197.0837 361.3122,197.0837 L361.3122,224.6727 C339.1252,224.6727 321.0732,242.7237 321.0732,264.9117 C321.0732,265.1487 321.0772,265.3887 321.0802,265.6257 L293.4912,265.6257 C293.4842,265.3887 293.4842,265.1487 293.4842,264.9117" id="Fill-29"></path>
                <path d="M293.4842,363.4536 C293.4842,326.0536 323.9122,295.6256 361.3122,295.6256 L361.3122,323.2146 C339.1242,323.2146 321.0732,341.2656 321.0732,363.4536 C321.0732,363.6906 321.0772,363.9306 321.0802,364.1676 L293.4912,364.1676 C293.4842,363.9306 293.4842,363.6906 293.4842,363.4536" id="Fill-31"></path>
                <path d="M459.1405,1.3406 C459.1405,38.7406 428.7125,69.1686 391.3125,69.1686 L391.3125,41.5796 C413.4995,41.5796 431.5515,23.5286 431.5515,1.3406 C431.5515,1.1036 431.5475,0.8636 431.5445,0.6266 L459.1335,0.6266 C459.1405,0.8636 459.1405,1.1036 459.1405,1.3406" id="Fill-33"></path>
                <path d="M459.1405,99.2555 C459.1405,136.6555 428.7125,167.0835 391.3125,167.0835 L391.3125,139.4945 C413.4995,139.4945 431.5515,121.4435 431.5515,99.2555 C431.5515,99.0185 431.5475,98.7785 431.5445,98.5415 L459.1335,98.5415 C459.1405,98.7785 459.1405,99.0185 459.1405,99.2555" id="Fill-35"></path>
                <path d="M489.1405,67.828 C489.1405,30.428 519.5685,0 556.9685,0 L556.9685,27.589 C534.7815,27.589 516.7295,45.64 516.7295,67.828 C516.7295,68.065 516.7335,68.305 516.7365,68.542 L489.1475,68.542 C489.1405,68.305 489.1405,68.065 489.1405,67.828" id="Fill-37"></path>
                <path d="M489.1405,166.3699 C489.1405,128.9699 519.5685,98.5419 556.9685,98.5419 L556.9685,126.1309 C534.7815,126.1309 516.7295,144.1819 516.7295,166.3699 C516.7295,166.6069 516.7335,166.8469 516.7365,167.0839 L489.1475,167.0839 C489.1405,166.8469 489.1405,166.6069 489.1405,166.3699" id="Fill-39"></path>
                <path d="M459.1405,198.4243 C459.1405,235.8243 428.7125,266.2523 391.3125,266.2523 L391.3125,238.6633 C413.4995,238.6633 431.5515,220.6123 431.5515,198.4243 C431.5515,198.1873 431.5475,197.9473 431.5445,197.7103 L459.1335,197.7103 C459.1405,197.9473 459.1405,198.1873 459.1405,198.4243" id="Fill-49"></path>
                <path d="M459.1405,296.3393 C459.1405,333.7393 428.7125,364.1673 391.3125,364.1673 L391.3125,336.5783 C413.4995,336.5783 431.5515,318.5273 431.5515,296.3393 C431.5515,296.1023 431.5475,295.8623 431.5445,295.6253 L459.1335,295.6253 C459.1405,295.8623 459.1405,296.1023 459.1405,296.3393" id="Fill-51"></path>
                <path d="M489.1405,264.9117 C489.1405,227.5117 519.5685,197.0837 556.9685,197.0837 L556.9685,224.6727 C534.7815,224.6727 516.7295,242.7237 516.7295,264.9117 C516.7295,265.1487 516.7335,265.3887 516.7365,265.6257 L489.1475,265.6257 C489.1405,265.3887 489.1405,265.1487 489.1405,264.9117" id="Fill-53"></path>
                <path d="M489.1405,363.4536 C489.1405,326.0536 519.5685,295.6256 556.9685,295.6256 L556.9685,323.2146 C534.7815,323.2146 516.7295,341.2656 516.7295,363.4536 C516.7295,363.6906 516.7335,363.9306 516.7365,364.1676 L489.1475,364.1676 C489.1405,363.9306 489.1405,363.6906 489.1405,363.4536" id="Fill-55"></path>
                <path d="M67.828,395.508 C67.828,432.908 37.4,463.336 0,463.336 L0,435.747 C22.188,435.747 40.239,417.696 40.239,395.508 C40.239,395.271 40.235,395.031 40.232,394.794 L67.822,394.794 C67.828,395.031 67.828,395.271 67.828,395.508" id="Fill-65"></path>
                <path d="M67.828,493.423 C67.828,530.823 37.4,561.251 0,561.251 L0,533.662 C22.188,533.662 40.239,515.611 40.239,493.423 C40.239,493.186 40.235,492.946 40.232,492.709 L67.821,492.709 C67.828,492.946 67.828,493.186 67.828,493.423" id="Fill-67"></path>
                <path d="M97.828,461.9954 C97.828,424.5954 128.256,394.1674 165.656,394.1674 L165.656,421.7564 C143.469,421.7564 125.417,439.8074 125.417,461.9954 C125.417,462.2324 125.421,462.4724 125.424,462.7094 L97.835,462.7094 C97.828,462.4724 97.828,462.2324 97.828,461.9954" id="Fill-69"></path>
                <path d="M97.828,560.5373 C97.828,523.1373 128.256,492.7093 165.656,492.7093 L165.656,520.2983 C143.468,520.2983 125.417,538.3493 125.417,560.5373 C125.417,560.7743 125.421,561.0143 125.424,561.2513 L97.835,561.2513 C97.828,561.0143 97.828,560.7743 97.828,560.5373" id="Fill-71"></path>
                <path d="M263.4842,395.508 C263.4842,432.908 233.0562,463.336 195.6562,463.336 L195.6562,435.747 C217.8442,435.747 235.8952,417.696 235.8952,395.508 C235.8952,395.271 235.8912,395.031 235.8882,394.794 L263.4782,394.794 C263.4842,395.031 263.4842,395.271 263.4842,395.508" id="Fill-73"></path>
                <path d="M263.4842,493.423 C263.4842,530.823 233.0562,561.251 195.6562,561.251 L195.6562,533.662 C217.8442,533.662 235.8952,515.611 235.8952,493.423 C235.8952,493.186 235.8912,492.946 235.8882,492.709 L263.4782,492.709 C263.4842,492.946 263.4842,493.186 263.4842,493.423" id="Fill-75"></path>
                <path d="M293.4837,461.9959 C293.4837,424.5959 323.9117,394.1679 361.3117,394.1679 L361.3117,421.7569 C339.1247,421.7569 321.0727,439.8079 321.0727,461.9959 C321.0727,462.2329 321.0767,462.4729 321.0797,462.7099 L293.4907,462.7099 C293.4837,462.4729 293.4837,462.2329 293.4837,461.9959" id="Fill-77"></path>
                <path d="M293.4842,560.5373 C293.4842,523.1373 323.9122,492.7093 361.3122,492.7093 L361.3122,520.2983 C339.1242,520.2983 321.0732,538.3493 321.0732,560.5373 C321.0732,560.7743 321.0772,561.0143 321.0802,561.2513 L293.4912,561.2513 C293.4842,561.0143 293.4842,560.7743 293.4842,560.5373" id="Fill-79"></path>
                <path d="M67.828,592.5917 C67.828,629.9917 37.4,660.4197 0,660.4197 L0,632.8307 C22.188,632.8307 40.239,614.7797 40.239,592.5917 C40.239,592.3547 40.235,592.1147 40.232,591.8777 L67.822,591.8777 C67.828,592.1147 67.828,592.3547 67.828,592.5917" id="Fill-81"></path>
                <path d="M67.828,690.5067 C67.828,727.9067 37.4,758.3347 0,758.3347 L0,730.7457 C22.188,730.7457 40.239,712.6947 40.239,690.5067 C40.239,690.2697 40.235,690.0297 40.232,689.7927 L67.821,689.7927 C67.828,690.0297 67.828,690.2697 67.828,690.5067" id="Fill-83"></path>
                <path d="M97.828,659.0792 C97.828,621.6792 128.256,591.2512 165.656,591.2512 L165.656,618.8402 C143.469,618.8402 125.417,636.8912 125.417,659.0792 C125.417,659.3162 125.421,659.5562 125.424,659.7932 L97.835,659.7932 C97.828,659.5562 97.828,659.3162 97.828,659.0792" id="Fill-85"></path>
                <path d="M97.828,757.6211 C97.828,720.2211 128.256,689.7931 165.656,689.7931 L165.656,717.3821 C143.468,717.3821 125.417,735.4331 125.417,757.6211 C125.417,757.8581 125.421,758.0981 125.424,758.3351 L97.835,758.3351 C97.828,758.0981 97.828,757.8581 97.828,757.6211" id="Fill-87"></path>
                <path d="M263.4842,592.5917 C263.4842,629.9917 233.0562,660.4197 195.6562,660.4197 L195.6562,632.8307 C217.8442,632.8307 235.8952,614.7797 235.8952,592.5917 C235.8952,592.3547 235.8912,592.1147 235.8882,591.8777 L263.4782,591.8777 C263.4842,592.1147 263.4842,592.3547 263.4842,592.5917" id="Fill-90"></path>
                <path d="M263.4842,690.5067 C263.4842,727.9067 233.0562,758.3347 195.6562,758.3347 L195.6562,730.7457 C217.8442,730.7457 235.8952,712.6947 235.8952,690.5067 C235.8952,690.2697 235.8912,690.0297 235.8882,689.7927 L263.4782,689.7927 C263.4842,690.0297 263.4842,690.2697 263.4842,690.5067" id="Fill-92"></path>
                <path d="M293.4842,659.0792 C293.4842,621.6792 323.9122,591.2512 361.3122,591.2512 L361.3122,618.8402 C339.1252,618.8402 321.0732,636.8912 321.0732,659.0792 C321.0732,659.3162 321.0772,659.5562 321.0802,659.7932 L293.4912,659.7932 C293.4842,659.5562 293.4842,659.3162 293.4842,659.0792" id="Fill-94"></path>
                <path d="M293.4842,757.6211 C293.4842,720.2211 323.9122,689.7931 361.3122,689.7931 L361.3122,717.3821 C339.1242,717.3821 321.0732,735.4331 321.0732,757.6211 C321.0732,757.8581 321.0772,758.0981 321.0802,758.3351 L293.4912,758.3351 C293.4842,758.0981 293.4842,757.8581 293.4842,757.6211" id="Fill-96"></path>
                <path d="M459.1405,395.508 C459.1405,432.908 428.7125,463.336 391.3125,463.336 L391.3125,435.747 C413.4995,435.747 431.5515,417.696 431.5515,395.508 C431.5515,395.271 431.5475,395.031 431.5445,394.794 L459.1335,394.794 C459.1405,395.031 459.1405,395.271 459.1405,395.508" id="Fill-99"></path>
                <path d="M459.1405,493.423 C459.1405,530.823 428.7125,561.251 391.3125,561.251 L391.3125,533.662 C413.4995,533.662 431.5515,515.611 431.5515,493.423 C431.5515,493.186 431.5475,492.946 431.5445,492.709 L459.1335,492.709 C459.1405,492.946 459.1405,493.186 459.1405,493.423" id="Fill-101"></path>
                <path d="M489.1405,461.9954 C489.1405,424.5954 519.5685,394.1674 556.9685,394.1674 L556.9685,421.7564 C534.7815,421.7564 516.7295,439.8074 516.7295,461.9954 C516.7295,462.2324 516.7335,462.4724 516.7365,462.7094 L489.1475,462.7094 C489.1405,462.4724 489.1405,462.2324 489.1405,461.9954" id="Fill-103"></path>
                <path d="M489.1405,560.5373 C489.1405,523.1373 519.5685,492.7093 556.9685,492.7093 L556.9685,520.2983 C534.7815,520.2983 516.7295,538.3493 516.7295,560.5373 C516.7295,560.7743 516.7335,561.0143 516.7365,561.2513 L489.1475,561.2513 C489.1405,561.0143 489.1405,560.7743 489.1405,560.5373" id="Fill-105"></path>
                <path d="M459.1405,592.5917 C459.1405,629.9917 428.7125,660.4197 391.3125,660.4197 L391.3125,632.8307 C413.4995,632.8307 431.5515,614.7797 431.5515,592.5917 C431.5515,592.3547 431.5475,592.1147 431.5445,591.8777 L459.1335,591.8777 C459.1405,592.1147 459.1405,592.3547 459.1405,592.5917" id="Fill-115"></path>
                <path d="M459.1405,690.5067 C459.1405,727.9067 428.7125,758.3347 391.3125,758.3347 L391.3125,730.7457 C413.4995,730.7457 431.5515,712.6947 431.5515,690.5067 C431.5515,690.2697 431.5475,690.0297 431.5445,689.7927 L459.1335,689.7927 C459.1405,690.0297 459.1405,690.2697 459.1405,690.5067" id="Fill-117"></path>
                <path d="M489.1405,659.0792 C489.1405,621.6792 519.5685,591.2512 556.9685,591.2512 L556.9685,618.8402 C534.7815,618.8402 516.7295,636.8912 516.7295,659.0792 C516.7295,659.3162 516.7335,659.5562 516.7365,659.7932 L489.1475,659.7932 C489.1405,659.5562 489.1405,659.3162 489.1405,659.0792" id="Fill-119"></path>
                <path d="M489.1405,757.6211 C489.1405,720.2211 519.5685,689.7931 556.9685,689.7931 L556.9685,717.3821 C534.7815,717.3821 516.7295,735.4331 516.7295,757.6211 C516.7295,757.8581 516.7335,758.0981 516.7365,758.3351 L489.1475,758.3351 C489.1405,758.0981 489.1405,757.8581 489.1405,757.6211" id="Fill-121"></path>
            </g>
        </g>
    </g>
</svg>