<?xml version="1.0" encoding="UTF-8"?>
<svg width="226px" height="198px" viewBox="0 0 226 198" version="1.1" xmlns="http://www.w3.org/2000/svg" xmlns:xlink="http://www.w3.org/1999/xlink">
    <title>Group 28</title>
    <g id="COMPONENTS" stroke="none" stroke-width="1" fill="none" fill-rule="evenodd">
        <g id="SECTIONS/-Desktop/-Recenzie" transform="translate(-794.000000, -537.000000)" stroke="#ED4036" stroke-width="2">
            <g id="Group-28" transform="translate(744.311080, 539.153825)">
                <path d="M26.1424649,167.079414 C26.1424649,89.4319333 89.3151264,26.2592718 166.962607,26.2592718 L166.962607,83.5377837 C120.899381,83.5377837 83.4209768,121.014112 83.4209768,167.079414 C83.4209768,167.571458 83.4292813,168.069731 83.4355097,168.561775 L26.1569979,168.561775 C26.1424649,168.069731 26.1424649,167.571458 26.1424649,167.079414" id="Fill-121" transform="translate(96.552536, 97.410523) rotate(-30.000000) translate(-96.552536, -97.410523) "></path>
                <path d="M149.037393,166.492717 C149.037393,88.8452368 212.210054,25.6725753 289.857535,25.6725753 L289.857535,82.9510872 C243.794309,82.9510872 206.315905,120.427415 206.315905,166.492717 C206.315905,166.984762 206.324209,167.483034 206.330438,167.975078 L149.051926,167.975078 C149.037393,167.483034 149.037393,166.984762 149.037393,166.492717" id="Fill-121-Copy" transform="translate(219.447464, 96.823827) rotate(-30.000000) translate(-219.447464, -96.823827) "></path>
            </g>
        </g>
    </g>
</svg>