<?xml version="1.0" encoding="UTF-8"?>
<svg width="140px" height="19px" viewBox="0 0 140 19" version="1.1" xmlns="http://www.w3.org/2000/svg" xmlns:xlink="http://www.w3.org/1999/xlink">
    <title>Group</title>
    <g id="DESIGN---Web" stroke="none" stroke-width="1" fill="none" fill-rule="evenodd">
        <g id="best-pozicka.sk---Design---Pôžičky-(HOME)" transform="translate(-260.000000, -978.000000)" fill="#FCC800" fill-rule="nonzero">
            <g id="Group-5" transform="translate(147.000000, 947.000000)">
                <g id="Group-4" transform="translate(35.000000, 21.000000)">
                    <g id="Group" transform="translate(78.000000, 10.000000)">
                        <path d="M5.54322094,19 C4.96024879,18.9993498 4.39253251,18.8148958 3.92186216,18.4732121 C3.07989477,17.8724979 2.65753639,16.8467038 2.83441186,15.8320899 L3.32351185,12.9764317 C3.39126457,12.5742169 3.25417845,12.1647686 2.95741292,11.8829688 L0.841812427,9.86852868 C0.088045339,9.15791087 -0.188508635,8.08080035 0.130566674,7.09839933 C0.44750263,6.10373832 1.3110375,5.37805304 2.35106851,5.23236526 L5.26467192,4.80547144 C5.67675574,4.74613499 6.03349531,4.4901778 6.21971197,4.12023945 L7.51477194,1.51864367 C7.97719754,0.586848453 8.93321983,-0.00227465316 9.97907548,4.10395551e-05 L9.98703254,4.10395551e-05 C11.0283996,-0.00562870103 11.9826762,0.576564561 12.4484318,1.50175425 L13.760169,4.09367266 C13.9483942,4.46229734 14.3066336,4.71580841 14.718869,4.77210472 L17.6346358,5.17814986 C18.6696769,5.31516424 19.5349085,6.02757536 19.8624072,7.01244394 C20.1899059,7.99731253 19.922088,9.08147037 19.1728381,9.80389999 L17.071018,11.8327054 C16.7746911,12.1161208 16.6394056,12.5272085 16.7099867,12.9297595 L17.2171716,15.7821944 C17.3996488,16.7960563 16.9832796,17.824407 16.1449168,18.430455 C15.2991698,19.0535592 14.1694902,19.1422998 13.2356549,18.6589883 L10.6244866,17.3208166 C10.2515511,17.1293858 9.80798604,17.1309959 9.43646906,17.3251291 L6.83325774,18.6816326 C6.43556162,18.8899995 5.99284907,18.9992562 5.54322094,19 Z" id="Path"></path>
                        <path d="M35.5432209,19 C34.9602488,18.9993498 34.3925325,18.8148958 33.9218622,18.4732121 C33.0798948,17.8724979 32.6575364,16.8467038 32.8344119,15.8320899 L33.3235119,12.9764317 C33.3912646,12.5742169 33.2541784,12.1647686 32.9574129,11.8829688 L30.8418124,9.86852868 C30.0880453,9.15791087 29.8114914,8.08080035 30.1305667,7.09839933 C30.4475026,6.10373832 31.3110375,5.37805304 32.3510685,5.23236526 L35.2646719,4.80547144 C35.6767557,4.74613499 36.0334953,4.4901778 36.219712,4.12023945 L37.5147719,1.51864367 C37.9771975,0.586848453 38.9332198,-0.00227465316 39.9790755,4.10395551e-05 L39.9870325,4.10395551e-05 C41.0283996,-0.00562870103 41.9826762,0.576564561 42.4484318,1.50175425 L43.760169,4.09367266 C43.9483942,4.46229734 44.3066336,4.71580841 44.718869,4.77210472 L47.6346358,5.17814986 C48.6696769,5.31516424 49.5349085,6.02757536 49.8624072,7.01244394 C50.1899059,7.99731253 49.922088,9.08147037 49.1728381,9.80389999 L47.071018,11.8327054 C46.7746911,12.1161208 46.6394056,12.5272085 46.7099867,12.9297595 L47.2171716,15.7821944 C47.3996488,16.7960563 46.9832796,17.824407 46.1449168,18.430455 C45.2991698,19.0535592 44.1694902,19.1422998 43.2356549,18.6589883 L40.6244866,17.3208166 C40.2515511,17.1293858 39.807986,17.1309959 39.4364691,17.3251291 L36.8332577,18.6816326 C36.4355616,18.8899995 35.9928491,18.9992562 35.5432209,19 Z" id="Path"></path>
                        <path d="M65.5432209,19 C64.9602488,18.9993498 64.3925325,18.8148958 63.9218622,18.4732121 C63.0798948,17.8724979 62.6575364,16.8467038 62.8344119,15.8320899 L63.3235119,12.9764317 C63.3912646,12.5742169 63.2541784,12.1647686 62.9574129,11.8829688 L60.8418124,9.86852868 C60.0880453,9.15791087 59.8114914,8.08080035 60.1305667,7.09839933 C60.4475026,6.10373832 61.3110375,5.37805304 62.3510685,5.23236526 L65.2646719,4.80547144 C65.6767557,4.74613499 66.0334953,4.4901778 66.219712,4.12023945 L67.5147719,1.51864367 C67.9771975,0.586848453 68.9332198,-0.00227465316 69.9790755,4.10395551e-05 L69.9870325,4.10395551e-05 C71.0283996,-0.00562870103 71.9826762,0.576564561 72.4484318,1.50175425 L73.760169,4.09367266 C73.9483942,4.46229734 74.3066336,4.71580841 74.718869,4.77210472 L77.6346358,5.17814986 C78.6696769,5.31516424 79.5349085,6.02757536 79.8624072,7.01244394 C80.1899059,7.99731253 79.922088,9.08147037 79.1728381,9.80389999 L77.071018,11.8327054 C76.7746911,12.1161208 76.6394056,12.5272085 76.7099867,12.9297595 L77.2171716,15.7821944 C77.3996488,16.7960563 76.9832796,17.824407 76.1449168,18.430455 C75.2991698,19.0535592 74.1694902,19.1422998 73.2356549,18.6589883 L70.6244866,17.3208166 C70.2515511,17.1293858 69.807986,17.1309959 69.4364691,17.3251291 L66.8332577,18.6816326 C66.4355616,18.8899995 65.9928491,18.9992562 65.5432209,19 Z" id="Path"></path>
                        <path d="M95.5432209,19 C94.9602488,18.9993498 94.3925325,18.8148958 93.9218622,18.4732121 C93.0798948,17.8724979 92.6575364,16.8467038 92.8344119,15.8320899 L93.3235119,12.9764317 C93.3912646,12.5742169 93.2541784,12.1647686 92.9574129,11.8829688 L90.8418124,9.86852868 C90.0880453,9.15791087 89.8114914,8.08080035 90.1305667,7.09839933 C90.4475026,6.10373832 91.3110375,5.37805304 92.3510685,5.23236526 L95.2646719,4.80547144 C95.6767557,4.74613499 96.0334953,4.4901778 96.219712,4.12023945 L97.5147719,1.51864367 C97.9771975,0.586848453 98.9332198,-0.00227465316 99.9790755,4.10395551e-05 L99.9870325,4.10395551e-05 C101.0284,-0.00562870103 101.982676,0.576564561 102.448432,1.50175425 L103.760169,4.09367266 C103.948394,4.46229734 104.306634,4.71580841 104.718869,4.77210472 L107.634636,5.17814986 C108.669677,5.31516424 109.534908,6.02757536 109.862407,7.01244394 C110.189906,7.99731253 109.922088,9.08147037 109.172838,9.80389999 L107.071018,11.8327054 C106.774691,12.1161208 106.639406,12.5272085 106.709987,12.9297595 L107.217172,15.7821944 C107.399649,16.7960563 106.98328,17.824407 106.144917,18.430455 C105.29917,19.0535592 104.16949,19.1422998 103.235655,18.6589883 L100.624487,17.3208166 C100.251551,17.1293858 99.807986,17.1309959 99.4364691,17.3251291 L96.8332577,18.6816326 C96.4355616,18.8899995 95.9928491,18.9992562 95.5432209,19 Z" id="Path"></path>
                        <path d="M125.543221,19 C124.960249,18.9993498 124.392533,18.8148958 123.921862,18.4732121 C123.079895,17.8724979 122.657536,16.8467038 122.834412,15.8320899 L123.323512,12.9764317 C123.391265,12.5742169 123.254178,12.1647686 122.957413,11.8829688 L120.841812,9.86852868 C120.088045,9.15791087 119.811491,8.08080035 120.130567,7.09839933 C120.447503,6.10373832 121.311037,5.37805304 122.351069,5.23236526 L125.264672,4.80547144 C125.676756,4.74613499 126.033495,4.4901778 126.219712,4.12023945 L127.514772,1.51864367 C127.977198,0.586848453 128.93322,-0.00227465316 129.979075,4.10395546e-05 L129.987033,4.10395546e-05 C131.0284,-0.00562870103 131.982676,0.576564561 132.448432,1.50175425 L133.760169,4.09367266 C133.948394,4.46229734 134.306634,4.71580841 134.718869,4.77210472 L137.634636,5.17814986 C138.669677,5.31516424 139.534908,6.02757536 139.862407,7.01244394 C140.189906,7.99731253 139.922088,9.08147037 139.172838,9.80389999 L137.071018,11.8327054 C136.774691,12.1161208 136.639406,12.5272085 136.709987,12.9297595 L137.217172,15.7821944 C137.399649,16.7960563 136.98328,17.824407 136.144917,18.430455 C135.29917,19.0535592 134.16949,19.1422998 133.235655,18.6589883 L130.624487,17.3208166 C130.251551,17.1293858 129.807986,17.1309959 129.436469,17.3251291 L126.833258,18.6816326 C126.435562,18.8899995 125.992849,18.9992562 125.543221,19 Z M129.987062,1.47174351 L129.983447,1.47174351 C129.499077,1.46590024 129.054804,1.73835217 128.843179,2.17117127 L127.548119,4.77276705 L127.548119,4.77312766 C127.146006,5.57582841 126.373466,6.13189162 125.48032,6.26150111 L122.566717,6.68839493 C122.085997,6.75099953 121.685927,7.08579773 121.542219,7.54574443 C121.393499,7.99278195 121.520364,8.48491335 121.867081,8.80593781 L123.982614,10.8204148 C124.634779,11.4395395 124.934881,12.3399216 124.783507,13.2232968 L124.294436,16.0789771 C124.210908,16.542008 124.405028,17.0111724 124.792212,17.2820409 C125.185716,17.572649 125.713128,17.61035 126.144468,17.3787043 L128.747679,16.0214869 C129.547712,15.6051838 130.501725,15.6019657 131.304586,16.0128619 L133.915754,17.3510336 C134.348464,17.5796163 134.875345,17.5382819 135.266565,17.2450608 C135.652791,16.9718962 135.844664,16.5011688 135.758555,16.0380451 L135.25137,13.1852717 C135.09462,12.3023384 135.389604,11.3997302 136.038556,10.776598 L138.140369,8.74813847 C138.486308,8.42504564 138.610709,7.9311945 138.458718,7.48434643 C138.312037,7.02586166 137.909852,6.6943077 137.429152,6.6355925 L134.513378,6.22954736 C133.619248,6.10646067 132.84289,5.55528396 132.436163,4.75482527 L131.124433,2.16256834 C130.911606,1.73330191 130.468725,1.46436141 129.987062,1.47174351 Z" id="Shape"></path>
                    </g>
                </g>
            </g>
        </g>
    </g>
</svg>