<?xml version="1.0" encoding="UTF-8"?>
<svg width="69px" height="72px" viewBox="0 0 69 72" version="1.1" xmlns="http://www.w3.org/2000/svg" xmlns:xlink="http://www.w3.org/1999/xlink">
    <title>Group 2</title>
    <g id="COMPONENTS" stroke="none" stroke-width="1" fill="none" fill-rule="evenodd">
        <g id="FORM/-Step4/-Imput-Window---Initial" transform="translate(-58.000000, -163.000000)">
            <g id="Group-2" transform="translate(58.000000, 163.000000)">
                <circle id="Oval-Copy-8" fill="#FCC800" cx="37.9046587" cy="40.4760024" r="31.0953413"></circle>
                <g id="noun-loan-4561292" fill="#223146" fill-rule="nonzero">
                    <path d="M35,21.0000391 L7,21.0000391 C6.44771525,21.0000391 6,20.5523239 6,20.0000391 C6,19.4477544 6.44771525,19.0000391 7,19.0000391 L35,19.0000391 C35.5522847,19.0000391 36,19.4477544 36,20.0000391 C36,20.5523239 35.5522847,21.0000391 35,21.0000391 Z M32,26.0000391 C32,25.7348015 31.8947343,25.4804075 31.707183,25.2928562 C31.5196316,25.1053048 31.2652376,24.9999702 31,25.0000391 L17,25.0000391 C16.4477153,25.0000391 16,25.4477544 16,26.0000391 C16,26.5523239 16.4477153,27.0000391 17,27.0000391 L31,27.0000391 C31.2652376,27.0001081 31.5196316,26.8947734 31.707183,26.7072221 C31.8947343,26.5196708 32,26.2652768 32,26.0000391 L32,26.0000391 Z M7,27.0000391 L13,27.0000391 C13.5522847,27.0000391 14,26.5523239 14,26.0000391 C14,25.4477544 13.5522847,25.0000391 13,25.0000391 L7,25.0000391 C6.44771525,25.0000391 6,25.4477544 6,26.0000391 C6,26.5523239 6.44771525,27.0000391 7,27.0000391 Z M26,32.000039 C26,31.7347763 25.8948431,31.4803344 25.7072739,31.2927653 C25.5197047,31.1051961 25.2652629,30.9998878 25,31.000039 L7,31.000039 C6.44771525,31.000039 6,31.4477544 6,32.000039 C6,32.5523239 6.44771525,33.000039 7,33.000039 L25,33.000039 C25.2652629,33.0001905 25.5197047,32.8948822 25.7072739,32.707313 C25.8948431,32.5197438 26,32.265302 26,32.000039 Z M16.06348,42.4609791 C16.1154649,42.7868819 16.1422343,43.116309 16.14355,43.4463291 C16.1749469,44.3050605 15.9268577,45.1507954 15.43655,45.8564891 C14.8605555,46.6135761 13.9504181,47.0407324 13,47.0000391 C12.1462365,47.0167799 11.3237961,46.6785404 10.7288357,46.0659928 C10.1338753,45.4534452 9.81973173,44.621503 9.86133,43.7685891 C9.86269343,42.8028023 10.2403127,41.8755505 10.91406,41.1835891 C11.4606722,40.6353668 12.1577931,40.2618408 12.917,40.1103891 C12.4752857,39.47321 11.772489,39.0661415 11,39.0000391 C8.55078,39.0000391 8,44.0830391 8,45.8633191 C8,46.4156039 7.55228475,46.8633191 7,46.8633191 C6.44771525,46.8633191 6,46.4156039 6,45.8633191 C6,42.5713291 7.05273,37.0000391 11,37.0000391 C12.9077641,37.1335388 14.5742913,38.338572 15.29883,40.1084391 C16.7720638,40.3320813 18.082802,41.1663161 18.90918,42.4062891 C19.695609,40.8833313 21.2867869,39.9473889 23,40.0000391 C23.5522847,40.0000391 24,40.4477544 24,41.0000391 C24,41.5523239 23.5522847,42.0000391 23,42.0000391 C20.03418,42.0000391 20,45.8369491 20,46.0000391 C20,46.5523239 19.5522847,47.0000391 19,47.0000391 C18.4477153,47.0000391 18,46.5523239 18,46.0000391 C18.0097929,44.5648824 17.277455,43.2265087 16.06348,42.4609791 L16.06348,42.4609791 Z M14.14355,43.4463291 C14.1379674,42.9556415 14.0593071,42.4685238 13.91016,42.0010191 C13.3303923,41.9833626 12.7667437,42.1933417 12.33984,42.5860191 C12.0326472,42.9030166 11.861011,43.3272056 11.86133,43.7686291 C11.8327727,44.0869496 11.94029,44.4024839 12.1572716,44.6371377 C12.3742532,44.8717916 12.6804214,45.0036358 13,45.0000391 C13.3206401,45.0364616 13.6374913,44.9055164 13.83887,44.6533591 C14.062263,44.2919736 14.1686661,43.8704437 14.14355,43.4463291 Z M5.99999997,14.0000391 L5.99999997,8.00003911 C5.99999997,7.73480151 6.1052657,7.48040751 6.29281703,7.29285618 C6.48036837,7.10530484 6.73476237,7.00003911 6.99999997,7.00003911 L27,7.00003911 C27.2652376,7.00003911 27.5196316,7.10530484 27.707183,7.29285618 C27.8947343,7.48040751 28,7.73480151 28,8.00003911 L28,14.0000391 C28,14.2652768 27.8947343,14.5196708 27.707183,14.7072221 C27.5196316,14.8947734 27.2652376,15.0000391 27,15.0000391 L6.99999997,15.0000391 C6.73476237,15.0000391 6.48036837,14.8947734 6.29281703,14.7072221 C6.1052657,14.5196708 5.99999997,14.2652768 5.99999997,14.0000391 Z M8,13.0000391 L26,13.0000391 L26,9.00003915 L8,9.00003915 L8,13.0000391 Z M26.70605,53.0000391 C26.706204,53.2653028 26.6008966,53.5197462 26.4133268,53.707316 C26.2257571,53.8948857 25.9713137,54.0000393 25.70605,54.0000393 L5,54.0000393 C2.23991948,53.996799 0.00324014244,51.7601197 0,49.0000391 L0,5.00003915 C0.00324014244,2.23995862 2.23991948,0.0032792877 5,1.94695185e-05 L31.34277,1.94695185e-05 C32.6697491,-0.00369282672 33.9430707,0.523605652 34.87891,1.46439915 L40.53516,7.12161915 C41.4758972,8.05713371 42.0033542,9.33006792 42.0000159,10.6567791 L42.0000159,23.1015991 C42.0000159,23.6538839 41.5522847,24.1015991 41,24.1015991 C40.4477153,24.1015991 40,23.6538839 40,23.1015991 L40,10.6567791 C39.9982077,10.4356615 39.9720294,10.2154162 39.92194,10.0000391 L35,10.0000391 C33.3438951,9.99823143 32.0018077,8.65614404 32,7.00003915 L32,2.07797915 C31.784448,2.02795523 31.5640433,2.00181774 31.34277,2.00003915 L5,2.00003915 C3.34389511,2.00184686 2.00180771,3.34393425 2,5.00003915 L2,49.0000391 C2.00180771,50.656144 3.34389511,51.9982314 5,52.0000391 L25.70605,52.0000391 C25.9713137,51.9998852 26.2257571,52.1051925 26.4133268,52.2927623 C26.6008966,52.4803321 26.706204,52.7347755 26.70605,53.0000391 Z M34,3.41373915 L34,7.00003915 C34.0005512,7.55209541 34.4479437,7.99948792 35,8.00003915 L38.58557,8.00003915 L34,3.41373915 Z M60,43.0000391 C60,52.3888799 52.3888407,60.0000391 43,60.0000391 C33.6111593,60.0000391 26,52.3888799 26,43.0000391 C26,33.6111984 33.6111593,26.0000391 43,26.0000391 C52.3845001,26.0105102 59.989529,33.6155391 60,43.0000391 L60,43.0000391 Z M58,43.0000391 C58,34.7157679 51.2842712,28.0000391 43,28.0000391 C34.7157288,28.0000391 28,34.7157679 28,43.0000391 C28,51.2843104 34.7157288,58.0000391 43,58.0000391 C51.2805222,57.9909951 57.9909559,51.2805613 58,43.0000391 L58,43.0000391 Z M36.9386161,43.6291105 L37.9468399,43.6291105 C37.8540296,42.9968478 37.8540296,42.3540956 37.9468399,41.7218329 L36.9386161,41.7218329 C36.4202327,41.7218329 36,41.2948742 36,40.7681941 C36,40.2415139 36.4202327,39.8145553 36.9386161,39.8145553 L38.4742952,39.8145553 C39.4008851,37.5456248 41.5609221,36.0485921 43.9782366,36 C45.4273784,36.0070171 46.8222724,36.5607935 47.8921905,37.5538495 C48.1415064,37.781981 48.251978,38.1279918 48.181938,38.4613746 C48.111898,38.7947574 47.8720035,39.0647852 47.5527373,39.1696095 C47.2334711,39.2744338 46.8834123,39.1981047 46.6345952,38.9694119 C45.9120182,38.2887216 44.9636142,37.9095061 43.9782366,37.9072776 C42.6160378,37.9343717 41.3568023,38.649696 40.6207224,39.8145553 L44.4475446,39.8145553 C44.965928,39.8145553 45.3861607,40.2415139 45.3861607,40.7681941 C45.3861607,41.2948742 44.965928,41.7218329 44.4475446,41.7218329 L39.8398783,41.7218329 C39.7259928,42.3523274 39.7259928,42.998616 39.8398783,43.6291105 L44.4475446,43.6291105 C44.965928,43.6291105 45.3861607,44.0560692 45.3861607,44.5827493 C45.3861607,45.1094295 44.965928,45.5363881 44.4475446,45.5363881 L40.6207224,45.5363881 C41.3568023,46.7012474 42.6160378,47.4165717 43.9782366,47.4436658 C44.9636142,47.4414373 45.9120182,47.0622218 46.6345952,46.3815315 C46.8834123,46.1528387 47.2334711,46.0765096 47.5527373,46.1813339 C47.8720035,46.2861582 48.111898,46.556186 48.181938,46.8895688 C48.251978,47.2229516 48.1415064,47.5689624 47.8921905,47.7970938 C46.8222724,48.7901499 45.4273784,49.3439263 43.9782366,49.3509434 C41.5609221,49.3023513 39.4008851,47.8053186 38.4742952,45.5363881 L36.9386161,45.5363881 C36.4202327,45.5363881 36,45.1094295 36,44.5827493 C36,44.0560692 36.4202327,43.6291105 36.9386161,43.6291105 Z M56,43.0000391 C56,50.1797409 50.1797017,56.0000391 43,56.0000391 C35.8202983,56.0000391 30,50.1797409 30,43.0000391 C30,35.8203374 35.8202983,30.0000391 43,30.0000391 C50.1762637,30.0083327 55.9917065,35.8237755 56,43.0000391 Z M54,43 C54,36.9248678 49.0751322,32 43,32 C36.9248678,32 32,36.9248678 32,43 C32,49.0751322 36.9248678,54 43,54 C49.072288,53.9931389 53.9931389,49.072288 54,43 L54,43 Z" id="Shape"></path>
                </g>
            </g>
        </g>
    </g>
</svg>