<?xml version="1.0" encoding="UTF-8"?>
<svg width="697px" height="284px" viewBox="0 0 697 284" version="1.1" xmlns="http://www.w3.org/2000/svg" xmlns:xlink="http://www.w3.org/1999/xlink">
    <title>Group</title>
    <g id="DESIGN---Form" stroke="none" stroke-width="1" fill="none" fill-rule="evenodd">
        <g id="best-pozicka.sk---Design---Pôžička-Form-Step-2---Zivnostnik-sro" transform="translate(-1074.000000, -973.000000)" stroke="#FCC800" stroke-width="2">
            <g id="Group" transform="translate(1075.000000, 974.000000)">
                <path d="M0,71.2499781 C0,31.9631175 32.2995813,0 72,0 L72,28.9808876 C48.4483104,28.9808876 29.2859586,47.9425754 29.2859586,71.2499781 C29.2859586,71.498935 29.2902046,71.7510432 29.2933892,72 L0.00743055965,72 C0,71.7510432 0,71.498935 0,71.2499781" id="Fill-5-Copy-2"></path>
                <path d="M0,176.249978 C0,136.963118 32.2995813,105 72,105 L72,133.980888 C48.4472489,133.980888 29.2859586,152.942575 29.2859586,176.249978 C29.2859586,176.498935 29.2902046,176.751043 29.2933892,177 L0.00743055965,177 C0,176.751043 0,176.498935 0,176.249978" id="Fill-7-Copy-2"></path>
                <path d="M176,1.75002188 C176,41.0368825 143.700419,73 104,73 L104,44.0191124 C127.552751,44.0191124 146.714041,25.0574246 146.714041,1.75002188 C146.714041,1.50106504 146.709795,1.24895684 146.706611,1 L175.993631,1 C176,1.24895684 176,1.50106504 176,1.75002188" id="Fill-9-Copy-2"></path>
                <path d="M176,105.750022 C176,145.036882 143.700419,177 104,177 L104,148.019112 C127.552751,148.019112 146.714041,129.057425 146.714041,105.750022 C146.714041,105.501065 146.709795,105.248957 146.706611,105 L175.993631,105 C176,105.248957 176,105.501065 176,105.750022" id="Fill-11-Copy-2"></path>
                <path d="M208,71.2499781 C208,31.9631175 240.299581,0 280,0 L280,28.9808876 C256.44831,28.9808876 237.285959,47.9425754 237.285959,71.2499781 C237.285959,71.498935 237.290205,71.7510432 237.293389,72 L208.007431,72 C208,71.7510432 208,71.498935 208,71.2499781" id="Fill-13-Copy-2"></path>
                <path d="M208,176.249978 C208,136.963118 240.299581,105 280,105 L280,133.980888 C256.447249,133.980888 237.285959,152.942575 237.285959,176.249978 C237.285959,176.498935 237.290205,176.751043 237.293389,177 L208.007431,177 C208,176.751043 208,176.498935 208,176.249978" id="Fill-15-Copy-2"></path>
                <path d="M0,281.249978 C0,241.963118 32.2995813,210 72,210 L72,238.980888 C48.4483104,238.980888 29.2859586,257.942575 29.2859586,281.249978 C29.2859586,281.498935 29.2902046,281.751043 29.2933892,282 L0.00743055965,282 C0,281.751043 0,281.498935 0,281.249978" id="Fill-21-Copy-2"></path>
                <path d="M176,210.750022 C176,250.036882 143.700419,282 104,282 L104,253.019112 C127.552751,253.019112 146.714041,234.057425 146.714041,210.750022 C146.714041,210.501065 146.709795,210.248957 146.706611,210 L175.993631,210 C176,210.248957 176,210.501065 176,210.750022" id="Fill-25-Copy-2"></path>
                <path d="M208,281.249978 C208,241.963118 240.299581,210 280,210 L280,238.980888 C256.44831,238.980888 237.285959,257.942575 237.285959,281.249978 C237.285959,281.498935 237.290205,281.751043 237.293389,282 L208.007431,282 C208,281.751043 208,281.498935 208,281.249978" id="Fill-29-Copy-2"></path>
                <path d="M383,1.75002188 C383,41.0368825 350.700419,73 311,73 L311,44.0191124 C334.55169,44.0191124 353.714041,25.0574246 353.714041,1.75002188 C353.714041,1.50106504 353.709795,1.24895684 353.706611,1 L382.992569,1 C383,1.24895684 383,1.50106504 383,1.75002188" id="Fill-33-Copy-2"></path>
                <path d="M383,105.750022 C383,145.036882 350.700419,177 311,177 L311,148.019112 C334.55169,148.019112 353.714041,129.057425 353.714041,105.750022 C353.714041,105.501065 353.709795,105.248957 353.706611,105 L382.992569,105 C383,105.248957 383,105.501065 383,105.750022" id="Fill-35-Copy-2"></path>
                <path d="M415,71.2499781 C415,31.9631175 447.299581,0 487,0 L487,28.9808876 C463.44831,28.9808876 444.285959,47.9425754 444.285959,71.2499781 C444.285959,71.498935 444.290205,71.7510432 444.293389,72 L415.007431,72 C415,71.7510432 415,71.498935 415,71.2499781" id="Fill-37-Copy-2"></path>
                <path d="M415,176.249978 C415,136.963118 447.299581,105 487,105 L487,133.980888 C463.44831,133.980888 444.285959,152.942575 444.285959,176.249978 C444.285959,176.498935 444.290205,176.751043 444.293389,177 L415.007431,177 C415,176.751043 415,176.498935 415,176.249978" id="Fill-39-Copy-2"></path>
                <path d="M591,1.75002188 C591,41.0368825 558.700419,73 519,73 L519,44.0191124 C542.552751,44.0191124 561.714041,25.0574246 561.714041,1.75002188 C561.714041,1.50106504 561.709795,1.24895684 561.706611,1 L590.993631,1 C591,1.24895684 591,1.50106504 591,1.75002188" id="Fill-41-Copy-2"></path>
                <path d="M591,105.750022 C591,145.036882 558.700419,177 519,177 L519,148.019112 C542.552751,148.019112 561.714041,129.057425 561.714041,105.750022 C561.714041,105.501065 561.709795,105.248957 561.706611,105 L590.993631,105 C591,105.248957 591,105.501065 591,105.750022" id="Fill-43-Copy-2"></path>
                <path d="M623,71.2499781 C623,31.9631175 655.299581,0 695,0 L695,28.9808876 C671.44831,28.9808876 652.285959,47.9425754 652.285959,71.2499781 C652.285959,71.498935 652.290205,71.7510432 652.293389,72 L623.007431,72 C623,71.7510432 623,71.498935 623,71.2499781" id="Fill-45-Copy-2"></path>
                <path d="M623,176.249978 C623,136.963118 655.299581,105 695,105 L695,133.980888 C671.447249,133.980888 652.285959,152.942575 652.285959,176.249978 C652.285959,176.498935 652.290205,176.751043 652.293389,177 L623.006369,177 C623,176.751043 623,176.498935 623,176.249978" id="Fill-47-Copy-2"></path>
                <path d="M383,210.750022 C383,250.036882 350.700419,282 311,282 L311,253.019112 C334.55169,253.019112 353.714041,234.057425 353.714041,210.750022 C353.714041,210.501065 353.709795,210.248957 353.706611,210 L382.992569,210 C383,210.248957 383,210.501065 383,210.750022" id="Fill-49-Copy-2"></path>
                <path d="M415,281.249978 C415,241.963118 447.299581,210 487,210 L487,238.980888 C463.44831,238.980888 444.285959,257.942575 444.285959,281.249978 C444.285959,281.498935 444.290205,281.751043 444.293389,282 L415.007431,282 C415,281.751043 415,281.498935 415,281.249978" id="Fill-53-Copy-2"></path>
                <path d="M591,210.750022 C591,250.036882 558.700419,282 519,282 L519,253.019112 C542.552751,253.019112 561.714041,234.057425 561.714041,210.750022 C561.714041,210.501065 561.709795,210.248957 561.706611,210 L590.993631,210 C591,210.248957 591,210.501065 591,210.750022" id="Fill-57-Copy-2"></path>
                <path d="M623,281.249978 C623,241.963118 655.299581,210 695,210 L695,238.980888 C671.44831,238.980888 652.285959,257.942575 652.285959,281.249978 C652.285959,281.498935 652.290205,281.751043 652.293389,282 L623.007431,282 C623,281.751043 623,281.498935 623,281.249978" id="Fill-61-Copy-2"></path>
            </g>
        </g>
    </g>
</svg>