<?xml version="1.0" encoding="UTF-8"?>
<svg width="69px" height="63px" viewBox="0 0 69 63" version="1.1" xmlns="http://www.w3.org/2000/svg" xmlns:xlink="http://www.w3.org/1999/xlink">
    <title>Group</title>
    <g id="COMPONENTS" stroke="none" stroke-width="1" fill="none" fill-rule="evenodd">
        <g id="FORM/-Step4/-Imput-Window---Initial" transform="translate(-58.000000, -58.000000)">
            <g id="Group" transform="translate(58.000000, 58.380661)">
                <circle id="Oval-Copy-8" fill="#FCC800" cx="37.9046587" cy="31.0953413" r="31.0953413"></circle>
                <g id="noun-credit-card-4561283" transform="translate(0.000000, 8.619304)" fill="#223146" fill-rule="nonzero">
                    <path d="M28.293,9.70707395 C28.1054175,9.51959325 28.0000261,9.26525372 28.0000261,9.00003679 C28.0000261,8.73483417 28.1054175,8.48049464 28.293,8.29301395 L33.36282,3.22318395 C35.4206648,1.15309739 38.2212489,-0.0075325622 41.14014,3.67930693e-05 L52,3.67930693e-05 C54.9077721,0.073533104 57.6760914,1.2617299 59.73242,3.31892395 C59.9757715,3.58059241 60.061039,3.9522105 59.9561032,4.29379327 C59.8511674,4.63537605 59.5719705,4.89502896 59.2236832,4.97494327 C58.8753959,5.05485759 58.5109315,4.94289241 58.26758,4.68122395 C56.5846942,3.03889776 54.3499944,2.08293627 52,2.00007395 L41.14014,2.00007395 C38.7519551,1.99399072 36.4606002,2.94362426 34.77686,4.63728395 L29.707,9.70707395 C29.519518,9.89465404 29.265179,10.0000368 28.99997,10.0000368 C28.734761,10.0000368 28.480422,9.89465404 28.29294,9.70707395 L28.293,9.70707395 Z M49,20.5371839 C48.4477153,20.5371839 48,20.9848992 48,21.5371839 L48,39.0000739 C47.9981923,40.6561788 46.6561049,41.9982662 45,42.0000739 L5,42.0000739 C3.34389511,41.9982662 2.00180771,40.6561788 2,39.0000739 L2,17.0000739 C2.00180771,15.3439691 3.34389511,14.0018817 5,14.0000739 L29.34277,14.0000739 C29.8950547,14.0000739 30.34277,13.5523587 30.34277,13.0000739 C30.34277,12.4477892 29.8950547,12.0000739 29.34277,12.0000739 L5,12.0000739 C2.23991948,12.0033141 0.00324014244,14.2399934 3.55271368e-15,17.0000739 L3.55271368e-15,39.0000739 C0.00324014244,41.7601545 2.23991948,43.9968338 5,44.0000739 L45,44.0000739 C47.7600805,43.9968338 49.9967599,41.7601545 50,39.0000739 L50,21.5371839 C50,20.9848992 49.5522847,20.5371839 49,20.5371839 Z M52,19.0000739 L54,19.0000739 C54.5522847,19.0000739 55,18.5523587 55,18.0000739 C55,17.4477892 54.5522847,17.0000739 54,17.0000739 L52,17.0000739 C49.2399195,16.9968338 47.0032401,14.7601545 47,12.0000739 C47.0000015,11.5956354 46.7563675,11.2310221 46.3827101,11.0762619 C46.0090527,10.9215016 45.5789623,11.0070737 45.293,11.2930739 L36.32864,20.2574239 C35.3252846,21.2154329 33.7460654,21.2154329 32.74271,20.2574239 C32.2671799,19.7819034 32.0000291,19.1369533 32.0000291,18.4644589 C32.0000291,17.7919646 32.2671799,17.1470145 32.74271,16.6714939 L41.707,7.70707395 C41.9634141,7.45526301 42.0649671,7.08521447 41.9730001,6.73779682 C41.8810331,6.39037916 41.6096948,6.11904088 41.2622771,6.02707388 C40.9148595,5.93510687 40.5448109,6.0366598 40.293,6.29307395 L31.32864,15.2574239 C30.1828767,16.4031872 29.7354052,18.0731735 30.1547837,19.6383153 C30.5741621,21.203457 31.796677,22.4259718 33.3618187,22.8453503 C34.9269604,23.2647287 36.5969468,22.8172572 37.74271,21.6714939 L45.31985,14.0943439 C46.2384711,17.0113958 48.9417253,18.996596 52,19.0000739 L52,19.0000739 Z M59,23.0000739 L56,23.0000739 C55.6670736,23.0013132 55.3562356,23.1668724 55.16943,23.4424539 C54.825248,23.9203091 54.4241897,24.3545009 53.9751,24.7354539 C53.5595465,25.0996357 53.0942658,25.4028069 52.59326,25.6358439 C52.0900763,25.8614543 51.8643232,26.4516836 52.088512,26.9555022 C52.3127009,27.4593209 52.9022904,27.6867395 53.40674,27.4639739 C54.0814481,27.1533242 54.7085037,26.7482179 55.26904,26.2608439 C55.7157514,25.8786778 56.126787,25.4566837 56.49707,25.0000739 L59,25.0000739 C59.5522847,25.0000739 60,24.5523587 60,24.0000739 C60,23.4477892 59.5522847,23.0000739 59,23.0000739 Z M7,35.0000739 C6.44771525,35.0000739 6,35.4477892 6,36.0000739 C6,36.5523587 6.44771525,37.0000739 7,37.0000739 L13,37.0000739 C13.5522847,37.0000739 14,36.5523587 14,36.0000739 C14,35.4477892 13.5522847,35.0000739 13,35.0000739 L7,35.0000739 Z M17,37.0000739 L23,37.0000739 C23.5522847,37.0000739 24,36.5523587 24,36.0000739 C24,35.4477892 23.5522847,35.0000739 23,35.0000739 L17,35.0000739 C16.4477153,35.0000739 16,35.4477892 16,36.0000739 C16,36.5523587 16.4477153,37.0000739 17,37.0000739 Z M27,35.0000739 C26.4477153,35.0000739 26,35.4477892 26,36.0000739 C26,36.5523587 26.4477153,37.0000739 27,37.0000739 L33,37.0000739 C33.5522847,37.0000739 34,36.5523587 34,36.0000739 C34,35.4477892 33.5522847,35.0000739 33,35.0000739 L27,35.0000739 Z M37,35.0000739 C36.4477153,35.0000739 36,35.4477892 36,36.0000739 C36,36.5523587 36.4477153,37.0000739 37,37.0000739 L43,37.0000739 C43.5522847,37.0000739 44,36.5523587 44,36.0000739 C44,35.4477892 43.5522847,35.0000739 43,35.0000739 L37,35.0000739 Z M14,27.0000739 L9,27.0000739 C7.34389511,26.9982662 6.00180771,25.6561788 6,24.0000739 L6,21.0000739 C6.00180771,19.3439691 7.34389511,18.0018817 9,18.0000739 L14,18.0000739 C15.6561049,18.0018817 16.9981923,19.3439691 17,21.0000739 L17,24.0000739 C16.9981923,25.6561788 15.6561049,26.9982662 14,27.0000739 Z M9,25.0000739 L14,25.0000739 C14.5520563,24.9995227 14.9994488,24.5521302 15,24.0000739 L15,21.0000739 C14.9992838,20.4480861 14.5519878,20.0007901 14,20.0000739 L9,20.0000739 C8.44801218,20.0007901 8.00071619,20.4480861 8,21.0000739 L8,24.0000739 C8.00055123,24.5521302 8.44794374,24.9995227 9,25.0000739 Z" id="Shape"></path>
                </g>
            </g>
        </g>
    </g>
</svg>