<?xml version="1.0" encoding="UTF-8"?>
<svg width="697px" height="601px" viewBox="0 0 697 601" version="1.1" xmlns="http://www.w3.org/2000/svg" xmlns:xlink="http://www.w3.org/1999/xlink">
    <title>Group</title>
    <g id="DESIGN---Form" stroke="none" stroke-width="1" fill="none" fill-rule="evenodd">
        <g id="best-pozicka.sk---Design---Pôžička-Form-Step-1." transform="translate(-1074.000000, -588.000000)" stroke="#FCC800" stroke-width="2">
            <g id="Group" transform="translate(1075.000000, 589.000000)">
                <path d="M0,71.2499781 C0,31.9631175 32.2995813,0 72,0 L72,28.9808876 C48.4483104,28.9808876 29.2859586,47.9425754 29.2859586,71.2499781 C29.2859586,71.498935 29.2902046,71.7510432 29.2933892,72 L0.00743055965,72 C0,71.7510432 0,71.498935 0,71.2499781" id="Fill-5-Copy-2"></path>
                <path d="M0,597.249978 C0,557.963118 32.2995813,526 72,526 L72,554.980888 C48.4483104,554.980888 29.2859586,573.942575 29.2859586,597.249978 C29.2859586,597.498935 29.2902046,597.751043 29.2933892,598 L0.00743055965,598 C0,597.751043 0,597.498935 0,597.249978" id="Fill-5-Copy-3"></path>
                <path d="M0,176.249978 C0,136.963118 32.2995813,105 72,105 L72,133.980888 C48.4472489,133.980888 29.2859586,152.942575 29.2859586,176.249978 C29.2859586,176.498935 29.2902046,176.751043 29.2933892,177 L0.00743055965,177 C0,176.751043 0,176.498935 0,176.249978" id="Fill-7-Copy-2"></path>
                <path d="M176,1.75002188 C176,41.0368825 143.700419,73 104,73 L104,44.0191124 C127.552751,44.0191124 146.714041,25.0574246 146.714041,1.75002188 C146.714041,1.50106504 146.709795,1.24895684 146.706611,1 L175.993631,1 C176,1.24895684 176,1.50106504 176,1.75002188" id="Fill-9-Copy-2"></path>
                <path d="M176,527.750022 C176,567.036882 143.700419,599 104,599 L104,570.019112 C127.552751,570.019112 146.714041,551.057425 146.714041,527.750022 C146.714041,527.501065 146.709795,527.248957 146.706611,527 L175.993631,527 C176,527.248957 176,527.501065 176,527.750022" id="Fill-9-Copy-3"></path>
                <path d="M176,105.750022 C176,145.036882 143.700419,177 104,177 L104,148.019112 C127.552751,148.019112 146.714041,129.057425 146.714041,105.750022 C146.714041,105.501065 146.709795,105.248957 146.706611,105 L175.993631,105 C176,105.248957 176,105.501065 176,105.750022" id="Fill-11-Copy-2"></path>
                <path d="M208,71.2499781 C208,31.9631175 240.299581,0 280,0 L280,28.9808876 C256.44831,28.9808876 237.285959,47.9425754 237.285959,71.2499781 C237.285959,71.498935 237.290205,71.7510432 237.293389,72 L208.007431,72 C208,71.7510432 208,71.498935 208,71.2499781" id="Fill-13-Copy-2"></path>
                <path d="M208,597.249978 C208,557.963118 240.299581,526 280,526 L280,554.980888 C256.44831,554.980888 237.285959,573.942575 237.285959,597.249978 C237.285959,597.498935 237.290205,597.751043 237.293389,598 L208.007431,598 C208,597.751043 208,597.498935 208,597.249978" id="Fill-13-Copy-3"></path>
                <path d="M208,176.249978 C208,136.963118 240.299581,105 280,105 L280,133.980888 C256.447249,133.980888 237.285959,152.942575 237.285959,176.249978 C237.285959,176.498935 237.290205,176.751043 237.293389,177 L208.007431,177 C208,176.751043 208,176.498935 208,176.249978" id="Fill-15-Copy-2"></path>
                <path d="M0,281.249978 C0,241.963118 32.2995813,210 72,210 L72,238.980888 C48.4483104,238.980888 29.2859586,257.942575 29.2859586,281.249978 C29.2859586,281.498935 29.2902046,281.751043 29.2933892,282 L0.00743055965,282 C0,281.751043 0,281.498935 0,281.249978" id="Fill-21-Copy-2"></path>
                <path d="M0,385.249978 C0,345.963118 32.2995813,314 72,314 L72,342.980888 C48.4472489,342.980888 29.2859586,361.942575 29.2859586,385.249978 C29.2859586,385.498935 29.2902046,385.751043 29.2933892,386 L0.00743055965,386 C0,385.751043 0,385.498935 0,385.249978" id="Fill-23-Copy-2"></path>
                <path d="M176,210.750022 C176,250.036882 143.700419,282 104,282 L104,253.019112 C127.552751,253.019112 146.714041,234.057425 146.714041,210.750022 C146.714041,210.501065 146.709795,210.248957 146.706611,210 L175.993631,210 C176,210.248957 176,210.501065 176,210.750022" id="Fill-25-Copy-2"></path>
                <path d="M176,314.750022 C176,354.036882 143.700419,386 104,386 L104,357.019112 C127.552751,357.019112 146.714041,338.057425 146.714041,314.750022 C146.714041,314.501065 146.709795,314.248957 146.706611,314 L175.993631,314 C176,314.248957 176,314.501065 176,314.750022" id="Fill-27-Copy-2"></path>
                <path d="M208,281.249978 C208,241.963118 240.299581,210 280,210 L280,238.980888 C256.44831,238.980888 237.285959,257.942575 237.285959,281.249978 C237.285959,281.498935 237.290205,281.751043 237.293389,282 L208.007431,282 C208,281.751043 208,281.498935 208,281.249978" id="Fill-29-Copy-2"></path>
                <path d="M208,385.249978 C208,345.963118 240.299581,314 280,314 L280,342.980888 C256.447249,342.980888 237.285959,361.942575 237.285959,385.249978 C237.285959,385.498935 237.290205,385.751043 237.293389,386 L208.007431,386 C208,385.751043 208,385.498935 208,385.249978" id="Fill-31-Copy-2"></path>
                <path d="M383,1.75002188 C383,41.0368825 350.700419,73 311,73 L311,44.0191124 C334.55169,44.0191124 353.714041,25.0574246 353.714041,1.75002188 C353.714041,1.50106504 353.709795,1.24895684 353.706611,1 L382.992569,1 C383,1.24895684 383,1.50106504 383,1.75002188" id="Fill-33-Copy-2"></path>
                <path d="M383,527.750022 C383,567.036882 350.700419,599 311,599 L311,570.019112 C334.55169,570.019112 353.714041,551.057425 353.714041,527.750022 C353.714041,527.501065 353.709795,527.248957 353.706611,527 L382.992569,527 C383,527.248957 383,527.501065 383,527.750022" id="Fill-33-Copy-3"></path>
                <path d="M383,105.750022 C383,145.036882 350.700419,177 311,177 L311,148.019112 C334.55169,148.019112 353.714041,129.057425 353.714041,105.750022 C353.714041,105.501065 353.709795,105.248957 353.706611,105 L382.992569,105 C383,105.248957 383,105.501065 383,105.750022" id="Fill-35-Copy-2"></path>
                <path d="M415,71.2499781 C415,31.9631175 447.299581,0 487,0 L487,28.9808876 C463.44831,28.9808876 444.285959,47.9425754 444.285959,71.2499781 C444.285959,71.498935 444.290205,71.7510432 444.293389,72 L415.007431,72 C415,71.7510432 415,71.498935 415,71.2499781" id="Fill-37-Copy-2"></path>
                <path d="M415,597.249978 C415,557.963118 447.299581,526 487,526 L487,554.980888 C463.44831,554.980888 444.285959,573.942575 444.285959,597.249978 C444.285959,597.498935 444.290205,597.751043 444.293389,598 L415.007431,598 C415,597.751043 415,597.498935 415,597.249978" id="Fill-37-Copy-3"></path>
                <path d="M415,176.249978 C415,136.963118 447.299581,105 487,105 L487,133.980888 C463.44831,133.980888 444.285959,152.942575 444.285959,176.249978 C444.285959,176.498935 444.290205,176.751043 444.293389,177 L415.007431,177 C415,176.751043 415,176.498935 415,176.249978" id="Fill-39-Copy-2"></path>
                <path d="M591,1.75002188 C591,41.0368825 558.700419,73 519,73 L519,44.0191124 C542.552751,44.0191124 561.714041,25.0574246 561.714041,1.75002188 C561.714041,1.50106504 561.709795,1.24895684 561.706611,1 L590.993631,1 C591,1.24895684 591,1.50106504 591,1.75002188" id="Fill-41-Copy-2"></path>
                <path d="M591,527.750022 C591,567.036882 558.700419,599 519,599 L519,570.019112 C542.552751,570.019112 561.714041,551.057425 561.714041,527.750022 C561.714041,527.501065 561.709795,527.248957 561.706611,527 L590.993631,527 C591,527.248957 591,527.501065 591,527.750022" id="Fill-41-Copy-3"></path>
                <path d="M591,105.750022 C591,145.036882 558.700419,177 519,177 L519,148.019112 C542.552751,148.019112 561.714041,129.057425 561.714041,105.750022 C561.714041,105.501065 561.709795,105.248957 561.706611,105 L590.993631,105 C591,105.248957 591,105.501065 591,105.750022" id="Fill-43-Copy-2"></path>
                <path d="M623,71.2499781 C623,31.9631175 655.299581,0 695,0 L695,28.9808876 C671.44831,28.9808876 652.285959,47.9425754 652.285959,71.2499781 C652.285959,71.498935 652.290205,71.7510432 652.293389,72 L623.007431,72 C623,71.7510432 623,71.498935 623,71.2499781" id="Fill-45-Copy-2"></path>
                <path d="M623,597.249978 C623,557.963118 655.299581,526 695,526 L695,554.980888 C671.44831,554.980888 652.285959,573.942575 652.285959,597.249978 C652.285959,597.498935 652.290205,597.751043 652.293389,598 L623.007431,598 C623,597.751043 623,597.498935 623,597.249978" id="Fill-45-Copy-3"></path>
                <path d="M623,176.249978 C623,136.963118 655.299581,105 695,105 L695,133.980888 C671.447249,133.980888 652.285959,152.942575 652.285959,176.249978 C652.285959,176.498935 652.290205,176.751043 652.293389,177 L623.006369,177 C623,176.751043 623,176.498935 623,176.249978" id="Fill-47-Copy-2"></path>
                <path d="M383,210.750022 C383,250.036882 350.700419,282 311,282 L311,253.019112 C334.55169,253.019112 353.714041,234.057425 353.714041,210.750022 C353.714041,210.501065 353.709795,210.248957 353.706611,210 L382.992569,210 C383,210.248957 383,210.501065 383,210.750022" id="Fill-49-Copy-2"></path>
                <path d="M383,314.750022 C383,354.036882 350.700419,386 311,386 L311,357.019112 C334.55169,357.019112 353.714041,338.057425 353.714041,314.750022 C353.714041,314.501065 353.709795,314.248957 353.706611,314 L382.992569,314 C383,314.248957 383,314.501065 383,314.750022" id="Fill-51-Copy-2"></path>
                <path d="M415,281.249978 C415,241.963118 447.299581,210 487,210 L487,238.980888 C463.44831,238.980888 444.285959,257.942575 444.285959,281.249978 C444.285959,281.498935 444.290205,281.751043 444.293389,282 L415.007431,282 C415,281.751043 415,281.498935 415,281.249978" id="Fill-53-Copy-2"></path>
                <path d="M415,385.249978 C415,345.963118 447.299581,314 487,314 L487,342.980888 C463.44831,342.980888 444.285959,361.942575 444.285959,385.249978 C444.285959,385.498935 444.290205,385.751043 444.293389,386 L415.007431,386 C415,385.751043 415,385.498935 415,385.249978" id="Fill-55-Copy-2"></path>
                <path d="M591,210.750022 C591,250.036882 558.700419,282 519,282 L519,253.019112 C542.552751,253.019112 561.714041,234.057425 561.714041,210.750022 C561.714041,210.501065 561.709795,210.248957 561.706611,210 L590.993631,210 C591,210.248957 591,210.501065 591,210.750022" id="Fill-57-Copy-2"></path>
                <path d="M591,314.750022 C591,354.036882 558.700419,386 519,386 L519,357.019112 C542.552751,357.019112 561.714041,338.057425 561.714041,314.750022 C561.714041,314.501065 561.709795,314.248957 561.706611,314 L590.993631,314 C591,314.248957 591,314.501065 591,314.750022" id="Fill-59-Copy-2"></path>
                <path d="M623,281.249978 C623,241.963118 655.299581,210 695,210 L695,238.980888 C671.44831,238.980888 652.285959,257.942575 652.285959,281.249978 C652.285959,281.498935 652.290205,281.751043 652.293389,282 L623.007431,282 C623,281.751043 623,281.498935 623,281.249978" id="Fill-61-Copy-2"></path>
                <path d="M623,385.249978 C623,345.963118 655.299581,314 695,314 L695,342.980888 C671.447249,342.980888 652.285959,361.942575 652.285959,385.249978 C652.285959,385.498935 652.290205,385.751043 652.293389,386 L623.006369,386 C623,385.751043 623,385.498935 623,385.249978" id="Fill-63-Copy-2"></path>
                <path d="M0,490.249978 C0,450.963118 32.2995813,419 72,419 L72,447.980888 C48.4483104,447.980888 29.2859586,466.942575 29.2859586,490.249978 C29.2859586,490.498935 29.2902046,490.751043 29.2933892,491 L0.00743055965,491 C0,490.751043 0,490.498935 0,490.249978" id="Fill-69-Copy-2"></path>
                <path d="M176,420.750022 C176,460.036882 143.700419,492 104,492 L104,463.019112 C127.552751,463.019112 146.714041,444.057425 146.714041,420.750022 C146.714041,420.501065 146.709795,420.248957 146.706611,420 L175.993631,420 C176,420.248957 176,420.501065 176,420.750022" id="Fill-73-Copy-2"></path>
                <path d="M208,490.249978 C208,450.963118 240.299581,419 280,419 L280,447.980888 C256.44831,447.980888 237.285959,466.942575 237.285959,490.249978 C237.285959,490.498935 237.290205,490.751043 237.293389,491 L208.007431,491 C208,490.751043 208,490.498935 208,490.249978" id="Fill-77-Copy-2"></path>
                <path d="M383,420.750022 C383,460.036882 350.700419,492 311,492 L311,463.019112 C334.55169,463.019112 353.714041,444.057425 353.714041,420.750022 C353.714041,420.501065 353.709795,420.248957 353.706611,420 L382.992569,420 C383,420.248957 383,420.501065 383,420.750022" id="Fill-99-Copy-2"></path>
                <path d="M415,490.249978 C415,450.963118 447.299581,419 487,419 L487,447.980888 C463.44831,447.980888 444.285959,466.942575 444.285959,490.249978 C444.285959,490.498935 444.290205,490.751043 444.293389,491 L415.007431,491 C415,490.751043 415,490.498935 415,490.249978" id="Fill-103-Copy-2"></path>
                <path d="M591,420.750022 C591,460.036882 558.700419,492 519,492 L519,463.019112 C542.552751,463.019112 561.714041,444.057425 561.714041,420.750022 C561.714041,420.501065 561.709795,420.248957 561.706611,420 L590.993631,420 C591,420.248957 591,420.501065 591,420.750022" id="Fill-107-Copy-2"></path>
                <path d="M623,490.249978 C623,450.963118 655.299581,419 695,419 L695,447.980888 C671.44831,447.980888 652.285959,466.942575 652.285959,490.249978 C652.285959,490.498935 652.290205,490.751043 652.293389,491 L623.007431,491 C623,490.751043 623,490.498935 623,490.249978" id="Fill-111-Copy-2"></path>
            </g>
        </g>
    </g>
</svg>