<?xml version="1.0" encoding="UTF-8"?>
<svg width="169px" height="663px" viewBox="0 0 169 663" version="1.1" xmlns="http://www.w3.org/2000/svg" xmlns:xlink="http://www.w3.org/1999/xlink">
    <title>Group 48 Copy 2</title>
    <g id="COMPONENTS" stroke="none" stroke-width="1" fill="none" fill-rule="evenodd">
        <g id="SECTIONS/-Desktop/-Kontaktujte-nas-Contract-Page" transform="translate(19.000000, -90.000000)" stroke="#ED4036" stroke-width="2">
            <g id="Group-48-Copy-2" transform="translate(-17.343800, 91.000000)">
                <path d="M67.828,1.3406 C67.828,38.7406 37.4,69.1686 0,69.1686 L0,41.5796 C22.188,41.5796 40.239,23.5286 40.239,1.3406 C40.239,1.1036 40.235,0.8636 40.232,0.6266 L67.822,0.6266 C67.828,0.8636 67.828,1.1036 67.828,1.3406" id="Fill-41"></path>
                <path d="M67.828,99.2555 C67.828,136.6555 37.4,167.0835 0,167.0835 L0,139.4945 C22.188,139.4945 40.239,121.4435 40.239,99.2555 C40.239,99.0185 40.235,98.7785 40.232,98.5415 L67.822,98.5415 C67.828,98.7785 67.828,99.0185 67.828,99.2555" id="Fill-43"></path>
                <path d="M97.828,67.828 C97.828,30.428 128.256,0 165.656,0 L165.656,27.589 C143.469,27.589 125.417,45.64 125.417,67.828 C125.417,68.065 125.421,68.305 125.424,68.542 L97.835,68.542 C97.828,68.305 97.828,68.065 97.828,67.828" id="Fill-45"></path>
                <path d="M97.828,166.3699 C97.828,128.9699 128.256,98.5419 165.656,98.5419 L165.656,126.1309 C143.468,126.1309 125.417,144.1819 125.417,166.3699 C125.417,166.6069 125.421,166.8469 125.424,167.0839 L97.834,167.0839 C97.828,166.8469 97.828,166.6069 97.828,166.3699" id="Fill-47"></path>
                <path d="M67.828,198.4243 C67.828,235.8243 37.4,266.2523 0,266.2523 L0,238.6633 C22.188,238.6633 40.239,220.6123 40.239,198.4243 C40.239,198.1873 40.235,197.9473 40.232,197.7103 L67.822,197.7103 C67.828,197.9473 67.828,198.1873 67.828,198.4243" id="Fill-57"></path>
                <path d="M67.828,296.3393 C67.828,333.7393 37.4,364.1673 0,364.1673 L0,336.5783 C22.188,336.5783 40.239,318.5273 40.239,296.3393 C40.239,296.1023 40.235,295.8623 40.232,295.6253 L67.822,295.6253 C67.828,295.8623 67.828,296.1023 67.828,296.3393" id="Fill-59"></path>
                <path d="M97.828,264.9117 C97.828,227.5117 128.256,197.0837 165.656,197.0837 L165.656,224.6727 C143.469,224.6727 125.417,242.7237 125.417,264.9117 C125.417,265.1487 125.421,265.3887 125.424,265.6257 L97.835,265.6257 C97.828,265.3887 97.828,265.1487 97.828,264.9117" id="Fill-61"></path>
                <path d="M97.828,363.4536 C97.828,326.0536 128.256,295.6256 165.656,295.6256 L165.656,323.2146 C143.468,323.2146 125.417,341.2656 125.417,363.4536 C125.417,363.6906 125.421,363.9306 125.424,364.1676 L97.834,364.1676 C97.828,363.9306 97.828,363.6906 97.828,363.4536" id="Fill-63"></path>
                <path d="M67.828,395.508 C67.828,432.908 37.4,463.336 0,463.336 L0,435.747 C22.188,435.747 40.239,417.696 40.239,395.508 C40.239,395.271 40.235,395.031 40.232,394.794 L67.822,394.794 C67.828,395.031 67.828,395.271 67.828,395.508" id="Fill-107"></path>
                <path d="M67.828,493.423 C67.828,530.823 37.4,561.251 0,561.251 L0,533.662 C22.188,533.662 40.239,515.611 40.239,493.423 C40.239,493.186 40.235,492.946 40.232,492.709 L67.822,492.709 C67.828,492.946 67.828,493.186 67.828,493.423" id="Fill-109"></path>
                <path d="M97.828,461.9954 C97.828,424.5954 128.256,394.1674 165.656,394.1674 L165.656,421.7564 C143.469,421.7564 125.417,439.8074 125.417,461.9954 C125.417,462.2324 125.421,462.4724 125.424,462.7094 L97.835,462.7094 C97.828,462.4724 97.828,462.2324 97.828,461.9954" id="Fill-111"></path>
                <path d="M97.828,560.5373 C97.828,523.1373 128.256,492.7093 165.656,492.7093 L165.656,520.2983 C143.468,520.2983 125.417,538.3493 125.417,560.5373 C125.417,560.7743 125.421,561.0143 125.424,561.2513 L97.834,561.2513 C97.828,561.0143 97.828,560.7743 97.828,560.5373" id="Fill-113"></path>
                <path d="M67.828,592.5917 C67.828,629.9917 37.4,660.4197 0,660.4197 L0,632.8307 C22.188,632.8307 40.239,614.7797 40.239,592.5917 C40.239,592.3547 40.235,592.1147 40.232,591.8777 L67.822,591.8777 C67.828,592.1147 67.828,592.3547 67.828,592.5917" id="Fill-124"></path>
                <path d="M97.828,659.6211 C97.828,622.2211 128.256,591.7931 165.656,591.7931 L165.656,619.3821 C143.468,619.3821 125.417,637.4331 125.417,659.6211 C125.417,659.8581 125.421,660.0981 125.424,660.3351 L97.834,660.3351 C97.828,660.0981 97.828,659.8581 97.828,659.6211" id="Fill-130-Copy-3"></path>
            </g>
        </g>
    </g>
</svg>