<?xml version="1.0" encoding="UTF-8"?>
<svg width="369px" height="58px" viewBox="0 0 369 58" version="1.1" xmlns="http://www.w3.org/2000/svg" xmlns:xlink="http://www.w3.org/1999/xlink">
    <title>Group</title>
    <g id="DESIGN---Web" stroke="none" stroke-width="1" fill="none" fill-rule="evenodd" opacity="0.203915551">
        <g id="best-pozicka.sk---Mobile-Design---Kontakt" transform="translate(-15.000000, -827.000000)" stroke="#223146" stroke-width="2">
            <g id="Group" transform="translate(16.000000, 828.558277)">
                <path d="M54.0731655,0.569208 C54.0731655,30.3848651 29.8156571,54.6423735 0,54.6423735 L0,32.6481446 C17.6884973,32.6481446 32.0789366,18.2577053 32.0789366,0.569208 C32.0789366,0.38026921 32.0757477,0.18893879 32.0733561,0 L54.0675851,0 C54.0731655,0.18893879 54.0731655,0.38026921 54.0731655,0.569208" id="Fill-3"></path>
                <path d="M77.9894681,54.0734844 C77.9894681,24.2578273 102.246976,0.000318884033 132.062634,0.000318884033 L132.062634,21.9945479 C114.374136,21.9945479 99.9836971,36.3849871 99.9836971,54.0734844 C99.9836971,54.2624232 99.9868859,54.4537536 99.9892775,54.6426924 L77.9950485,54.6426924 C77.9894681,54.4537536 77.9894681,54.2624232 77.9894681,54.0734844" id="Fill-7"></path>
                <path d="M210.052261,0.569208 C210.052261,30.3848651 185.794753,54.6423735 155.979096,54.6423735 L155.979096,32.6481446 C173.667593,32.6481446 188.058032,18.2577053 188.058032,0.569208 C188.058032,0.38026921 188.054843,0.18893879 188.052452,0 L210.047478,0 C210.052261,0.18893879 210.052261,0.38026921 210.052261,0.569208" id="Fill-11"></path>
                <path d="M233.968564,54.0734844 C233.968564,24.2578273 258.226072,0.000318884033 288.041729,0.000318884033 L288.041729,21.9945479 C270.353232,21.9945479 255.962793,36.3849871 255.962793,54.0734844 C255.962793,54.2624232 255.965981,54.4537536 255.968373,54.6426924 L233.974144,54.6426924 C233.968564,54.4537536 233.968564,54.2624232 233.968564,54.0734844" id="Fill-15"></path>
                <path d="M366.031436,0.569208 C366.031436,30.3848651 341.773928,54.6423735 311.958271,54.6423735 L311.958271,32.6481446 C329.645971,32.6481446 344.037207,18.2577053 344.037207,0.569208 C344.037207,0.38026921 344.034019,0.18893879 344.031627,0 L366.025856,0 C366.031436,0.18893879 366.031436,0.38026921 366.031436,0.569208" id="Fill-35"></path>
            </g>
        </g>
    </g>
</svg>