<?xml version="1.0" encoding="UTF-8"?>
<svg width="369px" height="58px" viewBox="0 0 369 58" version="1.1" xmlns="http://www.w3.org/2000/svg" xmlns:xlink="http://www.w3.org/1999/xlink">
    <title>Group 2</title>
    <g id="DESIGN---Web" stroke="none" stroke-width="1" fill="none" fill-rule="evenodd">
        <g id="best-pozicka.sk---Mobile-Design---Kontakt" transform="translate(-23.000000, -688.000000)" stroke="#FCC800" stroke-width="2">
            <g id="Group-2" transform="translate(24.000000, 689.000000)">
                <path d="M54.0731655,1.06873984 C54.0731655,30.884397 29.8156571,55.1419054 0,55.1419054 L0,33.1476764 C17.6884973,33.1476764 32.0789366,18.7572372 32.0789366,1.06873984 C32.0789366,0.879801048 32.0757477,0.688470628 32.0733561,0.499531838 L54.0683823,0.499531838 C54.0731655,0.688470628 54.0731655,0.879801048 54.0731655,1.06873984" id="Fill-1"></path>
                <path d="M77.9894681,54.0731655 C77.9894681,24.2575084 102.246976,0 132.062634,0 L132.062634,21.994229 C114.374933,21.994229 99.9836971,36.3846682 99.9836971,54.0731655 C99.9836971,54.2621043 99.9868859,54.4534348 99.9892775,54.6423735 L77.9950485,54.6423735 C77.9894681,54.4534348 77.9894681,54.2621043 77.9894681,54.0731655" id="Fill-5"></path>
                <path d="M210.052261,1.06873984 C210.052261,30.884397 185.794753,55.1419054 155.979096,55.1419054 L155.979096,33.1476764 C173.667593,33.1476764 188.058032,18.7572372 188.058032,1.06873984 C188.058032,0.879801048 188.054843,0.688470628 188.052452,0.499531838 L210.047478,0.499531838 C210.052261,0.688470628 210.052261,0.879801048 210.052261,1.06873984" id="Fill-9"></path>
                <path d="M233.968564,54.0731655 C233.968564,24.2575084 258.226072,0 288.041729,0 L288.041729,21.994229 C270.354029,21.994229 255.962793,36.3846682 255.962793,54.0731655 C255.962793,54.2621043 255.965981,54.4534348 255.968373,54.6423735 L233.974144,54.6423735 C233.968564,54.4534348 233.968564,54.2621043 233.968564,54.0731655" id="Fill-13"></path>
                <path d="M366.031436,1.06873984 C366.031436,30.884397 341.773928,55.1419054 311.958271,55.1419054 L311.958271,33.1476764 C329.645971,33.1476764 344.037207,18.7572372 344.037207,1.06873984 C344.037207,0.879801048 344.034019,0.688470628 344.031627,0.499531838 L366.025856,0.499531838 C366.031436,0.688470628 366.031436,0.879801048 366.031436,1.06873984" id="Fill-33"></path>
            </g>
        </g>
    </g>
</svg>