<?xml version="1.0" encoding="UTF-8"?>
<svg width="451px" height="714px" viewBox="0 0 451 714" version="1.1" xmlns="http://www.w3.org/2000/svg" xmlns:xlink="http://www.w3.org/1999/xlink">
    <title>Group</title>
    <g id="COMPONENTS" stroke="none" stroke-width="1" fill="none" fill-rule="evenodd">
        <g id="SECTIONS/-Mobile/-Personal-Centrala" transform="translate(1.000000, -259.000000)" stroke="#ED4036" stroke-width="2">
            <g id="Group" transform="translate(0.000000, 260.000000)">
                <path d="M448.5,0.0937673251 C448.5,31.1958653 423.378103,56.5 392.5,56.5 L392.5,33.5567973 C410.818806,33.5567973 425.722032,18.5454612 425.722032,0.0937673251 C425.722032,-0.10332351 425.71873,-0.302909165 425.716253,-0.5 L448.495046,-0.5 C448.5,-0.302909165 448.5,-0.10332351 448.5,0.0937673251" id="Fill-90-Copy-3" transform="translate(420.500000, 28.000000) scale(1, -1) rotate(-270.000000) translate(-420.500000, -28.000000) "></path>
                <path d="M56.5,0.0937673251 C56.5,31.1958653 31.3781034,56.5 0.5,56.5 L0.5,33.5567973 C18.8188064,33.5567973 33.7220322,18.5454612 33.7220322,0.0937673251 C33.7220322,-0.10332351 33.7187297,-0.302909165 33.7162529,-0.5 L56.4950463,-0.5 C56.5,-0.302909165 56.5,-0.10332351 56.5,0.0937673251" id="Fill-90-Copy-4" transform="translate(28.500000, 28.000000) scale(1, -1) rotate(-270.000000) translate(-28.500000, -28.000000) "></path>
                <path d="M392.5,137.906233 C392.5,106.804135 417.621897,81.5 448.5,81.5 L448.5,104.443203 C430.182019,104.443203 415.277968,119.454539 415.277968,137.906233 C415.277968,138.103324 415.28127,138.302909 415.283747,138.5 L392.505779,138.5 C392.5,138.302909 392.5,138.103324 392.5,137.906233" id="Fill-94-Copy-3" transform="translate(420.500000, 110.000000) scale(1, -1) rotate(-270.000000) translate(-420.500000, -110.000000) "></path>
                <path d="M0.5,137.906233 C0.5,106.804135 25.6218966,81.5 56.5,81.5 L56.5,104.443203 C38.1820192,104.443203 23.2779678,119.454539 23.2779678,137.906233 C23.2779678,138.103324 23.2812703,138.302909 23.2837471,138.5 L0.505779324,138.5 C0.5,138.302909 0.5,138.103324 0.5,137.906233" id="Fill-94-Copy-4" transform="translate(28.500000, 110.000000) scale(1, -1) rotate(-270.000000) translate(-28.500000, -110.000000) "></path>
                <path d="M392.5,547.906233 C392.5,516.804135 417.621897,491.5 448.5,491.5 L448.5,514.443203 C430.182019,514.443203 415.277968,529.454539 415.277968,547.906233 C415.277968,548.103324 415.28127,548.302909 415.283747,548.5 L392.505779,548.5 C392.5,548.302909 392.5,548.103324 392.5,547.906233" id="Fill-94-Copy-6" transform="translate(420.500000, 520.000000) scale(1, -1) rotate(-270.000000) translate(-420.500000, -520.000000) "></path>
                <path d="M0.5,547.906233 C0.5,516.804135 25.6218966,491.5 56.5,491.5 L56.5,514.443203 C38.1820192,514.443203 23.2779678,529.454539 23.2779678,547.906233 C23.2779678,548.103324 23.2812703,548.302909 23.2837471,548.5 L0.505779324,548.5 C0.5,548.302909 0.5,548.103324 0.5,547.906233" id="Fill-94-Copy-7" transform="translate(28.500000, 520.000000) scale(1, -1) rotate(-270.000000) translate(-28.500000, -520.000000) "></path>
                <path d="M448.5,164.093767 C448.5,195.195865 423.378103,220.5 392.5,220.5 L392.5,197.556797 C410.817981,197.556797 425.722032,182.545461 425.722032,164.093767 C425.722032,163.896676 425.71873,163.697091 425.716253,163.5 L448.494221,163.5 C448.5,163.697091 448.5,163.896676 448.5,164.093767" id="Fill-115-Copy-3" transform="translate(420.500000, 192.000000) scale(1, -1) rotate(-270.000000) translate(-420.500000, -192.000000) "></path>
                <path d="M56.5,164.093767 C56.5,195.195865 31.3781034,220.5 0.5,220.5 L0.5,197.556797 C18.8179808,197.556797 33.7220322,182.545461 33.7220322,164.093767 C33.7220322,163.896676 33.7187297,163.697091 33.7162529,163.5 L56.4942207,163.5 C56.5,163.697091 56.5,163.896676 56.5,164.093767" id="Fill-115-Copy-4" transform="translate(28.500000, 192.000000) scale(1, -1) rotate(-270.000000) translate(-28.500000, -192.000000) "></path>
                <path d="M448.5,574.093767 C448.5,605.195865 423.378103,630.5 392.5,630.5 L392.5,607.556797 C410.817981,607.556797 425.722032,592.545461 425.722032,574.093767 C425.722032,573.896676 425.71873,573.697091 425.716253,573.5 L448.494221,573.5 C448.5,573.697091 448.5,573.896676 448.5,574.093767" id="Fill-115-Copy-7" transform="translate(420.500000, 602.000000) scale(1, -1) rotate(-270.000000) translate(-420.500000, -602.000000) "></path>
                <path d="M56.5,574.093767 C56.5,605.195865 31.3781034,630.5 0.5,630.5 L0.5,607.556797 C18.8179808,607.556797 33.7220322,592.545461 33.7220322,574.093767 C33.7220322,573.896676 33.7187297,573.697091 33.7162529,573.5 L56.4942207,573.5 C56.5,573.697091 56.5,573.896676 56.5,574.093767" id="Fill-115-Copy-8" transform="translate(28.500000, 602.000000) scale(1, -1) rotate(-270.000000) translate(-28.500000, -602.000000) "></path>
                <path d="M392.5,301.906233 C392.5,270.804135 417.621897,245.5 448.5,245.5 L448.5,268.443203 C430.182019,268.443203 415.277968,283.454539 415.277968,301.906233 C415.277968,302.103324 415.28127,302.302909 415.283747,302.5 L392.505779,302.5 C392.5,302.302909 392.5,302.103324 392.5,301.906233" id="Fill-119-Copy-3" transform="translate(420.500000, 274.000000) scale(1, -1) rotate(-270.000000) translate(-420.500000, -274.000000) "></path>
                <path d="M0.5,301.906233 C0.5,270.804135 25.6218966,245.5 56.5,245.5 L56.5,268.443203 C38.1820192,268.443203 23.2779678,283.454539 23.2779678,301.906233 C23.2779678,302.103324 23.2812703,302.302909 23.2837471,302.5 L0.505779324,302.5 C0.5,302.302909 0.5,302.103324 0.5,301.906233" id="Fill-119-Copy-4" transform="translate(28.500000, 274.000000) scale(1, -1) rotate(-270.000000) translate(-28.500000, -274.000000) "></path>
                <path d="M392.5,711.906233 C392.5,680.804135 417.621897,655.5 448.5,655.5 L448.5,678.443203 C430.182019,678.443203 415.277968,693.454539 415.277968,711.906233 C415.277968,712.103324 415.28127,712.302909 415.283747,712.5 L392.505779,712.5 C392.5,712.302909 392.5,712.103324 392.5,711.906233" id="Fill-119-Copy-7" transform="translate(420.500000, 684.000000) scale(1, -1) rotate(-270.000000) translate(-420.500000, -684.000000) "></path>
                <path d="M0.5,711.906233 C0.5,680.804135 25.6218966,655.5 56.5,655.5 L56.5,678.443203 C38.1820192,678.443203 23.2779678,693.454539 23.2779678,711.906233 C23.2779678,712.103324 23.2812703,712.302909 23.2837471,712.5 L0.505779324,712.5 C0.5,712.302909 0.5,712.103324 0.5,711.906233" id="Fill-119-Copy-8" transform="translate(28.500000, 684.000000) scale(1, -1) rotate(-270.000000) translate(-28.500000, -684.000000) "></path>
                <path d="M448.5,328.093767 C448.5,359.195865 423.378103,384.5 392.5,384.5 L392.5,361.556797 C410.818806,361.556797 425.722032,346.545461 425.722032,328.093767 C425.722032,327.896676 425.71873,327.697091 425.716253,327.5 L448.495046,327.5 C448.5,327.697091 448.5,327.896676 448.5,328.093767" id="Fill-124-Copy-3" transform="translate(420.500000, 356.000000) scale(1, -1) rotate(-270.000000) translate(-420.500000, -356.000000) "></path>
                <path d="M56.5,328.093767 C56.5,359.195865 31.3781034,384.5 0.5,384.5 L0.5,361.556797 C18.8188064,361.556797 33.7220322,346.545461 33.7220322,328.093767 C33.7220322,327.896676 33.7187297,327.697091 33.7162529,327.5 L56.4950463,327.5 C56.5,327.697091 56.5,327.896676 56.5,328.093767" id="Fill-124-Copy-4" transform="translate(28.500000, 356.000000) scale(1, -1) rotate(-270.000000) translate(-28.500000, -356.000000) "></path>
                <path d="M392.5,465.906233 C392.5,434.804135 417.621897,409.5 448.5,409.5 L448.5,432.443203 C430.181194,432.443203 415.277968,447.454539 415.277968,465.906233 C415.277968,466.103324 415.28127,466.302909 415.283747,466.5 L392.504954,466.5 C392.5,466.302909 392.5,466.103324 392.5,465.906233" id="Fill-130-Copy-5" transform="translate(420.500000, 438.000000) scale(1, -1) rotate(-270.000000) translate(-420.500000, -438.000000) "></path>
                <path d="M0.5,465.906233 C0.5,434.804135 25.6218966,409.5 56.5,409.5 L56.5,432.443203 C38.1811936,432.443203 23.2779678,447.454539 23.2779678,465.906233 C23.2779678,466.103324 23.2812703,466.302909 23.2837471,466.5 L0.504953706,466.5 C0.5,466.302909 0.5,466.103324 0.5,465.906233" id="Fill-130-Copy-6" transform="translate(28.500000, 438.000000) scale(1, -1) rotate(-270.000000) translate(-28.500000, -438.000000) "></path>
            </g>
        </g>
    </g>
</svg>