<?xml version="1.0" encoding="UTF-8"?>
<svg width="370px" height="57px" viewBox="0 0 370 57" version="1.1" xmlns="http://www.w3.org/2000/svg" xmlns:xlink="http://www.w3.org/1999/xlink">
    <title>Group 2</title>
    <g id="COMPONENTS" stroke="none" stroke-width="1" fill="none" fill-rule="evenodd">
        <g id="SECTIONS/-Mobile/-Centrala-Gallery" transform="translate(-22.000000, 1.000000)" stroke="#ED4036" stroke-width="2">
            <g id="Group-2" transform="translate(23.979096, -0.000000)">
                <path d="M78.0103725,54.0734844 C78.0103725,24.2578273 102.267881,0.000318884031 132.083538,0.000318884031 L132.083538,21.9945479 C114.395041,21.9945479 100.004601,36.3849871 100.004601,54.0734844 C100.004601,54.2624232 100.00779,54.4537536 100.010182,54.6426924 L78.015953,54.6426924 C78.0103725,54.4537536 78.0103725,54.2624232 78.0103725,54.0734844" id="Fill-7"></path>
                <path d="M210.073166,0.569208 C210.073166,30.3848651 185.815657,54.6423735 156,54.6423735 L156,32.6481446 C173.688497,32.6481446 188.078937,18.2577053 188.078937,0.569208 C188.078937,0.38026921 188.075748,0.18893879 188.073356,0 L210.068382,0 C210.073166,0.18893879 210.073166,0.38026921 210.073166,0.569208" id="Fill-11"></path>
                <path d="M366.073166,0.569208 C366.073166,30.3848651 341.815657,54.6423735 312,54.6423735 L312,32.6481446 C329.688497,32.6481446 344.078937,18.2577053 344.078937,0.569208 C344.078937,0.38026921 344.075748,0.18893879 344.073356,0 L366.068382,0 C366.073166,0.18893879 366.073166,0.38026921 366.073166,0.569208" id="Fill-11-Copy-6"></path>
                <path d="M54.0731655,0.569208 C54.0731655,30.3848651 29.8156571,54.6423735 0,54.6423735 L0,32.6481446 C17.6884973,32.6481446 32.0789366,18.2577053 32.0789366,0.569208 C32.0789366,0.38026921 32.0757477,0.18893879 32.0733561,0 L54.0683823,0 C54.0731655,0.18893879 54.0731655,0.38026921 54.0731655,0.569208" id="Fill-11-Copy-7"></path>
                <path d="M233.989468,54.0734844 C233.989468,24.2578273 258.246976,0.000318884031 288.062634,0.000318884031 L288.062634,21.9945479 C270.374136,21.9945479 255.983697,36.3849871 255.983697,54.0734844 C255.983697,54.2624232 255.986886,54.4537536 255.989278,54.6426924 L233.995049,54.6426924 C233.989468,54.4537536 233.989468,54.2624232 233.989468,54.0734844" id="Fill-15"></path>
            </g>
        </g>
    </g>
</svg>