<?xml version="1.0" encoding="UTF-8"?>
<svg width="452px" height="550px" viewBox="0 0 452 550" version="1.1" xmlns="http://www.w3.org/2000/svg" xmlns:xlink="http://www.w3.org/1999/xlink">
    <title>Group 5</title>
    <g id="COMPONENTS" stroke="none" stroke-width="1" fill="none" fill-rule="evenodd" opacity="0.198846726">
        <g id="SECTIONS/-Mobile/-Kontaktujte-nas-Centrala" transform="translate(1.000000, 1.000000)" stroke="#223146" stroke-width="2">
            <g id="Group-5">
                <path d="M139.5,0.0937673251 C139.5,31.1958653 114.378103,56.5 83.5,56.5 L83.5,33.5567973 C101.818806,33.5567973 116.722032,18.5454612 116.722032,0.0937673251 C116.722032,-0.10332351 116.71873,-0.302909165 116.716253,-0.5 L139.495046,-0.5 C139.5,-0.302909165 139.5,-0.10332351 139.5,0.0937673251" id="Fill-81-Copy-3" transform="translate(111.500000, 28.000000) rotate(-270.000000) translate(-111.500000, -28.000000) "></path>
                <path d="M252.5,0.0937673251 C252.5,31.1958653 227.378103,56.5 196.5,56.5 L196.5,33.5567973 C214.818806,33.5567973 229.722032,18.5454612 229.722032,0.0937673251 C229.722032,-0.10332351 229.71873,-0.302909165 229.716253,-0.5 L252.495046,-0.5 C252.5,-0.302909165 252.5,-0.10332351 252.5,0.0937673251" id="Fill-81-Copy-4" transform="translate(224.500000, 28.000000) rotate(-270.000000) translate(-224.500000, -28.000000) "></path>
                <path d="M56.5,0.0937673251 C56.5,31.1958653 31.3781034,56.5 0.5,56.5 L0.5,33.5567973 C18.8188064,33.5567973 33.7220322,18.5454612 33.7220322,0.0937673251 C33.7220322,-0.10332351 33.7187297,-0.302909165 33.7162529,-0.5 L56.4942207,-0.5 C56.5,-0.302909165 56.5,-0.10332351 56.5,0.0937673251" id="Fill-83-Copy-3" transform="translate(28.500000, 28.000000) rotate(-270.000000) translate(-28.500000, -28.000000) "></path>
                <path d="M83.5,137.906233 C83.5,106.804135 108.621897,81.5 139.5,81.5 L139.5,104.443203 C121.182019,104.443203 106.277968,119.454539 106.277968,137.906233 C106.277968,138.103324 106.28127,138.302909 106.283747,138.5 L83.5057793,138.5 C83.5,138.302909 83.5,138.103324 83.5,137.906233" id="Fill-85-Copy-3" transform="translate(111.500000, 110.000000) rotate(-270.000000) translate(-111.500000, -110.000000) "></path>
                <path d="M0.5,137.906233 C0.5,106.804135 25.6218966,81.5 56.5,81.5 L56.5,104.443203 C38.1811936,104.443203 23.2779678,119.454539 23.2779678,137.906233 C23.2779678,138.103324 23.2812703,138.302909 23.2837471,138.5 L0.505779324,138.5 C0.5,138.302909 0.5,138.103324 0.5,137.906233" id="Fill-87-Copy-3" transform="translate(28.500000, 110.000000) rotate(-270.000000) translate(-28.500000, -110.000000) "></path>
                <path d="M139.5,164.093767 C139.5,195.195865 114.378103,220.5 83.5,220.5 L83.5,197.556797 C101.818806,197.556797 116.722032,182.545461 116.722032,164.093767 C116.722032,163.896676 116.71873,163.697091 116.716253,163.5 L139.495046,163.5 C139.5,163.697091 139.5,163.896676 139.5,164.093767" id="Fill-90-Copy-3" transform="translate(111.500000, 192.000000) rotate(-270.000000) translate(-111.500000, -192.000000) "></path>
                <path d="M56.5,164.093767 C56.5,195.195865 31.3781034,220.5 0.5,220.5 L0.5,197.556797 C18.8188064,197.556797 33.7220322,182.545461 33.7220322,164.093767 C33.7220322,163.896676 33.7187297,163.697091 33.7162529,163.5 L56.4950463,163.5 C56.5,163.697091 56.5,163.896676 56.5,164.093767" id="Fill-92-Copy-3" transform="translate(28.500000, 192.000000) rotate(-270.000000) translate(-28.500000, -192.000000) "></path>
                <path d="M83.5,301.906233 C83.5,270.804135 108.621897,245.5 139.5,245.5 L139.5,268.443203 C121.182019,268.443203 106.277968,283.454539 106.277968,301.906233 C106.277968,302.103324 106.28127,302.302909 106.283747,302.5 L83.5057793,302.5 C83.5,302.302909 83.5,302.103324 83.5,301.906233" id="Fill-94-Copy-3" transform="translate(111.500000, 274.000000) rotate(-270.000000) translate(-111.500000, -274.000000) "></path>
                <path d="M0.5,301.906233 C0.5,270.804135 25.6218966,245.5 56.5,245.5 L56.5,268.443203 C38.1811936,268.443203 23.2779678,283.454539 23.2779678,301.906233 C23.2779678,302.103324 23.2812703,302.302909 23.2837471,302.5 L0.505779324,302.5 C0.5,302.302909 0.5,302.103324 0.5,301.906233" id="Fill-96-Copy-3" transform="translate(28.500000, 274.000000) rotate(-270.000000) translate(-28.500000, -274.000000) "></path>
                <path d="M139.5,328.093767 C139.5,359.195865 114.378103,384.5 83.5,384.5 L83.5,361.556797 C101.817981,361.556797 116.722032,346.545461 116.722032,328.093767 C116.722032,327.896676 116.71873,327.697091 116.716253,327.5 L139.494221,327.5 C139.5,327.697091 139.5,327.896676 139.5,328.093767" id="Fill-115-Copy-3" transform="translate(111.500000, 356.000000) rotate(-270.000000) translate(-111.500000, -356.000000) "></path>
                <path d="M56.5,328.093767 C56.5,359.195865 31.3781034,384.5 0.5,384.5 L0.5,361.556797 C18.8179808,361.556797 33.7220322,346.545461 33.7220322,328.093767 C33.7220322,327.896676 33.7187297,327.697091 33.7162529,327.5 L56.4942207,327.5 C56.5,327.697091 56.5,327.896676 56.5,328.093767" id="Fill-117-Copy-3" transform="translate(28.500000, 356.000000) rotate(-270.000000) translate(-28.500000, -356.000000) "></path>
                <path d="M83.5,465.906233 C83.5,434.804135 108.621897,409.5 139.5,409.5 L139.5,432.443203 C121.182019,432.443203 106.277968,447.454539 106.277968,465.906233 C106.277968,466.103324 106.28127,466.302909 106.283747,466.5 L83.5057793,466.5 C83.5,466.302909 83.5,466.103324 83.5,465.906233" id="Fill-119-Copy-3" transform="translate(111.500000, 438.000000) rotate(-270.000000) translate(-111.500000, -438.000000) "></path>
                <path d="M0.5,465.906233 C0.5,434.804135 25.6218966,409.5 56.5,409.5 L56.5,432.443203 C38.1820192,432.443203 23.2779678,447.454539 23.2779678,465.906233 C23.2779678,466.103324 23.2812703,466.302909 23.2837471,466.5 L0.505779324,466.5 C0.5,466.302909 0.5,466.103324 0.5,465.906233" id="Fill-121-Copy-3" transform="translate(28.500000, 438.000000) rotate(-270.000000) translate(-28.500000, -438.000000) "></path>
                <path d="M139.5,492.093767 C139.5,523.195865 114.378103,548.5 83.5,548.5 L83.5,525.556797 C101.818806,525.556797 116.722032,510.545461 116.722032,492.093767 C116.722032,491.896676 116.71873,491.697091 116.716253,491.5 L139.495046,491.5 C139.5,491.697091 139.5,491.896676 139.5,492.093767" id="Fill-124-Copy-3" transform="translate(111.500000, 520.000000) rotate(-270.000000) translate(-111.500000, -520.000000) "></path>
                <path d="M56.5,492.093767 C56.5,523.195865 31.3781034,548.5 0.5,548.5 L0.5,525.556797 C18.8188064,525.556797 33.7220322,510.545461 33.7220322,492.093767 C33.7220322,491.896676 33.7187297,491.697091 33.7162529,491.5 L56.4950463,491.5 C56.5,491.697091 56.5,491.896676 56.5,492.093767" id="Fill-126-Copy-3" transform="translate(28.500000, 520.000000) rotate(-270.000000) translate(-28.500000, -520.000000) "></path>
                <path d="M449.5,0.0937673251 C449.5,31.1958653 424.378103,56.5 393.5,56.5 L393.5,33.5567973 C411.818806,33.5567973 426.722032,18.5454612 426.722032,0.0937673251 C426.722032,-0.10332351 426.71873,-0.302909165 426.716253,-0.5 L449.495046,-0.5 C449.5,-0.302909165 449.5,-0.10332351 449.5,0.0937673251" id="Fill-81-Copy-3" transform="translate(421.500000, 28.000000) rotate(-270.000000) translate(-421.500000, -28.000000) "></path>
                <path d="M366.5,0.0937673251 C366.5,31.1958653 341.378103,56.5 310.5,56.5 L310.5,33.5567973 C328.818806,33.5567973 343.722032,18.5454612 343.722032,0.0937673251 C343.722032,-0.10332351 343.71873,-0.302909165 343.716253,-0.5 L366.494221,-0.5 C366.5,-0.302909165 366.5,-0.10332351 366.5,0.0937673251" id="Fill-83-Copy-3" transform="translate(338.500000, 28.000000) rotate(-270.000000) translate(-338.500000, -28.000000) "></path>
                <path d="M393.5,137.906233 C393.5,106.804135 418.621897,81.5 449.5,81.5 L449.5,104.443203 C431.182019,104.443203 416.277968,119.454539 416.277968,137.906233 C416.277968,138.103324 416.28127,138.302909 416.283747,138.5 L393.505779,138.5 C393.5,138.302909 393.5,138.103324 393.5,137.906233" id="Fill-85-Copy-3" transform="translate(421.500000, 110.000000) rotate(-270.000000) translate(-421.500000, -110.000000) "></path>
                <path d="M310.5,137.906233 C310.5,106.804135 335.621897,81.5 366.5,81.5 L366.5,104.443203 C348.181194,104.443203 333.277968,119.454539 333.277968,137.906233 C333.277968,138.103324 333.28127,138.302909 333.283747,138.5 L310.505779,138.5 C310.5,138.302909 310.5,138.103324 310.5,137.906233" id="Fill-87-Copy-3" transform="translate(338.500000, 110.000000) rotate(-270.000000) translate(-338.500000, -110.000000) "></path>
                <path d="M449.5,164.093767 C449.5,195.195865 424.378103,220.5 393.5,220.5 L393.5,197.556797 C411.818806,197.556797 426.722032,182.545461 426.722032,164.093767 C426.722032,163.896676 426.71873,163.697091 426.716253,163.5 L449.495046,163.5 C449.5,163.697091 449.5,163.896676 449.5,164.093767" id="Fill-90-Copy-3" transform="translate(421.500000, 192.000000) rotate(-270.000000) translate(-421.500000, -192.000000) "></path>
                <path d="M366.5,164.093767 C366.5,195.195865 341.378103,220.5 310.5,220.5 L310.5,197.556797 C328.818806,197.556797 343.722032,182.545461 343.722032,164.093767 C343.722032,163.896676 343.71873,163.697091 343.716253,163.5 L366.495046,163.5 C366.5,163.697091 366.5,163.896676 366.5,164.093767" id="Fill-92-Copy-3" transform="translate(338.500000, 192.000000) rotate(-270.000000) translate(-338.500000, -192.000000) "></path>
                <path d="M393.5,301.906233 C393.5,270.804135 418.621897,245.5 449.5,245.5 L449.5,268.443203 C431.182019,268.443203 416.277968,283.454539 416.277968,301.906233 C416.277968,302.103324 416.28127,302.302909 416.283747,302.5 L393.505779,302.5 C393.5,302.302909 393.5,302.103324 393.5,301.906233" id="Fill-94-Copy-3" transform="translate(421.500000, 274.000000) rotate(-270.000000) translate(-421.500000, -274.000000) "></path>
                <path d="M310.5,301.906233 C310.5,270.804135 335.621897,245.5 366.5,245.5 L366.5,268.443203 C348.181194,268.443203 333.277968,283.454539 333.277968,301.906233 C333.277968,302.103324 333.28127,302.302909 333.283747,302.5 L310.505779,302.5 C310.5,302.302909 310.5,302.103324 310.5,301.906233" id="Fill-96-Copy-3" transform="translate(338.500000, 274.000000) rotate(-270.000000) translate(-338.500000, -274.000000) "></path>
                <path d="M449.5,328.093767 C449.5,359.195865 424.378103,384.5 393.5,384.5 L393.5,361.556797 C411.817981,361.556797 426.722032,346.545461 426.722032,328.093767 C426.722032,327.896676 426.71873,327.697091 426.716253,327.5 L449.494221,327.5 C449.5,327.697091 449.5,327.896676 449.5,328.093767" id="Fill-115-Copy-3" transform="translate(421.500000, 356.000000) rotate(-270.000000) translate(-421.500000, -356.000000) "></path>
                <path d="M366.5,328.093767 C366.5,359.195865 341.378103,384.5 310.5,384.5 L310.5,361.556797 C328.817981,361.556797 343.722032,346.545461 343.722032,328.093767 C343.722032,327.896676 343.71873,327.697091 343.716253,327.5 L366.494221,327.5 C366.5,327.697091 366.5,327.896676 366.5,328.093767" id="Fill-117-Copy-3" transform="translate(338.500000, 356.000000) rotate(-270.000000) translate(-338.500000, -356.000000) "></path>
                <path d="M393.5,465.906233 C393.5,434.804135 418.621897,409.5 449.5,409.5 L449.5,432.443203 C431.182019,432.443203 416.277968,447.454539 416.277968,465.906233 C416.277968,466.103324 416.28127,466.302909 416.283747,466.5 L393.505779,466.5 C393.5,466.302909 393.5,466.103324 393.5,465.906233" id="Fill-119-Copy-3" transform="translate(421.500000, 438.000000) rotate(-270.000000) translate(-421.500000, -438.000000) "></path>
                <path d="M310.5,465.906233 C310.5,434.804135 335.621897,409.5 366.5,409.5 L366.5,432.443203 C348.182019,432.443203 333.277968,447.454539 333.277968,465.906233 C333.277968,466.103324 333.28127,466.302909 333.283747,466.5 L310.505779,466.5 C310.5,466.302909 310.5,466.103324 310.5,465.906233" id="Fill-121-Copy-3" transform="translate(338.500000, 438.000000) rotate(-270.000000) translate(-338.500000, -438.000000) "></path>
                <path d="M449.5,492.093767 C449.5,523.195865 424.378103,548.5 393.5,548.5 L393.5,525.556797 C411.818806,525.556797 426.722032,510.545461 426.722032,492.093767 C426.722032,491.896676 426.71873,491.697091 426.716253,491.5 L449.495046,491.5 C449.5,491.697091 449.5,491.896676 449.5,492.093767" id="Fill-124-Copy-3" transform="translate(421.500000, 520.000000) rotate(-270.000000) translate(-421.500000, -520.000000) "></path>
                <path d="M366.5,492.093767 C366.5,523.195865 341.378103,548.5 310.5,548.5 L310.5,525.556797 C328.818806,525.556797 343.722032,510.545461 343.722032,492.093767 C343.722032,491.896676 343.71873,491.697091 343.716253,491.5 L366.495046,491.5 C366.5,491.697091 366.5,491.896676 366.5,492.093767" id="Fill-126-Copy-3" transform="translate(338.500000, 520.000000) rotate(-270.000000) translate(-338.500000, -520.000000) "></path>
                <path d="M252.5,492.093767 C252.5,523.195865 227.378103,548.5 196.5,548.5 L196.5,525.556797 C214.818806,525.556797 229.722032,510.545461 229.722032,492.093767 C229.722032,491.896676 229.71873,491.697091 229.716253,491.5 L252.495046,491.5 C252.5,491.697091 252.5,491.896676 252.5,492.093767" id="Fill-126-Copy-4" transform="translate(224.500000, 520.000000) rotate(-270.000000) translate(-224.500000, -520.000000) "></path>
            </g>
        </g>
    </g>
</svg>