<?xml version="1.0" encoding="UTF-8"?>
<svg width="368px" height="215px" viewBox="0 0 368 215" version="1.1" xmlns="http://www.w3.org/2000/svg" xmlns:xlink="http://www.w3.org/1999/xlink">
    <title>Group 13 Copy 6</title>
    <g id="DESIGN---Web" stroke="none" stroke-width="1" fill="none" fill-rule="evenodd" opacity="0.203264509">
        <g id="best-pozicka.sk---Mobile-Design---Dofinancovanie-HYPO" transform="translate(-23.000000, -693.000000)" stroke="#FFFFFF" stroke-width="2">
            <g id="Group-13-Copy-6" transform="translate(24.000000, 694.000000)">
                <path d="M0,133.427067 C0,103.41627 24.224686,79 54,79 L54,101.138178 C36.3354367,101.138178 21.964469,115.622801 21.964469,133.427067 C21.964469,133.617242 21.9676535,133.809825 21.9700419,134 L0.00557291974,134 C0,133.809825 0,133.617242 0,133.427067" id="Fill-79-Copy-3"></path>
                <path d="M0,54.4270666 C0,24.4162703 24.224686,0 54,0 L54,22.1381781 C36.3354367,22.1381781 21.964469,36.6228006 21.964469,54.4270666 C21.964469,54.617242 21.9676535,54.8098246 21.9700419,55 L0.00557291974,55 C0,54.8098246 0,54.617242 0,54.4270666" id="Fill-79-Copy-5"></path>
                <path d="M0,212.427067 C0,182.41627 24.224686,158 54,158 L54,180.138178 C36.3362328,180.138178 21.964469,194.622801 21.964469,212.427067 C21.964469,212.617242 21.9676535,212.809825 21.9700419,213 L0.00557291974,213 C0,212.809825 0,212.617242 0,212.427067" id="Fill-94-Copy-3"></path>
                <path d="M132,79.5729334 C132,109.58373 107.775314,134 78,134 L78,111.861822 C95.6637672,111.861822 110.035531,97.3771994 110.035531,79.5729334 C110.035531,79.382758 110.032347,79.1901754 110.029958,79 L131.994427,79 C132,79.1901754 132,79.382758 132,79.5729334" id="Fill-101-Copy-3"></path>
                <path d="M132,0.572933384 C132,30.5837297 107.775314,55 78,55 L78,32.8618219 C95.6637672,32.8618219 110.035531,18.3771994 110.035531,0.572933384 C110.035531,0.382758017 110.032347,0.190175367 110.029958,0 L131.994427,0 C132,0.190175367 132,0.382758017 132,0.572933384" id="Fill-101-Copy-6"></path>
                <path d="M156,133.427067 C156,103.41627 180.224686,79 210,79 L210,101.138178 C192.336233,101.138178 177.964469,115.622801 177.964469,133.427067 C177.964469,133.617242 177.967653,133.809825 177.970042,134 L156.005573,134 C156,133.809825 156,133.617242 156,133.427067" id="Fill-105-Copy-3"></path>
                <path d="M156,54.4270666 C156,24.4162703 180.224686,0 210,0 L210,22.1381781 C192.336233,22.1381781 177.964469,36.6228006 177.964469,54.4270666 C177.964469,54.617242 177.967653,54.8098246 177.970042,55 L156.005573,55 C156,54.8098246 156,54.617242 156,54.4270666" id="Fill-105-Copy-6"></path>
                <path d="M288,79.5729334 C288,109.58373 263.775314,134 234,134 L234,111.861822 C251.664563,111.861822 266.035531,97.3771994 266.035531,79.5729334 C266.035531,79.382758 266.032347,79.1901754 266.029958,79 L287.995223,79 C288,79.1901754 288,79.382758 288,79.5729334" id="Fill-109-Copy-3"></path>
                <path d="M288,0.572933384 C288,30.5837297 263.775314,55 234,55 L234,32.8618219 C251.664563,32.8618219 266.035531,18.3771994 266.035531,0.572933384 C266.035531,0.382758017 266.032347,0.190175367 266.029958,0 L287.995223,0 C288,0.190175367 288,0.382758017 288,0.572933384" id="Fill-109-Copy-6"></path>
                <path d="M312,133.427067 C312,103.41627 336.224686,79 366,79 L366,101.138178 C348.335437,101.138178 333.964469,115.622801 333.964469,133.427067 C333.964469,133.617242 333.967653,133.809825 333.970042,134 L312.004777,134 C312,133.809825 312,133.617242 312,133.427067" id="Fill-113-Copy-3"></path>
                <path d="M312,54.4270666 C312,24.4162703 336.224686,0 366,0 L366,22.1381781 C348.335437,22.1381781 333.964469,36.6228006 333.964469,54.4270666 C333.964469,54.617242 333.967653,54.8098246 333.970042,55 L312.004777,55 C312,54.8098246 312,54.617242 312,54.4270666" id="Fill-113-Copy-6"></path>
                <path d="M132,158.572933 C132,188.58373 107.775314,213 78,213 L78,190.861822 C95.6637672,190.861822 110.035531,176.377199 110.035531,158.572933 C110.035531,158.382758 110.032347,158.190175 110.029958,158 L131.994427,158 C132,158.190175 132,158.382758 132,158.572933" id="Fill-115-Copy-3"></path>
                <path d="M156,212.427067 C156,182.41627 180.224686,158 210,158 L210,180.138178 C192.336233,180.138178 177.964469,194.622801 177.964469,212.427067 C177.964469,212.617242 177.967653,212.809825 177.970042,213 L156.005573,213 C156,212.809825 156,212.617242 156,212.427067" id="Fill-119-Copy-3"></path>
                <path d="M288,158.572933 C288,188.58373 263.775314,213 234,213 L234,190.861822 C251.664563,190.861822 266.035531,176.377199 266.035531,158.572933 C266.035531,158.382758 266.032347,158.190175 266.029958,158 L287.995223,158 C288,158.190175 288,158.382758 288,158.572933" id="Fill-124-Copy-3"></path>
                <path d="M312,212.427067 C312,182.41627 336.224686,158 366,158 L366,180.138178 C348.335437,180.138178 333.964469,194.622801 333.964469,212.427067 C333.964469,212.617242 333.967653,212.809825 333.970042,213 L312.004777,213 C312,212.809825 312,212.617242 312,212.427067" id="Fill-130-Copy-5"></path>
            </g>
        </g>
    </g>
</svg>