<?xml version="1.0" encoding="UTF-8"?>
<svg width="369px" height="136px" viewBox="0 0 369 136" version="1.1" xmlns="http://www.w3.org/2000/svg" xmlns:xlink="http://www.w3.org/1999/xlink">
    <title>Group 13</title>
    <g id="COMPONENTS" stroke="none" stroke-width="1" fill="none" fill-rule="evenodd">
        <g id="SECTIONS/-Mobile/-Co-ponukame" transform="translate(-22.000000, -948.000000)" stroke="#ED4036" stroke-width="2">
            <g id="Group-13" transform="translate(23.000000, 949.414925)">
                <path d="M54.0731655,1.06873984 C54.0731655,30.884397 29.8156571,55.1419054 0,55.1419054 L0,33.1476764 C17.6884973,33.1476764 32.0789366,18.7572372 32.0789366,1.06873984 C32.0789366,0.879801048 32.0757477,0.688470628 32.0733561,0.499531838 L54.0683823,0.499531838 C54.0731655,0.688470628 54.0731655,0.879801048 54.0731655,1.06873984" id="Fill-1"></path>
                <path d="M54.0731655,79.1274855 C54.0731655,108.943143 29.8156571,133.200651 0,133.200651 L0,111.206422 C17.6884973,111.206422 32.0789366,96.8159828 32.0789366,79.1274855 C32.0789366,78.9385467 32.0757477,78.7472162 32.0733561,78.5582775 L54.0675851,78.5582775 C54.0731655,78.7472162 54.0731655,78.9385467 54.0731655,79.1274855" id="Fill-3"></path>
                <path d="M77.9894681,54.0731655 C77.9894681,24.2575084 102.246976,2.27373675e-13 132.062634,2.27373675e-13 L132.062634,21.994229 C114.374933,21.994229 99.9836971,36.3846682 99.9836971,54.0731655 C99.9836971,54.2621043 99.9868859,54.4534348 99.9892775,54.6423735 L77.9950485,54.6423735 C77.9894681,54.4534348 77.9894681,54.2621043 77.9894681,54.0731655" id="Fill-5"></path>
                <path d="M77.9894681,132.631762 C77.9894681,102.816105 102.246976,78.5585963 132.062634,78.5585963 L132.062634,100.552825 C114.374136,100.552825 99.9836971,114.943265 99.9836971,132.631762 C99.9836971,132.820701 99.9868859,133.012031 99.9892775,133.20097 L77.9950485,133.20097 C77.9894681,133.012031 77.9894681,132.820701 77.9894681,132.631762" id="Fill-7"></path>
                <path d="M210.052261,1.06873984 C210.052261,30.884397 185.794753,55.1419054 155.979096,55.1419054 L155.979096,33.1476764 C173.667593,33.1476764 188.058032,18.7572372 188.058032,1.06873984 C188.058032,0.879801048 188.054843,0.688470628 188.052452,0.499531838 L210.047478,0.499531838 C210.052261,0.688470628 210.052261,0.879801048 210.052261,1.06873984" id="Fill-9"></path>
                <path d="M210.052261,79.1274855 C210.052261,108.943143 185.794753,133.200651 155.979096,133.200651 L155.979096,111.206422 C173.667593,111.206422 188.058032,96.8159828 188.058032,79.1274855 C188.058032,78.9385467 188.054843,78.7472162 188.052452,78.5582775 L210.047478,78.5582775 C210.052261,78.7472162 210.052261,78.9385467 210.052261,79.1274855" id="Fill-11"></path>
                <path d="M233.968564,54.0731655 C233.968564,24.2575084 258.226072,2.27373675e-13 288.041729,2.27373675e-13 L288.041729,21.994229 C270.354029,21.994229 255.962793,36.3846682 255.962793,54.0731655 C255.962793,54.2621043 255.965981,54.4534348 255.968373,54.6423735 L233.974144,54.6423735 C233.968564,54.4534348 233.968564,54.2621043 233.968564,54.0731655" id="Fill-13"></path>
                <path d="M233.968564,132.631762 C233.968564,102.816105 258.226072,78.5585963 288.041729,78.5585963 L288.041729,100.552825 C270.353232,100.552825 255.962793,114.943265 255.962793,132.631762 C255.962793,132.820701 255.965981,133.012031 255.968373,133.20097 L233.974144,133.20097 C233.968564,133.012031 233.968564,132.820701 233.968564,132.631762" id="Fill-15"></path>
                <path d="M366.031436,1.06873984 C366.031436,30.884397 341.773928,55.1419054 311.958271,55.1419054 L311.958271,33.1476764 C329.645971,33.1476764 344.037207,18.7572372 344.037207,1.06873984 C344.037207,0.879801048 344.034019,0.688470628 344.031627,0.499531838 L366.025856,0.499531838 C366.031436,0.688470628 366.031436,0.879801048 366.031436,1.06873984" id="Fill-33"></path>
                <path d="M366.031436,79.1274855 C366.031436,108.943143 341.773928,133.200651 311.958271,133.200651 L311.958271,111.206422 C329.645971,111.206422 344.037207,96.8159828 344.037207,79.1274855 C344.037207,78.9385467 344.034019,78.7472162 344.031627,78.5582775 L366.025856,78.5582775 C366.031436,78.7472162 366.031436,78.9385467 366.031436,79.1274855" id="Fill-35"></path>
            </g>
        </g>
    </g>
</svg>