<?xml version="1.0" encoding="UTF-8"?>
<svg width="450px" height="874px" viewBox="0 0 450 874" version="1.1" xmlns="http://www.w3.org/2000/svg" xmlns:xlink="http://www.w3.org/1999/xlink">
    <title>Group 3</title>
    <g id="COMPONENTS" stroke="none" stroke-width="1" fill="none" fill-rule="evenodd">
        <g id="SECTIONS/-Mobile/-HYPO-Form" transform="translate(18.000000, -292.000000)" stroke-width="2">
            <g id="Group-3" transform="translate(-17.000000, 293.000000)">
                <g id="Group" transform="translate(0.000000, 160.000000)" stroke="#ED4036">
                    <path d="M391.5,383.906233 C391.5,352.804135 416.621897,327.5 447.5,327.5 L447.5,350.443203 C429.182019,350.443203 414.277968,365.454539 414.277968,383.906233 C414.277968,384.103324 414.28127,384.302909 414.283747,384.5 L391.505779,384.5 C391.5,384.302909 391.5,384.103324 391.5,383.906233" id="Fill-94-Copy-5" transform="translate(419.500000, 356.000000) scale(-1, 1) rotate(-270.000000) translate(-419.500000, -356.000000) "></path>
                    <path d="M447.5,0.0937673251 C447.5,31.1958653 422.378103,56.5 391.5,56.5 L391.5,33.5567973 C409.817981,33.5567973 424.722032,18.5454612 424.722032,0.0937673251 C424.722032,-0.10332351 424.71873,-0.302909165 424.716253,-0.5 L447.494221,-0.5 C447.5,-0.302909165 447.5,-0.10332351 447.5,0.0937673251" id="Fill-115-Copy-3" transform="translate(419.500000, 28.000000) scale(-1, 1) rotate(-270.000000) translate(-419.500000, -28.000000) "></path>
                    <path d="M447.5,410.093767 C447.5,441.195865 422.378103,466.5 391.5,466.5 L391.5,443.556797 C409.817981,443.556797 424.722032,428.545461 424.722032,410.093767 C424.722032,409.896676 424.71873,409.697091 424.716253,409.5 L447.494221,409.5 C447.5,409.697091 447.5,409.896676 447.5,410.093767" id="Fill-115-Copy-6" transform="translate(419.500000, 438.000000) scale(-1, 1) rotate(-270.000000) translate(-419.500000, -438.000000) "></path>
                    <path d="M391.5,137.906233 C391.5,106.804135 416.621897,81.5 447.5,81.5 L447.5,104.443203 C429.182019,104.443203 414.277968,119.454539 414.277968,137.906233 C414.277968,138.103324 414.28127,138.302909 414.283747,138.5 L391.505779,138.5 C391.5,138.302909 391.5,138.103324 391.5,137.906233" id="Fill-119-Copy-3" transform="translate(419.500000, 110.000000) scale(-1, 1) rotate(-270.000000) translate(-419.500000, -110.000000) "></path>
                    <path d="M391.5,547.906233 C391.5,516.804135 416.621897,491.5 447.5,491.5 L447.5,514.443203 C429.182019,514.443203 414.277968,529.454539 414.277968,547.906233 C414.277968,548.103324 414.28127,548.302909 414.283747,548.5 L391.505779,548.5 C391.5,548.302909 391.5,548.103324 391.5,547.906233" id="Fill-119-Copy-6" transform="translate(419.500000, 520.000000) scale(-1, 1) rotate(-270.000000) translate(-419.500000, -520.000000) "></path>
                    <path d="M447.5,164.093767 C447.5,195.195865 422.378103,220.5 391.5,220.5 L391.5,197.556797 C409.818806,197.556797 424.722032,182.545461 424.722032,164.093767 C424.722032,163.896676 424.71873,163.697091 424.716253,163.5 L447.495046,163.5 C447.5,163.697091 447.5,163.896676 447.5,164.093767" id="Fill-124-Copy-3" transform="translate(419.500000, 192.000000) scale(-1, 1) rotate(-270.000000) translate(-419.500000, -192.000000) "></path>
                    <path d="M447.5,574.093767 C447.5,605.195865 422.378103,630.5 391.5,630.5 L391.5,607.556797 C409.818806,607.556797 424.722032,592.545461 424.722032,574.093767 C424.722032,573.896676 424.71873,573.697091 424.716253,573.5 L447.495046,573.5 C447.5,573.697091 447.5,573.896676 447.5,574.093767" id="Fill-124-Copy-5" transform="translate(419.500000, 602.000000) scale(-1, 1) rotate(-270.000000) translate(-419.500000, -602.000000) "></path>
                    <path d="M447.5,656.093767 C447.5,687.195865 422.378103,712.5 391.5,712.5 L391.5,689.556797 C409.818806,689.556797 424.722032,674.545461 424.722032,656.093767 C424.722032,655.896676 424.71873,655.697091 424.716253,655.5 L447.495046,655.5 C447.5,655.697091 447.5,655.896676 447.5,656.093767" id="Fill-124-Copy-11" transform="translate(419.500000, 684.000000) scale(-1, 1) rotate(-270.000000) translate(-419.500000, -684.000000) "></path>
                    <path d="M369.3,574.093767 C369.3,605.195865 344.178103,630.5 313.3,630.5 L313.3,607.556797 C331.618806,607.556797 346.522032,592.545461 346.522032,574.093767 C346.522032,573.896676 346.51873,573.697091 346.516253,573.5 L369.295046,573.5 C369.3,573.697091 369.3,573.896676 369.3,574.093767" id="Fill-124-Copy-7" transform="translate(341.300000, 602.000000) scale(1, -1) rotate(-270.000000) translate(-341.300000, -602.000000) "></path>
                    <path d="M369.3,656.093767 C369.3,687.195865 344.178103,712.5 313.3,712.5 L313.3,689.556797 C331.618806,689.556797 346.522032,674.545461 346.522032,656.093767 C346.522032,655.896676 346.51873,655.697091 346.516253,655.5 L369.295046,655.5 C369.3,655.697091 369.3,655.896676 369.3,656.093767" id="Fill-124-Copy-12" transform="translate(341.300000, 684.000000) scale(1, -1) rotate(-270.000000) translate(-341.300000, -684.000000) "></path>
                    <path d="M291.1,574.093767 C291.1,605.195865 265.978103,630.5 235.1,630.5 L235.1,607.556797 C253.418806,607.556797 268.322032,592.545461 268.322032,574.093767 C268.322032,573.896676 268.31873,573.697091 268.316253,573.5 L291.095046,573.5 C291.1,573.697091 291.1,573.896676 291.1,574.093767" id="Fill-124-Copy-8" transform="translate(263.100000, 602.000000) scale(-1, 1) rotate(-270.000000) translate(-263.100000, -602.000000) "></path>
                    <path d="M291.1,656.093767 C291.1,687.195865 265.978103,712.5 235.1,712.5 L235.1,689.556797 C253.418806,689.556797 268.322032,674.545461 268.322032,656.093767 C268.322032,655.896676 268.31873,655.697091 268.316253,655.5 L291.095046,655.5 C291.1,655.697091 291.1,655.896676 291.1,656.093767" id="Fill-124-Copy-13" transform="translate(263.100000, 684.000000) scale(-1, 1) rotate(-270.000000) translate(-263.100000, -684.000000) "></path>
                    <path d="M212.9,574.093767 C212.9,605.195865 187.778103,630.5 156.9,630.5 L156.9,607.556797 C175.218806,607.556797 190.122032,592.545461 190.122032,574.093767 C190.122032,573.896676 190.11873,573.697091 190.116253,573.5 L212.895046,573.5 C212.9,573.697091 212.9,573.896676 212.9,574.093767" id="Fill-124-Copy-9" transform="translate(184.900000, 602.000000) scale(1, -1) rotate(-270.000000) translate(-184.900000, -602.000000) "></path>
                    <path d="M212.9,656.093767 C212.9,687.195865 187.778103,712.5 156.9,712.5 L156.9,689.556797 C175.218806,689.556797 190.122032,674.545461 190.122032,656.093767 C190.122032,655.896676 190.11873,655.697091 190.116253,655.5 L212.895046,655.5 C212.9,655.697091 212.9,655.896676 212.9,656.093767" id="Fill-124-Copy-14" transform="translate(184.900000, 684.000000) scale(1, -1) rotate(-270.000000) translate(-184.900000, -684.000000) "></path>
                    <path d="M134.7,574.093767 C134.7,605.195865 109.578103,630.5 78.7,630.5 L78.7,607.556797 C97.0188064,607.556797 111.922032,592.545461 111.922032,574.093767 C111.922032,573.896676 111.91873,573.697091 111.916253,573.5 L134.695046,573.5 C134.7,573.697091 134.7,573.896676 134.7,574.093767" id="Fill-124-Copy-10" transform="translate(106.700000, 602.000000) scale(-1, 1) rotate(-270.000000) translate(-106.700000, -602.000000) "></path>
                    <path d="M134.7,656.093767 C134.7,687.195865 109.578103,712.5 78.7,712.5 L78.7,689.556797 C97.0188064,689.556797 111.922032,674.545461 111.922032,656.093767 C111.922032,655.896676 111.91873,655.697091 111.916253,655.5 L134.695046,655.5 C134.7,655.697091 134.7,655.896676 134.7,656.093767" id="Fill-124-Copy-15" transform="translate(106.700000, 684.000000) scale(-1, 1) rotate(-270.000000) translate(-106.700000, -684.000000) "></path>
                    <path d="M391.5,301.906233 C391.5,270.804135 416.621897,245.5 447.5,245.5 L447.5,268.443203 C429.181194,268.443203 414.277968,283.454539 414.277968,301.906233 C414.277968,302.103324 414.28127,302.302909 414.283747,302.5 L391.504954,302.5 C391.5,302.302909 391.5,302.103324 391.5,301.906233" id="Fill-130-Copy-5" transform="translate(419.500000, 274.000000) scale(-1, 1) rotate(-270.000000) translate(-419.500000, -274.000000) "></path>
                    <path d="M0.5,383.906233 C0.5,352.804135 25.6218966,327.5 56.5,327.5 L56.5,350.443203 C38.1820192,350.443203 23.2779678,365.454539 23.2779678,383.906233 C23.2779678,384.103324 23.2812703,384.302909 23.2837471,384.5 L0.505779324,384.5 C0.5,384.302909 0.5,384.103324 0.5,383.906233" id="Fill-94-Copy-6" transform="translate(28.500000, 356.000000) scale(1, -1) rotate(-270.000000) translate(-28.500000, -356.000000) "></path>
                    <path d="M56.5,0.0937673251 C56.5,31.1958653 31.3781034,56.5 0.5,56.5 L0.5,33.5567973 C18.8179808,33.5567973 33.7220322,18.5454612 33.7220322,0.0937673251 C33.7220322,-0.10332351 33.7187297,-0.302909165 33.7162529,-0.5 L56.4942207,-0.5 C56.5,-0.302909165 56.5,-0.10332351 56.5,0.0937673251" id="Fill-115-Copy-3" transform="translate(28.500000, 28.000000) scale(1, -1) rotate(-270.000000) translate(-28.500000, -28.000000) "></path>
                    <path d="M56.5,410.093767 C56.5,441.195865 31.3781034,466.5 0.5,466.5 L0.5,443.556797 C18.8179808,443.556797 33.7220322,428.545461 33.7220322,410.093767 C33.7220322,409.896676 33.7187297,409.697091 33.7162529,409.5 L56.4942207,409.5 C56.5,409.697091 56.5,409.896676 56.5,410.093767" id="Fill-115-Copy-7" transform="translate(28.500000, 438.000000) scale(1, -1) rotate(-270.000000) translate(-28.500000, -438.000000) "></path>
                    <path d="M0.5,137.906233 C0.5,106.804135 25.6218966,81.5 56.5,81.5 L56.5,104.443203 C38.1820192,104.443203 23.2779678,119.454539 23.2779678,137.906233 C23.2779678,138.103324 23.2812703,138.302909 23.2837471,138.5 L0.505779324,138.5 C0.5,138.302909 0.5,138.103324 0.5,137.906233" id="Fill-119-Copy-3" transform="translate(28.500000, 110.000000) scale(1, -1) rotate(-270.000000) translate(-28.500000, -110.000000) "></path>
                    <path d="M0.5,547.906233 C0.5,516.804135 25.6218966,491.5 56.5,491.5 L56.5,514.443203 C38.1820192,514.443203 23.2779678,529.454539 23.2779678,547.906233 C23.2779678,548.103324 23.2812703,548.302909 23.2837471,548.5 L0.505779324,548.5 C0.5,548.302909 0.5,548.103324 0.5,547.906233" id="Fill-119-Copy-7" transform="translate(28.500000, 520.000000) scale(1, -1) rotate(-270.000000) translate(-28.500000, -520.000000) "></path>
                    <path d="M56.5,164.093767 C56.5,195.195865 31.3781034,220.5 0.5,220.5 L0.5,197.556797 C18.8188064,197.556797 33.7220322,182.545461 33.7220322,164.093767 C33.7220322,163.896676 33.7187297,163.697091 33.7162529,163.5 L56.4950463,163.5 C56.5,163.697091 56.5,163.896676 56.5,164.093767" id="Fill-124-Copy-3" transform="translate(28.500000, 192.000000) scale(1, -1) rotate(-270.000000) translate(-28.500000, -192.000000) "></path>
                    <path d="M56.5,574.093767 C56.5,605.195865 31.3781034,630.5 0.5,630.5 L0.5,607.556797 C18.8188064,607.556797 33.7220322,592.545461 33.7220322,574.093767 C33.7220322,573.896676 33.7187297,573.697091 33.7162529,573.5 L56.4950463,573.5 C56.5,573.697091 56.5,573.896676 56.5,574.093767" id="Fill-124-Copy-6" transform="translate(28.500000, 602.000000) scale(1, -1) rotate(-270.000000) translate(-28.500000, -602.000000) "></path>
                    <path d="M56.5,656.093767 C56.5,687.195865 31.3781034,712.5 0.5,712.5 L0.5,689.556797 C18.8188064,689.556797 33.7220322,674.545461 33.7220322,656.093767 C33.7220322,655.896676 33.7187297,655.697091 33.7162529,655.5 L56.4950463,655.5 C56.5,655.697091 56.5,655.896676 56.5,656.093767" id="Fill-124-Copy-16" transform="translate(28.500000, 684.000000) scale(1, -1) rotate(-270.000000) translate(-28.500000, -684.000000) "></path>
                    <path d="M0.5,301.906233 C0.5,270.804135 25.6218966,245.5 56.5,245.5 L56.5,268.443203 C38.1811936,268.443203 23.2779678,283.454539 23.2779678,301.906233 C23.2779678,302.103324 23.2812703,302.302909 23.2837471,302.5 L0.504953706,302.5 C0.5,302.302909 0.5,302.103324 0.5,301.906233" id="Fill-130-Copy-5" transform="translate(28.500000, 274.000000) scale(1, -1) rotate(-270.000000) translate(-28.500000, -274.000000) "></path>
                </g>
                <g id="Group-13-Copy-6" opacity="0.203264509" transform="translate(1.000000, 0.000000)" stroke="#FFFFFF">
                    <path d="M54,78.5729334 C54,108.58373 29.775314,133 0,133 L0,110.861822 C17.6645633,110.861822 32.035531,96.3771994 32.035531,78.5729334 C32.035531,78.382758 32.0323465,78.1901754 32.0299581,78 L53.9952232,78 C54,78.1901754 54,78.382758 54,78.5729334" id="Fill-75-Copy-3"></path>
                    <path d="M54,0.572933384 C54,30.5837297 29.775314,55 0,55 L0,32.8618219 C17.6645633,32.8618219 32.035531,18.3771994 32.035531,0.572933384 C32.035531,0.382758017 32.0323465,0.190175367 32.0299581,0 L53.9952232,0 C54,0.190175367 54,0.382758017 54,0.572933384" id="Fill-75-Copy-5"></path>
                    <path d="M79,132.427067 C79,102.41627 103.224686,78 133,78 L133,100.138178 C115.335437,100.138178 100.964469,114.622801 100.964469,132.427067 C100.964469,132.617242 100.967653,132.809825 100.970042,133 L79.0055729,133 C79,132.809825 79,132.617242 79,132.427067" id="Fill-79-Copy-3"></path>
                    <path d="M79,54.4270666 C79,24.4162703 103.224686,0 133,0 L133,22.1381781 C115.335437,22.1381781 100.964469,36.6228006 100.964469,54.4270666 C100.964469,54.617242 100.967653,54.8098246 100.970042,55 L79.0055729,55 C79,54.8098246 79,54.617242 79,54.4270666" id="Fill-79-Copy-5"></path>
                    <path d="M211,78.5729334 C211,108.58373 186.775314,133 157,133 L157,110.861822 C174.663767,110.861822 189.035531,96.3771994 189.035531,78.5729334 C189.035531,78.382758 189.032347,78.1901754 189.029958,78 L210.994427,78 C211,78.1901754 211,78.382758 211,78.5729334" id="Fill-101-Copy-3"></path>
                    <path d="M211,0.572933384 C211,30.5837297 186.775314,55 157,55 L157,32.8618219 C174.663767,32.8618219 189.035531,18.3771994 189.035531,0.572933384 C189.035531,0.382758017 189.032347,0.190175367 189.029958,0 L210.994427,0 C211,0.190175367 211,0.382758017 211,0.572933384" id="Fill-101-Copy-6"></path>
                    <path d="M235,132.427067 C235,102.41627 259.224686,78 289,78 L289,100.138178 C271.336233,100.138178 256.964469,114.622801 256.964469,132.427067 C256.964469,132.617242 256.967653,132.809825 256.970042,133 L235.005573,133 C235,132.809825 235,132.617242 235,132.427067" id="Fill-105-Copy-3"></path>
                    <path d="M235,54.4270666 C235,24.4162703 259.224686,0 289,0 L289,22.1381781 C271.336233,22.1381781 256.964469,36.6228006 256.964469,54.4270666 C256.964469,54.617242 256.967653,54.8098246 256.970042,55 L235.005573,55 C235,54.8098246 235,54.617242 235,54.4270666" id="Fill-105-Copy-6"></path>
                    <path d="M367,78.5729334 C367,108.58373 342.775314,133 313,133 L313,110.861822 C330.664563,110.861822 345.035531,96.3771994 345.035531,78.5729334 C345.035531,78.382758 345.032347,78.1901754 345.029958,78 L366.995223,78 C367,78.1901754 367,78.382758 367,78.5729334" id="Fill-109-Copy-3"></path>
                    <path d="M367,0.572933384 C367,30.5837297 342.775314,55 313,55 L313,32.8618219 C330.664563,32.8618219 345.035531,18.3771994 345.035531,0.572933384 C345.035531,0.382758017 345.032347,0.190175367 345.029958,0 L366.995223,0 C367,0.190175367 367,0.382758017 367,0.572933384" id="Fill-109-Copy-6"></path>
                    <path d="M392,132.427067 C392,102.41627 416.224686,78 446,78 L446,100.138178 C428.335437,100.138178 413.964469,114.622801 413.964469,132.427067 C413.964469,132.617242 413.967653,132.809825 413.970042,133 L392.004777,133 C392,132.809825 392,132.617242 392,132.427067" id="Fill-113-Copy-3"></path>
                    <path d="M392,54.4270666 C392,24.4162703 416.224686,0 446,0 L446,22.1381781 C428.335437,22.1381781 413.964469,36.6228006 413.964469,54.4270666 C413.964469,54.617242 413.967653,54.8098246 413.970042,55 L392.004777,55 C392,54.8098246 392,54.617242 392,54.4270666" id="Fill-113-Copy-6"></path>
                </g>
            </g>
        </g>
    </g>
</svg>