<?xml version="1.0" encoding="UTF-8"?>
<svg width="59px" height="222px" viewBox="0 0 59 222" version="1.1" xmlns="http://www.w3.org/2000/svg" xmlns:xlink="http://www.w3.org/1999/xlink">
    <title>Group 28 Copy</title>
    <g id="COMPONENTS" stroke="none" stroke-width="1" fill="none" fill-rule="evenodd">
        <g id="SECTIONS/-Mobile/-Co-ponukame" transform="translate(43.000000, 1.000000)" stroke="#ED4036" stroke-width="2">
            <g id="Group-28-Copy" transform="translate(-42.000000, 0.000000)">
                <path d="M56.5,0.0937673251 C56.5,31.1958653 31.3781034,56.5 0.5,56.5 L0.5,33.5567973 C18.8188064,33.5567973 33.7220322,18.5454612 33.7220322,0.0937673251 C33.7220322,-0.10332351 33.7187297,-0.302909165 33.7162529,-0.5 L56.4950463,-0.5 C56.5,-0.302909165 56.5,-0.10332351 56.5,0.0937673251" id="Fill-92-Copy-3" transform="translate(28.500000, 28.000000) rotate(-270.000000) translate(-28.500000, -28.000000) "></path>
                <path d="M0.5,137.906233 C0.5,106.804135 25.6218966,81.5 56.5,81.5 L56.5,104.443203 C38.1811936,104.443203 23.2779678,119.454539 23.2779678,137.906233 C23.2779678,138.103324 23.2812703,138.302909 23.2837471,138.5 L0.505779324,138.5 C0.5,138.302909 0.5,138.103324 0.5,137.906233" id="Fill-96-Copy-3" transform="translate(28.500000, 110.000000) rotate(-270.000000) translate(-28.500000, -110.000000) "></path>
                <path d="M56.5,164.093767 C56.5,195.195865 31.3781034,220.5 0.5,220.5 L0.5,197.556797 C18.8179808,197.556797 33.7220322,182.545461 33.7220322,164.093767 C33.7220322,163.896676 33.7187297,163.697091 33.7162529,163.5 L56.4942207,163.5 C56.5,163.697091 56.5,163.896676 56.5,164.093767" id="Fill-117-Copy-3" transform="translate(28.500000, 192.000000) rotate(-270.000000) translate(-28.500000, -192.000000) "></path>
            </g>
        </g>
    </g>
</svg>