<?xml version="1.0" encoding="UTF-8"?>
<svg width="213px" height="136px" viewBox="0 0 213 136" version="1.1" xmlns="http://www.w3.org/2000/svg" xmlns:xlink="http://www.w3.org/1999/xlink">
    <title>Group 13</title>
    <g id="DESIGN---Web" stroke="none" stroke-width="1" fill="none" fill-rule="evenodd" opacity="0.199776786">
        <g id="best-pozicka.sk---Mobile-Design---MENU" transform="translate(-101.000000, -112.000000)" stroke="#FFFFFF" stroke-width="2">
            <g id="Group-13" transform="translate(102.000000, 113.000000)">
                <path d="M54.0731655,0.569208 C54.0731655,30.3848651 29.8156571,54.6423735 0,54.6423735 L0,32.6481446 C17.6884973,32.6481446 32.0789366,18.2577053 32.0789366,0.569208 C32.0789366,0.38026921 32.0757477,0.18893879 32.0733561,0 L54.0683823,0 C54.0731655,0.18893879 54.0731655,0.38026921 54.0731655,0.569208" id="Fill-9"></path>
                <path d="M54.0731655,79.2115815 C54.0731655,109.027239 29.8156571,133.284747 0,133.284747 L0,111.290518 C17.6884973,111.290518 32.0789366,96.9000789 32.0789366,79.2115815 C32.0789366,79.0226428 32.0757477,78.8313123 32.0733561,78.6423735 L54.0683823,78.6423735 C54.0731655,78.8313123 54.0731655,79.0226428 54.0731655,79.2115815" id="Fill-11"></path>
                <path d="M78.0731655,54.0731655 C78.0731655,24.2575084 102.330674,0 132.146331,0 L132.146331,21.994229 C114.458631,21.994229 100.067395,36.3846682 100.067395,54.0731655 C100.067395,54.2621043 100.070583,54.4534348 100.072975,54.6423735 L78.078746,54.6423735 C78.0731655,54.4534348 78.0731655,54.2621043 78.0731655,54.0731655" id="Fill-13"></path>
                <path d="M78.0731655,132.715539 C78.0731655,102.899882 102.330674,78.6423735 132.146331,78.6423735 L132.146331,100.636603 C114.457834,100.636603 100.067395,115.027042 100.067395,132.715539 C100.067395,132.904478 100.070583,133.095808 100.072975,133.284747 L78.078746,133.284747 C78.0731655,133.095808 78.0731655,132.904478 78.0731655,132.715539" id="Fill-15"></path>
                <path d="M210.219497,0.569208 C210.219497,30.3848651 185.961988,54.6423735 156.146331,54.6423735 L156.146331,32.6481446 C173.834031,32.6481446 188.225268,18.2577053 188.225268,0.569208 C188.225268,0.38026921 188.222079,0.18893879 188.219687,0 L210.213916,0 C210.219497,0.18893879 210.219497,0.38026921 210.219497,0.569208" id="Fill-33"></path>
                <path d="M210.219497,79.2115815 C210.219497,109.027239 185.961988,133.284747 156.146331,133.284747 L156.146331,111.290518 C173.834031,111.290518 188.225268,96.9000789 188.225268,79.2115815 C188.225268,79.0226428 188.222079,78.8313123 188.219687,78.6423735 L210.213916,78.6423735 C210.219497,78.8313123 210.219497,79.0226428 210.219497,79.2115815" id="Fill-35"></path>
            </g>
        </g>
    </g>
</svg>