<?xml version="1.0" encoding="UTF-8"?>
<svg width="142px" height="1453px" viewBox="0 0 142 1453" version="1.1" xmlns="http://www.w3.org/2000/svg" xmlns:xlink="http://www.w3.org/1999/xlink">
    <title>Group 27</title>
    <g id="COMPONENTS" stroke="none" stroke-width="1" fill="none" fill-rule="evenodd" opacity="0.2">
        <g id="SECTIONS/-Mobile/-Benefity" transform="translate(19.000000, -187.000000)" stroke="#223146" stroke-width="2">
            <g id="Group-27" transform="translate(-18.000000, 188.772490)">
                <path d="M139.5,0.0937673251 C139.5,31.1958653 114.378103,56.5 83.5,56.5 L83.5,33.5567973 C101.818806,33.5567973 116.722032,18.5454612 116.722032,0.0937673251 C116.722032,-0.10332351 116.71873,-0.302909165 116.716253,-0.5 L139.495046,-0.5 C139.5,-0.302909165 139.5,-0.10332351 139.5,0.0937673251" id="Fill-81-Copy-3" transform="translate(111.500000, 28.000000) rotate(-270.000000) translate(-111.500000, -28.000000) "></path>
                <path d="M139.5,656.093767 C139.5,687.195865 114.378103,712.5 83.5,712.5 L83.5,689.556797 C101.818806,689.556797 116.722032,674.545461 116.722032,656.093767 C116.722032,655.896676 116.71873,655.697091 116.716253,655.5 L139.495046,655.5 C139.5,655.697091 139.5,655.896676 139.5,656.093767" id="Fill-81-Copy-4" transform="translate(111.500000, 684.000000) rotate(-270.000000) translate(-111.500000, -684.000000) "></path>
                <path d="M56.5,0.0937673251 C56.5,31.1958653 31.3781034,56.5 0.5,56.5 L0.5,33.5567973 C18.8188064,33.5567973 33.7220322,18.5454612 33.7220322,0.0937673251 C33.7220322,-0.10332351 33.7187297,-0.302909165 33.7162529,-0.5 L56.4942207,-0.5 C56.5,-0.302909165 56.5,-0.10332351 56.5,0.0937673251" id="Fill-83-Copy-3" transform="translate(28.500000, 28.000000) rotate(-270.000000) translate(-28.500000, -28.000000) "></path>
                <path d="M56.5,656.093767 C56.5,687.195865 31.3781034,712.5 0.5,712.5 L0.5,689.556797 C18.8188064,689.556797 33.7220322,674.545461 33.7220322,656.093767 C33.7220322,655.896676 33.7187297,655.697091 33.7162529,655.5 L56.4942207,655.5 C56.5,655.697091 56.5,655.896676 56.5,656.093767" id="Fill-83-Copy-4" transform="translate(28.500000, 684.000000) rotate(-270.000000) translate(-28.500000, -684.000000) "></path>
                <path d="M83.5,137.906233 C83.5,106.804135 108.621897,81.5 139.5,81.5 L139.5,104.443203 C121.182019,104.443203 106.277968,119.454539 106.277968,137.906233 C106.277968,138.103324 106.28127,138.302909 106.283747,138.5 L83.5057793,138.5 C83.5,138.302909 83.5,138.103324 83.5,137.906233" id="Fill-85-Copy-3" transform="translate(111.500000, 110.000000) rotate(-270.000000) translate(-111.500000, -110.000000) "></path>
                <path d="M83.5,793.906233 C83.5,762.804135 108.621897,737.5 139.5,737.5 L139.5,760.443203 C121.182019,760.443203 106.277968,775.454539 106.277968,793.906233 C106.277968,794.103324 106.28127,794.302909 106.283747,794.5 L83.5057793,794.5 C83.5,794.302909 83.5,794.103324 83.5,793.906233" id="Fill-85-Copy-4" transform="translate(111.500000, 766.000000) rotate(-270.000000) translate(-111.500000, -766.000000) "></path>
                <path d="M0.5,137.906233 C0.5,106.804135 25.6218966,81.5 56.5,81.5 L56.5,104.443203 C38.1811936,104.443203 23.2779678,119.454539 23.2779678,137.906233 C23.2779678,138.103324 23.2812703,138.302909 23.2837471,138.5 L0.505779324,138.5 C0.5,138.302909 0.5,138.103324 0.5,137.906233" id="Fill-87-Copy-3" transform="translate(28.500000, 110.000000) rotate(-270.000000) translate(-28.500000, -110.000000) "></path>
                <path d="M0.5,793.906233 C0.5,762.804135 25.6218966,737.5 56.5,737.5 L56.5,760.443203 C38.1811936,760.443203 23.2779678,775.454539 23.2779678,793.906233 C23.2779678,794.103324 23.2812703,794.302909 23.2837471,794.5 L0.505779324,794.5 C0.5,794.302909 0.5,794.103324 0.5,793.906233" id="Fill-87-Copy-4" transform="translate(28.500000, 766.000000) rotate(-270.000000) translate(-28.500000, -766.000000) "></path>
                <path d="M139.5,164.093767 C139.5,195.195865 114.378103,220.5 83.5,220.5 L83.5,197.556797 C101.818806,197.556797 116.722032,182.545461 116.722032,164.093767 C116.722032,163.896676 116.71873,163.697091 116.716253,163.5 L139.495046,163.5 C139.5,163.697091 139.5,163.896676 139.5,164.093767" id="Fill-90-Copy-3" transform="translate(111.500000, 192.000000) rotate(-270.000000) translate(-111.500000, -192.000000) "></path>
                <path d="M139.5,820.093767 C139.5,851.195865 114.378103,876.5 83.5,876.5 L83.5,853.556797 C101.818806,853.556797 116.722032,838.545461 116.722032,820.093767 C116.722032,819.896676 116.71873,819.697091 116.716253,819.5 L139.495046,819.5 C139.5,819.697091 139.5,819.896676 139.5,820.093767" id="Fill-90-Copy-4" transform="translate(111.500000, 848.000000) rotate(-270.000000) translate(-111.500000, -848.000000) "></path>
                <path d="M56.5,164.093767 C56.5,195.195865 31.3781034,220.5 0.5,220.5 L0.5,197.556797 C18.8188064,197.556797 33.7220322,182.545461 33.7220322,164.093767 C33.7220322,163.896676 33.7187297,163.697091 33.7162529,163.5 L56.4950463,163.5 C56.5,163.697091 56.5,163.896676 56.5,164.093767" id="Fill-92-Copy-3" transform="translate(28.500000, 192.000000) rotate(-270.000000) translate(-28.500000, -192.000000) "></path>
                <path d="M56.5,820.093767 C56.5,851.195865 31.3781034,876.5 0.5,876.5 L0.5,853.556797 C18.8188064,853.556797 33.7220322,838.545461 33.7220322,820.093767 C33.7220322,819.896676 33.7187297,819.697091 33.7162529,819.5 L56.4950463,819.5 C56.5,819.697091 56.5,819.896676 56.5,820.093767" id="Fill-92-Copy-4" transform="translate(28.500000, 848.000000) rotate(-270.000000) translate(-28.500000, -848.000000) "></path>
                <path d="M83.5,301.906233 C83.5,270.804135 108.621897,245.5 139.5,245.5 L139.5,268.443203 C121.182019,268.443203 106.277968,283.454539 106.277968,301.906233 C106.277968,302.103324 106.28127,302.302909 106.283747,302.5 L83.5057793,302.5 C83.5,302.302909 83.5,302.103324 83.5,301.906233" id="Fill-94-Copy-3" transform="translate(111.500000, 274.000000) rotate(-270.000000) translate(-111.500000, -274.000000) "></path>
                <path d="M83.5,957.906233 C83.5,926.804135 108.621897,901.5 139.5,901.5 L139.5,924.443203 C121.182019,924.443203 106.277968,939.454539 106.277968,957.906233 C106.277968,958.103324 106.28127,958.302909 106.283747,958.5 L83.5057793,958.5 C83.5,958.302909 83.5,958.103324 83.5,957.906233" id="Fill-94-Copy-4" transform="translate(111.500000, 930.000000) rotate(-270.000000) translate(-111.500000, -930.000000) "></path>
                <path d="M0.5,301.906233 C0.5,270.804135 25.6218966,245.5 56.5,245.5 L56.5,268.443203 C38.1811936,268.443203 23.2779678,283.454539 23.2779678,301.906233 C23.2779678,302.103324 23.2812703,302.302909 23.2837471,302.5 L0.505779324,302.5 C0.5,302.302909 0.5,302.103324 0.5,301.906233" id="Fill-96-Copy-3" transform="translate(28.500000, 274.000000) rotate(-270.000000) translate(-28.500000, -274.000000) "></path>
                <path d="M0.5,957.906233 C0.5,926.804135 25.6218966,901.5 56.5,901.5 L56.5,924.443203 C38.1811936,924.443203 23.2779678,939.454539 23.2779678,957.906233 C23.2779678,958.103324 23.2812703,958.302909 23.2837471,958.5 L0.505779324,958.5 C0.5,958.302909 0.5,958.103324 0.5,957.906233" id="Fill-96-Copy-4" transform="translate(28.500000, 930.000000) rotate(-270.000000) translate(-28.500000, -930.000000) "></path>
                <path d="M139.5,328.093767 C139.5,359.195865 114.378103,384.5 83.5,384.5 L83.5,361.556797 C101.817981,361.556797 116.722032,346.545461 116.722032,328.093767 C116.722032,327.896676 116.71873,327.697091 116.716253,327.5 L139.494221,327.5 C139.5,327.697091 139.5,327.896676 139.5,328.093767" id="Fill-115-Copy-3" transform="translate(111.500000, 356.000000) rotate(-270.000000) translate(-111.500000, -356.000000) "></path>
                <path d="M139.5,984.093767 C139.5,1015.19587 114.378103,1040.5 83.5,1040.5 L83.5,1017.5568 C101.817981,1017.5568 116.722032,1002.54546 116.722032,984.093767 C116.722032,983.896676 116.71873,983.697091 116.716253,983.5 L139.494221,983.5 C139.5,983.697091 139.5,983.896676 139.5,984.093767" id="Fill-115-Copy-4" transform="translate(111.500000, 1012.000000) rotate(-270.000000) translate(-111.500000, -1012.000000) "></path>
                <path d="M139.5,1312.09377 C139.5,1343.19587 114.378103,1368.5 83.5,1368.5 L83.5,1345.5568 C101.817981,1345.5568 116.722032,1330.54546 116.722032,1312.09377 C116.722032,1311.89668 116.71873,1311.69709 116.716253,1311.5 L139.494221,1311.5 C139.5,1311.69709 139.5,1311.89668 139.5,1312.09377" id="Fill-115-Copy-5" transform="translate(111.500000, 1340.000000) rotate(-270.000000) translate(-111.500000, -1340.000000) "></path>
                <path d="M56.5,328.093767 C56.5,359.195865 31.3781034,384.5 0.5,384.5 L0.5,361.556797 C18.8179808,361.556797 33.7220322,346.545461 33.7220322,328.093767 C33.7220322,327.896676 33.7187297,327.697091 33.7162529,327.5 L56.4942207,327.5 C56.5,327.697091 56.5,327.896676 56.5,328.093767" id="Fill-117-Copy-3" transform="translate(28.500000, 356.000000) rotate(-270.000000) translate(-28.500000, -356.000000) "></path>
                <path d="M56.5,984.093767 C56.5,1015.19587 31.3781034,1040.5 0.5,1040.5 L0.5,1017.5568 C18.8179808,1017.5568 33.7220322,1002.54546 33.7220322,984.093767 C33.7220322,983.896676 33.7187297,983.697091 33.7162529,983.5 L56.4942207,983.5 C56.5,983.697091 56.5,983.896676 56.5,984.093767" id="Fill-117-Copy-4" transform="translate(28.500000, 1012.000000) rotate(-270.000000) translate(-28.500000, -1012.000000) "></path>
                <path d="M56.5,1312.09377 C56.5,1343.19587 31.3781034,1368.5 0.5,1368.5 L0.5,1345.5568 C18.8179808,1345.5568 33.7220322,1330.54546 33.7220322,1312.09377 C33.7220322,1311.89668 33.7187297,1311.69709 33.7162529,1311.5 L56.4942207,1311.5 C56.5,1311.69709 56.5,1311.89668 56.5,1312.09377" id="Fill-117-Copy-5" transform="translate(28.500000, 1340.000000) rotate(-270.000000) translate(-28.500000, -1340.000000) "></path>
                <path d="M83.5,465.906233 C83.5,434.804135 108.621897,409.5 139.5,409.5 L139.5,432.443203 C121.182019,432.443203 106.277968,447.454539 106.277968,465.906233 C106.277968,466.103324 106.28127,466.302909 106.283747,466.5 L83.5057793,466.5 C83.5,466.302909 83.5,466.103324 83.5,465.906233" id="Fill-119-Copy-3" transform="translate(111.500000, 438.000000) rotate(-270.000000) translate(-111.500000, -438.000000) "></path>
                <path d="M83.5,1121.90623 C83.5,1090.80413 108.621897,1065.5 139.5,1065.5 L139.5,1088.4432 C121.182019,1088.4432 106.277968,1103.45454 106.277968,1121.90623 C106.277968,1122.10332 106.28127,1122.30291 106.283747,1122.5 L83.5057793,1122.5 C83.5,1122.30291 83.5,1122.10332 83.5,1121.90623" id="Fill-119-Copy-4" transform="translate(111.500000, 1094.000000) rotate(-270.000000) translate(-111.500000, -1094.000000) "></path>
                <path d="M83.5,1449.90623 C83.5,1418.80413 108.621897,1393.5 139.5,1393.5 L139.5,1416.4432 C121.182019,1416.4432 106.277968,1431.45454 106.277968,1449.90623 C106.277968,1450.10332 106.28127,1450.30291 106.283747,1450.5 L83.5057793,1450.5 C83.5,1450.30291 83.5,1450.10332 83.5,1449.90623" id="Fill-119-Copy-5" transform="translate(111.500000, 1422.000000) rotate(-270.000000) translate(-111.500000, -1422.000000) "></path>
                <path d="M0.5,465.906233 C0.5,434.804135 25.6218966,409.5 56.5,409.5 L56.5,432.443203 C38.1820192,432.443203 23.2779678,447.454539 23.2779678,465.906233 C23.2779678,466.103324 23.2812703,466.302909 23.2837471,466.5 L0.505779324,466.5 C0.5,466.302909 0.5,466.103324 0.5,465.906233" id="Fill-121-Copy-3" transform="translate(28.500000, 438.000000) rotate(-270.000000) translate(-28.500000, -438.000000) "></path>
                <path d="M0.5,1121.90623 C0.5,1090.80413 25.6218966,1065.5 56.5,1065.5 L56.5,1088.4432 C38.1820192,1088.4432 23.2779678,1103.45454 23.2779678,1121.90623 C23.2779678,1122.10332 23.2812703,1122.30291 23.2837471,1122.5 L0.505779324,1122.5 C0.5,1122.30291 0.5,1122.10332 0.5,1121.90623" id="Fill-121-Copy-4" transform="translate(28.500000, 1094.000000) rotate(-270.000000) translate(-28.500000, -1094.000000) "></path>
                <path d="M0.5,1449.90623 C0.5,1418.80413 25.6218966,1393.5 56.5,1393.5 L56.5,1416.4432 C38.1820192,1416.4432 23.2779678,1431.45454 23.2779678,1449.90623 C23.2779678,1450.10332 23.2812703,1450.30291 23.2837471,1450.5 L0.505779324,1450.5 C0.5,1450.30291 0.5,1450.10332 0.5,1449.90623" id="Fill-121-Copy-5" transform="translate(28.500000, 1422.000000) rotate(-270.000000) translate(-28.500000, -1422.000000) "></path>
                <path d="M139.5,492.093767 C139.5,523.195865 114.378103,548.5 83.5,548.5 L83.5,525.556797 C101.818806,525.556797 116.722032,510.545461 116.722032,492.093767 C116.722032,491.896676 116.71873,491.697091 116.716253,491.5 L139.495046,491.5 C139.5,491.697091 139.5,491.896676 139.5,492.093767" id="Fill-124-Copy-3" transform="translate(111.500000, 520.000000) rotate(-270.000000) translate(-111.500000, -520.000000) "></path>
                <path d="M139.5,1148.09377 C139.5,1179.19587 114.378103,1204.5 83.5,1204.5 L83.5,1181.5568 C101.818806,1181.5568 116.722032,1166.54546 116.722032,1148.09377 C116.722032,1147.89668 116.71873,1147.69709 116.716253,1147.5 L139.495046,1147.5 C139.5,1147.69709 139.5,1147.89668 139.5,1148.09377" id="Fill-124-Copy-4" transform="translate(111.500000, 1176.000000) rotate(-270.000000) translate(-111.500000, -1176.000000) "></path>
                <path d="M56.5,492.093767 C56.5,523.195865 31.3781034,548.5 0.5,548.5 L0.5,525.556797 C18.8188064,525.556797 33.7220322,510.545461 33.7220322,492.093767 C33.7220322,491.896676 33.7187297,491.697091 33.7162529,491.5 L56.4950463,491.5 C56.5,491.697091 56.5,491.896676 56.5,492.093767" id="Fill-126-Copy-3" transform="translate(28.500000, 520.000000) rotate(-270.000000) translate(-28.500000, -520.000000) "></path>
                <path d="M56.5,1148.09377 C56.5,1179.19587 31.3781034,1204.5 0.5,1204.5 L0.5,1181.5568 C18.8188064,1181.5568 33.7220322,1166.54546 33.7220322,1148.09377 C33.7220322,1147.89668 33.7187297,1147.69709 33.7162529,1147.5 L56.4950463,1147.5 C56.5,1147.69709 56.5,1147.89668 56.5,1148.09377" id="Fill-126-Copy-4" transform="translate(28.500000, 1176.000000) rotate(-270.000000) translate(-28.500000, -1176.000000) "></path>
                <path d="M0.5,629.906233 C0.5,598.804135 25.6218966,573.5 56.5,573.5 L56.5,596.443203 C38.1811936,596.443203 23.2779678,611.454539 23.2779678,629.906233 C23.2779678,630.103324 23.2812703,630.302909 23.2837471,630.5 L0.504953706,630.5 C0.5,630.302909 0.5,630.103324 0.5,629.906233" id="Fill-130-Copy-4" transform="translate(28.500000, 602.000000) rotate(-270.000000) translate(-28.500000, -602.000000) "></path>
                <path d="M0.5,1285.90623 C0.5,1254.80413 25.6218966,1229.5 56.5,1229.5 L56.5,1252.4432 C38.1811936,1252.4432 23.2779678,1267.45454 23.2779678,1285.90623 C23.2779678,1286.10332 23.2812703,1286.30291 23.2837471,1286.5 L0.504953706,1286.5 C0.5,1286.30291 0.5,1286.10332 0.5,1285.90623" id="Fill-130-Copy-6" transform="translate(28.500000, 1258.000000) rotate(-270.000000) translate(-28.500000, -1258.000000) "></path>
                <path d="M83.5,629.906233 C83.5,598.804135 108.621897,573.5 139.5,573.5 L139.5,596.443203 C121.181194,596.443203 106.277968,611.454539 106.277968,629.906233 C106.277968,630.103324 106.28127,630.302909 106.283747,630.5 L83.5049537,630.5 C83.5,630.302909 83.5,630.103324 83.5,629.906233" id="Fill-130-Copy-5" transform="translate(111.500000, 602.000000) rotate(-270.000000) translate(-111.500000, -602.000000) "></path>
                <path d="M83.5,1285.90623 C83.5,1254.80413 108.621897,1229.5 139.5,1229.5 L139.5,1252.4432 C121.181194,1252.4432 106.277968,1267.45454 106.277968,1285.90623 C106.277968,1286.10332 106.28127,1286.30291 106.283747,1286.5 L83.5049537,1286.5 C83.5,1286.30291 83.5,1286.10332 83.5,1285.90623" id="Fill-130-Copy-7" transform="translate(111.500000, 1258.000000) rotate(-270.000000) translate(-111.500000, -1258.000000) "></path>
            </g>
        </g>
    </g>
</svg>