<?xml version="1.0" encoding="UTF-8"?>
<svg width="450px" height="796px" viewBox="0 0 450 796" version="1.1" xmlns="http://www.w3.org/2000/svg" xmlns:xlink="http://www.w3.org/1999/xlink">
    <title>Group</title>
    <g id="COMPONENTS" stroke="none" stroke-width="1" fill="none" fill-rule="evenodd">
        <g id="SECTIONS/-Mobile/-Basic-Form" transform="translate(18.000000, -119.000000)" stroke="#ED4036" stroke-width="2">
            <g id="Group" transform="translate(-17.000000, 120.000000)">
                <path d="M447.5,0.0937673251 C447.5,31.1958653 422.378103,56.5 391.5,56.5 L391.5,33.5567973 C409.818806,33.5567973 424.722032,18.5454612 424.722032,0.0937673251 C424.722032,-0.10332351 424.71873,-0.302909165 424.716253,-0.5 L447.495046,-0.5 C447.5,-0.302909165 447.5,-0.10332351 447.5,0.0937673251" id="Fill-90-Copy-3" transform="translate(419.500000, 28.000000) scale(-1, 1) rotate(-270.000000) translate(-419.500000, -28.000000) "></path>
                <path d="M391.5,137.906233 C391.5,106.804135 416.621897,81.5 447.5,81.5 L447.5,104.443203 C429.182019,104.443203 414.277968,119.454539 414.277968,137.906233 C414.277968,138.103324 414.28127,138.302909 414.283747,138.5 L391.505779,138.5 C391.5,138.302909 391.5,138.103324 391.5,137.906233" id="Fill-94-Copy-3" transform="translate(419.500000, 110.000000) scale(-1, 1) rotate(-270.000000) translate(-419.500000, -110.000000) "></path>
                <path d="M391.5,547.906233 C391.5,516.804135 416.621897,491.5 447.5,491.5 L447.5,514.443203 C429.182019,514.443203 414.277968,529.454539 414.277968,547.906233 C414.277968,548.103324 414.28127,548.302909 414.283747,548.5 L391.505779,548.5 C391.5,548.302909 391.5,548.103324 391.5,547.906233" id="Fill-94-Copy-5" transform="translate(419.500000, 520.000000) scale(-1, 1) rotate(-270.000000) translate(-419.500000, -520.000000) "></path>
                <path d="M447.5,164.093767 C447.5,195.195865 422.378103,220.5 391.5,220.5 L391.5,197.556797 C409.817981,197.556797 424.722032,182.545461 424.722032,164.093767 C424.722032,163.896676 424.71873,163.697091 424.716253,163.5 L447.494221,163.5 C447.5,163.697091 447.5,163.896676 447.5,164.093767" id="Fill-115-Copy-3" transform="translate(419.500000, 192.000000) scale(-1, 1) rotate(-270.000000) translate(-419.500000, -192.000000) "></path>
                <path d="M447.5,574.093767 C447.5,605.195865 422.378103,630.5 391.5,630.5 L391.5,607.556797 C409.817981,607.556797 424.722032,592.545461 424.722032,574.093767 C424.722032,573.896676 424.71873,573.697091 424.716253,573.5 L447.494221,573.5 C447.5,573.697091 447.5,573.896676 447.5,574.093767" id="Fill-115-Copy-6" transform="translate(419.500000, 602.000000) scale(-1, 1) rotate(-270.000000) translate(-419.500000, -602.000000) "></path>
                <path d="M391.5,301.906233 C391.5,270.804135 416.621897,245.5 447.5,245.5 L447.5,268.443203 C429.182019,268.443203 414.277968,283.454539 414.277968,301.906233 C414.277968,302.103324 414.28127,302.302909 414.283747,302.5 L391.505779,302.5 C391.5,302.302909 391.5,302.103324 391.5,301.906233" id="Fill-119-Copy-3" transform="translate(419.500000, 274.000000) scale(-1, 1) rotate(-270.000000) translate(-419.500000, -274.000000) "></path>
                <path d="M391.5,711.906233 C391.5,680.804135 416.621897,655.5 447.5,655.5 L447.5,678.443203 C429.182019,678.443203 414.277968,693.454539 414.277968,711.906233 C414.277968,712.103324 414.28127,712.302909 414.283747,712.5 L391.505779,712.5 C391.5,712.302909 391.5,712.103324 391.5,711.906233" id="Fill-119-Copy-6" transform="translate(419.500000, 684.000000) scale(-1, 1) rotate(-270.000000) translate(-419.500000, -684.000000) "></path>
                <path d="M447.5,328.093767 C447.5,359.195865 422.378103,384.5 391.5,384.5 L391.5,361.556797 C409.818806,361.556797 424.722032,346.545461 424.722032,328.093767 C424.722032,327.896676 424.71873,327.697091 424.716253,327.5 L447.495046,327.5 C447.5,327.697091 447.5,327.896676 447.5,328.093767" id="Fill-124-Copy-3" transform="translate(419.500000, 356.000000) scale(-1, 1) rotate(-270.000000) translate(-419.500000, -356.000000) "></path>
                <path d="M447.5,738.093767 C447.5,769.195865 422.378103,794.5 391.5,794.5 L391.5,771.556797 C409.818806,771.556797 424.722032,756.545461 424.722032,738.093767 C424.722032,737.896676 424.71873,737.697091 424.716253,737.5 L447.495046,737.5 C447.5,737.697091 447.5,737.896676 447.5,738.093767" id="Fill-124-Copy-5" transform="translate(419.500000, 766.000000) scale(-1, 1) rotate(-270.000000) translate(-419.500000, -766.000000) "></path>
                <path d="M369.3,738.093767 C369.3,769.195865 344.178103,794.5 313.3,794.5 L313.3,771.556797 C331.618806,771.556797 346.522032,756.545461 346.522032,738.093767 C346.522032,737.896676 346.51873,737.697091 346.516253,737.5 L369.295046,737.5 C369.3,737.697091 369.3,737.896676 369.3,738.093767" id="Fill-124-Copy-7" transform="translate(341.300000, 766.000000) scale(1, -1) rotate(-270.000000) translate(-341.300000, -766.000000) "></path>
                <path d="M291.1,738.093767 C291.1,769.195865 265.978103,794.5 235.1,794.5 L235.1,771.556797 C253.418806,771.556797 268.322032,756.545461 268.322032,738.093767 C268.322032,737.896676 268.31873,737.697091 268.316253,737.5 L291.095046,737.5 C291.1,737.697091 291.1,737.896676 291.1,738.093767" id="Fill-124-Copy-8" transform="translate(263.100000, 766.000000) scale(-1, 1) rotate(-270.000000) translate(-263.100000, -766.000000) "></path>
                <path d="M212.9,738.093767 C212.9,769.195865 187.778103,794.5 156.9,794.5 L156.9,771.556797 C175.218806,771.556797 190.122032,756.545461 190.122032,738.093767 C190.122032,737.896676 190.11873,737.697091 190.116253,737.5 L212.895046,737.5 C212.9,737.697091 212.9,737.896676 212.9,738.093767" id="Fill-124-Copy-9" transform="translate(184.900000, 766.000000) scale(1, -1) rotate(-270.000000) translate(-184.900000, -766.000000) "></path>
                <path d="M134.7,738.093767 C134.7,769.195865 109.578103,794.5 78.7,794.5 L78.7,771.556797 C97.0188064,771.556797 111.922032,756.545461 111.922032,738.093767 C111.922032,737.896676 111.91873,737.697091 111.916253,737.5 L134.695046,737.5 C134.7,737.697091 134.7,737.896676 134.7,738.093767" id="Fill-124-Copy-10" transform="translate(106.700000, 766.000000) scale(-1, 1) rotate(-270.000000) translate(-106.700000, -766.000000) "></path>
                <path d="M391.5,465.906233 C391.5,434.804135 416.621897,409.5 447.5,409.5 L447.5,432.443203 C429.181194,432.443203 414.277968,447.454539 414.277968,465.906233 C414.277968,466.103324 414.28127,466.302909 414.283747,466.5 L391.504954,466.5 C391.5,466.302909 391.5,466.103324 391.5,465.906233" id="Fill-130-Copy-5" transform="translate(419.500000, 438.000000) scale(-1, 1) rotate(-270.000000) translate(-419.500000, -438.000000) "></path>
                <path d="M56.5,0.0937673251 C56.5,31.1958653 31.3781034,56.5 0.5,56.5 L0.5,33.5567973 C18.8188064,33.5567973 33.7220322,18.5454612 33.7220322,0.0937673251 C33.7220322,-0.10332351 33.7187297,-0.302909165 33.7162529,-0.5 L56.4950463,-0.5 C56.5,-0.302909165 56.5,-0.10332351 56.5,0.0937673251" id="Fill-90-Copy-3" transform="translate(28.500000, 28.000000) scale(1, -1) rotate(-270.000000) translate(-28.500000, -28.000000) "></path>
                <path d="M0.5,137.906233 C0.5,106.804135 25.6218966,81.5 56.5,81.5 L56.5,104.443203 C38.1820192,104.443203 23.2779678,119.454539 23.2779678,137.906233 C23.2779678,138.103324 23.2812703,138.302909 23.2837471,138.5 L0.505779324,138.5 C0.5,138.302909 0.5,138.103324 0.5,137.906233" id="Fill-94-Copy-3" transform="translate(28.500000, 110.000000) scale(1, -1) rotate(-270.000000) translate(-28.500000, -110.000000) "></path>
                <path d="M0.5,547.906233 C0.5,516.804135 25.6218966,491.5 56.5,491.5 L56.5,514.443203 C38.1820192,514.443203 23.2779678,529.454539 23.2779678,547.906233 C23.2779678,548.103324 23.2812703,548.302909 23.2837471,548.5 L0.505779324,548.5 C0.5,548.302909 0.5,548.103324 0.5,547.906233" id="Fill-94-Copy-6" transform="translate(28.500000, 520.000000) scale(1, -1) rotate(-270.000000) translate(-28.500000, -520.000000) "></path>
                <path d="M56.5,164.093767 C56.5,195.195865 31.3781034,220.5 0.5,220.5 L0.5,197.556797 C18.8179808,197.556797 33.7220322,182.545461 33.7220322,164.093767 C33.7220322,163.896676 33.7187297,163.697091 33.7162529,163.5 L56.4942207,163.5 C56.5,163.697091 56.5,163.896676 56.5,164.093767" id="Fill-115-Copy-3" transform="translate(28.500000, 192.000000) scale(1, -1) rotate(-270.000000) translate(-28.500000, -192.000000) "></path>
                <path d="M56.5,574.093767 C56.5,605.195865 31.3781034,630.5 0.5,630.5 L0.5,607.556797 C18.8179808,607.556797 33.7220322,592.545461 33.7220322,574.093767 C33.7220322,573.896676 33.7187297,573.697091 33.7162529,573.5 L56.4942207,573.5 C56.5,573.697091 56.5,573.896676 56.5,574.093767" id="Fill-115-Copy-7" transform="translate(28.500000, 602.000000) scale(1, -1) rotate(-270.000000) translate(-28.500000, -602.000000) "></path>
                <path d="M0.5,301.906233 C0.5,270.804135 25.6218966,245.5 56.5,245.5 L56.5,268.443203 C38.1820192,268.443203 23.2779678,283.454539 23.2779678,301.906233 C23.2779678,302.103324 23.2812703,302.302909 23.2837471,302.5 L0.505779324,302.5 C0.5,302.302909 0.5,302.103324 0.5,301.906233" id="Fill-119-Copy-3" transform="translate(28.500000, 274.000000) scale(1, -1) rotate(-270.000000) translate(-28.500000, -274.000000) "></path>
                <path d="M0.5,711.906233 C0.5,680.804135 25.6218966,655.5 56.5,655.5 L56.5,678.443203 C38.1820192,678.443203 23.2779678,693.454539 23.2779678,711.906233 C23.2779678,712.103324 23.2812703,712.302909 23.2837471,712.5 L0.505779324,712.5 C0.5,712.302909 0.5,712.103324 0.5,711.906233" id="Fill-119-Copy-7" transform="translate(28.500000, 684.000000) scale(1, -1) rotate(-270.000000) translate(-28.500000, -684.000000) "></path>
                <path d="M56.5,328.093767 C56.5,359.195865 31.3781034,384.5 0.5,384.5 L0.5,361.556797 C18.8188064,361.556797 33.7220322,346.545461 33.7220322,328.093767 C33.7220322,327.896676 33.7187297,327.697091 33.7162529,327.5 L56.4950463,327.5 C56.5,327.697091 56.5,327.896676 56.5,328.093767" id="Fill-124-Copy-3" transform="translate(28.500000, 356.000000) scale(1, -1) rotate(-270.000000) translate(-28.500000, -356.000000) "></path>
                <path d="M56.5,738.093767 C56.5,769.195865 31.3781034,794.5 0.5,794.5 L0.5,771.556797 C18.8188064,771.556797 33.7220322,756.545461 33.7220322,738.093767 C33.7220322,737.896676 33.7187297,737.697091 33.7162529,737.5 L56.4950463,737.5 C56.5,737.697091 56.5,737.896676 56.5,738.093767" id="Fill-124-Copy-6" transform="translate(28.500000, 766.000000) scale(1, -1) rotate(-270.000000) translate(-28.500000, -766.000000) "></path>
                <path d="M0.5,465.906233 C0.5,434.804135 25.6218966,409.5 56.5,409.5 L56.5,432.443203 C38.1811936,432.443203 23.2779678,447.454539 23.2779678,465.906233 C23.2779678,466.103324 23.2812703,466.302909 23.2837471,466.5 L0.504953706,466.5 C0.5,466.302909 0.5,466.103324 0.5,465.906233" id="Fill-130-Copy-5" transform="translate(28.500000, 438.000000) scale(1, -1) rotate(-270.000000) translate(-28.500000, -438.000000) "></path>
            </g>
        </g>
    </g>
</svg>