<?xml version="1.0" encoding="UTF-8"?>
<svg width="135px" height="136px" viewBox="0 0 135 136" version="1.1" xmlns="http://www.w3.org/2000/svg" xmlns:xlink="http://www.w3.org/1999/xlink">
    <title>Group 13 Copy</title>
    <g id="COMPONENTS" stroke="none" stroke-width="1" fill="none" fill-rule="evenodd">
        <g id="SECTIONS/-Mobile/-Produkty" transform="translate(-317.000000, -68.000000)" stroke="#ED4036" stroke-width="2">
            <g id="Group-32" transform="translate(-11.000000, 68.000000)">
                <g id="Group-13-Copy" transform="translate(329.000000, 1.000000)">
                    <path d="M54.0731655,1.06873984 C54.0731655,30.884397 29.8156571,55.1419054 0,55.1419054 L0,33.1476764 C17.6884973,33.1476764 32.0789366,18.7572372 32.0789366,1.06873984 C32.0789366,0.879801048 32.0757477,0.688470628 32.0733561,0.499531838 L54.0683823,0.499531838 C54.0731655,0.688470628 54.0731655,0.879801048 54.0731655,1.06873984" id="Fill-1"></path>
                    <path d="M54.0731655,79.1274855 C54.0731655,108.943143 29.8156571,133.200651 0,133.200651 L0,111.206422 C17.6884973,111.206422 32.0789366,96.8159828 32.0789366,79.1274855 C32.0789366,78.9385467 32.0757477,78.7472162 32.0733561,78.5582775 L54.0675851,78.5582775 C54.0731655,78.7472162 54.0731655,78.9385467 54.0731655,79.1274855" id="Fill-3"></path>
                    <path d="M77.9894681,54.0731655 C77.9894681,24.2575084 102.246976,0 132.062634,0 L132.062634,21.994229 C114.374933,21.994229 99.9836971,36.3846682 99.9836971,54.0731655 C99.9836971,54.2621043 99.9868859,54.4534348 99.9892775,54.6423735 L77.9950485,54.6423735 C77.9894681,54.4534348 77.9894681,54.2621043 77.9894681,54.0731655" id="Fill-5"></path>
                    <path d="M77.9894681,132.631762 C77.9894681,102.816105 102.246976,78.5585963 132.062634,78.5585963 L132.062634,100.552825 C114.374136,100.552825 99.9836971,114.943265 99.9836971,132.631762 C99.9836971,132.820701 99.9868859,133.012031 99.9892775,133.20097 L77.9950485,133.20097 C77.9894681,133.012031 77.9894681,132.820701 77.9894681,132.631762" id="Fill-7"></path>
                </g>
            </g>
        </g>
    </g>
</svg>