<?xml version="1.0" encoding="UTF-8"?>
<svg width="205px" height="127px" viewBox="0 0 205 127" version="1.1" xmlns="http://www.w3.org/2000/svg" xmlns:xlink="http://www.w3.org/1999/xlink">
    <title>Group 28</title>
    <g id="COMPONENTS" stroke="none" stroke-width="1" fill="none" fill-rule="evenodd">
        <g id="SECTIONS/-Mobile/-Recenzie" transform="translate(59.000000, -123.000000)" stroke="#ED4036" stroke-width="2">
            <g id="Group-28" transform="translate(-57.000000, 125.000000)">
                <path d="M16.6285932,106.275197 C16.6285932,56.8855019 56.8112038,16.7028913 106.200899,16.7028913 L106.200899,53.136375 C76.9011886,53.136375 53.062077,76.974166 53.062077,106.275197 C53.062077,106.588174 53.0673593,106.905114 53.0713211,107.218091 L16.6378373,107.218091 C16.6285932,106.905114 16.6285932,106.588174 16.6285932,106.275197" id="Fill-121" transform="translate(61.414746, 61.960491) rotate(-30.000000) translate(-61.414746, -61.960491) "></path>
                <path d="M94.7991012,105.902013 C94.7991012,56.5123184 134.981712,16.3297077 184.371407,16.3297077 L184.371407,52.7631915 C155.071697,52.7631915 131.232585,76.6009825 131.232585,105.902013 C131.232585,106.214991 131.237867,106.53193 131.241829,106.844907 L94.8083453,106.844907 C94.7991012,106.53193 94.7991012,106.214991 94.7991012,105.902013" id="Fill-121-Copy" transform="translate(139.585254, 61.587308) rotate(-30.000000) translate(-139.585254, -61.587308) "></path>
            </g>
        </g>
    </g>
</svg>