<?xml version="1.0" encoding="UTF-8"?>
<svg width="94px" height="94px" viewBox="0 0 94 94" version="1.1" xmlns="http://www.w3.org/2000/svg" xmlns:xlink="http://www.w3.org/1999/xlink">
    <title>Group</title>
    <defs>
        <circle id="path-1" cx="39" cy="39" r="39"></circle>
        <path d="M44.1194679,28.164067 L56.6243897,49.8392648 C57.1763679,50.7960269 56.8482256,52.0191027 55.8914635,52.5710808 C55.5875571,52.7464115 55.2428745,52.8387097 54.8920186,52.8387097 L29.882175,52.8387097 C28.7776055,52.8387097 27.882175,51.9432792 27.882175,50.8387097 C27.882175,50.4878537 27.9744732,50.1431712 28.1498038,49.8392648 L40.6547256,28.164067 C41.2067038,27.2073048 42.4297795,26.8791626 43.3865417,27.4311408 C43.6910129,27.6067972 43.9438115,27.8595958 44.1194679,28.164067 Z" id="path-2"></path>
    </defs>
    <g id="DESIGN---Web" stroke="none" stroke-width="1" fill="none" fill-rule="evenodd">
        <g id="best-pozicka.sk---Design---Kontakt" transform="translate(-787.000000, -732.000000)">
            <g id="Group" transform="translate(795.000000, 740.000000)">
                <g id="Oval">
                    <circle stroke="#FCC800" stroke-width="2" stroke-linejoin="square" fill="#223146" fill-rule="evenodd" cx="39" cy="39" r="38"></circle>
                    <circle stroke="#223146" stroke-width="8" cx="39" cy="39" r="43"></circle>
                </g>
                <g id="Triangle" transform="translate(42.387097, 39.000000) rotate(-270.000000) translate(-42.387097, -39.000000) ">
                    <path stroke="#FCC800" stroke-width="2" d="M42.1279682,28.1976691 C42.3751489,28.1313523 42.6476287,28.1593318 42.8868192,28.2973263 C43.0390548,28.3851546 43.1654541,28.5115539 43.2532824,28.6637895 L43.2532824,28.6637895 L55.7582041,50.3389872 C55.8961987,50.5781778 55.9241782,50.8506575 55.8578614,51.0978382 C55.7915446,51.345019 55.6309316,51.5669007 55.391741,51.7048953 C55.2397878,51.7925606 55.0674465,51.8387097 54.8920186,51.8387097 L54.8920186,51.8387097 L29.882175,51.8387097 C29.6060326,51.8387097 29.3560326,51.7267809 29.1750682,51.5458165 C28.9941038,51.3648521 28.882175,51.1148521 28.882175,50.8387097 C28.882175,50.6632817 28.9283241,50.4909404 29.0159894,50.3389872 L29.0159894,50.3389872 L41.5209112,28.6637895 C41.6589057,28.4245989 41.8807875,28.2639859 42.1279682,28.1976691 Z" stroke-linejoin="square" fill="#223146" fill-rule="evenodd"></path>
                    <path stroke="#223146" stroke-width="4" d="M41.3505825,25.3001406 C42.3393055,25.0348734 43.4292244,25.1467914 44.3859866,25.6987696 C44.9949289,26.0500825 45.5005262,26.5556798 45.8518391,27.1646221 L45.8518391,27.1646221 L58.3567609,48.8398199 C58.9087391,49.796582 59.020657,50.886501 58.7553899,51.8752239 C58.4901228,52.8639469 57.8476705,53.7514738 56.8909084,54.303452 C56.2830956,54.6541133 55.5937305,54.8387097 54.8920186,54.8387097 L54.8920186,54.8387097 L29.882175,54.8387097 C28.7776055,54.8387097 27.7776055,54.3909944 27.0537479,53.6671368 C26.3298902,52.9432792 25.882175,51.9432792 25.882175,50.8387097 C25.882175,50.1369977 26.0667714,49.4476327 26.4174327,48.8398199 L26.4174327,48.8398199 L38.9223544,27.1646221 C39.4743326,26.2078599 40.3618596,25.5654077 41.3505825,25.3001406 Z"></path>
                </g>
            </g>
        </g>
    </g>
</svg>