<?xml version="1.0" encoding="UTF-8"?>
<svg width="145px" height="23px" viewBox="0 0 145 23" version="1.1" xmlns="http://www.w3.org/2000/svg" xmlns:xlink="http://www.w3.org/1999/xlink">
    <title>Group 3</title>
    <g id="DESIGN---Web" stroke="none" stroke-width="1" fill="none" fill-rule="evenodd">
        <g id="best-pozicka.sk---Design---Pôžičky-(HOME)" transform="translate(-694.000000, -976.000000)">
            <g id="Group-14" transform="translate(581.000000, 947.000000)">
                <g id="Group-4" transform="translate(35.000000, 21.000000)">
                    <g id="Group-3" transform="translate(78.000000, 8.000000)">
                        <path d="M5.54322094,21 C4.96024879,20.9993498 4.39253251,20.8148958 3.92186216,20.4732121 C3.07989477,19.8724979 2.65753639,18.8467038 2.83441186,17.8320899 L3.32351185,14.9764317 C3.39126457,14.5742169 3.25417845,14.1647686 2.95741292,13.8829688 L0.841812427,11.8685287 C0.088045339,11.1579109 -0.188508635,10.0808003 0.130566674,9.09839933 C0.44750263,8.10373832 1.3110375,7.37805304 2.35106851,7.23236526 L5.26467192,6.80547144 C5.67675574,6.74613499 6.03349531,6.4901778 6.21971197,6.12023945 L7.51477194,3.51864367 C7.97719754,2.58684845 8.93321983,1.99772535 9.97907548,2.00004104 L9.98703254,2.00004104 C11.0283996,1.9943713 11.9826762,2.57656456 12.4484318,3.50175425 L13.760169,6.09367266 C13.9483942,6.46229734 14.3066336,6.71580841 14.718869,6.77210472 L17.6346358,7.17814986 C18.6696769,7.31516424 19.5349085,8.02757536 19.8624072,9.01244394 C20.1899059,9.99731253 19.922088,11.0814704 19.1728381,11.8039 L17.071018,13.8327054 C16.7746911,14.1161208 16.6394056,14.5272085 16.7099867,14.9297595 L17.2171716,17.7821944 C17.3996488,18.7960563 16.9832796,19.824407 16.1449168,20.430455 C15.2991698,21.0535592 14.1694902,21.1422998 13.2356549,20.6589883 L10.6244866,19.3208166 C10.2515511,19.1293858 9.80798604,19.1309959 9.43646906,19.3251291 L6.83325774,20.6816326 C6.43556162,20.8899995 5.99284907,20.9992562 5.54322094,21 Z" id="Path" fill="#FCC800" fill-rule="nonzero"></path>
                        <path d="M35.5432209,21 C34.9602488,20.9993498 34.3925325,20.8148958 33.9218622,20.4732121 C33.0798948,19.8724979 32.6575364,18.8467038 32.8344119,17.8320899 L33.3235119,14.9764317 C33.3912646,14.5742169 33.2541784,14.1647686 32.9574129,13.8829688 L30.8418124,11.8685287 C30.0880453,11.1579109 29.8114914,10.0808003 30.1305667,9.09839933 C30.4475026,8.10373832 31.3110375,7.37805304 32.3510685,7.23236526 L35.2646719,6.80547144 C35.6767557,6.74613499 36.0334953,6.4901778 36.219712,6.12023945 L37.5147719,3.51864367 C37.9771975,2.58684845 38.9332198,1.99772535 39.9790755,2.00004104 L39.9870325,2.00004104 C41.0283996,1.9943713 41.9826762,2.57656456 42.4484318,3.50175425 L43.760169,6.09367266 C43.9483942,6.46229734 44.3066336,6.71580841 44.718869,6.77210472 L47.6346358,7.17814986 C48.6696769,7.31516424 49.5349085,8.02757536 49.8624072,9.01244394 C50.1899059,9.99731253 49.922088,11.0814704 49.1728381,11.8039 L47.071018,13.8327054 C46.7746911,14.1161208 46.6394056,14.5272085 46.7099867,14.9297595 L47.2171716,17.7821944 C47.3996488,18.7960563 46.9832796,19.824407 46.1449168,20.430455 C45.2991698,21.0535592 44.1694902,21.1422998 43.2356549,20.6589883 L40.6244866,19.3208166 C40.2515511,19.1293858 39.807986,19.1309959 39.4364691,19.3251291 L36.8332577,20.6816326 C36.4355616,20.8899995 35.9928491,20.9992562 35.5432209,21 Z" id="Path" fill="#FCC800" fill-rule="nonzero"></path>
                        <path d="M65.5432209,21 C64.9602488,20.9993498 64.3925325,20.8148958 63.9218622,20.4732121 C63.0798948,19.8724979 62.6575364,18.8467038 62.8344119,17.8320899 L63.3235119,14.9764317 C63.3912646,14.5742169 63.2541784,14.1647686 62.9574129,13.8829688 L60.8418124,11.8685287 C60.0880453,11.1579109 59.8114914,10.0808003 60.1305667,9.09839933 C60.4475026,8.10373832 61.3110375,7.37805304 62.3510685,7.23236526 L65.2646719,6.80547144 C65.6767557,6.74613499 66.0334953,6.4901778 66.219712,6.12023945 L67.5147719,3.51864367 C67.9771975,2.58684845 68.9332198,1.99772535 69.9790755,2.00004104 L69.9870325,2.00004104 C71.0283996,1.9943713 71.9826762,2.57656456 72.4484318,3.50175425 L73.760169,6.09367266 C73.9483942,6.46229734 74.3066336,6.71580841 74.718869,6.77210472 L77.6346358,7.17814986 C78.6696769,7.31516424 79.5349085,8.02757536 79.8624072,9.01244394 C80.1899059,9.99731253 79.922088,11.0814704 79.1728381,11.8039 L77.071018,13.8327054 C76.7746911,14.1161208 76.6394056,14.5272085 76.7099867,14.9297595 L77.2171716,17.7821944 C77.3996488,18.7960563 76.9832796,19.824407 76.1449168,20.430455 C75.2991698,21.0535592 74.1694902,21.1422998 73.2356549,20.6589883 L70.6244866,19.3208166 C70.2515511,19.1293858 69.807986,19.1309959 69.4364691,19.3251291 L66.8332577,20.6816326 C66.4355616,20.8899995 65.9928491,20.9992562 65.5432209,21 Z" id="Path" fill="#FCC800" fill-rule="nonzero"></path>
                        <path d="M95.5432209,21 C94.9602488,20.9993498 94.3925325,20.8148958 93.9218622,20.4732121 C93.0798948,19.8724979 92.6575364,18.8467038 92.8344119,17.8320899 L93.3235119,14.9764317 C93.3912646,14.5742169 93.2541784,14.1647686 92.9574129,13.8829688 L90.8418124,11.8685287 C90.0880453,11.1579109 89.8114914,10.0808003 90.1305667,9.09839933 C90.4475026,8.10373832 91.3110375,7.37805304 92.3510685,7.23236526 L95.2646719,6.80547144 C95.6767557,6.74613499 96.0334953,6.4901778 96.219712,6.12023945 L97.5147719,3.51864367 C97.9771975,2.58684845 98.9332198,1.99772535 99.9790755,2.00004104 L99.9870325,2.00004104 C101.0284,1.9943713 101.982676,2.57656456 102.448432,3.50175425 L103.760169,6.09367266 C103.948394,6.46229734 104.306634,6.71580841 104.718869,6.77210472 L107.634636,7.17814986 C108.669677,7.31516424 109.534908,8.02757536 109.862407,9.01244394 C110.189906,9.99731253 109.922088,11.0814704 109.172838,11.8039 L107.071018,13.8327054 C106.774691,14.1161208 106.639406,14.5272085 106.709987,14.9297595 L107.217172,17.7821944 C107.399649,18.7960563 106.98328,19.824407 106.144917,20.430455 C105.29917,21.0535592 104.16949,21.1422998 103.235655,20.6589883 L100.624487,19.3208166 C100.251551,19.1293858 99.807986,19.1309959 99.4364691,19.3251291 L96.8332577,20.6816326 C96.4355616,20.8899995 95.9928491,20.9992562 95.5432209,21 Z" id="Path" fill="#FCC800" fill-rule="nonzero"></path>
                        <path d="M125.543221,21 C124.960249,20.9993498 124.392533,20.8148958 123.921862,20.4732121 C123.079895,19.8724979 122.657536,18.8467038 122.834412,17.8320899 L123.323512,14.9764317 C123.391265,14.5742169 123.254178,14.1647686 122.957413,13.8829688 L120.841812,11.8685287 C120.088045,11.1579109 119.811491,10.0808003 120.130567,9.09839933 C120.447503,8.10373832 121.311037,7.37805304 122.351069,7.23236526 L125.264672,6.80547144 C125.676756,6.74613499 126.033495,6.4901778 126.219712,6.12023945 L127.514772,3.51864367 C127.977198,2.58684845 128.93322,1.99772535 129.979075,2.00004104 L129.987033,2.00004104 C131.0284,1.9943713 131.982676,2.57656456 132.448432,3.50175425 L133.760169,6.09367266 C133.948394,6.46229734 134.306634,6.71580841 134.718869,6.77210472 L137.634636,7.17814986 C138.669677,7.31516424 139.534908,8.02757536 139.862407,9.01244394 C140.189906,9.99731253 139.922088,11.0814704 139.172838,11.8039 L137.071018,13.8327054 C136.774691,14.1161208 136.639406,14.5272085 136.709987,14.9297595 L137.217172,17.7821944 C137.399649,18.7960563 136.98328,19.824407 136.144917,20.430455 C135.29917,21.0535592 134.16949,21.1422998 133.235655,20.6589883 L130.624487,19.3208166 C130.251551,19.1293858 129.807986,19.1309959 129.436469,19.3251291 L126.833258,20.6816326 C126.435562,20.8899995 125.992849,20.9992562 125.543221,21 Z" id="Path-Copy" fill="#FCC800" fill-rule="nonzero"></path>
                        <rect id="Rectangle" fill="#FFFFFF" x="130" y="0" width="15" height="23"></rect>
                        <path d="M125.543221,21 C124.960249,20.9993498 124.392533,20.8148958 123.921862,20.4732121 C123.079895,19.8724979 122.657536,18.8467038 122.834412,17.8320899 L123.323512,14.9764317 C123.391265,14.5742169 123.254178,14.1647686 122.957413,13.8829688 L120.841812,11.8685287 C120.088045,11.1579109 119.811491,10.0808003 120.130567,9.09839933 C120.447503,8.10373832 121.311037,7.37805304 122.351069,7.23236526 L125.264672,6.80547144 C125.676756,6.74613499 126.033495,6.4901778 126.219712,6.12023945 L127.514772,3.51864367 C127.977198,2.58684845 128.93322,1.99772535 129.979075,2.00004104 L129.987033,2.00004104 C131.0284,1.9943713 131.982676,2.57656456 132.448432,3.50175425 L133.760169,6.09367266 C133.948394,6.46229734 134.306634,6.71580841 134.718869,6.77210472 L137.634636,7.17814986 C138.669677,7.31516424 139.534908,8.02757536 139.862407,9.01244394 C140.189906,9.99731253 139.922088,11.0814704 139.172838,11.8039 L137.071018,13.8327054 C136.774691,14.1161208 136.639406,14.5272085 136.709987,14.9297595 L137.217172,17.7821944 C137.399649,18.7960563 136.98328,19.824407 136.144917,20.430455 C135.29917,21.0535592 134.16949,21.1422998 133.235655,20.6589883 L130.624487,19.3208166 C130.251551,19.1293858 129.807986,19.1309959 129.436469,19.3251291 L126.833258,20.6816326 C126.435562,20.8899995 125.992849,20.9992562 125.543221,21 Z M129.987062,3.47174351 L129.983447,3.47174351 C129.499077,3.46590024 129.054804,3.73835217 128.843179,4.17117127 L127.548119,6.77276705 L127.548119,6.77312766 C127.146006,7.57582841 126.373466,8.13189162 125.48032,8.26150111 L122.566717,8.68839493 C122.085997,8.75099953 121.685927,9.08579773 121.542219,9.54574443 C121.393499,9.99278195 121.520364,10.4849133 121.867081,10.8059378 L123.982614,12.8204148 C124.634779,13.4395395 124.934881,14.3399216 124.783507,15.2232968 L124.294436,18.0789771 C124.210908,18.542008 124.405028,19.0111724 124.792212,19.2820409 C125.185716,19.572649 125.713128,19.61035 126.144468,19.3787043 L128.747679,18.0214869 C129.547712,17.6051838 130.501725,17.6019657 131.304586,18.0128619 L133.915754,19.3510336 C134.348464,19.5796163 134.875345,19.5382819 135.266565,19.2450608 C135.652791,18.9718962 135.844664,18.5011688 135.758555,18.0380451 L135.25137,15.1852717 C135.09462,14.3023384 135.389604,13.3997302 136.038556,12.776598 L138.140369,10.7481385 C138.486308,10.4250456 138.610709,9.9311945 138.458718,9.48434643 C138.312037,9.02586166 137.909852,8.6943077 137.429152,8.6355925 L134.513378,8.22954736 C133.619248,8.10646067 132.84289,7.55528396 132.436163,6.75482527 L131.124433,4.16256834 C130.911606,3.73330191 130.468725,3.46436141 129.987062,3.47174351 Z" id="Shape" fill="#FCC800" fill-rule="nonzero"></path>
                    </g>
                </g>
            </g>
        </g>
    </g>
</svg>