<?xml version="1.0" encoding="UTF-8"?>
<svg width="44px" height="45px" viewBox="0 0 44 45" version="1.1" xmlns="http://www.w3.org/2000/svg" xmlns:xlink="http://www.w3.org/1999/xlink">
    <title>noun-call-3953796 copy 2</title>
    <g id="COMPONENTS" stroke="none" stroke-width="1" fill="none" fill-rule="evenodd">
        <g id="SECTIONS/-Desktop/-Kontaktujte-nas-Centrala" transform="translate(-876.000000, -117.000000)" fill="#223146" fill-rule="nonzero">
            <g id="noun-call-3953796-copy-2" transform="translate(876.000000, 117.000000)">
                <path d="M40.5743015,29.7600243 L33.6443525,27.7800389 C31.9969196,27.3056111 30.2217944,27.7629315 29.0086724,28.9743158 L25.2529858,32.7300024 C19.2642134,30.0313445 14.4688859,25.236017 11.770228,19.2472446 L15.5259146,15.491558 C16.737299,14.2784361 17.1946194,12.5033108 16.7201915,10.8558779 L14.7402061,3.92592897 C14.1635252,1.89645555 12.3086248,0.497257337 10.198811,0.500235165 L4.71456569,0.500235165 C2.11095677,0.500235165 0.000156483844,2.61088198 0.000156483844,5.2144909 L0.000156483844,8.35732489 C-0.0281556452,17.948052 3.78639721,27.1505193 10.5916652,33.9085652 C17.3497111,40.7138332 26.5521784,44.5283861 36.1429055,44.5000739 L39.2857395,44.5000739 C41.8893484,44.5000739 43.9999953,42.3892737 43.9999953,39.7856647 L43.9999953,34.3014194 C44.0029731,32.1916056 42.6037749,30.3367052 40.5743015,29.7600243 Z M40.8571565,39.7856647 C40.8571565,40.6535344 40.1536092,41.3572347 39.2857395,41.3572347 L36.1429055,41.3572347 C27.3854118,41.3838275 18.9816993,37.9035021 12.8073632,31.6928672 C6.59672828,25.5185312 3.11640288,17.1148186 3.14299568,8.35732489 L3.14299568,5.2144909 C3.14299568,4.34662126 3.84669605,3.64307391 4.71456569,3.64307391 L10.198811,3.64307391 C10.9248117,3.61623097 11.5745699,4.09055451 11.770228,4.79020831 L13.7659276,11.7201572 C13.9318603,12.2791963 13.7745716,12.8841529 13.3573591,13.2915742 L8.7845357,17.7858268 C8.33980595,18.2312457 8.20376897,18.8990636 8.43882396,19.4829572 C11.5046739,27.0231278 17.4899156,33.0027016 25.0329874,36.0614065 C25.612449,36.2895175 26.2719457,36.1539201 26.7144036,35.7156947 L31.2243704,31.205728 C31.6317917,30.7885155 32.2367482,30.6312268 32.7957873,30.7971595 L39.7257363,32.7928591 C40.4253901,32.9885172 40.8997136,33.6382754 40.8728707,34.3642761 L40.8571565,39.7856647 Z M23.5715696,2.07165692 C23.5715696,1.20378728 24.275117,0.500239924 25.1429866,0.500239924 C35.5574223,0.500239924 43.9999905,8.94280815 43.9999905,19.3572438 C43.9999905,20.2251135 43.2964431,20.9286608 42.4285735,20.9286608 C41.5607039,20.9286608 40.8571565,20.2251135 40.8571565,19.3572438 C40.8571565,15.1895868 39.2015612,11.1926262 36.2545827,8.24564772 C33.3076042,5.2986692 29.3106436,3.64307391 25.1429866,3.64307391 C24.275117,3.64307391 23.5715696,2.93952656 23.5715696,2.07165692 Z M23.5715696,9.92874188 C23.5715696,9.06087224 24.275117,8.35732489 25.1429866,8.35732489 C31.2180741,8.35732489 36.1429055,13.2821563 36.1429055,19.3572438 C36.1429055,20.2251135 35.4393582,20.9286608 34.5714885,20.9286608 C33.7036189,20.9286608 33.0000716,20.2251135 33.0000716,19.3572438 C33.0000716,17.2734153 32.1722739,15.274935 30.6987846,13.8014458 C29.2252954,12.3279565 27.2268151,11.5001589 25.1429866,11.5001589 C24.275117,11.5001589 23.5715696,10.7966115 23.5715696,9.92874188 Z" id="Shape"></path>
            </g>
        </g>
    </g>
</svg>