<?xml version="1.0" encoding="UTF-8"?>
<svg width="20px" height="20px" viewBox="0 0 20 20" version="1.1" xmlns="http://www.w3.org/2000/svg" xmlns:xlink="http://www.w3.org/1999/xlink">
    <title>noun-call-3953796 copy</title>
    <g id="COMPONENTS" stroke="none" stroke-width="1" fill="none" fill-rule="evenodd">
        <g id="FORM/-COMPONENTS/-Mobile/-MENUBAR/-Step2-Static" transform="translate(-358.000000, -38.000000)" fill="#FFFFFF" fill-rule="nonzero">
            <g id="noun-call-3953796-copy" transform="translate(358.000000, 38.000000)">
                <path d="M18.4428643,13.2999063 L15.2928875,12.3999129 C14.5440544,12.1842639 13.7371793,12.3921368 13.1857602,12.9427661 L11.4786299,14.6498964 C8.75646063,13.4232337 6.57676631,11.2435394 5.35010363,8.5213701 L7.05723391,6.81423982 C7.60786317,6.26282075 7.81573608,5.45594563 7.60008705,4.70711249 L6.70009368,1.5571357 C6.437966,0.634647786 5.59482946,-0.00135140194 4.63582318,2.15635358e-06 L2.14298441,2.15635358e-06 C0.959525805,2.15635358e-06 7.11290179e-05,0.959387072 7.11290179e-05,2.14284567 L7.11290179e-05,3.57140657 C-0.0127980205,7.93082799 1.72108964,12.1137677 4.81439329,15.1856067 C7.88623233,18.2789104 12.069172,20.012798 16.4285934,19.9999289 L17.8571543,19.9999289 C19.0406129,19.9999289 19.9999978,19.0404742 19.9999978,17.8570156 L19.9999978,15.3641768 C20.0013514,14.4051705 19.3653522,13.562034 18.4428643,13.2999063 Z M18.5714348,17.8570156 C18.5714348,18.2515018 18.2516405,18.5713656 17.8571543,18.5713656 L16.4285934,18.5713656 C12.4479145,18.5834532 8.62804512,17.0014871 5.82152873,14.1784713 C2.99851285,11.3719549 1.41654676,7.55208555 1.4286344,3.57140657 L1.4286344,2.14284567 C1.4286344,1.74835947 1.74849821,1.42856522 2.14298441,1.42856522 L4.63582318,1.42856522 C4.96582348,1.41636389 5.26116815,1.63196549 5.35010363,1.94998995 L6.2572398,5.09996674 C6.33266379,5.35407542 6.26116893,5.62905568 6.07152689,5.81424719 L3.99297077,7.85708928 C3.79082089,8.05955241 3.72898589,8.36310601 3.83582907,8.62851217 C5.22939721,12.0558624 7.94996162,14.7738506 11.3786306,16.1641709 C11.6420223,16.2678578 11.9417935,16.2062226 12.1429107,16.0070292 L14.1928956,13.9570443 C14.3780871,13.7674023 14.6530674,13.6959074 14.9071761,13.7713314 L18.0571529,14.6784676 C18.3751773,14.7674031 18.5907789,15.0627477 18.5785776,15.392748 L18.5714348,17.8570156 Z M10.7143498,0.714284771 C10.7143498,0.31979857 11.0341441,4.31959911e-06 11.4286303,4.31959911e-06 C16.1624647,4.31959911e-06 19.9999957,3.83753533 19.9999957,8.57136973 C19.9999957,8.96585593 19.6802014,9.28565018 19.2857152,9.28565018 C18.891229,9.28565018 18.5714348,8.96585593 18.5714348,8.57136973 C18.5714348,6.67698019 17.8188915,4.86017992 16.4793558,3.52064423 C15.1398201,2.18110854 13.3230198,1.42856522 11.4286303,1.42856522 C11.0341441,1.42856522 10.7143498,1.10877097 10.7143498,0.714284771 Z M10.7143498,4.28568703 C10.7143498,3.89120083 11.0341441,3.57140657 11.4286303,3.57140657 C14.1900337,3.57140657 16.4285934,5.80996633 16.4285934,8.57136973 C16.4285934,8.96585593 16.1087992,9.28565018 15.714313,9.28565018 C15.3198268,9.28565018 15.0000325,8.96585593 15.0000325,8.57136973 C15.0000325,7.62417496 14.6237609,6.71577482 13.953993,6.04600698 C13.2842252,5.37623913 12.375825,4.99996748 11.4286303,4.99996748 C11.0341441,4.99996748 10.7143498,4.68017323 10.7143498,4.28568703 Z" id="Shape"></path>
            </g>
        </g>
    </g>
</svg>