<?xml version="1.0" encoding="UTF-8"?>
<svg width="27px" height="27px" viewBox="0 0 27 27" version="1.1" xmlns="http://www.w3.org/2000/svg" xmlns:xlink="http://www.w3.org/1999/xlink">
    <title>noun-call-3953796 copy 2</title>
    <g id="DESIGN---Web" stroke="none" stroke-width="1" fill="none" fill-rule="evenodd">
        <g id="best-pozicka.sk---Mobile-Design---Kontakt" transform="translate(-72.000000, -1071.000000)" fill="#FFFFFF" fill-rule="nonzero">
            <g id="noun-call-3953796-copy-2" transform="translate(73.000000, 1071.000000)">
                <path d="M23.2882236,17.4609139 L19.1932538,16.2909225 C18.2197707,16.0105787 17.170833,16.2808135 16.4539882,16.9966316 L14.2347189,19.2159009 C10.6958988,17.6212394 7.86229621,14.7876368 6.26763472,11.2488168 L8.48690408,9.02954741 C9.20272212,8.31270261 9.4729569,7.26376496 9.19261317,6.29028188 L8.02262179,2.19531205 C7.6818558,0.996077761 6.5857783,0.169278817 5.33907013,0.171038442 L2.09837973,0.171038442 C0.559883546,0.171038442 -0.687407532,1.41823883 -0.687407532,2.95673501 L-0.687407532,4.81386419 C-0.704137427,10.481112 1.54991654,15.9189336 5.57121128,19.9123244 C9.56460203,23.9336191 15.0024236,26.1876731 20.6696715,26.1709432 L22.5268006,26.1709432 C24.0652968,26.1709432 25.3124972,24.9236521 25.3124972,23.3851559 L25.3124972,20.1444655 C25.3142568,18.8977573 24.4874579,17.8016798 23.2882236,17.4609139 Z M23.4553652,23.3851559 C23.4553652,23.897988 23.0396327,24.3138109 22.5268006,24.3138109 L20.6696715,24.3138109 C15.4947888,24.3295248 10.5289587,22.2729689 6.88048735,18.6030483 C3.21056671,14.954577 1.15401079,9.98874685 1.16972472,4.81386419 L1.16972472,2.95673501 C1.16972472,2.44390295 1.58554767,2.02817043 2.09837973,2.02817043 L5.33907013,2.02817043 C5.76807053,2.01230869 6.1520186,2.29259078 6.26763472,2.70602258 L7.44691174,6.8009924 C7.54496293,7.13133369 7.4520196,7.48880802 7.20548495,7.72955699 L4.50336201,10.3852517 C4.24056715,10.6484538 4.16018166,11.0430734 4.2990778,11.3881015 C6.11071637,15.8436568 9.64745011,19.3770414 14.1047198,21.1844578 C14.447129,21.3192507 14.8368315,21.239125 15.0982839,20.9801736 L17.7632643,18.3151933 C18.0040133,18.0686586 18.3614876,17.9757153 18.6918289,18.0737665 L22.7867987,19.2530435 C23.2002305,19.3686596 23.4805126,19.7526077 23.4646509,20.1816081 L23.4553652,23.3851559 Z M13.2411548,1.09960584 C13.2411548,0.586773781 13.6568873,0.171041255 14.1697193,0.171041255 C20.3237041,0.171041255 25.3124944,5.15983157 25.3124944,11.3138163 C25.3124944,11.8266484 24.8967619,12.2423809 24.3839298,12.2423809 C23.8710977,12.2423809 23.4553652,11.8266484 23.4553652,11.3138163 C23.4553652,8.85110989 22.4770589,6.48926953 20.7356625,4.74787313 C18.9942661,3.00647674 16.6324258,2.02817043 14.1697193,2.02817043 C13.6568873,2.02817043 13.2411548,1.6124379 13.2411548,1.09960584 Z M13.2411548,5.74242877 C13.2411548,5.22959671 13.6568873,4.81386419 14.1697193,4.81386419 C17.7595438,4.81386419 20.6696715,7.72399187 20.6696715,11.3138163 C20.6696715,11.8266484 20.2539389,12.2423809 19.7411069,12.2423809 C19.2282748,12.2423809 18.8125423,11.8266484 18.8125423,11.3138163 C18.8125423,10.0824631 18.3233891,8.90154291 17.4526909,8.03084471 C16.5819927,7.16014651 15.4010725,6.67099336 14.1697193,6.67099336 C13.6568873,6.67099336 13.2411548,6.25526083 13.2411548,5.74242877 Z" id="Shape"></path>
            </g>
        </g>
    </g>
</svg>