<?xml version="1.0" encoding="UTF-8"?>
<svg width="22px" height="16px" viewBox="0 0 22 16" version="1.1" xmlns="http://www.w3.org/2000/svg" xmlns:xlink="http://www.w3.org/1999/xlink">
    <title>+ copy 13</title>
    <g id="COMPONENTS" stroke="none" stroke-width="1" fill="none" fill-rule="evenodd">
        <g id="FORM/-COMPONENTS/-Desktop/-GDPR-CheckBox/-Succes" transform="translate(-3.000000, -1.000000)" fill="#223146" fill-rule="nonzero" stroke="#FFFFFF">
            <g id="Group" transform="translate(0.000000, -3.882035)">
                <g id="+-copy-13" transform="translate(13.772566, 10.006941) rotate(-45.000000) translate(-13.772566, -10.006941) translate(4.601747, 5.025809)">
                    <path d="M1.21011517,-0.5 C1.73269352,-0.5 2.14519629,-0.338108568 2.45997608,-0.042509071 C2.79085208,0.268205862 2.9605675,0.659901114 2.9605675,1.13637994 L2.9605675,1.13637994 L2.9605675,6.68810466 L17.1315245,7.16898499 C17.6214545,7.16898499 18.022259,7.32711131 18.3410482,7.62647592 C18.6719242,7.93719086 18.8416397,8.32888611 18.8416397,8.80536493 C18.8416397,9.28184376 18.6719242,9.67353901 18.3410482,9.98425395 C18.022259,10.2836186 17.6214545,10.4417449 17.1322238,10.4417444 L17.1322238,10.4417444 L2.4605675,10.4622642 C1.56712443,10.4622642 0.865291609,10.2023121 0.372919101,9.8021016 C-0.195349483,9.34020117 -0.5,8.68694015 -0.5,7.96226415 L-0.5,7.96226415 L-0.5,1.13637994 C-0.5,0.659901114 -0.330284579,0.268205862 0.000591424449,-0.042509071 C0.319380628,-0.341873682 0.720185122,-0.5 1.21011517,-0.5 Z" id="Path"></path>
                </g>
            </g>
        </g>
    </g>
</svg>