<?xml version="1.0" encoding="UTF-8"?>
<svg width="16px" height="17px" viewBox="0 0 16 17" version="1.1" xmlns="http://www.w3.org/2000/svg" xmlns:xlink="http://www.w3.org/1999/xlink">
    <title>+ copy 13</title>
    <g id="COMPONENTS" stroke="none" stroke-width="1" fill="none" fill-rule="evenodd">
        <g id="FORM/-COMPONENTS/-Mobile/-GDPR-CheckBox/-Succes" transform="translate(-4.000000, -2.000000)" fill="#FFFFFF" fill-rule="nonzero">
            <g id="+-copy-13" transform="translate(12.059678, 10.158994) rotate(-45.000000) translate(-12.059678, -10.158994) translate(5.103156, 5.985081)">
                <path d="M4.05578592e-16,6.48136358 L4.05578592e-16,6.44337907 L4.05578592e-16,6.44337907 L4.05578592e-16,0.952223508 C4.05578592e-16,0.677136717 0.0866936135,0.449661101 0.26008084,0.269796661 C0.433468067,0.0899322202 0.652751913,1.29798408e-16 0.917932378,1.29798408e-16 C1.20351134,1.29798408e-16 1.43299443,0.0899322202 1.60638166,0.269796661 C1.77976889,0.449661101 1.8664625,0.677136717 1.8664625,0.952223508 L1.8664625,5.44183285 C1.8664625,5.9941176 2.31417775,6.44183285 2.8664625,6.44183285 C2.86697751,6.44183285 2.86749252,6.44183246 2.86800752,6.44183166 L12.9951111,6.42618505 L12.9951111,6.42618505 C13.2602916,6.42618505 13.4795754,6.51611727 13.6529626,6.69598171 C13.8263499,6.87584615 13.9130435,7.10332177 13.9130435,7.37840856 C13.9130435,7.65349535 13.8263499,7.88097097 13.6529626,8.06083541 C13.4795754,8.24069985 13.2602916,8.33063207 12.9951111,8.33063207 L1.8664625,8.34782609 C0.835643726,8.34782609 3.09772878e-16,7.51218236 4.05578592e-16,6.48136358 Z" id="Path"></path>
            </g>
        </g>
    </g>
</svg>