<?xml version="1.0" encoding="UTF-8"?>
<svg width="32px" height="33px" viewBox="0 0 32 33" version="1.1" xmlns="http://www.w3.org/2000/svg" xmlns:xlink="http://www.w3.org/1999/xlink">
    <title>Shape</title>
    <g id="COMPONENTS" stroke="none" stroke-width="1" fill="none" fill-rule="evenodd">
        <g id="SECTIONS/-Desktop/-Map-Centrala" transform="translate(-826.000000, -428.000000)" fill="#223146" fill-rule="nonzero">
            <g id="Group-2" transform="translate(826.000000, 428.102564)">
                <path d="M16,0 C7.163444,0 0,7.163444 0,16 C0,24.836556 7.163444,32 16,32 C24.836556,32 32,24.836556 32,16 C32,11.7565362 30.3142906,7.68687356 27.3137085,4.6862915 C24.3131264,1.68570945 20.2434638,0 16,0 Z M26.4571429,24.8457143 L24.8914286,23.2685714 C24.4432889,22.8204318 23.7167111,22.8204318 23.2685715,23.2685715 C22.8204318,23.7167111 22.8204318,24.4432889 23.2685714,24.8914286 L24.8457143,26.4571429 C22.6839409,28.3249702 19.988853,29.4645845 17.1428571,29.7142857 L17.1428571,27.4285714 C17.1428571,26.7973889 16.6311826,26.2857143 16,26.2857143 C15.3688174,26.2857143 14.8571429,26.7973889 14.8571429,27.4285714 L14.8571429,29.7142857 C12.0177284,29.4807674 9.32334702,28.3614398 7.15428571,26.5142857 L8.73142857,24.9485714 C9.1795682,24.5004318 9.1795682,23.7738539 8.73142857,23.3257143 C8.28328895,22.8775747 7.55671105,22.8775747 7.10857143,23.3257143 L5.54285714,24.8457143 C3.6957031,22.676653 2.5763755,19.9822716 2.34285714,17.1428571 L4.57142857,17.1428571 C5.20261114,17.1428571 5.71428571,16.6311826 5.71428571,16 C5.71428571,15.3688174 5.20261114,14.8571429 4.57142857,14.8571429 L2.34285714,14.8571429 C2.5763755,12.0177284 3.6957031,9.32334702 5.54285714,7.15428571 L7.10857143,8.73142857 C7.32425009,8.94535602 7.61622516,9.06461344 7.92,9.06285714 C8.22377484,9.06461344 8.51574991,8.94535602 8.73142857,8.73142857 C8.94778589,8.51683817 9.0694838,8.22472861 9.0694838,7.92 C9.0694838,7.61527139 8.94778589,7.32316183 8.73142857,7.10857143 L7.15428571,5.54285714 C9.32334702,3.6957031 12.0177284,2.5763755 14.8571429,2.34285714 L14.8571429,4.57142857 C14.8571429,5.20261114 15.3688174,5.71428571 16,5.71428571 C16.6311826,5.71428571 17.1428571,5.20261114 17.1428571,4.57142857 L17.1428571,2.34285714 C19.9822716,2.5763755 22.676653,3.6957031 24.8457143,5.54285714 L23.2685714,7.10857143 C23.0522141,7.32316183 22.9305162,7.61527139 22.9305162,7.92 C22.9305162,8.22472861 23.0522141,8.51683817 23.2685714,8.73142857 C23.4842501,8.94535602 23.7762252,9.06461344 24.08,9.06285714 C24.3837748,9.06461344 24.6757499,8.94535602 24.8914286,8.73142857 L26.4571429,7.15428571 C28.3249702,9.31605908 29.4645845,12.011147 29.7142857,14.8571429 L27.4285714,14.8571429 C26.7973889,14.8571429 26.2857143,15.3688174 26.2857143,16 C26.2857143,16.6311826 26.7973889,17.1428571 27.4285714,17.1428571 L29.7142857,17.1428571 C29.4645845,19.988853 28.3249702,22.6839409 26.4571429,24.8457143 Z M20.24,18.6171429 C20.4563573,18.8317333 20.5780552,19.1238428 20.5780552,19.4285714 C20.5780552,19.7333 20.4563573,20.0254096 20.24,20.24 C20.0254096,20.4563573 19.7333,20.5780552 19.4285714,20.5780552 C19.1238428,20.5780552 18.8317333,20.4563573 18.6171429,20.24 L15.1885714,16.8114286 C14.974644,16.5957499 14.8553866,16.3037748 14.8571237,16 L14.8571237,9.14285714 C14.8571237,8.51167457 15.3688174,8 16,8 C16.6311826,8 17.1428571,8.51167457 17.1428571,9.14285714 L17.1428571,15.5314286 L20.24,18.6171429 Z" id="Shape"></path>
            </g>
        </g>
    </g>
</svg>