<?xml version="1.0" encoding="UTF-8"?>
<svg width="32px" height="37px" viewBox="0 0 32 37" version="1.1" xmlns="http://www.w3.org/2000/svg" xmlns:xlink="http://www.w3.org/1999/xlink">
    <title>Shape</title>
    <g id="COMPONENTS" stroke="none" stroke-width="1" fill="none" fill-rule="evenodd">
        <g id="SECTIONS/-Desktop/-Map-Centrala" transform="translate(-826.000000, -368.000000)" fill="#223146" fill-rule="nonzero">
            <g id="Group" transform="translate(826.000000, 368.000000)">
                <path d="M32,29.6556777 C32,33.8848352 24,36.1025641 16,36.1025641 C8,36.1025641 0,33.8848352 0,29.6556777 C0,28.4565568 0.68,26.7287912 4,25.2846886 C4.43348225,25.0912156 4.94077178,25.1360751 5.33077752,25.4023692 C5.72078326,25.6686633 5.93425406,26.1159354 5.89077753,26.5757026 C5.847301,27.0354697 5.55348227,27.4378823 5.12,27.6313553 C3.29333333,28.3663004 2.66666667,29.2172894 2.66666667,29.6556777 C2.66666667,31.1900366 8,33.5238095 16,33.5238095 C24,33.5238095 29.3333333,31.1900366 29.3333333,29.6556777 C29.3333333,29.2172894 28.7066667,28.3663004 26.9333333,27.6313553 C26.445663,27.4829729 26.0886679,27.0780034 26.0143448,26.5888696 C25.9400217,26.0997359 26.1614589,25.612574 26.5843756,25.3348017 C27.0072924,25.0570294 27.5572133,25.0375623 28,25.2846886 C31.32,26.7287912 32,28.4565568 32,29.6556777 Z M2.66666667,12.8937729 C2.66666667,5.77273876 8.63620334,1.77635684e-15 16,1.77635684e-15 C23.3637967,1.77635684e-15 29.3333333,5.77273876 29.3333333,12.8937729 C29.3333333,22.4996337 17.2533333,30.3906227 16.7333333,30.7258608 C16.2883567,31.0092407 15.7116433,31.0092407 15.2666667,30.7258608 C14.7466667,30.3906227 2.66666667,22.4996337 2.66666667,12.8937729 Z M5.33333333,12.8937729 C5.33333333,19.869304 13.4666667,26.2517216 16,28.0697436 C18.5333333,26.2517216 26.6666667,19.869304 26.6666667,12.8937729 C26.6666667,7.19694558 21.8910373,2.57875458 16,2.57875458 C10.1089627,2.57875458 5.33333333,7.19694558 5.33333333,12.8937729 Z M16,19.3406593 C12.3181017,19.3406593 9.33333333,16.45429 9.33333333,12.8937729 C9.33333333,9.33325583 12.3181017,6.44688645 16,6.44688645 C19.6818983,6.44688645 22.6666667,9.33325583 22.6666667,12.8937729 C22.6666667,16.45429 19.6818983,19.3406593 16,19.3406593 Z M16,16.7619048 C18.209139,16.7619048 20,15.0300831 20,12.8937729 C20,10.7574627 18.209139,9.02564103 16,9.02564103 C13.790861,9.02564103 12,10.7574627 12,12.8937729 C12,15.0300831 13.790861,16.7619048 16,16.7619048 Z" id="Shape"></path>
            </g>
        </g>
    </g>
</svg>