<?xml version="1.0" encoding="UTF-8"?>
<svg width="24px" height="27px" viewBox="0 0 24 27" version="1.1" xmlns="http://www.w3.org/2000/svg" xmlns:xlink="http://www.w3.org/1999/xlink">
    <title>noun-location-3953807 copy 2</title>
    <g id="DESIGN---Web" stroke="none" stroke-width="1" fill="none" fill-rule="evenodd">
        <g id="best-pozicka.sk---Mobile-Design---Kontakt" transform="translate(-73.000000, -1151.000000)" fill="#FFFFFF" fill-rule="nonzero">
            <g id="noun-location-3953807-copy-2" transform="translate(73.000000, 1152.000000)">
                <path d="M23.3125,21.2068868 C23.3125,24.2526011 17.5625,25.8497439 11.8125,25.8497439 C6.0625,25.8497439 0.3125,24.2526011 0.3125,21.2068868 C0.3125,20.3433154 0.80125,19.0990296 3.1875,18.0590296 C3.49906537,17.919696 3.86367972,17.9520026 4.14399634,18.1437797 C4.42431297,18.3355568 4.57774511,18.657669 4.54649635,18.9887797 C4.5152476,19.3198904 4.30406538,19.6096961 3.9925,19.7490296 C2.67958333,20.2783154 2.22916667,20.8911725 2.22916667,21.2068868 C2.22916667,22.3118868 6.0625,23.9926011 11.8125,23.9926011 C17.5625,23.9926011 21.3958333,22.3118868 21.3958333,21.2068868 C21.3958333,20.8911725 20.9454167,20.2783154 19.6708333,19.7490296 C19.3203203,19.642169 19.06373,19.3505219 19.0103103,18.9982622 C18.9568906,18.6460026 19.1160486,18.295163 19.42002,18.0951196 C19.7239914,17.8950762 20.1192471,17.8810565 20.4375,18.0590296 C22.82375,19.0990296 23.3125,20.3433154 23.3125,21.2068868 Z M2.22916667,9.13545821 C2.22916667,4.00709982 6.51977115,-0.150256077 11.8125,-0.150256077 C17.1052289,-0.150256077 21.3958333,4.00709982 21.3958333,9.13545821 C21.3958333,16.0533154 12.7133333,21.7361725 12.3395833,21.9776011 C12.0197564,22.1816829 11.6052436,22.1816829 11.2854167,21.9776011 C10.9116667,21.7361725 2.22916667,16.0533154 2.22916667,9.13545821 Z M4.14583333,9.13545821 C4.14583333,14.1590296 9.99166667,18.7554582 11.8125,20.0647439 C13.6333333,18.7554582 19.4791667,14.1590296 19.4791667,9.13545821 C19.4791667,5.0327715 16.0466831,1.70688678 11.8125,1.70688678 C7.57831692,1.70688678 4.14583333,5.0327715 4.14583333,9.13545821 Z M11.8125,13.7783154 C9.16613557,13.7783154 7.02083333,11.6996374 7.02083333,9.13545821 C7.02083333,6.57127901 9.16613557,4.49260107 11.8125,4.49260107 C14.4588644,4.49260107 16.6041667,6.57127901 16.6041667,9.13545821 C16.6041667,11.6996374 14.4588644,13.7783154 11.8125,13.7783154 Z M11.8125,11.9211725 C13.4003187,11.9211725 14.6875,10.6739657 14.6875,9.13545821 C14.6875,7.59695069 13.4003187,6.34974392 11.8125,6.34974392 C10.2246813,6.34974392 8.9375,7.59695069 8.9375,9.13545821 C8.9375,10.6739657 10.2246813,11.9211725 11.8125,11.9211725 Z" id="Shape"></path>
            </g>
        </g>
    </g>
</svg>