<?xml version="1.0" encoding="UTF-8"?>
<svg width="27px" height="19px" viewBox="0 0 27 19" version="1.1" xmlns="http://www.w3.org/2000/svg" xmlns:xlink="http://www.w3.org/1999/xlink">
    <title>noun-email-3953793 copy 2</title>
    <g id="DESIGN---Web" stroke="none" stroke-width="1" fill="none" fill-rule="evenodd">
        <g id="best-pozicka.sk---Mobile-Design---Kontakt" transform="translate(-73.000000, -1116.000000)" fill="#FFFFFF" fill-rule="nonzero">
            <g id="Group-43" transform="translate(73.000000, 1113.000000)">
                <g id="noun-email-3953793-copy-2" transform="translate(0.000000, 2.000000)">
                    <path d="M23.5267857,1.00436898 L3.09821429,1.00436898 C1.55970677,1.00436898 0.3125,2.21320015 0.3125,3.70436898 L0.3125,16.304369 C0.3125,17.7955378 1.55970677,19.004369 3.09821429,19.004369 L23.5267857,19.004369 C25.0652932,19.004369 26.3125,17.7955378 26.3125,16.304369 L26.3125,3.70436898 C26.3125,2.21320015 25.0652932,1.00436898 23.5267857,1.00436898 Z M23.0160714,2.80436898 L13.3125,11.480369 L3.60892857,2.80436898 L23.0160714,2.80436898 Z M23.5267857,17.204369 L3.09821429,17.204369 C2.58537845,17.204369 2.16964286,16.8014253 2.16964286,16.304369 L2.16964286,3.96536898 L12.6810714,13.361369 C13.0372279,13.6815144 13.5877721,13.6815144 13.9439286,13.361369 L24.4553571,3.96536898 L24.4553571,16.304369 C24.4553571,16.8014253 24.0396216,17.204369 23.5267857,17.204369 Z" id="Shape"></path>
                </g>
            </g>
        </g>
    </g>
</svg>