<?xml version="1.0" encoding="UTF-8"?>
<svg width="25px" height="25px" viewBox="0 0 25 25" version="1.1" xmlns="http://www.w3.org/2000/svg" xmlns:xlink="http://www.w3.org/1999/xlink">
    <title>Group</title>
    <g id="COMPONENTS" stroke="none" stroke-width="1" fill="none" fill-rule="evenodd">
        <g id="FORM/-COMPONENTS/-Desktop/-Field-Upload/-Static" transform="translate(-21.000000, -31.000000)" fill="#223146">
            <g id="Group" transform="translate(21.000000, 31.000000)">
                <circle id="Oval" opacity="0.249093192" cx="12.5" cy="12.5" r="12.5"></circle>
                <g id="+" transform="translate(8.000000, 8.000000)" fill-rule="nonzero">
                    <path d="M4.64,9.32 C4.46666667,9.32 4.32333333,9.26333333 4.21,9.15 C4.09666667,9.03666667 4.04,8.89333333 4.04,8.72 L4.04,5.26 L0.6,5.26 C0.426666667,5.26 0.283333333,5.20333333 0.17,5.09 C0.0566666667,4.97666667 0,4.83333333 0,4.66 C0,4.48666667 0.0566666667,4.34333333 0.17,4.23 C0.283333333,4.11666667 0.426666667,4.06 0.6,4.06 L4.04,4.06 L4.04,0.6 C4.04,0.426666667 4.09666667,0.283333333 4.21,0.17 C4.32333333,0.0566666667 4.46666667,0 4.64,0 C4.82666667,0 4.97666667,0.0566666667 5.09,0.17 C5.20333333,0.283333333 5.26,0.426666667 5.26,0.6 L5.26,4.06 L8.7,4.06 C8.87333333,4.06 9.01666667,4.11666667 9.13,4.23 C9.24333333,4.34333333 9.3,4.48666667 9.3,4.66 C9.3,4.83333333 9.24333333,4.97666667 9.13,5.09 C9.01666667,5.20333333 8.87333333,5.26 8.7,5.26 L5.26,5.26 L5.26,8.72 C5.26,8.89333333 5.20333333,9.03666667 5.09,9.15 C4.97666667,9.26333333 4.82666667,9.32 4.64,9.32 Z" id="Path"></path>
                </g>
            </g>
        </g>
    </g>
</svg>