<?xml version="1.0" encoding="UTF-8"?>
<svg width="19px" height="23px" viewBox="0 0 19 23" version="1.1" xmlns="http://www.w3.org/2000/svg" xmlns:xlink="http://www.w3.org/1999/xlink">
    <title>noun-delete-1950208 copy</title>
    <g id="COMPONENTS" stroke="none" stroke-width="1" fill="none" fill-rule="evenodd">
        <g id="FORM/-COMPONENTS/-Desktop/-Uploaded-File/-Hover-2---OP" transform="translate(-71.000000, -32.000000)" fill="#ED4036" fill-rule="nonzero">
            <g id="noun-delete-1950208-copy" transform="translate(71.000000, 32.000000)">
                <path d="M7.1245661,0 C6.47700834,0 5.93713834,0.522857173 5.93713834,1.15000761 L5.93713834,2.29999348 L1.18858542,2.29999348 C0.541027657,2.29999348 0,2.82285065 0,3.45000109 L0,4.60000869 C0,5.22718086 0.541027657,5.75112465 1.18858542,5.75112465 L1.78114153,5.75112465 L1.78114153,21.8500141 C1.78114153,22.4771863 2.32100547,23 2.96856928,23 L16.0302737,23 C16.6778373,23 17.2177015,22.4771646 17.2177015,21.8500141 L17.2177015,5.75112465 L17.8114159,5.75112465 C18.4589728,5.75112465 19,5.22715913 19,4.60000869 L19,3.45000109 C19,2.82285065 18.4589728,2.29999348 17.8114159,2.29999348 L13.0617044,2.29999348 L13.0617044,1.15000761 C13.0617044,0.522857173 12.5218347,0 11.8742769,0 L7.1245661,0 Z M7.1245661,1.15000761 L11.8742769,1.15000761 L11.8742769,2.29999348 L7.1245661,2.29999348 L7.1245661,1.15000761 Z M1.18858542,3.45000109 L7.1245661,3.45000109 L11.8742769,3.45000109 L17.8114159,3.45000109 L17.8114159,4.60000869 L1.18858542,4.60000869 L1.18858542,3.45000109 Z M2.96856928,5.75112465 L16.0302737,5.75112465 L16.0302737,21.8500141 L2.96856928,21.8500141 L2.96856928,5.75112465 Z M5.93018006,7.46484944 C5.77170121,7.46637534 5.62041242,7.52915855 5.50999112,7.63926345 C5.39956982,7.74936835 5.33918082,7.8976564 5.34226692,8.05111813 L5.34226692,19.5499989 C5.34226692,19.8678724 5.60834083,20.1255597 5.93655963,20.1255597 C6.26477843,20.1255597 6.53085234,19.8678724 6.53085234,19.5499989 L6.53085234,8.05111813 C6.53398525,7.89551132 6.47185932,7.74531966 6.35866369,7.63484593 C6.24546807,7.5243722 6.0908705,7.46305169 5.93018006,7.46484944 L5.93018006,7.46484944 Z M9.48898407,7.46477875 C9.33131446,7.46756019 9.18121769,7.53086336 9.07179703,7.64083782 C8.96237636,7.75081229 8.90262024,7.89842413 8.90570763,8.05111813 L8.90570763,19.5499989 C8.90570763,19.8678724 9.17178154,20.1255597 9.50000034,20.1255597 C9.82821914,20.1255597 10.094293,19.8678724 10.094293,19.5499989 L10.094293,8.05111813 C10.0974617,7.89471983 10.0347063,7.74382042 9.92049468,7.63320896 C9.80628307,7.5225975 9.65047242,7.46182043 9.48898407,7.46477875 L9.48898407,7.46477875 Z M13.0524306,7.46479979 C12.89476,7.46755871 12.7446617,7.53086122 12.6352398,7.64083585 C12.5258179,7.75081048 12.466061,7.89842317 12.4691483,8.05111813 L12.4691483,19.5499989 C12.4762844,19.8626105 12.7399976,20.1124277 13.0628622,20.1124277 C13.3857268,20.1124277 13.64944,19.8626105 13.6565761,19.5499989 L13.6565761,8.05111813 C13.6597349,7.89491904 13.5971373,7.74419805 13.483181,7.63362134 C13.3692247,7.52304463 13.213719,7.46213059 13.0524306,7.46479979 L13.0524306,7.46479979 Z" id="Shape"></path>
            </g>
        </g>
    </g>
</svg>