<?xml version="1.0" encoding="UTF-8"?>
<svg width="239px" height="465px" viewBox="0 0 239 465" version="1.1" xmlns="http://www.w3.org/2000/svg" xmlns:xlink="http://www.w3.org/1999/xlink">
    <title>Group 33 Copy</title>
    <g id="DESIGN---Web" stroke="none" stroke-width="1" fill="none" fill-rule="evenodd">
        <g id="best-pozicka.sk---Design---O-BestPôžičke" transform="translate(0.000000, -2538.000000)" stroke="#ED4036" stroke-width="2">
            <g id="Group-33-Copy" transform="translate(-26.000000, 2539.000000)">
                <path d="M67.828,0.714 C67.828,38.114 37.4,68.542 0,68.542 L0,40.953 C22.187,40.953 40.239,22.902 40.239,0.714 C40.239,0.477 40.235,0.237 40.232,1.70530257e-13 L67.821,1.70530257e-13 C67.828,0.237 67.828,0.477 67.828,0.714" id="Fill-51"></path>
                <path d="M97.828,67.8283 C97.828,30.4283 128.256,0.000299999999 165.656,0.000299999999 L165.656,27.5893 C143.469,27.5893 125.417,45.6403 125.417,67.8283 C125.417,68.0653 125.421,68.3053 125.424,68.5423 L97.835,68.5423 C97.828,68.3053 97.828,68.0653 97.828,67.8283" id="Fill-55"></path>
                <path d="M263.4842,0.714 C263.4842,38.114 233.0562,68.542 195.6562,68.542 L195.6562,40.953 C217.8442,40.953 235.8952,22.902 235.8952,0.714 C235.8952,0.477 235.8912,0.237 235.8882,1.70530257e-13 L263.4782,1.70530257e-13 C263.4842,0.237 263.4842,0.477 263.4842,0.714" id="Fill-59"></path>
                <path d="M67.828,99.8827 C67.828,137.2827 37.4,167.7107 0,167.7107 L0,140.1217 C22.187,140.1217 40.239,122.0707 40.239,99.8827 C40.239,99.6457 40.235,99.4057 40.232,99.1687 L67.821,99.1687 C67.828,99.4057 67.828,99.6457 67.828,99.8827" id="Fill-99"></path>
                <path d="M67.828,197.7977 C67.828,235.1977 37.4,265.6257 0,265.6257 L0,238.0367 C22.187,238.0367 40.239,219.9857 40.239,197.7977 C40.239,197.5607 40.235,197.3207 40.232,197.0837 L67.821,197.0837 C67.828,197.3207 67.828,197.5607 67.828,197.7977" id="Fill-101"></path>
                <path d="M97.828,166.3701 C97.828,128.9701 128.256,98.5421 165.656,98.5421 L165.656,126.1311 C143.469,126.1311 125.417,144.1821 125.417,166.3701 C125.417,166.6071 125.421,166.8471 125.424,167.0841 L97.835,167.0841 C97.828,166.8471 97.828,166.6071 97.828,166.3701" id="Fill-103"></path>
                <path d="M97.828,264.912 C97.828,227.512 128.256,197.084 165.656,197.084 L165.656,224.673 C143.469,224.673 125.417,242.724 125.417,264.912 C125.417,265.149 125.421,265.389 125.424,265.626 L97.835,265.626 C97.828,265.389 97.828,265.149 97.828,264.912" id="Fill-105"></path>
                <path d="M263.4842,99.8827 C263.4842,137.2827 233.0562,167.7107 195.6562,167.7107 L195.6562,140.1217 C217.8442,140.1217 235.8952,122.0707 235.8952,99.8827 C235.8952,99.6457 235.8912,99.4057 235.8882,99.1687 L263.4782,99.1687 C263.4842,99.4057 263.4842,99.6457 263.4842,99.8827" id="Fill-107"></path>
                <path d="M263.4842,197.7977 C263.4842,235.1977 233.0562,265.6257 195.6562,265.6257 L195.6562,238.0367 C217.8442,238.0367 235.8952,219.9857 235.8952,197.7977 C235.8952,197.5607 235.8912,197.3207 235.8882,197.0837 L263.4782,197.0837 C263.4842,197.3207 263.4842,197.5607 263.4842,197.7977" id="Fill-109"></path>
                <path d="M67.828,296.9664 C67.828,334.3664 37.4,364.7944 0,364.7944 L0,337.2054 C22.187,337.2054 40.239,319.1544 40.239,296.9664 C40.239,296.7294 40.235,296.4894 40.232,296.2524 L67.821,296.2524 C67.828,296.4894 67.828,296.7294 67.828,296.9664" id="Fill-115"></path>
                <path d="M67.828,394.8814 C67.828,432.2814 37.4,462.7094 0,462.7094 L0,435.1204 C22.187,435.1204 40.239,417.0694 40.239,394.8814 C40.239,394.6444 40.235,394.4044 40.232,394.1674 L67.821,394.1674 C67.828,394.4044 67.828,394.6444 67.828,394.8814" id="Fill-117"></path>
                <path d="M97.828,363.4539 C97.828,326.0539 128.256,295.6259 165.656,295.6259 L165.656,323.2149 C143.469,323.2149 125.417,341.2659 125.417,363.4539 C125.417,363.6909 125.421,363.9309 125.424,364.1679 L97.835,364.1679 C97.828,363.9309 97.828,363.6909 97.828,363.4539" id="Fill-119"></path>
                <path d="M97.828,461.9958 C97.828,424.5958 128.256,394.1678 165.656,394.1678 L165.656,421.7568 C143.469,421.7568 125.417,439.8078 125.417,461.9958 C125.417,462.2328 125.421,462.4728 125.424,462.7098 L97.835,462.7098 C97.828,462.4728 97.828,462.2328 97.828,461.9958" id="Fill-121"></path>
                <path d="M263.4842,296.9664 C263.4842,334.3664 233.0562,364.7944 195.6562,364.7944 L195.6562,337.2054 C217.8442,337.2054 235.8952,319.1544 235.8952,296.9664 C235.8952,296.7294 235.8912,296.4894 235.8882,296.2524 L263.4782,296.2524 C263.4842,296.4894 263.4842,296.7294 263.4842,296.9664" id="Fill-124"></path>
                <path d="M263.4842,394.8814 C263.4842,432.2814 233.0562,462.7094 195.6562,462.7094 L195.6562,435.1204 C217.8442,435.1204 235.8952,417.0694 235.8952,394.8814 C235.8952,394.6444 235.8912,394.4044 235.8882,394.1674 L263.4782,394.1674 C263.4842,394.4044 263.4842,394.6444 263.4842,394.8814" id="Fill-126"></path>
            </g>
        </g>
    </g>
</svg>